<svg width="216" height="216" viewBox="0 0 216 216" fill="none" xmlns="http://www.w3.org/2000/svg">
<g clip-path="url(#clip0_202_17)">
<path d="M88.2964 6.16148L93.7785 3.89073L93.9698 4.35267L96.7109 3.2173C97.6069 2.84615 98.5166 2.52102 99.4366 2.2419L99.2915 1.76344C101.181 1.19024 103.113 0.807806 105.059 0.61615L105.108 1.11375C107.031 0.924405 108.969 0.924406 110.892 1.11375L110.941 0.616152C112.887 0.80781 114.819 1.19024 116.709 1.76344L116.563 2.24191C117.483 2.52103 118.393 2.84616 119.289 3.2173L122.03 4.35268L122.222 3.89074L127.704 6.16149L127.512 6.62343L132.994 8.89418L133.186 8.43224L138.668 10.703L138.476 11.1649L143.959 13.4357L144.15 12.9738L149.632 15.2445L149.441 15.7064L154.923 17.9772L155.114 17.5153L160.596 19.786L160.405 20.2479L165.887 22.5187L166.078 22.0568L171.56 24.3275L171.369 24.7894L174.11 25.9248C175.006 26.296 175.879 26.7093 176.727 27.1625L176.963 26.7216C178.704 27.6522 180.341 28.7481 181.853 29.9889L181.535 30.3754C183.029 31.6013 184.399 32.971 185.625 34.4646L186.011 34.1474C187.252 35.6593 188.348 37.296 189.278 39.0373L188.837 39.273C189.291 40.1209 189.704 40.9941 190.075 41.8901L191.211 44.6311L191.673 44.4398L193.943 49.9219L193.481 50.1132L195.752 55.5953L196.214 55.4039L198.485 60.886L198.023 61.0774L200.294 66.5594L200.755 66.3681L203.026 71.8502L202.564 72.0415L204.835 77.5236L205.297 77.3322L207.568 82.8143L207.106 83.0057L209.377 88.4877L209.838 88.2964L212.109 93.7785L211.647 93.9698L212.783 96.7108C213.154 97.6069 213.479 98.5166 213.758 99.4366L214.237 99.2915C214.81 101.181 215.192 103.113 215.384 105.059L214.886 105.108C215.076 107.031 215.076 108.969 214.886 110.892L215.384 110.941C215.192 112.887 214.81 114.819 214.237 116.709L213.758 116.563C213.479 117.483 213.154 118.393 212.783 119.289L211.647 122.03L212.109 122.222L209.838 127.704L209.377 127.512L207.106 132.994L207.568 133.186L205.297 138.668L204.835 138.476L202.564 143.959L203.026 144.15L200.755 149.632L200.294 149.441L198.023 154.923L198.485 155.114L196.214 160.596L195.752 160.405L193.481 165.887L193.943 166.078L191.672 171.56L191.211 171.369L190.075 174.11C189.704 175.006 189.291 175.879 188.837 176.727L189.278 176.963C188.348 178.704 187.252 180.341 186.011 181.853L185.625 181.535C184.399 183.029 183.029 184.399 181.535 185.625L181.853 186.011C180.341 187.252 178.704 188.348 176.963 189.278L176.727 188.837C175.879 189.291 175.006 189.704 174.11 190.075L171.369 191.211L171.56 191.673L166.078 193.943L165.887 193.481L160.405 195.752L160.596 196.214L155.114 198.485L154.923 198.023L149.441 200.294L149.632 200.756L144.15 203.026L143.958 202.564L138.476 204.835L138.668 205.297L133.186 207.568L132.994 207.106L127.512 209.377L127.704 209.839L122.222 212.109L122.03 211.647L119.289 212.783C118.393 213.154 117.483 213.479 116.563 213.758L116.709 214.237C114.819 214.81 112.887 215.192 110.941 215.384L110.892 214.886C108.969 215.076 107.031 215.076 105.108 214.886L105.059 215.384C103.113 215.192 101.181 214.81 99.2915 214.237L99.4366 213.758C98.5166 213.479 97.6068 213.154 96.7108 212.783L93.9698 211.647L93.7785 212.109L88.2964 209.838L88.4877 209.377L83.0056 207.106L82.8143 207.568L77.3322 205.297L77.5236 204.835L72.0415 202.564L71.8502 203.026L66.3681 200.755L66.5594 200.294L61.0774 198.023L60.886 198.485L55.4039 196.214L55.5953 195.752L50.1132 193.481L49.9219 193.943L44.4398 191.672L44.6311 191.211L41.8901 190.075C40.9941 189.704 40.1209 189.291 39.273 188.837L39.0373 189.278C37.296 188.348 35.6593 187.252 34.1474 186.011L34.4646 185.625C32.971 184.399 31.6012 183.029 30.3754 181.535L29.9889 181.853C28.7481 180.341 27.6522 178.704 26.7216 176.963L27.1625 176.727C26.7093 175.879 26.296 175.006 25.9248 174.11L24.7894 171.369L24.3275 171.56L22.0567 166.078L22.5187 165.887L20.2479 160.405L19.786 160.596L17.5152 155.114L17.9772 154.923L15.7064 149.441L15.2445 149.632L12.9738 144.15L13.4357 143.958L11.1649 138.476L10.703 138.668L8.43229 133.186L8.89423 132.994L6.62348 127.512L6.16154 127.704L3.89079 122.222L4.35273 122.03L3.21736 119.289C2.84621 118.393 2.52108 117.483 2.24196 116.563L1.7635 116.709C1.1903 114.819 0.807867 112.887 0.616211 110.941L1.11381 110.892C0.924466 108.969 0.924467 107.031 1.11381 105.108L0.616213 105.059C0.80787 103.113 1.1903 101.181 1.7635 99.2915L2.24197 99.4366C2.52109 98.5166 2.84622 97.6068 3.21736 96.7108L4.35274 93.9698L3.8908 93.7785L6.16155 88.2964L6.62349 88.4877L8.89424 83.0056L8.4323 82.8143L10.703 77.3322L11.1649 77.5236L13.4357 72.0415L12.9738 71.8502L15.2445 66.3681L15.7064 66.5594L17.9772 61.0773L17.5153 60.886L19.786 55.4039L20.2479 55.5953L22.5187 50.1132L22.0568 49.9219L24.3275 44.4398L24.7894 44.6311L25.9248 41.8901C26.296 40.9941 26.7093 40.1209 27.1625 39.273L26.7216 39.0373C27.6522 37.296 28.7481 35.6593 29.9889 34.1474L30.3754 34.4646C31.6013 32.971 32.971 31.6012 34.4646 30.3754L34.1474 29.9889C35.6593 28.7481 37.296 27.6522 39.0373 26.7216L39.273 27.1625C40.1209 26.7093 40.9941 26.296 41.8901 25.9248L44.6311 24.7894L44.4398 24.3275L49.9219 22.0567L50.1132 22.5187L55.5953 20.2479L55.4039 19.786L60.886 17.5152L61.0774 17.9772L66.5594 15.7064L66.3681 15.2445L71.8502 12.9738L72.0415 13.4357L77.5236 11.1649L77.3322 10.703L82.8143 8.43223L83.0057 8.89417L88.4877 6.62342L88.2964 6.16148Z" fill="url(#paint0_linear_202_17)" stroke="#FAF9FB" stroke-dasharray="6 6"/>
<path d="M122.104 57.7097V53.1613C122.104 52.0968 121.097 51.2258 119.866 51.2258H112.254C115.612 48.8065 117.739 45.2258 117.739 41.1613C117.739 33.9032 110.799 28 102.403 28C94.0075 28 87.0672 33.9032 87.0672 41.2581C87.0672 45.3226 89.194 48.9032 92.5522 51.3226H85.1642C83.9328 51.3226 82.9254 52.1935 82.9254 53.2581V59.7419H80.2388C79.0075 59.7419 78 60.6129 78 61.6774V68.2581C78 69.3226 79.0075 70.1935 80.2388 70.1935H82.9254V76.6774H80.2388C79.0075 76.6774 78 77.5484 78 78.6129V85.1935C78 86.2581 79.0075 87.129 80.2388 87.129H113.933C115.836 87.6129 118.075 88 120.425 88C130.164 88 138 81.2258 138 72.8064C138 64.9677 130.948 58.4839 122.104 57.7097ZM89.306 41.2581C89.306 34.9677 95.1269 29.9355 102.403 29.9355C109.567 29.9355 115.5 34.9677 115.5 41.2581C115.5 47.4516 109.679 52.5806 102.403 52.5806C95.1269 52.4839 89.306 47.4516 89.306 41.2581ZM85.1642 53.2581H96.0224C97.9254 54.0323 100.052 54.4194 102.403 54.4194C104.642 54.4194 106.769 54.0323 108.784 53.2581H119.978V57.7097C118.187 57.8065 116.396 58 114.828 58.5806V56.3548C114.828 55.7742 114.381 55.3871 113.709 55.3871C113.037 55.3871 112.59 55.7742 112.59 56.3548V59.3548C112.366 59.4516 112.03 59.6452 111.806 59.7419H92.3284V56.3548C92.3284 55.7742 91.8806 55.3871 91.209 55.3871C90.5373 55.3871 90.0896 55.7742 90.0896 56.3548V59.7419H85.1642V53.2581ZM80.2388 61.6774H96.4701V64.871C96.4701 65.4516 96.9179 65.8387 97.5896 65.8387C98.2612 65.8387 98.709 65.4516 98.709 64.871V61.6774H108.56C106.321 63.4194 104.642 65.6452 103.746 68.1613H87.6269V64.6774C87.6269 64.0968 87.1791 63.7097 86.5075 63.7097C85.8358 63.7097 85.3881 64.0968 85.3881 64.6774V68.1613H85.2761C85.1642 68.1613 85.0522 68.1613 84.9403 68.1613H80.3507L80.2388 61.6774ZM85.1642 70.0968H103.187C102.963 70.9677 102.851 71.9355 102.851 72.9032C102.851 74.1613 103.075 75.4194 103.41 76.5806H92.3284V73.1935C92.3284 72.6129 91.8806 72.2258 91.209 72.2258C90.5373 72.2258 90.0896 72.6129 90.0896 73.1935V76.5806H85.1642V70.0968ZM87.5149 85V81.5161C87.5149 80.9355 87.0672 80.5484 86.3955 80.5484C85.7239 80.5484 85.2761 80.9355 85.2761 81.5161V85H80.2388V78.5161H96.4701V81.7097C96.4701 82.2903 96.9179 82.6774 97.5896 82.6774C98.2612 82.6774 98.709 82.2903 98.709 81.7097V78.5161H104.082C105.313 81.129 107.328 83.3548 109.903 85H87.5149ZM120.425 86.0645C111.918 86.0645 105.09 80.1613 105.09 72.8064C105.09 65.5484 112.03 59.5484 120.425 59.5484C128.933 59.5484 135.761 65.4516 135.761 72.8064C135.761 80.1613 128.821 86.0645 120.425 86.0645Z" fill="#FBF9F9"/>
<path d="M126.47 67.3871C126.023 67 125.351 67 124.903 67.4839L113.933 77.7419C113.485 78.129 113.597 78.7097 114.045 79.0968C114.269 79.2903 114.493 79.3871 114.829 79.3871C115.164 79.3871 115.388 79.2903 115.612 79.0968L126.582 68.8387C126.918 68.3548 126.918 67.7742 126.47 67.3871Z" fill="#FBF9F9"/>
<path d="M118.186 69.129C118.186 67.5806 116.731 66.3226 114.94 66.3226C113.149 66.3226 111.694 67.5806 111.694 69.129C111.694 70.6774 113.149 71.9355 114.94 71.9355C116.731 71.9355 118.186 70.6774 118.186 69.129ZM113.933 69.129C113.933 68.6452 114.38 68.2581 114.94 68.2581C115.5 68.2581 115.948 68.6452 115.948 69.129C115.948 69.6129 115.5 70 114.94 70C114.38 70 113.933 69.6129 113.933 69.129Z" fill="#FBF9F9"/>
<path d="M125.91 73.6774C124.119 73.6774 122.664 74.9355 122.664 76.4839C122.664 78.0323 124.119 79.2903 125.91 79.2903C127.701 79.2903 129.157 78.0323 129.157 76.4839C129.157 74.9355 127.701 73.6774 125.91 73.6774ZM125.91 77.4516C125.351 77.4516 124.903 77.0645 124.903 76.5807C124.903 76.0968 125.351 75.7097 125.91 75.7097C126.47 75.7097 126.918 76.0968 126.918 76.5807C126.918 77.0645 126.47 77.4516 125.91 77.4516Z" fill="#FBF9F9"/>
<path d="M101.283 47.3548V48.3226C101.283 48.9032 101.731 49.2903 102.403 49.2903C103.074 49.2903 103.522 48.9032 103.522 48.3226V47.3548C104.53 47.1613 105.313 46.871 105.873 46.2903C106.545 45.7097 106.992 44.9355 106.992 43.9677C106.992 42.7097 106.433 40.5806 102.515 40.0968C100.5 39.8064 100.164 39.0323 100.276 38.0645C100.5 37.0968 101.731 36.6129 102.739 36.7097C103.074 36.7097 104.418 36.9032 104.418 37.9677C104.418 38.4516 104.977 38.9355 105.537 38.9355C106.209 38.9355 106.656 38.4516 106.656 37.9677C106.656 36.4194 105.425 35.2581 103.522 34.9677V34.0968C103.522 33.5161 103.074 33.129 102.403 33.129C101.731 33.129 101.283 33.5161 101.283 34.0968V35.0645C99.7162 35.4516 98.3729 36.3226 98.037 37.9677C97.9251 39.2258 98.149 41.5484 102.179 42.129C104.418 42.4194 104.753 43.2903 104.753 44.0645C104.753 44.4516 104.642 44.7419 104.306 45.0323C103.858 45.4194 103.186 45.6129 102.291 45.6129C100.836 45.6129 100.052 44.9355 99.94 43.7742C99.94 43.1935 99.3803 42.8064 98.7087 42.9032C98.037 42.9032 97.5893 43.3871 97.7012 43.9677C97.8132 45.7097 99.2684 47.0645 101.283 47.3548Z" fill="#FBF9F9"/>
<path d="M23.8813 112.818H21.0322V111.668H23.8813C24.4331 111.668 24.8799 111.58 25.2217 111.404C25.5635 111.229 25.8125 110.984 25.9688 110.672C26.1299 110.359 26.2104 110.003 26.2104 109.603C26.2104 109.236 26.1299 108.892 25.9688 108.57C25.8125 108.248 25.5635 107.989 25.2217 107.793C24.8799 107.593 24.4331 107.493 23.8813 107.493H21.3618V117H19.9482V106.336H23.8813C24.687 106.336 25.3682 106.475 25.9248 106.753C26.4814 107.032 26.9038 107.417 27.1919 107.911C27.48 108.399 27.624 108.958 27.624 109.588C27.624 110.271 27.48 110.855 27.1919 111.338C26.9038 111.822 26.4814 112.19 25.9248 112.444C25.3682 112.693 24.687 112.818 23.8813 112.818ZM33.791 115.645V111.565C33.791 111.253 33.7275 110.982 33.6006 110.752C33.4785 110.518 33.293 110.337 33.0439 110.21C32.7949 110.083 32.4873 110.02 32.1211 110.02C31.7793 110.02 31.479 110.079 31.2202 110.196C30.9663 110.313 30.7661 110.467 30.6196 110.657C30.478 110.848 30.4072 111.053 30.4072 111.272H29.0522C29.0522 110.989 29.1255 110.708 29.272 110.43C29.4185 110.152 29.6284 109.9 29.9019 109.676C30.1802 109.446 30.5122 109.266 30.8979 109.134C31.2886 108.997 31.7231 108.929 32.2017 108.929C32.7778 108.929 33.2856 109.026 33.7251 109.222C34.1694 109.417 34.5161 109.712 34.7651 110.108C35.019 110.499 35.146 110.989 35.146 111.58V115.271C35.146 115.535 35.168 115.816 35.2119 116.114C35.2607 116.412 35.3315 116.668 35.4243 116.883V117H34.0107C33.9424 116.844 33.8887 116.636 33.8496 116.377C33.8105 116.114 33.791 115.87 33.791 115.645ZM34.0254 112.195L34.04 113.147H32.6704C32.2847 113.147 31.9404 113.179 31.6377 113.243C31.335 113.301 31.0811 113.392 30.876 113.514C30.6709 113.636 30.5146 113.79 30.4072 113.975C30.2998 114.156 30.2461 114.368 30.2461 114.612C30.2461 114.861 30.3022 115.088 30.4146 115.293C30.5269 115.499 30.6953 115.662 30.9199 115.784C31.1494 115.901 31.4302 115.96 31.7622 115.96C32.1772 115.96 32.5435 115.872 32.8608 115.696C33.1782 115.521 33.4297 115.306 33.6152 115.052C33.8057 114.798 33.9082 114.551 33.9229 114.312L34.5015 114.964C34.4673 115.169 34.3745 115.396 34.2231 115.645C34.0718 115.894 33.8691 116.133 33.6152 116.363C33.3662 116.587 33.0684 116.775 32.7217 116.927C32.3799 117.073 31.9941 117.146 31.5645 117.146C31.0273 117.146 30.5562 117.042 30.1509 116.832C29.7505 116.622 29.438 116.341 29.2134 115.989C28.9937 115.633 28.8838 115.235 28.8838 114.795C28.8838 114.371 28.9668 113.997 29.1328 113.675C29.2988 113.348 29.5381 113.077 29.8506 112.862C30.1631 112.642 30.5391 112.476 30.9785 112.364C31.418 112.251 31.9087 112.195 32.4507 112.195H34.0254ZM38.6323 110.32V117H37.2773V109.075H38.5957L38.6323 110.32ZM41.1079 109.031L41.1006 110.291C40.9883 110.267 40.8809 110.252 40.7783 110.247C40.6807 110.237 40.5684 110.232 40.4414 110.232C40.1289 110.232 39.853 110.281 39.6138 110.379C39.3745 110.477 39.1719 110.613 39.0059 110.789C38.8398 110.965 38.708 111.175 38.6104 111.419C38.5176 111.658 38.4565 111.922 38.4272 112.21L38.0464 112.43C38.0464 111.951 38.0928 111.502 38.1855 111.082C38.2832 110.662 38.4321 110.291 38.6323 109.969C38.8325 109.642 39.0864 109.388 39.394 109.207C39.7065 109.021 40.0776 108.929 40.5073 108.929C40.605 108.929 40.7173 108.941 40.8442 108.965C40.9712 108.985 41.0591 109.007 41.1079 109.031ZM46.7402 115.645V111.565C46.7402 111.253 46.6768 110.982 46.5498 110.752C46.4277 110.518 46.2422 110.337 45.9932 110.21C45.7441 110.083 45.4365 110.02 45.0703 110.02C44.7285 110.02 44.4282 110.079 44.1694 110.196C43.9155 110.313 43.7153 110.467 43.5688 110.657C43.4272 110.848 43.3564 111.053 43.3564 111.272H42.0015C42.0015 110.989 42.0747 110.708 42.2212 110.43C42.3677 110.152 42.5776 109.9 42.8511 109.676C43.1294 109.446 43.4614 109.266 43.8472 109.134C44.2378 108.997 44.6724 108.929 45.1509 108.929C45.7271 108.929 46.2349 109.026 46.6743 109.222C47.1187 109.417 47.4653 109.712 47.7144 110.108C47.9683 110.499 48.0952 110.989 48.0952 111.58V115.271C48.0952 115.535 48.1172 115.816 48.1611 116.114C48.21 116.412 48.2808 116.668 48.3735 116.883V117H46.96C46.8916 116.844 46.8379 116.636 46.7988 116.377C46.7598 116.114 46.7402 115.87 46.7402 115.645ZM46.9746 112.195L46.9893 113.147H45.6196C45.2339 113.147 44.8896 113.179 44.5869 113.243C44.2842 113.301 44.0303 113.392 43.8252 113.514C43.6201 113.636 43.4639 113.79 43.3564 113.975C43.249 114.156 43.1953 114.368 43.1953 114.612C43.1953 114.861 43.2515 115.088 43.3638 115.293C43.4761 115.499 43.6445 115.662 43.8691 115.784C44.0986 115.901 44.3794 115.96 44.7114 115.96C45.1265 115.96 45.4927 115.872 45.8101 115.696C46.1274 115.521 46.3789 115.306 46.5645 115.052C46.7549 114.798 46.8574 114.551 46.8721 114.312L47.4507 114.964C47.4165 115.169 47.3237 115.396 47.1724 115.645C47.021 115.894 46.8184 116.133 46.5645 116.363C46.3154 116.587 46.0176 116.775 45.6709 116.927C45.3291 117.073 44.9434 117.146 44.5137 117.146C43.9766 117.146 43.5054 117.042 43.1001 116.832C42.6997 116.622 42.3872 116.341 42.1626 115.989C41.9429 115.633 41.833 115.235 41.833 114.795C41.833 114.371 41.916 113.997 42.082 113.675C42.248 113.348 42.4873 113.077 42.7998 112.862C43.1123 112.642 43.4883 112.476 43.9277 112.364C44.3672 112.251 44.8579 112.195 45.3999 112.195H46.9746ZM58.9351 120.047V110.599L59.0522 109.075H60.2974V120.047H58.9351ZM53.6104 113.125V112.972C53.6104 112.366 53.6812 111.817 53.8228 111.324C53.9644 110.826 54.1719 110.398 54.4453 110.042C54.7188 109.686 55.0483 109.412 55.4341 109.222C55.8247 109.026 56.269 108.929 56.7671 108.929C57.2651 108.929 57.7021 109.017 58.0781 109.192C58.459 109.363 58.7812 109.615 59.0449 109.947C59.3135 110.274 59.5259 110.669 59.6821 111.133C59.8384 111.597 59.9458 112.122 60.0044 112.708V113.382C59.9507 113.963 59.8457 114.485 59.6895 114.949C59.5332 115.413 59.3208 115.809 59.0522 116.136C58.7886 116.463 58.4639 116.714 58.0781 116.89C57.6973 117.061 57.2554 117.146 56.7524 117.146C56.2642 117.146 55.8247 117.046 55.4341 116.846C55.0483 116.646 54.7188 116.365 54.4453 116.004C54.1768 115.643 53.9692 115.218 53.8228 114.729C53.6812 114.236 53.6104 113.702 53.6104 113.125ZM54.9727 112.972V113.125C54.9727 113.521 55.0142 113.895 55.0972 114.246C55.1802 114.593 55.3071 114.9 55.478 115.169C55.6538 115.438 55.8735 115.65 56.1372 115.806C56.4058 115.958 56.7231 116.033 57.0894 116.033C57.5386 116.033 57.9121 115.936 58.21 115.74C58.5127 115.545 58.7544 115.289 58.9351 114.971C59.1157 114.649 59.2549 114.305 59.3525 113.938V112.173C59.2988 111.905 59.2134 111.644 59.0962 111.39C58.9839 111.136 58.8374 110.909 58.6567 110.708C58.4761 110.503 58.2563 110.342 57.9976 110.225C57.7437 110.103 57.4458 110.042 57.104 110.042C56.7329 110.042 56.4131 110.12 56.1445 110.276C55.876 110.433 55.6538 110.647 55.478 110.921C55.3071 111.189 55.1802 111.5 55.0972 111.851C55.0142 112.203 54.9727 112.576 54.9727 112.972ZM67.3213 115.169V109.075H68.6836V117H67.3872L67.3213 115.169ZM67.5776 113.499L68.1416 113.484C68.1416 114.012 68.0854 114.5 67.9731 114.949C67.8657 115.394 67.6899 115.779 67.4458 116.106C67.2017 116.434 66.8818 116.69 66.4863 116.875C66.0908 117.056 65.6099 117.146 65.0435 117.146C64.6577 117.146 64.3037 117.09 63.9814 116.978C63.6641 116.866 63.3906 116.692 63.1611 116.458C62.9316 116.224 62.7534 115.918 62.6265 115.542C62.5044 115.167 62.4434 114.715 62.4434 114.188V109.075H63.7983V114.202C63.7983 114.559 63.8374 114.854 63.9155 115.088C63.9985 115.318 64.1084 115.501 64.2451 115.638C64.3867 115.77 64.543 115.862 64.7139 115.916C64.8896 115.97 65.0703 115.997 65.2559 115.997C65.832 115.997 66.2886 115.887 66.6255 115.667C66.9624 115.442 67.2041 115.142 67.3506 114.766C67.502 114.385 67.5776 113.963 67.5776 113.499ZM74.0376 117.146C73.4858 117.146 72.9854 117.054 72.5361 116.868C72.0918 116.678 71.7085 116.412 71.3862 116.07C71.0688 115.728 70.8247 115.323 70.6538 114.854C70.4829 114.385 70.3975 113.873 70.3975 113.316V113.008C70.3975 112.364 70.4927 111.79 70.6831 111.287C70.8735 110.779 71.1323 110.35 71.4595 109.998C71.7866 109.646 72.1577 109.38 72.5728 109.2C72.9878 109.019 73.4175 108.929 73.8618 108.929C74.4282 108.929 74.9165 109.026 75.3267 109.222C75.7417 109.417 76.0811 109.69 76.3447 110.042C76.6084 110.389 76.8037 110.799 76.9307 111.272C77.0576 111.741 77.1211 112.254 77.1211 112.811V113.418H71.2031V112.312H75.7661V112.21C75.7466 111.858 75.6733 111.517 75.5464 111.185C75.4243 110.853 75.229 110.579 74.9604 110.364C74.6919 110.149 74.3257 110.042 73.8618 110.042C73.5542 110.042 73.271 110.108 73.0122 110.24C72.7534 110.367 72.5312 110.557 72.3457 110.811C72.1602 111.065 72.0161 111.375 71.9136 111.741C71.811 112.107 71.7598 112.53 71.7598 113.008V113.316C71.7598 113.692 71.811 114.046 71.9136 114.378C72.021 114.705 72.1748 114.993 72.375 115.242C72.5801 115.491 72.8267 115.687 73.1147 115.828C73.4077 115.97 73.7397 116.041 74.1108 116.041C74.5894 116.041 74.9946 115.943 75.3267 115.748C75.6587 115.552 75.9492 115.291 76.1982 114.964L77.0186 115.616C76.8477 115.875 76.6304 116.121 76.3667 116.355C76.103 116.59 75.7783 116.78 75.3926 116.927C75.0117 117.073 74.5601 117.146 74.0376 117.146ZM80.0508 110.65V117H78.6885V109.075H79.9775L80.0508 110.65ZM79.7725 112.737L79.1426 112.715C79.1475 112.173 79.2183 111.673 79.355 111.214C79.4917 110.75 79.6943 110.347 79.9629 110.005C80.2314 109.664 80.5659 109.4 80.9663 109.214C81.3667 109.024 81.8306 108.929 82.3579 108.929C82.729 108.929 83.0708 108.982 83.3833 109.09C83.6958 109.192 83.9668 109.356 84.1963 109.581C84.4258 109.805 84.604 110.093 84.731 110.445C84.8579 110.796 84.9214 111.221 84.9214 111.719V117H83.5664V111.785C83.5664 111.37 83.4956 111.038 83.354 110.789C83.2173 110.54 83.022 110.359 82.7681 110.247C82.5142 110.13 82.2163 110.071 81.8745 110.071C81.4741 110.071 81.1396 110.142 80.8711 110.284C80.6025 110.425 80.3877 110.621 80.2266 110.87C80.0654 111.119 79.9482 111.404 79.875 111.727C79.8066 112.044 79.7725 112.381 79.7725 112.737ZM84.9067 111.99L83.9985 112.269C84.0034 111.834 84.0742 111.417 84.2109 111.016C84.3525 110.616 84.5552 110.259 84.8188 109.947C85.0874 109.634 85.417 109.388 85.8076 109.207C86.1982 109.021 86.645 108.929 87.1479 108.929C87.5728 108.929 87.9487 108.985 88.2759 109.097C88.6079 109.209 88.8862 109.383 89.1108 109.617C89.3403 109.847 89.5137 110.142 89.6309 110.503C89.748 110.865 89.8066 111.294 89.8066 111.792V117H88.4443V111.778C88.4443 111.333 88.3735 110.989 88.2319 110.745C88.0952 110.496 87.8999 110.323 87.646 110.225C87.397 110.123 87.0991 110.071 86.7524 110.071C86.4546 110.071 86.1909 110.123 85.9614 110.225C85.7319 110.328 85.5391 110.469 85.3828 110.65C85.2266 110.826 85.1069 111.028 85.0239 111.258C84.9458 111.487 84.9067 111.731 84.9067 111.99ZM100.566 120.047V110.599L100.683 109.075H101.928V120.047H100.566ZM95.2412 113.125V112.972C95.2412 112.366 95.312 111.817 95.4536 111.324C95.5952 110.826 95.8027 110.398 96.0762 110.042C96.3496 109.686 96.6792 109.412 97.0649 109.222C97.4556 109.026 97.8999 108.929 98.3979 108.929C98.896 108.929 99.333 109.017 99.709 109.192C100.09 109.363 100.412 109.615 100.676 109.947C100.944 110.274 101.157 110.669 101.313 111.133C101.469 111.597 101.577 112.122 101.635 112.708V113.382C101.582 113.963 101.477 114.485 101.32 114.949C101.164 115.413 100.952 115.809 100.683 116.136C100.419 116.463 100.095 116.714 99.709 116.89C99.3281 117.061 98.8862 117.146 98.3833 117.146C97.895 117.146 97.4556 117.046 97.0649 116.846C96.6792 116.646 96.3496 116.365 96.0762 116.004C95.8076 115.643 95.6001 115.218 95.4536 114.729C95.312 114.236 95.2412 113.702 95.2412 113.125ZM96.6035 112.972V113.125C96.6035 113.521 96.645 113.895 96.728 114.246C96.811 114.593 96.938 114.9 97.1089 115.169C97.2847 115.438 97.5044 115.65 97.7681 115.806C98.0366 115.958 98.354 116.033 98.7202 116.033C99.1694 116.033 99.543 115.936 99.8408 115.74C100.144 115.545 100.385 115.289 100.566 114.971C100.747 114.649 100.886 114.305 100.983 113.938V112.173C100.93 111.905 100.844 111.644 100.727 111.39C100.615 111.136 100.468 110.909 100.288 110.708C100.107 110.503 99.8872 110.342 99.6284 110.225C99.3745 110.103 99.0767 110.042 98.7349 110.042C98.3638 110.042 98.0439 110.12 97.7754 110.276C97.5068 110.433 97.2847 110.647 97.1089 110.921C96.938 111.189 96.811 111.5 96.728 111.851C96.645 112.203 96.6035 112.576 96.6035 112.972ZM108.952 115.169V109.075H110.314V117H109.018L108.952 115.169ZM109.208 113.499L109.772 113.484C109.772 114.012 109.716 114.5 109.604 114.949C109.497 115.394 109.321 115.779 109.077 116.106C108.833 116.434 108.513 116.69 108.117 116.875C107.722 117.056 107.241 117.146 106.674 117.146C106.289 117.146 105.935 117.09 105.612 116.978C105.295 116.866 105.021 116.692 104.792 116.458C104.562 116.224 104.384 115.918 104.257 115.542C104.135 115.167 104.074 114.715 104.074 114.188V109.075H105.429V114.202C105.429 114.559 105.468 114.854 105.546 115.088C105.629 115.318 105.739 115.501 105.876 115.638C106.018 115.77 106.174 115.862 106.345 115.916C106.521 115.97 106.701 115.997 106.887 115.997C107.463 115.997 107.919 115.887 108.256 115.667C108.593 115.442 108.835 115.142 108.981 114.766C109.133 114.385 109.208 113.963 109.208 113.499ZM115.668 117.146C115.117 117.146 114.616 117.054 114.167 116.868C113.723 116.678 113.339 116.412 113.017 116.07C112.7 115.728 112.456 115.323 112.285 114.854C112.114 114.385 112.028 113.873 112.028 113.316V113.008C112.028 112.364 112.124 111.79 112.314 111.287C112.504 110.779 112.763 110.35 113.09 109.998C113.417 109.646 113.789 109.38 114.204 109.2C114.619 109.019 115.048 108.929 115.493 108.929C116.059 108.929 116.547 109.026 116.958 109.222C117.373 109.417 117.712 109.69 117.976 110.042C118.239 110.389 118.435 110.799 118.562 111.272C118.688 111.741 118.752 112.254 118.752 112.811V113.418H112.834V112.312H117.397V112.21C117.377 111.858 117.304 111.517 117.177 111.185C117.055 110.853 116.86 110.579 116.591 110.364C116.323 110.149 115.957 110.042 115.493 110.042C115.185 110.042 114.902 110.108 114.643 110.24C114.384 110.367 114.162 110.557 113.977 110.811C113.791 111.065 113.647 111.375 113.544 111.741C113.442 112.107 113.391 112.53 113.391 113.008V113.316C113.391 113.692 113.442 114.046 113.544 114.378C113.652 114.705 113.806 114.993 114.006 115.242C114.211 115.491 114.458 115.687 114.746 115.828C115.039 115.97 115.371 116.041 115.742 116.041C116.22 116.041 116.625 115.943 116.958 115.748C117.29 115.552 117.58 115.291 117.829 114.964L118.649 115.616C118.479 115.875 118.261 116.121 117.998 116.355C117.734 116.59 117.409 116.78 117.023 116.927C116.643 117.073 116.191 117.146 115.668 117.146ZM121.689 110.32V117H120.334V109.075H121.652L121.689 110.32ZM124.165 109.031L124.157 110.291C124.045 110.267 123.938 110.252 123.835 110.247C123.737 110.237 123.625 110.232 123.498 110.232C123.186 110.232 122.91 110.281 122.67 110.379C122.431 110.477 122.229 110.613 122.062 110.789C121.896 110.965 121.765 111.175 121.667 111.419C121.574 111.658 121.513 111.922 121.484 112.21L121.103 112.43C121.103 111.951 121.149 111.502 121.242 111.082C121.34 110.662 121.489 110.291 121.689 109.969C121.889 109.642 122.143 109.388 122.451 109.207C122.763 109.021 123.134 108.929 123.564 108.929C123.662 108.929 123.774 108.941 123.901 108.965C124.028 108.985 124.116 109.007 124.165 109.031ZM130.61 109.075V117H129.248V109.075H130.61ZM129.145 106.973C129.145 106.753 129.211 106.568 129.343 106.417C129.479 106.265 129.68 106.189 129.943 106.189C130.202 106.189 130.4 106.265 130.537 106.417C130.678 106.568 130.749 106.753 130.749 106.973C130.749 107.183 130.678 107.364 130.537 107.515C130.4 107.662 130.202 107.735 129.943 107.735C129.68 107.735 129.479 107.662 129.343 107.515C129.211 107.364 129.145 107.183 129.145 106.973ZM134.14 110.767V117H132.785V109.075H134.067L134.14 110.767ZM133.818 112.737L133.254 112.715C133.259 112.173 133.339 111.673 133.496 111.214C133.652 110.75 133.872 110.347 134.155 110.005C134.438 109.664 134.775 109.4 135.166 109.214C135.561 109.024 135.998 108.929 136.477 108.929C136.867 108.929 137.219 108.982 137.531 109.09C137.844 109.192 138.11 109.358 138.33 109.588C138.554 109.817 138.725 110.115 138.842 110.481C138.959 110.843 139.018 111.285 139.018 111.807V117H137.656V111.792C137.656 111.377 137.595 111.045 137.473 110.796C137.351 110.542 137.172 110.359 136.938 110.247C136.704 110.13 136.416 110.071 136.074 110.071C135.737 110.071 135.429 110.142 135.151 110.284C134.877 110.425 134.641 110.621 134.44 110.87C134.245 111.119 134.091 111.404 133.979 111.727C133.872 112.044 133.818 112.381 133.818 112.737ZM143.486 115.777L145.654 109.075H147.038L144.189 117H143.281L143.486 115.777ZM141.677 109.075L143.911 115.813L144.064 117H143.156L140.285 109.075H141.677ZM151.528 117.146C150.976 117.146 150.476 117.054 150.026 116.868C149.582 116.678 149.199 116.412 148.876 116.07C148.559 115.728 148.315 115.323 148.144 114.854C147.973 114.385 147.888 113.873 147.888 113.316V113.008C147.888 112.364 147.983 111.79 148.173 111.287C148.364 110.779 148.623 110.35 148.95 109.998C149.277 109.646 149.648 109.38 150.063 109.2C150.478 109.019 150.908 108.929 151.352 108.929C151.918 108.929 152.407 109.026 152.817 109.222C153.232 109.417 153.571 109.69 153.835 110.042C154.099 110.389 154.294 110.799 154.421 111.272C154.548 111.741 154.611 112.254 154.611 112.811V113.418H148.693V112.312H153.256V112.21C153.237 111.858 153.164 111.517 153.037 111.185C152.915 110.853 152.719 110.579 152.451 110.364C152.182 110.149 151.816 110.042 151.352 110.042C151.044 110.042 150.761 110.108 150.502 110.24C150.244 110.367 150.021 110.557 149.836 110.811C149.65 111.065 149.506 111.375 149.404 111.741C149.301 112.107 149.25 112.53 149.25 113.008V113.316C149.25 113.692 149.301 114.046 149.404 114.378C149.511 114.705 149.665 114.993 149.865 115.242C150.07 115.491 150.317 115.687 150.605 115.828C150.898 115.97 151.23 116.041 151.601 116.041C152.08 116.041 152.485 115.943 152.817 115.748C153.149 115.552 153.439 115.291 153.688 114.964L154.509 115.616C154.338 115.875 154.121 116.121 153.857 116.355C153.593 116.59 153.269 116.78 152.883 116.927C152.502 117.073 152.05 117.146 151.528 117.146ZM160.808 114.898C160.808 114.703 160.764 114.522 160.676 114.356C160.593 114.185 160.419 114.031 160.156 113.895C159.897 113.753 159.506 113.631 158.984 113.528C158.544 113.436 158.146 113.326 157.79 113.199C157.438 113.072 157.138 112.918 156.889 112.737C156.645 112.557 156.457 112.344 156.325 112.1C156.193 111.856 156.127 111.57 156.127 111.243C156.127 110.931 156.196 110.635 156.333 110.357C156.474 110.079 156.672 109.832 156.926 109.617C157.185 109.402 157.495 109.234 157.856 109.112C158.217 108.99 158.62 108.929 159.064 108.929C159.699 108.929 160.241 109.041 160.69 109.266C161.14 109.49 161.484 109.791 161.723 110.167C161.962 110.538 162.082 110.95 162.082 111.404H160.727C160.727 111.185 160.661 110.972 160.529 110.767C160.402 110.557 160.214 110.384 159.965 110.247C159.721 110.11 159.421 110.042 159.064 110.042C158.688 110.042 158.383 110.101 158.149 110.218C157.919 110.33 157.751 110.474 157.644 110.65C157.541 110.826 157.49 111.011 157.49 111.207C157.49 111.353 157.514 111.485 157.563 111.602C157.617 111.714 157.709 111.819 157.841 111.917C157.973 112.01 158.159 112.098 158.398 112.181C158.637 112.264 158.942 112.347 159.313 112.43C159.963 112.576 160.498 112.752 160.917 112.957C161.337 113.162 161.65 113.414 161.855 113.711C162.06 114.009 162.163 114.371 162.163 114.795C162.163 115.142 162.089 115.459 161.943 115.748C161.801 116.036 161.594 116.285 161.32 116.495C161.052 116.7 160.729 116.861 160.354 116.978C159.982 117.09 159.565 117.146 159.101 117.146C158.403 117.146 157.812 117.022 157.329 116.773C156.845 116.524 156.479 116.202 156.23 115.806C155.981 115.411 155.856 114.993 155.856 114.554H157.219C157.238 114.925 157.346 115.22 157.541 115.44C157.736 115.655 157.976 115.809 158.259 115.901C158.542 115.989 158.823 116.033 159.101 116.033C159.472 116.033 159.782 115.984 160.031 115.887C160.285 115.789 160.478 115.655 160.61 115.484C160.742 115.313 160.808 115.118 160.808 114.898ZM167.26 109.075V110.115H162.976V109.075H167.26ZM164.426 107.149H165.781V115.037C165.781 115.306 165.822 115.508 165.905 115.645C165.988 115.782 166.096 115.872 166.228 115.916C166.359 115.96 166.501 115.982 166.652 115.982C166.765 115.982 166.882 115.972 167.004 115.953C167.131 115.928 167.226 115.909 167.29 115.894L167.297 117C167.189 117.034 167.048 117.066 166.872 117.095C166.701 117.129 166.494 117.146 166.25 117.146C165.917 117.146 165.612 117.081 165.334 116.949C165.056 116.817 164.833 116.597 164.667 116.29C164.506 115.977 164.426 115.557 164.426 115.03V107.149ZM170.322 109.075V117H168.959V109.075H170.322ZM168.857 106.973C168.857 106.753 168.923 106.568 169.055 106.417C169.191 106.265 169.392 106.189 169.655 106.189C169.914 106.189 170.112 106.265 170.249 106.417C170.39 106.568 170.461 106.753 170.461 106.973C170.461 107.183 170.39 107.364 170.249 107.515C170.112 107.662 169.914 107.735 169.655 107.735C169.392 107.735 169.191 107.662 169.055 107.515C168.923 107.364 168.857 107.183 168.857 106.973ZM173.852 110.32V117H172.497V109.075H173.815L173.852 110.32ZM176.328 109.031L176.32 110.291C176.208 110.267 176.101 110.252 175.998 110.247C175.9 110.237 175.788 110.232 175.661 110.232C175.349 110.232 175.073 110.281 174.833 110.379C174.594 110.477 174.392 110.613 174.226 110.789C174.06 110.965 173.928 111.175 173.83 111.419C173.737 111.658 173.676 111.922 173.647 112.21L173.266 112.43C173.266 111.951 173.312 111.502 173.405 111.082C173.503 110.662 173.652 110.291 173.852 109.969C174.052 109.642 174.306 109.388 174.614 109.207C174.926 109.021 175.297 108.929 175.727 108.929C175.825 108.929 175.937 108.941 176.064 108.965C176.191 108.985 176.279 109.007 176.328 109.031ZM186.296 115.462V105.75H187.658V117H186.413L186.296 115.462ZM180.964 113.125V112.972C180.964 112.366 181.037 111.817 181.184 111.324C181.335 110.826 181.547 110.398 181.821 110.042C182.099 109.686 182.429 109.412 182.81 109.222C183.195 109.026 183.625 108.929 184.099 108.929C184.597 108.929 185.031 109.017 185.402 109.192C185.778 109.363 186.096 109.615 186.354 109.947C186.618 110.274 186.826 110.669 186.977 111.133C187.128 111.597 187.233 112.122 187.292 112.708V113.382C187.238 113.963 187.133 114.485 186.977 114.949C186.826 115.413 186.618 115.809 186.354 116.136C186.096 116.463 185.778 116.714 185.402 116.89C185.026 117.061 184.587 117.146 184.084 117.146C183.62 117.146 183.195 117.046 182.81 116.846C182.429 116.646 182.099 116.365 181.821 116.004C181.547 115.643 181.335 115.218 181.184 114.729C181.037 114.236 180.964 113.702 180.964 113.125ZM182.326 112.972V113.125C182.326 113.521 182.365 113.892 182.443 114.239C182.526 114.585 182.653 114.891 182.824 115.154C182.995 115.418 183.212 115.625 183.476 115.777C183.74 115.923 184.055 115.997 184.421 115.997C184.87 115.997 185.239 115.901 185.527 115.711C185.82 115.521 186.054 115.269 186.23 114.957C186.406 114.644 186.542 114.305 186.64 113.938V112.173C186.582 111.905 186.496 111.646 186.384 111.397C186.276 111.143 186.135 110.918 185.959 110.723C185.788 110.523 185.576 110.364 185.322 110.247C185.073 110.13 184.777 110.071 184.436 110.071C184.064 110.071 183.745 110.149 183.476 110.306C183.212 110.457 182.995 110.667 182.824 110.936C182.653 111.199 182.526 111.507 182.443 111.858C182.365 112.205 182.326 112.576 182.326 112.972ZM189.409 113.125V112.957C189.409 112.386 189.492 111.856 189.658 111.368C189.824 110.875 190.063 110.447 190.375 110.086C190.688 109.72 191.066 109.437 191.511 109.236C191.955 109.031 192.453 108.929 193.005 108.929C193.562 108.929 194.062 109.031 194.506 109.236C194.956 109.437 195.336 109.72 195.649 110.086C195.966 110.447 196.208 110.875 196.374 111.368C196.54 111.856 196.623 112.386 196.623 112.957V113.125C196.623 113.697 196.54 114.227 196.374 114.715C196.208 115.203 195.966 115.63 195.649 115.997C195.336 116.358 194.958 116.641 194.514 116.846C194.074 117.046 193.576 117.146 193.02 117.146C192.463 117.146 191.962 117.046 191.518 116.846C191.074 116.641 190.693 116.358 190.375 115.997C190.063 115.63 189.824 115.203 189.658 114.715C189.492 114.227 189.409 113.697 189.409 113.125ZM190.764 112.957V113.125C190.764 113.521 190.81 113.895 190.903 114.246C190.996 114.593 191.135 114.9 191.32 115.169C191.511 115.438 191.748 115.65 192.031 115.806C192.314 115.958 192.644 116.033 193.02 116.033C193.391 116.033 193.715 115.958 193.994 115.806C194.277 115.65 194.511 115.438 194.697 115.169C194.882 114.9 195.021 114.593 195.114 114.246C195.212 113.895 195.261 113.521 195.261 113.125V112.957C195.261 112.566 195.212 112.198 195.114 111.851C195.021 111.5 194.88 111.189 194.689 110.921C194.504 110.647 194.27 110.433 193.986 110.276C193.708 110.12 193.381 110.042 193.005 110.042C192.634 110.042 192.307 110.12 192.023 110.276C191.745 110.433 191.511 110.647 191.32 110.921C191.135 111.189 190.996 111.5 190.903 111.851C190.81 112.198 190.764 112.566 190.764 112.957ZM51.3911 138.887V140H45.627V138.887H51.3911ZM51.1787 133.035L45.9346 140H45.1069V139.004L50.3145 132.075H51.1787V133.035ZM50.5781 132.075V133.196H45.1655V132.075H50.5781ZM56.1006 140.146C55.5488 140.146 55.0483 140.054 54.5991 139.868C54.1548 139.678 53.7715 139.412 53.4492 139.07C53.1318 138.728 52.8877 138.323 52.7168 137.854C52.5459 137.385 52.4604 136.873 52.4604 136.316V136.008C52.4604 135.364 52.5557 134.79 52.7461 134.287C52.9365 133.779 53.1953 133.35 53.5225 132.998C53.8496 132.646 54.2207 132.38 54.6357 132.2C55.0508 132.019 55.4805 131.929 55.9248 131.929C56.4912 131.929 56.9795 132.026 57.3896 132.222C57.8047 132.417 58.144 132.69 58.4077 133.042C58.6714 133.389 58.8667 133.799 58.9937 134.272C59.1206 134.741 59.1841 135.254 59.1841 135.811V136.418H53.2661V135.312H57.8291V135.21C57.8096 134.858 57.7363 134.517 57.6094 134.185C57.4873 133.853 57.292 133.579 57.0234 133.364C56.7549 133.149 56.3887 133.042 55.9248 133.042C55.6172 133.042 55.334 133.108 55.0752 133.24C54.8164 133.367 54.5942 133.557 54.4087 133.811C54.2231 134.065 54.0791 134.375 53.9766 134.741C53.874 135.107 53.8228 135.53 53.8228 136.008V136.316C53.8228 136.692 53.874 137.046 53.9766 137.378C54.084 137.705 54.2378 137.993 54.438 138.242C54.6431 138.491 54.8896 138.687 55.1777 138.828C55.4707 138.97 55.8027 139.041 56.1738 139.041C56.6523 139.041 57.0576 138.943 57.3896 138.748C57.7217 138.552 58.0122 138.291 58.2612 137.964L59.0815 138.616C58.9106 138.875 58.6934 139.121 58.4297 139.355C58.166 139.59 57.8413 139.78 57.4556 139.927C57.0747 140.073 56.623 140.146 56.1006 140.146ZM62.1211 133.32V140H60.7661V132.075H62.0845L62.1211 133.32ZM64.5967 132.031L64.5894 133.291C64.4771 133.267 64.3696 133.252 64.2671 133.247C64.1694 133.237 64.0571 133.232 63.9302 133.232C63.6177 133.232 63.3418 133.281 63.1025 133.379C62.8633 133.477 62.6606 133.613 62.4946 133.789C62.3286 133.965 62.1968 134.175 62.0991 134.419C62.0063 134.658 61.9453 134.922 61.916 135.21L61.5352 135.43C61.5352 134.951 61.5815 134.502 61.6743 134.082C61.772 133.662 61.9209 133.291 62.1211 132.969C62.3213 132.642 62.5752 132.388 62.8828 132.207C63.1953 132.021 63.5664 131.929 63.9961 131.929C64.0938 131.929 64.2061 131.941 64.333 131.965C64.46 131.985 64.5479 132.007 64.5967 132.031ZM65.3438 136.125V135.957C65.3438 135.386 65.4268 134.856 65.5928 134.368C65.7588 133.875 65.998 133.447 66.3105 133.086C66.623 132.72 67.0015 132.437 67.4458 132.236C67.8901 132.031 68.3882 131.929 68.9399 131.929C69.4966 131.929 69.9971 132.031 70.4414 132.236C70.8906 132.437 71.2715 132.72 71.584 133.086C71.9014 133.447 72.1431 133.875 72.3091 134.368C72.4751 134.856 72.5581 135.386 72.5581 135.957V136.125C72.5581 136.697 72.4751 137.227 72.3091 137.715C72.1431 138.203 71.9014 138.63 71.584 138.997C71.2715 139.358 70.8931 139.641 70.4487 139.846C70.0093 140.046 69.5112 140.146 68.9546 140.146C68.3979 140.146 67.8975 140.046 67.4531 139.846C67.0088 139.641 66.6279 139.358 66.3105 138.997C65.998 138.63 65.7588 138.203 65.5928 137.715C65.4268 137.227 65.3438 136.697 65.3438 136.125ZM66.6987 135.957V136.125C66.6987 136.521 66.7451 136.895 66.8379 137.246C66.9307 137.593 67.0698 137.9 67.2554 138.169C67.4458 138.438 67.6826 138.65 67.9658 138.806C68.249 138.958 68.5786 139.033 68.9546 139.033C69.3257 139.033 69.6504 138.958 69.9287 138.806C70.2119 138.65 70.4463 138.438 70.6318 138.169C70.8174 137.9 70.9565 137.593 71.0493 137.246C71.147 136.895 71.1958 136.521 71.1958 136.125V135.957C71.1958 135.566 71.147 135.198 71.0493 134.851C70.9565 134.5 70.8149 134.189 70.6245 133.921C70.439 133.647 70.2046 133.433 69.9214 133.276C69.6431 133.12 69.3159 133.042 68.9399 133.042C68.5688 133.042 68.2417 133.12 67.9585 133.276C67.6802 133.433 67.4458 133.647 67.2554 133.921C67.0698 134.189 66.9307 134.5 66.8379 134.851C66.7451 135.198 66.6987 135.566 66.6987 135.957ZM81.2666 140.146C80.7148 140.146 80.2144 140.054 79.7651 139.868C79.3208 139.678 78.9375 139.412 78.6152 139.07C78.2979 138.728 78.0537 138.323 77.8828 137.854C77.7119 137.385 77.6265 136.873 77.6265 136.316V136.008C77.6265 135.364 77.7217 134.79 77.9121 134.287C78.1025 133.779 78.3613 133.35 78.6885 132.998C79.0156 132.646 79.3867 132.38 79.8018 132.2C80.2168 132.019 80.6465 131.929 81.0908 131.929C81.6572 131.929 82.1455 132.026 82.5557 132.222C82.9707 132.417 83.3101 132.69 83.5737 133.042C83.8374 133.389 84.0327 133.799 84.1597 134.272C84.2866 134.741 84.3501 135.254 84.3501 135.811V136.418H78.4321V135.312H82.9951V135.21C82.9756 134.858 82.9023 134.517 82.7754 134.185C82.6533 133.853 82.458 133.579 82.1895 133.364C81.9209 133.149 81.5547 133.042 81.0908 133.042C80.7832 133.042 80.5 133.108 80.2412 133.24C79.9824 133.367 79.7603 133.557 79.5747 133.811C79.3892 134.065 79.2451 134.375 79.1426 134.741C79.04 135.107 78.9888 135.53 78.9888 136.008V136.316C78.9888 136.692 79.04 137.046 79.1426 137.378C79.25 137.705 79.4038 137.993 79.604 138.242C79.8091 138.491 80.0557 138.687 80.3438 138.828C80.6367 138.97 80.9688 139.041 81.3398 139.041C81.8184 139.041 82.2236 138.943 82.5557 138.748C82.8877 138.552 83.1782 138.291 83.4272 137.964L84.2476 138.616C84.0767 138.875 83.8594 139.121 83.5957 139.355C83.332 139.59 83.0073 139.78 82.6216 139.927C82.2407 140.073 81.7891 140.146 81.2666 140.146ZM92.8242 139.033C93.1465 139.033 93.4443 138.967 93.7178 138.835C93.9912 138.704 94.2158 138.523 94.3916 138.293C94.5674 138.059 94.6675 137.793 94.6919 137.495H95.981C95.9565 137.964 95.7979 138.401 95.5049 138.806C95.2168 139.207 94.8384 139.531 94.3696 139.78C93.9009 140.024 93.3857 140.146 92.8242 140.146C92.2285 140.146 91.7085 140.042 91.2642 139.832C90.8247 139.622 90.4585 139.333 90.1655 138.967C89.8774 138.601 89.6602 138.181 89.5137 137.708C89.3721 137.229 89.3013 136.724 89.3013 136.191V135.884C89.3013 135.352 89.3721 134.849 89.5137 134.375C89.6602 133.896 89.8774 133.474 90.1655 133.108C90.4585 132.742 90.8247 132.454 91.2642 132.244C91.7085 132.034 92.2285 131.929 92.8242 131.929C93.4443 131.929 93.9863 132.056 94.4502 132.31C94.9141 132.559 95.2778 132.9 95.5415 133.335C95.8101 133.765 95.9565 134.253 95.981 134.8H94.6919C94.6675 134.473 94.5747 134.177 94.4136 133.914C94.2573 133.65 94.0425 133.44 93.769 133.284C93.5005 133.123 93.1855 133.042 92.8242 133.042C92.4092 133.042 92.0601 133.125 91.7769 133.291C91.4985 133.452 91.2764 133.672 91.1104 133.95C90.9492 134.224 90.832 134.529 90.7588 134.866C90.6904 135.198 90.6562 135.537 90.6562 135.884V136.191C90.6562 136.538 90.6904 136.88 90.7588 137.217C90.8271 137.554 90.9419 137.859 91.103 138.132C91.269 138.406 91.4912 138.625 91.7695 138.792C92.0527 138.953 92.4043 139.033 92.8242 139.033ZM97.1455 136.125V135.957C97.1455 135.386 97.2285 134.856 97.3945 134.368C97.5605 133.875 97.7998 133.447 98.1123 133.086C98.4248 132.72 98.8032 132.437 99.2476 132.236C99.6919 132.031 100.19 131.929 100.742 131.929C101.298 131.929 101.799 132.031 102.243 132.236C102.692 132.437 103.073 132.72 103.386 133.086C103.703 133.447 103.945 133.875 104.111 134.368C104.277 134.856 104.36 135.386 104.36 135.957V136.125C104.36 136.697 104.277 137.227 104.111 137.715C103.945 138.203 103.703 138.63 103.386 138.997C103.073 139.358 102.695 139.641 102.25 139.846C101.811 140.046 101.313 140.146 100.756 140.146C100.2 140.146 99.6992 140.046 99.2549 139.846C98.8105 139.641 98.4297 139.358 98.1123 138.997C97.7998 138.63 97.5605 138.203 97.3945 137.715C97.2285 137.227 97.1455 136.697 97.1455 136.125ZM98.5005 135.957V136.125C98.5005 136.521 98.5469 136.895 98.6396 137.246C98.7324 137.593 98.8716 137.9 99.0571 138.169C99.2476 138.438 99.4844 138.65 99.7676 138.806C100.051 138.958 100.38 139.033 100.756 139.033C101.127 139.033 101.452 138.958 101.73 138.806C102.014 138.65 102.248 138.438 102.434 138.169C102.619 137.9 102.758 137.593 102.851 137.246C102.949 136.895 102.998 136.521 102.998 136.125V135.957C102.998 135.566 102.949 135.198 102.851 134.851C102.758 134.5 102.617 134.189 102.426 133.921C102.241 133.647 102.006 133.433 101.723 133.276C101.445 133.12 101.118 133.042 100.742 133.042C100.371 133.042 100.043 133.12 99.7603 133.276C99.4819 133.433 99.2476 133.647 99.0571 133.921C98.8716 134.189 98.7324 134.5 98.6396 134.851C98.5469 135.198 98.5005 135.566 98.5005 135.957ZM107.414 133.767V140H106.059V132.075H107.341L107.414 133.767ZM107.092 135.737L106.528 135.715C106.533 135.173 106.613 134.673 106.77 134.214C106.926 133.75 107.146 133.347 107.429 133.005C107.712 132.664 108.049 132.4 108.439 132.214C108.835 132.024 109.272 131.929 109.75 131.929C110.141 131.929 110.493 131.982 110.805 132.09C111.118 132.192 111.384 132.358 111.604 132.588C111.828 132.817 111.999 133.115 112.116 133.481C112.233 133.843 112.292 134.285 112.292 134.807V140H110.93V134.792C110.93 134.377 110.869 134.045 110.747 133.796C110.625 133.542 110.446 133.359 110.212 133.247C109.978 133.13 109.689 133.071 109.348 133.071C109.011 133.071 108.703 133.142 108.425 133.284C108.151 133.425 107.915 133.621 107.714 133.87C107.519 134.119 107.365 134.404 107.253 134.727C107.146 135.044 107.092 135.381 107.092 135.737ZM119.338 143.047V133.599L119.455 132.075H120.7V143.047H119.338ZM114.013 136.125V135.972C114.013 135.366 114.084 134.817 114.226 134.324C114.367 133.826 114.575 133.398 114.848 133.042C115.122 132.686 115.451 132.412 115.837 132.222C116.228 132.026 116.672 131.929 117.17 131.929C117.668 131.929 118.105 132.017 118.481 132.192C118.862 132.363 119.184 132.615 119.448 132.947C119.716 133.274 119.929 133.669 120.085 134.133C120.241 134.597 120.349 135.122 120.407 135.708V136.382C120.354 136.963 120.249 137.485 120.092 137.949C119.936 138.413 119.724 138.809 119.455 139.136C119.191 139.463 118.867 139.714 118.481 139.89C118.1 140.061 117.658 140.146 117.155 140.146C116.667 140.146 116.228 140.046 115.837 139.846C115.451 139.646 115.122 139.365 114.848 139.004C114.58 138.643 114.372 138.218 114.226 137.729C114.084 137.236 114.013 136.702 114.013 136.125ZM115.375 135.972V136.125C115.375 136.521 115.417 136.895 115.5 137.246C115.583 137.593 115.71 137.9 115.881 138.169C116.057 138.438 116.276 138.65 116.54 138.806C116.809 138.958 117.126 139.033 117.492 139.033C117.941 139.033 118.315 138.936 118.613 138.74C118.916 138.545 119.157 138.289 119.338 137.971C119.519 137.649 119.658 137.305 119.755 136.938V135.173C119.702 134.905 119.616 134.644 119.499 134.39C119.387 134.136 119.24 133.909 119.06 133.708C118.879 133.503 118.659 133.342 118.4 133.225C118.146 133.103 117.849 133.042 117.507 133.042C117.136 133.042 116.816 133.12 116.547 133.276C116.279 133.433 116.057 133.647 115.881 133.921C115.71 134.189 115.583 134.5 115.5 134.851C115.417 135.203 115.375 135.576 115.375 135.972ZM127.724 138.169V132.075H129.086V140H127.79L127.724 138.169ZM127.98 136.499L128.544 136.484C128.544 137.012 128.488 137.5 128.376 137.949C128.269 138.394 128.093 138.779 127.849 139.106C127.604 139.434 127.285 139.69 126.889 139.875C126.494 140.056 126.013 140.146 125.446 140.146C125.061 140.146 124.707 140.09 124.384 139.978C124.067 139.866 123.793 139.692 123.564 139.458C123.334 139.224 123.156 138.918 123.029 138.542C122.907 138.167 122.846 137.715 122.846 137.188V132.075H124.201V137.202C124.201 137.559 124.24 137.854 124.318 138.088C124.401 138.318 124.511 138.501 124.648 138.638C124.79 138.77 124.946 138.862 125.117 138.916C125.292 138.97 125.473 138.997 125.659 138.997C126.235 138.997 126.691 138.887 127.028 138.667C127.365 138.442 127.607 138.142 127.753 137.766C127.905 137.385 127.98 136.963 127.98 136.499ZM132.624 132.075V140H131.262V132.075H132.624ZM131.159 129.973C131.159 129.753 131.225 129.568 131.357 129.417C131.494 129.265 131.694 129.189 131.958 129.189C132.216 129.189 132.414 129.265 132.551 129.417C132.692 129.568 132.763 129.753 132.763 129.973C132.763 130.183 132.692 130.364 132.551 130.515C132.414 130.662 132.216 130.735 131.958 130.735C131.694 130.735 131.494 130.662 131.357 130.515C131.225 130.364 131.159 130.183 131.159 129.973ZM139.414 137.898C139.414 137.703 139.37 137.522 139.282 137.356C139.199 137.185 139.025 137.031 138.762 136.895C138.503 136.753 138.112 136.631 137.59 136.528C137.15 136.436 136.752 136.326 136.396 136.199C136.044 136.072 135.744 135.918 135.495 135.737C135.251 135.557 135.063 135.344 134.931 135.1C134.799 134.856 134.733 134.57 134.733 134.243C134.733 133.931 134.802 133.635 134.938 133.357C135.08 133.079 135.278 132.832 135.532 132.617C135.791 132.402 136.101 132.234 136.462 132.112C136.823 131.99 137.226 131.929 137.67 131.929C138.305 131.929 138.847 132.041 139.296 132.266C139.746 132.49 140.09 132.791 140.329 133.167C140.568 133.538 140.688 133.95 140.688 134.404H139.333C139.333 134.185 139.267 133.972 139.135 133.767C139.008 133.557 138.82 133.384 138.571 133.247C138.327 133.11 138.027 133.042 137.67 133.042C137.294 133.042 136.989 133.101 136.755 133.218C136.525 133.33 136.357 133.474 136.25 133.65C136.147 133.826 136.096 134.011 136.096 134.207C136.096 134.353 136.12 134.485 136.169 134.602C136.223 134.714 136.315 134.819 136.447 134.917C136.579 135.01 136.765 135.098 137.004 135.181C137.243 135.264 137.548 135.347 137.919 135.43C138.569 135.576 139.104 135.752 139.523 135.957C139.943 136.162 140.256 136.414 140.461 136.711C140.666 137.009 140.769 137.371 140.769 137.795C140.769 138.142 140.695 138.459 140.549 138.748C140.407 139.036 140.2 139.285 139.926 139.495C139.658 139.7 139.335 139.861 138.959 139.978C138.588 140.09 138.171 140.146 137.707 140.146C137.009 140.146 136.418 140.022 135.935 139.773C135.451 139.524 135.085 139.202 134.836 138.806C134.587 138.411 134.462 137.993 134.462 137.554H135.825C135.844 137.925 135.952 138.22 136.147 138.44C136.342 138.655 136.582 138.809 136.865 138.901C137.148 138.989 137.429 139.033 137.707 139.033C138.078 139.033 138.388 138.984 138.637 138.887C138.891 138.789 139.084 138.655 139.216 138.484C139.348 138.313 139.414 138.118 139.414 137.898ZM145.866 132.075V133.115H141.582V132.075H145.866ZM143.032 130.149H144.387V138.037C144.387 138.306 144.428 138.508 144.511 138.645C144.594 138.782 144.702 138.872 144.833 138.916C144.965 138.96 145.107 138.982 145.258 138.982C145.371 138.982 145.488 138.972 145.61 138.953C145.737 138.928 145.832 138.909 145.896 138.894L145.903 140C145.795 140.034 145.654 140.066 145.478 140.095C145.307 140.129 145.1 140.146 144.855 140.146C144.523 140.146 144.218 140.081 143.94 139.949C143.662 139.817 143.439 139.597 143.273 139.29C143.112 138.977 143.032 138.557 143.032 138.03V130.149ZM152.128 138.645V134.565C152.128 134.253 152.065 133.982 151.938 133.752C151.816 133.518 151.63 133.337 151.381 133.21C151.132 133.083 150.825 133.02 150.458 133.02C150.117 133.02 149.816 133.079 149.558 133.196C149.304 133.313 149.104 133.467 148.957 133.657C148.815 133.848 148.745 134.053 148.745 134.272H147.39C147.39 133.989 147.463 133.708 147.609 133.43C147.756 133.152 147.966 132.9 148.239 132.676C148.518 132.446 148.85 132.266 149.235 132.134C149.626 131.997 150.061 131.929 150.539 131.929C151.115 131.929 151.623 132.026 152.062 132.222C152.507 132.417 152.854 132.712 153.103 133.108C153.356 133.499 153.483 133.989 153.483 134.58V138.271C153.483 138.535 153.505 138.816 153.549 139.114C153.598 139.412 153.669 139.668 153.762 139.883V140H152.348C152.28 139.844 152.226 139.636 152.187 139.377C152.148 139.114 152.128 138.87 152.128 138.645ZM152.363 135.195L152.377 136.147H151.008C150.622 136.147 150.278 136.179 149.975 136.243C149.672 136.301 149.418 136.392 149.213 136.514C149.008 136.636 148.852 136.79 148.745 136.975C148.637 137.156 148.583 137.368 148.583 137.612C148.583 137.861 148.64 138.088 148.752 138.293C148.864 138.499 149.033 138.662 149.257 138.784C149.487 138.901 149.768 138.96 150.1 138.96C150.515 138.96 150.881 138.872 151.198 138.696C151.516 138.521 151.767 138.306 151.953 138.052C152.143 137.798 152.246 137.551 152.26 137.312L152.839 137.964C152.805 138.169 152.712 138.396 152.561 138.645C152.409 138.894 152.207 139.133 151.953 139.363C151.704 139.587 151.406 139.775 151.059 139.927C150.717 140.073 150.332 140.146 149.902 140.146C149.365 140.146 148.894 140.042 148.488 139.832C148.088 139.622 147.775 139.341 147.551 138.989C147.331 138.633 147.221 138.235 147.221 137.795C147.221 137.371 147.304 136.997 147.47 136.675C147.636 136.348 147.875 136.077 148.188 135.862C148.5 135.642 148.876 135.476 149.316 135.364C149.755 135.251 150.246 135.195 150.788 135.195H152.363ZM156.97 133.32V140H155.615V132.075H156.933L156.97 133.32ZM159.445 132.031L159.438 133.291C159.326 133.267 159.218 133.252 159.116 133.247C159.018 133.237 158.906 133.232 158.779 133.232C158.466 133.232 158.19 133.281 157.951 133.379C157.712 133.477 157.509 133.613 157.343 133.789C157.177 133.965 157.045 134.175 156.948 134.419C156.855 134.658 156.794 134.922 156.765 135.21L156.384 135.43C156.384 134.951 156.43 134.502 156.523 134.082C156.621 133.662 156.77 133.291 156.97 132.969C157.17 132.642 157.424 132.388 157.731 132.207C158.044 132.021 158.415 131.929 158.845 131.929C158.942 131.929 159.055 131.941 159.182 131.965C159.309 131.985 159.396 132.007 159.445 132.031ZM169.091 138.645V134.565C169.091 134.253 169.028 133.982 168.901 133.752C168.779 133.518 168.593 133.337 168.344 133.21C168.095 133.083 167.788 133.02 167.421 133.02C167.08 133.02 166.779 133.079 166.521 133.196C166.267 133.313 166.066 133.467 165.92 133.657C165.778 133.848 165.708 134.053 165.708 134.272H164.353C164.353 133.989 164.426 133.708 164.572 133.43C164.719 133.152 164.929 132.9 165.202 132.676C165.48 132.446 165.812 132.266 166.198 132.134C166.589 131.997 167.023 131.929 167.502 131.929C168.078 131.929 168.586 132.026 169.025 132.222C169.47 132.417 169.816 132.712 170.065 133.108C170.319 133.499 170.446 133.989 170.446 134.58V138.271C170.446 138.535 170.468 138.816 170.512 139.114C170.561 139.412 170.632 139.668 170.725 139.883V140H169.311C169.243 139.844 169.189 139.636 169.15 139.377C169.111 139.114 169.091 138.87 169.091 138.645ZM169.326 135.195L169.34 136.147H167.971C167.585 136.147 167.241 136.179 166.938 136.243C166.635 136.301 166.381 136.392 166.176 136.514C165.971 136.636 165.815 136.79 165.708 136.975C165.6 137.156 165.546 137.368 165.546 137.612C165.546 137.861 165.603 138.088 165.715 138.293C165.827 138.499 165.996 138.662 166.22 138.784C166.45 138.901 166.73 138.96 167.062 138.96C167.478 138.96 167.844 138.872 168.161 138.696C168.479 138.521 168.73 138.306 168.916 138.052C169.106 137.798 169.208 137.551 169.223 137.312L169.802 137.964C169.768 138.169 169.675 138.396 169.523 138.645C169.372 138.894 169.169 139.133 168.916 139.363C168.667 139.587 168.369 139.775 168.022 139.927C167.68 140.073 167.294 140.146 166.865 140.146C166.328 140.146 165.856 140.042 165.451 139.832C165.051 139.622 164.738 139.341 164.514 138.989C164.294 138.633 164.184 138.235 164.184 137.795C164.184 137.371 164.267 136.997 164.433 136.675C164.599 136.348 164.838 136.077 165.151 135.862C165.463 135.642 165.839 135.476 166.279 135.364C166.718 135.251 167.209 135.195 167.751 135.195H169.326ZM26.8696 151.75V163H25.5073V151.75H26.8696ZM30.5171 155.075V163H29.1548V155.075H30.5171ZM29.0522 152.973C29.0522 152.753 29.1182 152.568 29.25 152.417C29.3867 152.265 29.5869 152.189 29.8506 152.189C30.1094 152.189 30.3071 152.265 30.4438 152.417C30.5854 152.568 30.6562 152.753 30.6562 152.973C30.6562 153.183 30.5854 153.364 30.4438 153.515C30.3071 153.662 30.1094 153.735 29.8506 153.735C29.5869 153.735 29.3867 153.662 29.25 153.515C29.1182 153.364 29.0522 153.183 29.0522 152.973ZM32.6851 151.75H34.0474V161.462L33.9302 163H32.6851V151.75ZM39.4014 158.972V159.125C39.4014 159.702 39.333 160.236 39.1963 160.729C39.0596 161.218 38.8594 161.643 38.5957 162.004C38.332 162.365 38.0098 162.646 37.6289 162.846C37.248 163.046 36.811 163.146 36.3179 163.146C35.8149 163.146 35.373 163.061 34.9922 162.89C34.6162 162.714 34.2988 162.463 34.04 162.136C33.7812 161.809 33.5737 161.413 33.4175 160.949C33.2661 160.485 33.1611 159.963 33.1025 159.382V158.708C33.1611 158.122 33.2661 157.597 33.4175 157.133C33.5737 156.669 33.7812 156.274 34.04 155.947C34.2988 155.615 34.6162 155.363 34.9922 155.192C35.3682 155.017 35.8052 154.929 36.3032 154.929C36.8013 154.929 37.2432 155.026 37.6289 155.222C38.0146 155.412 38.3369 155.686 38.5957 156.042C38.8594 156.398 39.0596 156.826 39.1963 157.324C39.333 157.817 39.4014 158.366 39.4014 158.972ZM38.0391 159.125V158.972C38.0391 158.576 38.0024 158.205 37.9292 157.858C37.856 157.507 37.7388 157.199 37.5776 156.936C37.4165 156.667 37.2041 156.457 36.9404 156.306C36.6768 156.149 36.3521 156.071 35.9663 156.071C35.6245 156.071 35.3267 156.13 35.0728 156.247C34.8237 156.364 34.6113 156.523 34.4355 156.723C34.2598 156.918 34.1157 157.143 34.0034 157.397C33.896 157.646 33.8154 157.905 33.7617 158.173V159.938C33.8398 160.28 33.9668 160.61 34.1426 160.927C34.3232 161.24 34.5625 161.496 34.8604 161.696C35.1631 161.896 35.5366 161.997 35.981 161.997C36.3472 161.997 36.6597 161.923 36.9185 161.777C37.1821 161.625 37.3945 161.418 37.5557 161.154C37.7217 160.891 37.8438 160.585 37.9219 160.239C38 159.892 38.0391 159.521 38.0391 159.125ZM44.4038 163.146C43.8521 163.146 43.3516 163.054 42.9023 162.868C42.458 162.678 42.0747 162.412 41.7524 162.07C41.4351 161.728 41.1909 161.323 41.02 160.854C40.8491 160.385 40.7637 159.873 40.7637 159.316V159.008C40.7637 158.364 40.8589 157.79 41.0493 157.287C41.2397 156.779 41.4985 156.35 41.8257 155.998C42.1528 155.646 42.5239 155.38 42.939 155.2C43.354 155.019 43.7837 154.929 44.228 154.929C44.7944 154.929 45.2827 155.026 45.6929 155.222C46.1079 155.417 46.4473 155.69 46.7109 156.042C46.9746 156.389 47.1699 156.799 47.2969 157.272C47.4238 157.741 47.4873 158.254 47.4873 158.811V159.418H41.5693V158.312H46.1323V158.21C46.1128 157.858 46.0396 157.517 45.9126 157.185C45.7905 156.853 45.5952 156.579 45.3267 156.364C45.0581 156.149 44.6919 156.042 44.228 156.042C43.9204 156.042 43.6372 156.108 43.3784 156.24C43.1196 156.367 42.8975 156.557 42.7119 156.811C42.5264 157.065 42.3823 157.375 42.2798 157.741C42.1772 158.107 42.126 158.53 42.126 159.008V159.316C42.126 159.692 42.1772 160.046 42.2798 160.378C42.3872 160.705 42.541 160.993 42.7412 161.242C42.9463 161.491 43.1929 161.687 43.481 161.828C43.7739 161.97 44.106 162.041 44.4771 162.041C44.9556 162.041 45.3608 161.943 45.6929 161.748C46.0249 161.552 46.3154 161.291 46.5645 160.964L47.3848 161.616C47.2139 161.875 46.9966 162.121 46.7329 162.355C46.4692 162.59 46.1445 162.78 45.7588 162.927C45.3779 163.073 44.9263 163.146 44.4038 163.146ZM50.4243 156.32V163H49.0693V155.075H50.3877L50.4243 156.32ZM52.8999 155.031L52.8926 156.291C52.7803 156.267 52.6729 156.252 52.5703 156.247C52.4727 156.237 52.3604 156.232 52.2334 156.232C51.9209 156.232 51.645 156.281 51.4058 156.379C51.1665 156.477 50.9639 156.613 50.7979 156.789C50.6318 156.965 50.5 157.175 50.4023 157.419C50.3096 157.658 50.2485 157.922 50.2192 158.21L49.8384 158.43C49.8384 157.951 49.8848 157.502 49.9775 157.082C50.0752 156.662 50.2241 156.291 50.4243 155.969C50.6245 155.642 50.8784 155.388 51.186 155.207C51.4985 155.021 51.8696 154.929 52.2993 154.929C52.397 154.929 52.5093 154.941 52.6362 154.965C52.7632 154.985 52.8511 155.007 52.8999 155.031ZM59.001 161.462V151.75H60.3633V163H59.1182L59.001 161.462ZM53.6689 159.125V158.972C53.6689 158.366 53.7422 157.817 53.8887 157.324C54.04 156.826 54.2524 156.398 54.5259 156.042C54.8042 155.686 55.1338 155.412 55.5146 155.222C55.9004 155.026 56.3301 154.929 56.8037 154.929C57.3018 154.929 57.7363 155.017 58.1074 155.192C58.4834 155.363 58.8008 155.615 59.0596 155.947C59.3232 156.274 59.5308 156.669 59.6821 157.133C59.8335 157.597 59.9385 158.122 59.9971 158.708V159.382C59.9434 159.963 59.8384 160.485 59.6821 160.949C59.5308 161.413 59.3232 161.809 59.0596 162.136C58.8008 162.463 58.4834 162.714 58.1074 162.89C57.7314 163.061 57.292 163.146 56.7891 163.146C56.3252 163.146 55.9004 163.046 55.5146 162.846C55.1338 162.646 54.8042 162.365 54.5259 162.004C54.2524 161.643 54.04 161.218 53.8887 160.729C53.7422 160.236 53.6689 159.702 53.6689 159.125ZM55.0312 158.972V159.125C55.0312 159.521 55.0703 159.892 55.1484 160.239C55.2314 160.585 55.3584 160.891 55.5293 161.154C55.7002 161.418 55.9175 161.625 56.1812 161.777C56.4448 161.923 56.7598 161.997 57.126 161.997C57.5752 161.997 57.9438 161.901 58.2319 161.711C58.5249 161.521 58.7593 161.269 58.9351 160.957C59.1108 160.644 59.2476 160.305 59.3452 159.938V158.173C59.2866 157.905 59.2012 157.646 59.0889 157.397C58.9814 157.143 58.8398 156.918 58.6641 156.723C58.4932 156.523 58.2808 156.364 58.0269 156.247C57.7778 156.13 57.4824 156.071 57.1406 156.071C56.7695 156.071 56.4497 156.149 56.1812 156.306C55.9175 156.457 55.7002 156.667 55.5293 156.936C55.3584 157.199 55.2314 157.507 55.1484 157.858C55.0703 158.205 55.0312 158.576 55.0312 158.972ZM67.1455 161.645V157.565C67.1455 157.253 67.082 156.982 66.9551 156.752C66.833 156.518 66.6475 156.337 66.3984 156.21C66.1494 156.083 65.8418 156.02 65.4756 156.02C65.1338 156.02 64.8335 156.079 64.5747 156.196C64.3208 156.313 64.1206 156.467 63.9741 156.657C63.8325 156.848 63.7617 157.053 63.7617 157.272H62.4067C62.4067 156.989 62.48 156.708 62.6265 156.43C62.7729 156.152 62.9829 155.9 63.2563 155.676C63.5347 155.446 63.8667 155.266 64.2524 155.134C64.6431 154.997 65.0776 154.929 65.5562 154.929C66.1323 154.929 66.6401 155.026 67.0796 155.222C67.5239 155.417 67.8706 155.712 68.1196 156.108C68.3735 156.499 68.5005 156.989 68.5005 157.58V161.271C68.5005 161.535 68.5225 161.816 68.5664 162.114C68.6152 162.412 68.686 162.668 68.7788 162.883V163H67.3652C67.2969 162.844 67.2432 162.636 67.2041 162.377C67.165 162.114 67.1455 161.87 67.1455 161.645ZM67.3799 158.195L67.3945 159.147H66.0249C65.6392 159.147 65.2949 159.179 64.9922 159.243C64.6895 159.301 64.4355 159.392 64.2305 159.514C64.0254 159.636 63.8691 159.79 63.7617 159.975C63.6543 160.156 63.6006 160.368 63.6006 160.612C63.6006 160.861 63.6567 161.088 63.769 161.293C63.8813 161.499 64.0498 161.662 64.2744 161.784C64.5039 161.901 64.7847 161.96 65.1167 161.96C65.5317 161.96 65.8979 161.872 66.2153 161.696C66.5327 161.521 66.7842 161.306 66.9697 161.052C67.1602 160.798 67.2627 160.551 67.2773 160.312L67.856 160.964C67.8218 161.169 67.729 161.396 67.5776 161.645C67.4263 161.894 67.2236 162.133 66.9697 162.363C66.7207 162.587 66.4229 162.775 66.0762 162.927C65.7344 163.073 65.3486 163.146 64.9189 163.146C64.3818 163.146 63.9106 163.042 63.5054 162.832C63.105 162.622 62.7925 162.341 62.5679 161.989C62.3481 161.633 62.2383 161.235 62.2383 160.795C62.2383 160.371 62.3213 159.997 62.4873 159.675C62.6533 159.348 62.8926 159.077 63.2051 158.862C63.5176 158.642 63.8936 158.476 64.333 158.364C64.7725 158.251 65.2632 158.195 65.8052 158.195H67.3799ZM75.627 161.462V151.75H76.9893V163H75.7441L75.627 161.462ZM70.2949 159.125V158.972C70.2949 158.366 70.3682 157.817 70.5146 157.324C70.666 156.826 70.8784 156.398 71.1519 156.042C71.4302 155.686 71.7598 155.412 72.1406 155.222C72.5264 155.026 72.9561 154.929 73.4297 154.929C73.9277 154.929 74.3623 155.017 74.7334 155.192C75.1094 155.363 75.4268 155.615 75.6855 155.947C75.9492 156.274 76.1567 156.669 76.3081 157.133C76.4595 157.597 76.5645 158.122 76.623 158.708V159.382C76.5693 159.963 76.4644 160.485 76.3081 160.949C76.1567 161.413 75.9492 161.809 75.6855 162.136C75.4268 162.463 75.1094 162.714 74.7334 162.89C74.3574 163.061 73.918 163.146 73.415 163.146C72.9512 163.146 72.5264 163.046 72.1406 162.846C71.7598 162.646 71.4302 162.365 71.1519 162.004C70.8784 161.643 70.666 161.218 70.5146 160.729C70.3682 160.236 70.2949 159.702 70.2949 159.125ZM71.6572 158.972V159.125C71.6572 159.521 71.6963 159.892 71.7744 160.239C71.8574 160.585 71.9844 160.891 72.1553 161.154C72.3262 161.418 72.5435 161.625 72.8071 161.777C73.0708 161.923 73.3857 161.997 73.752 161.997C74.2012 161.997 74.5698 161.901 74.8579 161.711C75.1509 161.521 75.3853 161.269 75.561 160.957C75.7368 160.644 75.8735 160.305 75.9712 159.938V158.173C75.9126 157.905 75.8271 157.646 75.7148 157.397C75.6074 157.143 75.4658 156.918 75.29 156.723C75.1191 156.523 74.9067 156.364 74.6528 156.247C74.4038 156.13 74.1084 156.071 73.7666 156.071C73.3955 156.071 73.0757 156.149 72.8071 156.306C72.5435 156.457 72.3262 156.667 72.1553 156.936C71.9844 157.199 71.8574 157.507 71.7744 157.858C71.6963 158.205 71.6572 158.576 71.6572 158.972ZM82.3872 163.146C81.8354 163.146 81.335 163.054 80.8857 162.868C80.4414 162.678 80.0581 162.412 79.7358 162.07C79.4185 161.728 79.1743 161.323 79.0034 160.854C78.8325 160.385 78.7471 159.873 78.7471 159.316V159.008C78.7471 158.364 78.8423 157.79 79.0327 157.287C79.2231 156.779 79.4819 156.35 79.8091 155.998C80.1362 155.646 80.5073 155.38 80.9224 155.2C81.3374 155.019 81.7671 154.929 82.2114 154.929C82.7778 154.929 83.2661 155.026 83.6763 155.222C84.0913 155.417 84.4307 155.69 84.6943 156.042C84.958 156.389 85.1533 156.799 85.2803 157.272C85.4072 157.741 85.4707 158.254 85.4707 158.811V159.418H79.5527V158.312H84.1157V158.21C84.0962 157.858 84.0229 157.517 83.896 157.185C83.7739 156.853 83.5786 156.579 83.3101 156.364C83.0415 156.149 82.6753 156.042 82.2114 156.042C81.9038 156.042 81.6206 156.108 81.3618 156.24C81.103 156.367 80.8809 156.557 80.6953 156.811C80.5098 157.065 80.3657 157.375 80.2632 157.741C80.1606 158.107 80.1094 158.53 80.1094 159.008V159.316C80.1094 159.692 80.1606 160.046 80.2632 160.378C80.3706 160.705 80.5244 160.993 80.7246 161.242C80.9297 161.491 81.1763 161.687 81.4644 161.828C81.7573 161.97 82.0894 162.041 82.4604 162.041C82.939 162.041 83.3442 161.943 83.6763 161.748C84.0083 161.552 84.2988 161.291 84.5479 160.964L85.3682 161.616C85.1973 161.875 84.98 162.121 84.7163 162.355C84.4526 162.59 84.1279 162.78 83.7422 162.927C83.3613 163.073 82.9097 163.146 82.3872 163.146ZM92.5825 163H91.2275V154.387C91.2275 153.786 91.3447 153.278 91.5791 152.863C91.8135 152.448 92.1479 152.133 92.5825 151.918C93.0171 151.704 93.5322 151.596 94.1279 151.596C94.4795 151.596 94.8237 151.64 95.1606 151.728C95.4976 151.811 95.8442 151.916 96.2007 152.043L95.9736 153.186C95.749 153.098 95.4878 153.015 95.1899 152.937C94.897 152.854 94.5747 152.812 94.2231 152.812C93.6421 152.812 93.2222 152.944 92.9634 153.208C92.7095 153.466 92.5825 153.859 92.5825 154.387V163ZM94.2012 155.075V156.115H89.9751V155.075H94.2012ZM96.8672 155.075V163H95.5122V155.075H96.8672ZM100.449 156.767V163H99.0938V155.075H100.375L100.449 156.767ZM100.126 158.737L99.5625 158.715C99.5674 158.173 99.6479 157.673 99.8042 157.214C99.9604 156.75 100.18 156.347 100.463 156.005C100.747 155.664 101.083 155.4 101.474 155.214C101.87 155.024 102.307 154.929 102.785 154.929C103.176 154.929 103.527 154.982 103.84 155.09C104.152 155.192 104.418 155.358 104.638 155.588C104.863 155.817 105.034 156.115 105.151 156.481C105.268 156.843 105.327 157.285 105.327 157.807V163H103.964V157.792C103.964 157.377 103.903 157.045 103.781 156.796C103.659 156.542 103.481 156.359 103.247 156.247C103.012 156.13 102.724 156.071 102.382 156.071C102.045 156.071 101.738 156.142 101.459 156.284C101.186 156.425 100.949 156.621 100.749 156.87C100.554 157.119 100.4 157.404 100.288 157.727C100.18 158.044 100.126 158.381 100.126 158.737ZM112.058 161.645V157.565C112.058 157.253 111.994 156.982 111.867 156.752C111.745 156.518 111.56 156.337 111.311 156.21C111.062 156.083 110.754 156.02 110.388 156.02C110.046 156.02 109.746 156.079 109.487 156.196C109.233 156.313 109.033 156.467 108.886 156.657C108.745 156.848 108.674 157.053 108.674 157.272H107.319C107.319 156.989 107.392 156.708 107.539 156.43C107.685 156.152 107.895 155.9 108.168 155.676C108.447 155.446 108.779 155.266 109.165 155.134C109.555 154.997 109.99 154.929 110.468 154.929C111.044 154.929 111.552 155.026 111.992 155.222C112.436 155.417 112.783 155.712 113.032 156.108C113.286 156.499 113.413 156.989 113.413 157.58V161.271C113.413 161.535 113.435 161.816 113.479 162.114C113.527 162.412 113.598 162.668 113.691 162.883V163H112.277C112.209 162.844 112.155 162.636 112.116 162.377C112.077 162.114 112.058 161.87 112.058 161.645ZM112.292 158.195L112.307 159.147H110.937C110.551 159.147 110.207 159.179 109.904 159.243C109.602 159.301 109.348 159.392 109.143 159.514C108.938 159.636 108.781 159.79 108.674 159.975C108.566 160.156 108.513 160.368 108.513 160.612C108.513 160.861 108.569 161.088 108.681 161.293C108.793 161.499 108.962 161.662 109.187 161.784C109.416 161.901 109.697 161.96 110.029 161.96C110.444 161.96 110.81 161.872 111.127 161.696C111.445 161.521 111.696 161.306 111.882 161.052C112.072 160.798 112.175 160.551 112.189 160.312L112.768 160.964C112.734 161.169 112.641 161.396 112.49 161.645C112.338 161.894 112.136 162.133 111.882 162.363C111.633 162.587 111.335 162.775 110.988 162.927C110.646 163.073 110.261 163.146 109.831 163.146C109.294 163.146 108.823 163.042 108.417 162.832C108.017 162.622 107.705 162.341 107.48 161.989C107.26 161.633 107.15 161.235 107.15 160.795C107.15 160.371 107.233 159.997 107.399 159.675C107.565 159.348 107.805 159.077 108.117 158.862C108.43 158.642 108.806 158.476 109.245 158.364C109.685 158.251 110.175 158.195 110.717 158.195H112.292ZM116.899 156.767V163H115.544V155.075H116.826L116.899 156.767ZM116.577 158.737L116.013 158.715C116.018 158.173 116.098 157.673 116.254 157.214C116.411 156.75 116.63 156.347 116.914 156.005C117.197 155.664 117.534 155.4 117.924 155.214C118.32 155.024 118.757 154.929 119.235 154.929C119.626 154.929 119.978 154.982 120.29 155.09C120.603 155.192 120.869 155.358 121.088 155.588C121.313 155.817 121.484 156.115 121.601 156.481C121.718 156.843 121.777 157.285 121.777 157.807V163H120.415V157.792C120.415 157.377 120.354 157.045 120.231 156.796C120.109 156.542 119.931 156.359 119.697 156.247C119.462 156.13 119.174 156.071 118.833 156.071C118.496 156.071 118.188 156.142 117.91 156.284C117.636 156.425 117.399 156.621 117.199 156.87C117.004 157.119 116.85 157.404 116.738 157.727C116.63 158.044 116.577 158.381 116.577 158.737ZM127.006 162.033C127.329 162.033 127.626 161.967 127.9 161.835C128.173 161.704 128.398 161.523 128.574 161.293C128.75 161.059 128.85 160.793 128.874 160.495H130.163C130.139 160.964 129.98 161.401 129.687 161.806C129.399 162.207 129.021 162.531 128.552 162.78C128.083 163.024 127.568 163.146 127.006 163.146C126.411 163.146 125.891 163.042 125.446 162.832C125.007 162.622 124.641 162.333 124.348 161.967C124.06 161.601 123.842 161.181 123.696 160.708C123.554 160.229 123.483 159.724 123.483 159.191V158.884C123.483 158.352 123.554 157.849 123.696 157.375C123.842 156.896 124.06 156.474 124.348 156.108C124.641 155.742 125.007 155.454 125.446 155.244C125.891 155.034 126.411 154.929 127.006 154.929C127.626 154.929 128.168 155.056 128.632 155.31C129.096 155.559 129.46 155.9 129.724 156.335C129.992 156.765 130.139 157.253 130.163 157.8H128.874C128.85 157.473 128.757 157.177 128.596 156.914C128.439 156.65 128.225 156.44 127.951 156.284C127.683 156.123 127.368 156.042 127.006 156.042C126.591 156.042 126.242 156.125 125.959 156.291C125.681 156.452 125.458 156.672 125.292 156.95C125.131 157.224 125.014 157.529 124.941 157.866C124.873 158.198 124.838 158.537 124.838 158.884V159.191C124.838 159.538 124.873 159.88 124.941 160.217C125.009 160.554 125.124 160.859 125.285 161.132C125.451 161.406 125.673 161.625 125.952 161.792C126.235 161.953 126.586 162.033 127.006 162.033ZM134.975 163.146C134.423 163.146 133.923 163.054 133.474 162.868C133.029 162.678 132.646 162.412 132.324 162.07C132.006 161.728 131.762 161.323 131.591 160.854C131.42 160.385 131.335 159.873 131.335 159.316V159.008C131.335 158.364 131.43 157.79 131.621 157.287C131.811 156.779 132.07 156.35 132.397 155.998C132.724 155.646 133.095 155.38 133.51 155.2C133.925 155.019 134.355 154.929 134.799 154.929C135.366 154.929 135.854 155.026 136.264 155.222C136.679 155.417 137.019 155.69 137.282 156.042C137.546 156.389 137.741 156.799 137.868 157.272C137.995 157.741 138.059 158.254 138.059 158.811V159.418H132.141V158.312H136.704V158.21C136.684 157.858 136.611 157.517 136.484 157.185C136.362 156.853 136.167 156.579 135.898 156.364C135.629 156.149 135.263 156.042 134.799 156.042C134.492 156.042 134.208 156.108 133.95 156.24C133.691 156.367 133.469 156.557 133.283 156.811C133.098 157.065 132.954 157.375 132.851 157.741C132.749 158.107 132.697 158.53 132.697 159.008V159.316C132.697 159.692 132.749 160.046 132.851 160.378C132.958 160.705 133.112 160.993 133.312 161.242C133.518 161.491 133.764 161.687 134.052 161.828C134.345 161.97 134.677 162.041 135.048 162.041C135.527 162.041 135.932 161.943 136.264 161.748C136.596 161.552 136.887 161.291 137.136 160.964L137.956 161.616C137.785 161.875 137.568 162.121 137.304 162.355C137.041 162.59 136.716 162.78 136.33 162.927C135.949 163.073 135.498 163.146 134.975 163.146ZM141.113 155.075V163H139.75V155.075H141.113ZM139.648 152.973C139.648 152.753 139.714 152.568 139.846 152.417C139.982 152.265 140.183 152.189 140.446 152.189C140.705 152.189 140.903 152.265 141.04 152.417C141.181 152.568 141.252 152.753 141.252 152.973C141.252 153.183 141.181 153.364 141.04 153.515C140.903 153.662 140.705 153.735 140.446 153.735C140.183 153.735 139.982 153.662 139.846 153.515C139.714 153.364 139.648 153.183 139.648 152.973ZM144.643 156.32V163H143.288V155.075H144.606L144.643 156.32ZM147.119 155.031L147.111 156.291C146.999 156.267 146.892 156.252 146.789 156.247C146.691 156.237 146.579 156.232 146.452 156.232C146.14 156.232 145.864 156.281 145.625 156.379C145.385 156.477 145.183 156.613 145.017 156.789C144.851 156.965 144.719 157.175 144.621 157.419C144.528 157.658 144.467 157.922 144.438 158.21L144.057 158.43C144.057 157.951 144.104 157.502 144.196 157.082C144.294 156.662 144.443 156.291 144.643 155.969C144.843 155.642 145.097 155.388 145.405 155.207C145.717 155.021 146.088 154.929 146.518 154.929C146.616 154.929 146.728 154.941 146.855 154.965C146.982 154.985 147.07 155.007 147.119 155.031ZM152.751 161.645V157.565C152.751 157.253 152.688 156.982 152.561 156.752C152.438 156.518 152.253 156.337 152.004 156.21C151.755 156.083 151.447 156.02 151.081 156.02C150.739 156.02 150.439 156.079 150.18 156.196C149.926 156.313 149.726 156.467 149.58 156.657C149.438 156.848 149.367 157.053 149.367 157.272H148.012C148.012 156.989 148.085 156.708 148.232 156.43C148.378 156.152 148.588 155.9 148.862 155.676C149.14 155.446 149.472 155.266 149.858 155.134C150.249 154.997 150.683 154.929 151.162 154.929C151.738 154.929 152.246 155.026 152.685 155.222C153.129 155.417 153.476 155.712 153.725 156.108C153.979 156.499 154.106 156.989 154.106 157.58V161.271C154.106 161.535 154.128 161.816 154.172 162.114C154.221 162.412 154.292 162.668 154.384 162.883V163H152.971C152.902 162.844 152.849 162.636 152.81 162.377C152.771 162.114 152.751 161.87 152.751 161.645ZM152.985 158.195L153 159.147H151.63C151.245 159.147 150.9 159.179 150.598 159.243C150.295 159.301 150.041 159.392 149.836 159.514C149.631 159.636 149.475 159.79 149.367 159.975C149.26 160.156 149.206 160.368 149.206 160.612C149.206 160.861 149.262 161.088 149.375 161.293C149.487 161.499 149.655 161.662 149.88 161.784C150.109 161.901 150.39 161.96 150.722 161.96C151.137 161.96 151.503 161.872 151.821 161.696C152.138 161.521 152.39 161.306 152.575 161.052C152.766 160.798 152.868 160.551 152.883 160.312L153.461 160.964C153.427 161.169 153.334 161.396 153.183 161.645C153.032 161.894 152.829 162.133 152.575 162.363C152.326 162.587 152.028 162.775 151.682 162.927C151.34 163.073 150.954 163.146 150.524 163.146C149.987 163.146 149.516 163.042 149.111 162.832C148.71 162.622 148.398 162.341 148.173 161.989C147.954 161.633 147.844 161.235 147.844 160.795C147.844 160.371 147.927 159.997 148.093 159.675C148.259 159.348 148.498 159.077 148.811 158.862C149.123 158.642 149.499 158.476 149.938 158.364C150.378 158.251 150.869 158.195 151.411 158.195H152.985ZM161.306 156.65V163H159.943V155.075H161.232L161.306 156.65ZM161.027 158.737L160.397 158.715C160.402 158.173 160.473 157.673 160.61 157.214C160.747 156.75 160.949 156.347 161.218 156.005C161.486 155.664 161.821 155.4 162.221 155.214C162.622 155.024 163.085 154.929 163.613 154.929C163.984 154.929 164.326 154.982 164.638 155.09C164.951 155.192 165.222 155.356 165.451 155.581C165.681 155.805 165.859 156.093 165.986 156.445C166.113 156.796 166.176 157.221 166.176 157.719V163H164.821V157.785C164.821 157.37 164.75 157.038 164.609 156.789C164.472 156.54 164.277 156.359 164.023 156.247C163.769 156.13 163.471 156.071 163.129 156.071C162.729 156.071 162.395 156.142 162.126 156.284C161.857 156.425 161.643 156.621 161.481 156.87C161.32 157.119 161.203 157.404 161.13 157.727C161.062 158.044 161.027 158.381 161.027 158.737ZM166.162 157.99L165.253 158.269C165.258 157.834 165.329 157.417 165.466 157.016C165.607 156.616 165.81 156.259 166.074 155.947C166.342 155.634 166.672 155.388 167.062 155.207C167.453 155.021 167.9 154.929 168.403 154.929C168.828 154.929 169.204 154.985 169.531 155.097C169.863 155.209 170.141 155.383 170.366 155.617C170.595 155.847 170.769 156.142 170.886 156.503C171.003 156.865 171.062 157.294 171.062 157.792V163H169.699V157.778C169.699 157.333 169.628 156.989 169.487 156.745C169.35 156.496 169.155 156.323 168.901 156.225C168.652 156.123 168.354 156.071 168.007 156.071C167.709 156.071 167.446 156.123 167.216 156.225C166.987 156.328 166.794 156.469 166.638 156.65C166.481 156.826 166.362 157.028 166.279 157.258C166.201 157.487 166.162 157.731 166.162 157.99ZM177.785 161.645V157.565C177.785 157.253 177.722 156.982 177.595 156.752C177.473 156.518 177.287 156.337 177.038 156.21C176.789 156.083 176.481 156.02 176.115 156.02C175.773 156.02 175.473 156.079 175.214 156.196C174.96 156.313 174.76 156.467 174.614 156.657C174.472 156.848 174.401 157.053 174.401 157.272H173.046C173.046 156.989 173.12 156.708 173.266 156.43C173.413 156.152 173.623 155.9 173.896 155.676C174.174 155.446 174.506 155.266 174.892 155.134C175.283 154.997 175.717 154.929 176.196 154.929C176.772 154.929 177.28 155.026 177.719 155.222C178.164 155.417 178.51 155.712 178.759 156.108C179.013 156.499 179.14 156.989 179.14 157.58V161.271C179.14 161.535 179.162 161.816 179.206 162.114C179.255 162.412 179.326 162.668 179.418 162.883V163H178.005C177.937 162.844 177.883 162.636 177.844 162.377C177.805 162.114 177.785 161.87 177.785 161.645ZM178.02 158.195L178.034 159.147H176.665C176.279 159.147 175.935 159.179 175.632 159.243C175.329 159.301 175.075 159.392 174.87 159.514C174.665 159.636 174.509 159.79 174.401 159.975C174.294 160.156 174.24 160.368 174.24 160.612C174.24 160.861 174.296 161.088 174.409 161.293C174.521 161.499 174.689 161.662 174.914 161.784C175.144 161.901 175.424 161.96 175.756 161.96C176.171 161.96 176.538 161.872 176.855 161.696C177.172 161.521 177.424 161.306 177.609 161.052C177.8 160.798 177.902 160.551 177.917 160.312L178.496 160.964C178.461 161.169 178.369 161.396 178.217 161.645C178.066 161.894 177.863 162.133 177.609 162.363C177.36 162.587 177.062 162.775 176.716 162.927C176.374 163.073 175.988 163.146 175.559 163.146C175.021 163.146 174.55 163.042 174.145 162.832C173.745 162.622 173.432 162.341 173.208 161.989C172.988 161.633 172.878 161.235 172.878 160.795C172.878 160.371 172.961 159.997 173.127 159.675C173.293 159.348 173.532 159.077 173.845 158.862C174.157 158.642 174.533 158.476 174.973 158.364C175.412 158.251 175.903 158.195 176.445 158.195H178.02ZM182.744 155.075V163H181.381V155.075H182.744ZM181.279 152.973C181.279 152.753 181.345 152.568 181.477 152.417C181.613 152.265 181.813 152.189 182.077 152.189C182.336 152.189 182.534 152.265 182.67 152.417C182.812 152.568 182.883 152.753 182.883 152.973C182.883 153.183 182.812 153.364 182.67 153.515C182.534 153.662 182.336 153.735 182.077 153.735C181.813 153.735 181.613 153.662 181.477 153.515C181.345 153.364 181.279 153.183 181.279 152.973ZM189.533 160.898C189.533 160.703 189.489 160.522 189.401 160.356C189.318 160.185 189.145 160.031 188.881 159.895C188.623 159.753 188.232 159.631 187.709 159.528C187.27 159.436 186.872 159.326 186.516 159.199C186.164 159.072 185.864 158.918 185.615 158.737C185.371 158.557 185.183 158.344 185.051 158.1C184.919 157.856 184.853 157.57 184.853 157.243C184.853 156.931 184.921 156.635 185.058 156.357C185.2 156.079 185.397 155.832 185.651 155.617C185.91 155.402 186.22 155.234 186.582 155.112C186.943 154.99 187.346 154.929 187.79 154.929C188.425 154.929 188.967 155.041 189.416 155.266C189.865 155.49 190.209 155.791 190.449 156.167C190.688 156.538 190.808 156.95 190.808 157.404H189.453C189.453 157.185 189.387 156.972 189.255 156.767C189.128 156.557 188.94 156.384 188.691 156.247C188.447 156.11 188.146 156.042 187.79 156.042C187.414 156.042 187.109 156.101 186.875 156.218C186.645 156.33 186.477 156.474 186.369 156.65C186.267 156.826 186.215 157.011 186.215 157.207C186.215 157.353 186.24 157.485 186.289 157.602C186.342 157.714 186.435 157.819 186.567 157.917C186.699 158.01 186.884 158.098 187.124 158.181C187.363 158.264 187.668 158.347 188.039 158.43C188.688 158.576 189.223 158.752 189.643 158.957C190.063 159.162 190.375 159.414 190.581 159.711C190.786 160.009 190.888 160.371 190.888 160.795C190.888 161.142 190.815 161.459 190.668 161.748C190.527 162.036 190.319 162.285 190.046 162.495C189.777 162.7 189.455 162.861 189.079 162.978C188.708 163.09 188.291 163.146 187.827 163.146C187.128 163.146 186.538 163.022 186.054 162.773C185.571 162.524 185.205 162.202 184.956 161.806C184.707 161.411 184.582 160.993 184.582 160.554H185.944C185.964 160.925 186.071 161.22 186.267 161.44C186.462 161.655 186.701 161.809 186.984 161.901C187.268 161.989 187.548 162.033 187.827 162.033C188.198 162.033 188.508 161.984 188.757 161.887C189.011 161.789 189.204 161.655 189.335 161.484C189.467 161.313 189.533 161.118 189.533 160.898ZM89.3672 179.32V186H88.0122V178.075H89.3306L89.3672 179.32ZM91.8428 178.031L91.8354 179.291C91.7231 179.267 91.6157 179.252 91.5132 179.247C91.4155 179.237 91.3032 179.232 91.1763 179.232C90.8638 179.232 90.5879 179.281 90.3486 179.379C90.1094 179.477 89.9067 179.613 89.7407 179.789C89.5747 179.965 89.4429 180.175 89.3452 180.419C89.2524 180.658 89.1914 180.922 89.1621 181.21L88.7812 181.43C88.7812 180.951 88.8276 180.502 88.9204 180.082C89.0181 179.662 89.167 179.291 89.3672 178.969C89.5674 178.642 89.8213 178.388 90.1289 178.207C90.4414 178.021 90.8125 177.929 91.2422 177.929C91.3398 177.929 91.4521 177.941 91.5791 177.965C91.7061 177.985 91.7939 178.007 91.8428 178.031ZM97.4751 184.645V180.565C97.4751 180.253 97.4116 179.982 97.2847 179.752C97.1626 179.518 96.9771 179.337 96.728 179.21C96.479 179.083 96.1714 179.02 95.8052 179.02C95.4634 179.02 95.1631 179.079 94.9043 179.196C94.6504 179.313 94.4502 179.467 94.3037 179.657C94.1621 179.848 94.0913 180.053 94.0913 180.272H92.7363C92.7363 179.989 92.8096 179.708 92.9561 179.43C93.1025 179.152 93.3125 178.9 93.5859 178.676C93.8643 178.446 94.1963 178.266 94.582 178.134C94.9727 177.997 95.4072 177.929 95.8857 177.929C96.4619 177.929 96.9697 178.026 97.4092 178.222C97.8535 178.417 98.2002 178.712 98.4492 179.108C98.7031 179.499 98.8301 179.989 98.8301 180.58V184.271C98.8301 184.535 98.8521 184.816 98.896 185.114C98.9448 185.412 99.0156 185.668 99.1084 185.883V186H97.6948C97.6265 185.844 97.5728 185.636 97.5337 185.377C97.4946 185.114 97.4751 184.87 97.4751 184.645ZM97.7095 181.195L97.7241 182.147H96.3545C95.9688 182.147 95.6245 182.179 95.3218 182.243C95.019 182.301 94.7651 182.392 94.5601 182.514C94.355 182.636 94.1987 182.79 94.0913 182.975C93.9839 183.156 93.9302 183.368 93.9302 183.612C93.9302 183.861 93.9863 184.088 94.0986 184.293C94.2109 184.499 94.3794 184.662 94.604 184.784C94.8335 184.901 95.1143 184.96 95.4463 184.96C95.8613 184.96 96.2275 184.872 96.5449 184.696C96.8623 184.521 97.1138 184.306 97.2993 184.052C97.4897 183.798 97.5923 183.551 97.6069 183.312L98.1855 183.964C98.1514 184.169 98.0586 184.396 97.9072 184.645C97.7559 184.894 97.5532 185.133 97.2993 185.363C97.0503 185.587 96.7524 185.775 96.4058 185.927C96.064 186.073 95.6782 186.146 95.2485 186.146C94.7114 186.146 94.2402 186.042 93.835 185.832C93.4346 185.622 93.1221 185.341 92.8975 184.989C92.6777 184.633 92.5679 184.235 92.5679 183.795C92.5679 183.371 92.6509 182.997 92.8169 182.675C92.9829 182.348 93.2222 182.077 93.5347 181.862C93.8472 181.642 94.2231 181.476 94.6626 181.364C95.1021 181.251 95.5928 181.195 96.1348 181.195H97.7095ZM95.2852 176.903L96.7061 174.75H98.3394L96.3765 176.903H95.2852ZM102.316 179.599V189.047H100.954V178.075H102.199L102.316 179.599ZM107.656 181.972V182.125C107.656 182.702 107.587 183.236 107.451 183.729C107.314 184.218 107.114 184.643 106.85 185.004C106.591 185.365 106.271 185.646 105.891 185.846C105.51 186.046 105.073 186.146 104.58 186.146C104.077 186.146 103.632 186.063 103.247 185.897C102.861 185.731 102.534 185.49 102.265 185.172C101.997 184.855 101.782 184.474 101.621 184.03C101.464 183.585 101.357 183.085 101.298 182.528V181.708C101.357 181.122 101.467 180.597 101.628 180.133C101.789 179.669 102.001 179.274 102.265 178.947C102.534 178.615 102.858 178.363 103.239 178.192C103.62 178.017 104.06 177.929 104.558 177.929C105.056 177.929 105.498 178.026 105.883 178.222C106.269 178.412 106.594 178.686 106.857 179.042C107.121 179.398 107.319 179.826 107.451 180.324C107.587 180.817 107.656 181.366 107.656 181.972ZM106.293 182.125V181.972C106.293 181.576 106.252 181.205 106.169 180.858C106.086 180.507 105.957 180.199 105.781 179.936C105.61 179.667 105.39 179.457 105.122 179.306C104.853 179.149 104.533 179.071 104.162 179.071C103.82 179.071 103.522 179.13 103.269 179.247C103.02 179.364 102.807 179.523 102.631 179.723C102.456 179.918 102.312 180.143 102.199 180.397C102.092 180.646 102.011 180.905 101.958 181.173V183.07C102.055 183.412 102.192 183.734 102.368 184.037C102.543 184.335 102.778 184.577 103.071 184.762C103.364 184.943 103.732 185.033 104.177 185.033C104.543 185.033 104.858 184.958 105.122 184.806C105.39 184.65 105.61 184.438 105.781 184.169C105.957 183.9 106.086 183.593 106.169 183.246C106.252 182.895 106.293 182.521 106.293 182.125ZM110.856 178.075V186H109.494V178.075H110.856ZM109.392 175.973C109.392 175.753 109.458 175.568 109.589 175.417C109.726 175.265 109.926 175.189 110.19 175.189C110.449 175.189 110.646 175.265 110.783 175.417C110.925 175.568 110.996 175.753 110.996 175.973C110.996 176.183 110.925 176.364 110.783 176.515C110.646 176.662 110.449 176.735 110.19 176.735C109.926 176.735 109.726 176.662 109.589 176.515C109.458 176.364 109.392 176.183 109.392 175.973ZM118.027 184.462V174.75H119.389V186H118.144L118.027 184.462ZM112.695 182.125V181.972C112.695 181.366 112.768 180.817 112.915 180.324C113.066 179.826 113.278 179.398 113.552 179.042C113.83 178.686 114.16 178.412 114.541 178.222C114.926 178.026 115.356 177.929 115.83 177.929C116.328 177.929 116.762 178.017 117.133 178.192C117.509 178.363 117.827 178.615 118.085 178.947C118.349 179.274 118.557 179.669 118.708 180.133C118.859 180.597 118.964 181.122 119.023 181.708V182.382C118.969 182.963 118.864 183.485 118.708 183.949C118.557 184.413 118.349 184.809 118.085 185.136C117.827 185.463 117.509 185.714 117.133 185.89C116.757 186.061 116.318 186.146 115.815 186.146C115.351 186.146 114.926 186.046 114.541 185.846C114.16 185.646 113.83 185.365 113.552 185.004C113.278 184.643 113.066 184.218 112.915 183.729C112.768 183.236 112.695 182.702 112.695 182.125ZM114.057 181.972V182.125C114.057 182.521 114.096 182.892 114.174 183.239C114.257 183.585 114.384 183.891 114.555 184.154C114.726 184.418 114.943 184.625 115.207 184.777C115.471 184.923 115.786 184.997 116.152 184.997C116.601 184.997 116.97 184.901 117.258 184.711C117.551 184.521 117.785 184.269 117.961 183.957C118.137 183.644 118.273 183.305 118.371 182.938V181.173C118.312 180.905 118.227 180.646 118.115 180.397C118.007 180.143 117.866 179.918 117.69 179.723C117.519 179.523 117.307 179.364 117.053 179.247C116.804 179.13 116.508 179.071 116.167 179.071C115.795 179.071 115.476 179.149 115.207 179.306C114.943 179.457 114.726 179.667 114.555 179.936C114.384 180.199 114.257 180.507 114.174 180.858C114.096 181.205 114.057 181.576 114.057 181.972ZM121.14 182.125V181.957C121.14 181.386 121.223 180.856 121.389 180.368C121.555 179.875 121.794 179.447 122.106 179.086C122.419 178.72 122.797 178.437 123.242 178.236C123.686 178.031 124.184 177.929 124.736 177.929C125.292 177.929 125.793 178.031 126.237 178.236C126.687 178.437 127.067 178.72 127.38 179.086C127.697 179.447 127.939 179.875 128.105 180.368C128.271 180.856 128.354 181.386 128.354 181.957V182.125C128.354 182.697 128.271 183.227 128.105 183.715C127.939 184.203 127.697 184.63 127.38 184.997C127.067 185.358 126.689 185.641 126.245 185.846C125.805 186.046 125.307 186.146 124.75 186.146C124.194 186.146 123.693 186.046 123.249 185.846C122.805 185.641 122.424 185.358 122.106 184.997C121.794 184.63 121.555 184.203 121.389 183.715C121.223 183.227 121.14 182.697 121.14 182.125ZM122.495 181.957V182.125C122.495 182.521 122.541 182.895 122.634 183.246C122.727 183.593 122.866 183.9 123.051 184.169C123.242 184.438 123.479 184.65 123.762 184.806C124.045 184.958 124.375 185.033 124.75 185.033C125.122 185.033 125.446 184.958 125.725 184.806C126.008 184.65 126.242 184.438 126.428 184.169C126.613 183.9 126.752 183.593 126.845 183.246C126.943 182.895 126.992 182.521 126.992 182.125V181.957C126.992 181.566 126.943 181.198 126.845 180.851C126.752 180.5 126.611 180.189 126.42 179.921C126.235 179.647 126 179.433 125.717 179.276C125.439 179.12 125.112 179.042 124.736 179.042C124.365 179.042 124.038 179.12 123.754 179.276C123.476 179.433 123.242 179.647 123.051 179.921C122.866 180.189 122.727 180.5 122.634 180.851C122.541 181.198 122.495 181.566 122.495 181.957Z" fill="#FDFAFA"/>
</g>
<defs>
<linearGradient id="paint0_linear_202_17" x1="153" y1="17" x2="17" y2="379.5" gradientUnits="userSpaceOnUse">
<stop stop-color="#B17BFF"/>
<stop offset="1" stop-color="#4388F7"/>
</linearGradient>
<clipPath id="clip0_202_17">
<rect width="216" height="216" fill="white"/>
</clipPath>
</defs>
</svg>
