<svg width="216" height="216" viewBox="0 0 216 216" fill="none" xmlns="http://www.w3.org/2000/svg">
<g clip-path="url(#clip0_201_2)">
<path d="M88.2964 6.16148L93.7785 3.89073L93.9698 4.35267L96.7109 3.2173C97.6069 2.84615 98.5166 2.52102 99.4366 2.2419L99.2915 1.76344C101.181 1.19024 103.113 0.807806 105.059 0.61615L105.108 1.11375C107.031 0.924405 108.969 0.924406 110.892 1.11375L110.941 0.616152C112.887 0.80781 114.819 1.19024 116.709 1.76344L116.563 2.24191C117.483 2.52103 118.393 2.84616 119.289 3.2173L122.03 4.35268L122.222 3.89074L127.704 6.16149L127.512 6.62343L132.994 8.89418L133.186 8.43224L138.668 10.703L138.476 11.1649L143.959 13.4357L144.15 12.9738L149.632 15.2445L149.441 15.7064L154.923 17.9772L155.114 17.5153L160.596 19.786L160.405 20.2479L165.887 22.5187L166.078 22.0568L171.56 24.3275L171.369 24.7894L174.11 25.9248C175.006 26.296 175.879 26.7093 176.727 27.1625L176.963 26.7216C178.704 27.6522 180.341 28.7481 181.853 29.9889L181.535 30.3754C183.029 31.6013 184.399 32.971 185.625 34.4646L186.011 34.1474C187.252 35.6593 188.348 37.296 189.278 39.0373L188.837 39.273C189.291 40.1209 189.704 40.9941 190.075 41.8901L191.211 44.6311L191.673 44.4398L193.943 49.9219L193.481 50.1132L195.752 55.5953L196.214 55.4039L198.485 60.886L198.023 61.0774L200.294 66.5594L200.755 66.3681L203.026 71.8502L202.564 72.0415L204.835 77.5236L205.297 77.3322L207.568 82.8143L207.106 83.0057L209.377 88.4877L209.838 88.2964L212.109 93.7785L211.647 93.9698L212.783 96.7108C213.154 97.6069 213.479 98.5166 213.758 99.4366L214.237 99.2915C214.81 101.181 215.192 103.113 215.384 105.059L214.886 105.108C215.076 107.031 215.076 108.969 214.886 110.892L215.384 110.941C215.192 112.887 214.81 114.819 214.237 116.709L213.758 116.563C213.479 117.483 213.154 118.393 212.783 119.289L211.647 122.03L212.109 122.222L209.838 127.704L209.377 127.512L207.106 132.994L207.568 133.186L205.297 138.668L204.835 138.476L202.564 143.959L203.026 144.15L200.755 149.632L200.294 149.441L198.023 154.923L198.485 155.114L196.214 160.596L195.752 160.405L193.481 165.887L193.943 166.078L191.672 171.56L191.211 171.369L190.075 174.11C189.704 175.006 189.291 175.879 188.837 176.727L189.278 176.963C188.348 178.704 187.252 180.341 186.011 181.853L185.625 181.535C184.399 183.029 183.029 184.399 181.535 185.625L181.853 186.011C180.341 187.252 178.704 188.348 176.963 189.278L176.727 188.837C175.879 189.291 175.006 189.704 174.11 190.075L171.369 191.211L171.56 191.673L166.078 193.943L165.887 193.481L160.405 195.752L160.596 196.214L155.114 198.485L154.923 198.023L149.441 200.294L149.632 200.756L144.15 203.026L143.958 202.564L138.476 204.835L138.668 205.297L133.186 207.568L132.994 207.106L127.512 209.377L127.704 209.839L122.222 212.109L122.03 211.647L119.289 212.783C118.393 213.154 117.483 213.479 116.563 213.758L116.709 214.237C114.819 214.81 112.887 215.192 110.941 215.384L110.892 214.886C108.969 215.076 107.031 215.076 105.108 214.886L105.059 215.384C103.113 215.192 101.181 214.81 99.2915 214.237L99.4366 213.758C98.5166 213.479 97.6068 213.154 96.7108 212.783L93.9698 211.647L93.7785 212.109L88.2964 209.838L88.4877 209.377L83.0056 207.106L82.8143 207.568L77.3322 205.297L77.5236 204.835L72.0415 202.564L71.8502 203.026L66.3681 200.755L66.5594 200.294L61.0774 198.023L60.886 198.485L55.4039 196.214L55.5953 195.752L50.1132 193.481L49.9219 193.943L44.4398 191.672L44.6311 191.211L41.8901 190.075C40.9941 189.704 40.1209 189.291 39.273 188.837L39.0373 189.278C37.296 188.348 35.6593 187.252 34.1474 186.011L34.4646 185.625C32.971 184.399 31.6012 183.029 30.3754 181.535L29.9889 181.853C28.7481 180.341 27.6522 178.704 26.7216 176.963L27.1625 176.727C26.7093 175.879 26.296 175.006 25.9248 174.11L24.7894 171.369L24.3275 171.56L22.0567 166.078L22.5187 165.887L20.2479 160.405L19.786 160.596L17.5152 155.114L17.9772 154.923L15.7064 149.441L15.2445 149.632L12.9738 144.15L13.4357 143.958L11.1649 138.476L10.703 138.668L8.43229 133.186L8.89423 132.994L6.62348 127.512L6.16154 127.704L3.89079 122.222L4.35273 122.03L3.21736 119.289C2.84621 118.393 2.52108 117.483 2.24196 116.563L1.7635 116.709C1.1903 114.819 0.807867 112.887 0.616211 110.941L1.11381 110.892C0.924466 108.969 0.924467 107.031 1.11381 105.108L0.616213 105.059C0.80787 103.113 1.1903 101.181 1.7635 99.2915L2.24197 99.4366C2.52109 98.5166 2.84622 97.6068 3.21736 96.7108L4.35274 93.9698L3.8908 93.7785L6.16155 88.2964L6.62349 88.4877L8.89424 83.0056L8.4323 82.8143L10.703 77.3322L11.1649 77.5236L13.4357 72.0415L12.9738 71.8502L15.2445 66.3681L15.7064 66.5594L17.9772 61.0773L17.5153 60.886L19.786 55.4039L20.2479 55.5953L22.5187 50.1132L22.0568 49.9219L24.3275 44.4398L24.7894 44.6311L25.9248 41.8901C26.296 40.9941 26.7093 40.1209 27.1625 39.273L26.7216 39.0373C27.6522 37.296 28.7481 35.6593 29.9889 34.1474L30.3754 34.4646C31.6013 32.971 32.971 31.6012 34.4646 30.3754L34.1474 29.9889C35.6593 28.7481 37.296 27.6522 39.0373 26.7216L39.273 27.1625C40.1209 26.7093 40.9941 26.296 41.8901 25.9248L44.6311 24.7894L44.4398 24.3275L49.9219 22.0567L50.1132 22.5187L55.5953 20.2479L55.4039 19.786L60.886 17.5152L61.0774 17.9772L66.5594 15.7064L66.3681 15.2445L71.8502 12.9738L72.0415 13.4357L77.5236 11.1649L77.3322 10.703L82.8143 8.43223L83.0057 8.89417L88.4877 6.62342L88.2964 6.16148Z" fill="url(#paint0_linear_201_2)" stroke="#FAF9FB" stroke-dasharray="6 6"/>
<path d="M115.512 64.4286C115.714 66.9864 115.904 69.5882 116.091 72.1062C116.164 73.0878 116.234 74.0694 116.308 75.0511C116.471 77.2339 116.634 79.4206 116.797 81.6034L117.092 85.522C117.123 85.9489 117.154 86.3799 117.185 86.8228L117.27 88H107.449L108.333 74.9114C108.26 74.8157 108.209 74.7478 108.139 74.652C107.588 74.5443 107.018 74.4366 106.471 74.2291C105.4 73.83 104.321 73.3991 103.281 72.9841C102.334 72.605 101.36 72.2179 100.398 71.8508C100.215 71.7829 99.9012 71.7869 99.746 71.8627C97.5806 72.8683 95.3416 73.3951 93.0948 73.431C93.6769 72.6489 94.1425 71.771 94.4685 70.8292C95.5667 70.7055 96.6299 70.4382 97.6738 70.0192C97.3207 69.7279 96.9869 69.4485 96.6726 69.1293C96.1177 68.5667 95.5395 67.9641 95.0001 67.3097C94.9962 67.2498 94.9924 67.19 94.9924 67.1301C94.9613 66.4477 95.4153 65.8412 96.0673 65.7015C96.1681 65.6816 96.269 65.6576 96.3661 65.6337L96.6648 65.5659L96.8589 65.8053C100.122 69.8236 104.725 71.3639 108.516 72.2179L109.785 53.3791C109.688 53.3472 109.587 53.3153 109.486 53.2833C109.001 53.1317 108.543 52.988 108.081 52.8165C105.217 51.755 102.796 50.0391 100.883 47.7247C100.817 47.6449 100.728 47.5491 100.677 47.5491C100.646 47.5491 100.576 47.5611 100.441 47.6169C98.4615 48.415 96.626 48.8061 94.8294 48.8061C94.1581 48.8061 93.4829 48.7502 92.8232 48.6385C92.7184 48.6225 92.5748 48.5946 92.4312 48.5587C92.3109 48.5228 92.2295 48.4589 92.1713 48.415C92.1557 48.403 92.1363 48.3871 92.1092 48.3711L91.8569 48.1955L91.8841 47.9801C93.3121 47.6927 94.6198 47.0782 95.7374 46.2083C95.947 46.1963 96.1487 46.1804 96.3389 46.1564C97.1344 46.0686 97.9144 45.8611 98.7409 45.6457C98.9039 45.6018 99.0669 45.5579 99.2337 45.514C99.1212 45.2706 99.0048 45.0271 98.8922 44.7917C98.7331 44.4645 98.4887 43.9098 98.2209 43.2913C98.7836 42.2738 99.1716 41.1405 99.3385 39.9354C101.88 46.4437 105.194 49.5084 109.94 50.8931L109.959 50.6576C110.006 50.095 110.045 49.5403 110.084 48.9896L110.173 47.6967C110.235 46.7909 110.301 45.8731 110.363 44.9513C111.019 45.107 111.702 45.1908 112.404 45.1908C112.967 45.1908 113.518 45.1349 114.053 45.0311C114.162 46.4477 114.263 47.8564 114.368 49.245L114.538 51.5395C114.639 52.8963 114.74 54.257 114.841 55.6137C114.988 57.601 115.136 59.5882 115.283 61.5754C115.287 61.6153 115.291 61.6552 115.295 61.6991C115.411 61.6672 115.52 61.6313 115.621 61.5954C118.458 60.5299 120.798 58.7901 122.699 56.3121C123.149 56.9705 123.681 57.5651 124.274 58.0878C121.973 60.925 119.117 62.9282 115.784 64.0415C115.489 64.1413 115.489 64.1453 115.512 64.4286Z" fill="#FAF8F8"/>
<path d="M133.65 53.5108C133.506 54.6041 132.858 55.3464 131.718 55.7095C131.558 55.7654 131.395 55.7973 131.213 55.8372C131.198 55.8412 131.178 55.8492 131.155 55.8492V57.1261H129.661V55.8571C127.693 55.3623 126.809 54.3208 126.968 52.6808L126.995 52.4493H129.168L129.199 52.6728C129.215 52.7805 129.23 52.8883 129.246 53C129.304 53.5467 129.638 53.8819 130.169 53.9258C130.231 53.9338 130.301 53.9338 130.371 53.9338L130.518 53.9258C130.953 53.9178 131.221 53.7302 131.326 53.3791C131.465 52.9322 131.341 52.4892 131.023 52.2777C130.817 52.1421 130.588 52.0343 130.348 51.9186C130.227 51.8627 130.107 51.8029 129.983 51.743C129.82 51.6632 129.649 51.5794 129.486 51.5036C129.083 51.32 128.671 51.1285 128.307 50.8571C127.565 50.3105 127.162 49.4046 127.236 48.4389C127.313 47.4493 127.856 46.6034 128.695 46.1724C128.955 46.0407 129.226 45.9609 129.513 45.8731C129.595 45.8452 129.68 45.8212 129.766 45.7893V44.4445H131.256V45.8372C132.218 46.0567 132.866 46.5076 133.274 47.2219C133.549 47.7047 133.693 48.3791 133.627 48.9298L133.607 49.1572H131.43L131.357 48.7542C131.337 48.5946 131.31 48.4429 131.267 48.3073C131.147 47.9242 130.864 47.7287 130.425 47.7287C129.851 47.7406 129.704 47.9721 129.622 48.2235C129.475 48.6824 129.575 49.1293 129.87 49.3288C130.123 49.4964 130.39 49.6201 130.678 49.7558C130.786 49.8117 130.891 49.8595 130.996 49.9114C131.163 49.9992 131.326 50.075 131.492 50.1508C131.818 50.3105 132.16 50.4661 132.478 50.6696C133.409 51.2522 133.813 52.2418 133.65 53.5108ZM130.317 42.8843C126.075 42.8843 122.633 46.4198 122.633 50.7813C122.633 55.1508 126.075 58.6824 130.317 58.6824C134.558 58.6824 138 55.1508 138 50.7813C138 46.4198 134.558 42.8843 130.317 42.8843Z" fill="#FAF8F8"/>
<path d="M115.726 38.6026C115.582 39.6879 114.938 40.4302 113.801 40.7933C113.638 40.8492 113.475 40.8811 113.297 40.921C113.281 40.925 113.258 40.929 113.238 40.929V42.2019H111.745V40.9409C109.781 40.4461 108.904 39.4046 109.063 37.7725L109.09 37.5411H111.256L111.287 37.7646C111.302 37.8723 111.318 37.98 111.333 38.0918C111.391 38.6345 111.725 38.9697 112.253 39.0136C112.319 39.0176 112.385 39.0176 112.455 39.0176L112.602 39.0136C113.037 39.0056 113.301 38.818 113.409 38.4709C113.545 38.0239 113.425 37.585 113.107 37.3695C112.901 37.2338 112.672 37.1261 112.435 37.0144C112.311 36.9585 112.191 36.8986 112.067 36.8388C111.904 36.755 111.737 36.6752 111.57 36.5994C111.17 36.4118 110.763 36.2243 110.398 35.9489C109.657 35.4062 109.253 34.5044 109.327 33.5387C109.408 32.5571 109.948 31.7111 110.782 31.2801C111.042 31.1524 111.314 31.0686 111.597 30.9808C111.682 30.9569 111.768 30.929 111.853 30.901V29.5563H113.339V30.9449C114.298 31.1684 114.942 31.6153 115.349 32.3256C115.625 32.8124 115.769 33.4789 115.703 34.0295L115.683 34.261H113.514L113.44 33.854C113.417 33.6983 113.39 33.5467 113.351 33.411C113.227 33.0279 112.947 32.8324 112.509 32.8324C111.939 32.8444 111.787 33.0758 111.71 33.3272C111.562 33.7861 111.659 34.2291 111.958 34.4286C112.206 34.5962 112.478 34.7199 112.761 34.8555C112.87 34.9114 112.975 34.9593 113.079 35.0072C113.242 35.099 113.409 35.1748 113.572 35.2466C113.898 35.4062 114.24 35.5658 114.554 35.7654C115.485 36.348 115.889 37.3336 115.726 38.6026ZM112.4 28C108.167 28 104.74 31.5275 104.74 35.8811C104.74 40.2346 108.167 43.7582 112.4 43.7582C116.63 43.7582 120.064 40.2346 120.064 35.8811C120.064 31.5275 116.63 28 112.4 28Z" fill="#FAF8F8"/>
<path d="M93.1568 41.2921C93.0133 42.3855 92.3691 43.1277 91.2282 43.4908C91.0691 43.5467 90.9023 43.5786 90.7238 43.6185C90.7083 43.6225 90.685 43.6265 90.6656 43.6265V44.9034H89.1677V43.6385C87.2003 43.1436 86.3194 42.0981 86.4785 40.4661L86.5057 40.2266H88.6749L88.7059 40.4541C88.7215 40.5618 88.737 40.6696 88.7525 40.7813C88.8107 41.324 89.1483 41.6632 89.6761 41.7071C89.742 41.7111 89.8119 41.7111 89.8778 41.7111L90.0292 41.7071C90.4638 41.6951 90.7277 41.5116 90.8324 41.1644C90.9721 40.7135 90.848 40.2745 90.5298 40.059C90.3241 39.9234 90.0951 39.8156 89.8584 39.6999C89.7343 39.644 89.614 39.5842 89.4898 39.5243C89.3268 39.4445 89.1561 39.3607 88.9931 39.2849C88.5895 39.0974 88.1821 38.9098 87.8134 38.6345C87.0723 38.0918 86.6687 37.1859 86.7424 36.2203C86.8239 35.2306 87.3633 34.3847 88.2015 33.9537C88.4615 33.826 88.7331 33.7422 89.0203 33.6544C89.1056 33.6265 89.191 33.5985 89.2725 33.5746V32.2258H90.7665V33.6185C91.725 33.838 92.373 34.2889 92.7804 35.0032C93.056 35.49 93.1995 36.1564 93.1374 36.7111L93.1142 36.9385H90.9411L90.8674 36.5355C90.8441 36.3759 90.8169 36.2242 90.7742 36.0886C90.6539 35.7055 90.3745 35.51 89.9322 35.51C89.3579 35.5219 89.2104 35.7534 89.1328 36.0048C88.9815 36.4637 89.0823 36.9106 89.3811 37.1061C89.6295 37.2777 89.9011 37.4014 90.1883 37.5371C90.2931 37.593 90.3978 37.6448 90.5065 37.6927C90.6695 37.7805 90.8324 37.8563 90.9993 37.9321C91.3291 38.0918 91.6667 38.2474 91.9849 38.4509C92.9201 39.0335 93.3237 40.0231 93.1568 41.2921ZM89.8274 30.6656C85.5821 30.6656 82.144 34.2011 82.144 38.5626C82.144 42.9282 85.5821 46.4677 89.8274 46.4677C94.0649 46.4677 97.5107 42.9282 97.5107 38.5626C97.5107 34.2011 94.0649 30.6656 89.8274 30.6656Z" fill="#FAF8F8"/>
<path d="M89.0128 70.3464C88.8692 71.4397 88.2251 72.182 87.0842 72.5451C86.9251 72.601 86.7582 72.6329 86.5797 72.6688C86.5642 72.6768 86.5409 72.6808 86.5215 72.6808V73.9577H85.0237V72.6927C83.0563 72.1979 82.1754 71.1564 82.3345 69.5164L82.3617 69.2809H84.5308L84.5619 69.5084C84.5774 69.6161 84.5929 69.7239 84.6123 69.8356C84.6705 70.3783 85.0043 70.7175 85.532 70.7614C85.598 70.7654 85.6678 70.7654 85.7338 70.7654L85.8851 70.7614C86.3198 70.7494 86.5836 70.5658 86.6884 70.2147C86.8281 69.7678 86.7078 69.3248 86.3896 69.1133C86.1801 68.9777 85.9511 68.8699 85.7144 68.7542C85.5941 68.6983 85.4699 68.6385 85.3496 68.5786C85.1828 68.4988 85.012 68.415 84.849 68.3392C84.4455 68.1556 84.038 67.9641 83.6733 67.6887C82.9282 67.146 82.5246 66.2402 82.5984 65.2706C82.6799 64.2849 83.2192 63.4389 84.0574 63.008C84.3174 62.8763 84.5891 62.7965 84.8762 62.7087C84.9616 62.6808 85.047 62.6528 85.1284 62.6249V61.2801H86.6224V62.6688C87.5809 62.8923 88.2289 63.3392 88.6364 64.0535C88.9119 64.5403 89.0555 65.2107 88.9934 65.7614L88.9701 65.9928H86.7971L86.7233 65.5898C86.7 65.4302 86.6729 65.2785 86.6302 65.1389C86.5099 64.7598 86.2305 64.5642 85.7881 64.5642C85.2138 64.5722 85.0664 64.8077 84.9887 65.0591C84.8374 65.518 84.9383 65.9649 85.2371 66.1604C85.4854 66.332 85.7571 66.4557 86.0442 66.5914C86.149 66.6472 86.2538 66.6951 86.3624 66.743C86.5254 66.8348 86.6884 66.9106 86.8553 66.9864C87.1851 67.146 87.5227 67.3017 87.8409 67.5052C88.7761 68.0878 89.1797 69.0774 89.0128 70.3464ZM85.6834 59.7159C81.4381 59.7159 78 63.2554 78 67.6169C78 71.9824 81.4381 75.518 85.6834 75.518C89.9208 75.518 93.3667 71.9824 93.3667 67.6169C93.3667 63.2554 89.9208 59.7159 85.6834 59.7159Z" fill="#FAF8F8"/>
<path d="M33.4961 120.818H30.647V119.668H33.4961C34.0479 119.668 34.4946 119.58 34.8364 119.404C35.1782 119.229 35.4272 118.984 35.5835 118.672C35.7446 118.359 35.8252 118.003 35.8252 117.603C35.8252 117.236 35.7446 116.892 35.5835 116.57C35.4272 116.248 35.1782 115.989 34.8364 115.793C34.4946 115.593 34.0479 115.493 33.4961 115.493H30.9766V125H29.563V114.336H33.4961C34.3018 114.336 34.9829 114.475 35.5396 114.753C36.0962 115.032 36.5186 115.417 36.8066 115.911C37.0947 116.399 37.2388 116.958 37.2388 117.588C37.2388 118.271 37.0947 118.855 36.8066 119.338C36.5186 119.822 36.0962 120.19 35.5396 120.444C34.9829 120.693 34.3018 120.818 33.4961 120.818ZM43.4058 123.645V119.565C43.4058 119.253 43.3423 118.982 43.2153 118.752C43.0933 118.518 42.9077 118.337 42.6587 118.21C42.4097 118.083 42.1021 118.02 41.7358 118.02C41.394 118.02 41.0938 118.079 40.835 118.196C40.5811 118.313 40.3809 118.467 40.2344 118.657C40.0928 118.848 40.022 119.053 40.022 119.272H38.667C38.667 118.989 38.7402 118.708 38.8867 118.43C39.0332 118.152 39.2432 117.9 39.5166 117.676C39.7949 117.446 40.127 117.266 40.5127 117.134C40.9033 116.997 41.3379 116.929 41.8164 116.929C42.3926 116.929 42.9004 117.026 43.3398 117.222C43.7842 117.417 44.1309 117.712 44.3799 118.108C44.6338 118.499 44.7607 118.989 44.7607 119.58V123.271C44.7607 123.535 44.7827 123.816 44.8267 124.114C44.8755 124.412 44.9463 124.668 45.0391 124.883V125H43.6255C43.5571 124.844 43.5034 124.636 43.4644 124.377C43.4253 124.114 43.4058 123.87 43.4058 123.645ZM43.6401 120.195L43.6548 121.147H42.2852C41.8994 121.147 41.5552 121.179 41.2524 121.243C40.9497 121.301 40.6958 121.392 40.4907 121.514C40.2856 121.636 40.1294 121.79 40.022 121.975C39.9146 122.156 39.8608 122.368 39.8608 122.612C39.8608 122.861 39.917 123.088 40.0293 123.293C40.1416 123.499 40.3101 123.662 40.5347 123.784C40.7642 123.901 41.0449 123.96 41.377 123.96C41.792 123.96 42.1582 123.872 42.4756 123.696C42.793 123.521 43.0444 123.306 43.23 123.052C43.4204 122.798 43.5229 122.551 43.5376 122.312L44.1162 122.964C44.082 123.169 43.9893 123.396 43.8379 123.645C43.6865 123.894 43.4839 124.133 43.23 124.363C42.981 124.587 42.6831 124.775 42.3364 124.927C41.9946 125.073 41.6089 125.146 41.1792 125.146C40.6421 125.146 40.1709 125.042 39.7656 124.832C39.3652 124.622 39.0527 124.341 38.8281 123.989C38.6084 123.633 38.4985 123.235 38.4985 122.795C38.4985 122.371 38.5815 121.997 38.7476 121.675C38.9136 121.348 39.1528 121.077 39.4653 120.862C39.7778 120.642 40.1538 120.476 40.5933 120.364C41.0327 120.251 41.5234 120.195 42.0654 120.195H43.6401ZM48.2471 118.32V125H46.8921V117.075H48.2104L48.2471 118.32ZM50.7227 117.031L50.7153 118.291C50.603 118.267 50.4956 118.252 50.3931 118.247C50.2954 118.237 50.1831 118.232 50.0562 118.232C49.7437 118.232 49.4678 118.281 49.2285 118.379C48.9893 118.477 48.7866 118.613 48.6206 118.789C48.4546 118.965 48.3228 119.175 48.2251 119.419C48.1323 119.658 48.0713 119.922 48.042 120.21L47.6611 120.43C47.6611 119.951 47.7075 119.502 47.8003 119.082C47.8979 118.662 48.0469 118.291 48.2471 117.969C48.4473 117.642 48.7012 117.388 49.0088 117.207C49.3213 117.021 49.6924 116.929 50.1221 116.929C50.2197 116.929 50.332 116.941 50.459 116.965C50.5859 116.985 50.6738 117.007 50.7227 117.031ZM56.355 123.645V119.565C56.355 119.253 56.2915 118.982 56.1646 118.752C56.0425 118.518 55.8569 118.337 55.6079 118.21C55.3589 118.083 55.0513 118.02 54.6851 118.02C54.3433 118.02 54.043 118.079 53.7842 118.196C53.5303 118.313 53.3301 118.467 53.1836 118.657C53.042 118.848 52.9712 119.053 52.9712 119.272H51.6162C51.6162 118.989 51.6895 118.708 51.8359 118.43C51.9824 118.152 52.1924 117.9 52.4658 117.676C52.7441 117.446 53.0762 117.266 53.4619 117.134C53.8525 116.997 54.2871 116.929 54.7656 116.929C55.3418 116.929 55.8496 117.026 56.2891 117.222C56.7334 117.417 57.0801 117.712 57.3291 118.108C57.583 118.499 57.71 118.989 57.71 119.58V123.271C57.71 123.535 57.7319 123.816 57.7759 124.114C57.8247 124.412 57.8955 124.668 57.9883 124.883V125H56.5747C56.5063 124.844 56.4526 124.636 56.4136 124.377C56.3745 124.114 56.355 123.87 56.355 123.645ZM56.5894 120.195L56.604 121.147H55.2344C54.8486 121.147 54.5044 121.179 54.2017 121.243C53.8989 121.301 53.645 121.392 53.4399 121.514C53.2349 121.636 53.0786 121.79 52.9712 121.975C52.8638 122.156 52.8101 122.368 52.8101 122.612C52.8101 122.861 52.8662 123.088 52.9785 123.293C53.0908 123.499 53.2593 123.662 53.4839 123.784C53.7134 123.901 53.9941 123.96 54.3262 123.96C54.7412 123.96 55.1074 123.872 55.4248 123.696C55.7422 123.521 55.9937 123.306 56.1792 123.052C56.3696 122.798 56.4722 122.551 56.4868 122.312L57.0654 122.964C57.0312 123.169 56.9385 123.396 56.7871 123.645C56.6357 123.894 56.4331 124.133 56.1792 124.363C55.9302 124.587 55.6323 124.775 55.2856 124.927C54.9438 125.073 54.5581 125.146 54.1284 125.146C53.5913 125.146 53.1201 125.042 52.7148 124.832C52.3145 124.622 52.002 124.341 51.7773 123.989C51.5576 123.633 51.4478 123.235 51.4478 122.795C51.4478 122.371 51.5308 121.997 51.6968 121.675C51.8628 121.348 52.1021 121.077 52.4146 120.862C52.7271 120.642 53.103 120.476 53.5425 120.364C53.9819 120.251 54.4727 120.195 55.0146 120.195H56.5894ZM68.5498 128.047V118.599L68.667 117.075H69.9121V128.047H68.5498ZM63.2251 121.125V120.972C63.2251 120.366 63.2959 119.817 63.4375 119.324C63.5791 118.826 63.7866 118.398 64.0601 118.042C64.3335 117.686 64.6631 117.412 65.0488 117.222C65.4395 117.026 65.8838 116.929 66.3818 116.929C66.8799 116.929 67.3169 117.017 67.6929 117.192C68.0737 117.363 68.396 117.615 68.6597 117.947C68.9282 118.274 69.1406 118.669 69.2969 119.133C69.4531 119.597 69.5605 120.122 69.6191 120.708V121.382C69.5654 121.963 69.4604 122.485 69.3042 122.949C69.1479 123.413 68.9355 123.809 68.667 124.136C68.4033 124.463 68.0786 124.714 67.6929 124.89C67.312 125.061 66.8701 125.146 66.3672 125.146C65.8789 125.146 65.4395 125.046 65.0488 124.846C64.6631 124.646 64.3335 124.365 64.0601 124.004C63.7915 123.643 63.584 123.218 63.4375 122.729C63.2959 122.236 63.2251 121.702 63.2251 121.125ZM64.5874 120.972V121.125C64.5874 121.521 64.6289 121.895 64.7119 122.246C64.7949 122.593 64.9219 122.9 65.0928 123.169C65.2686 123.438 65.4883 123.65 65.752 123.806C66.0205 123.958 66.3379 124.033 66.7041 124.033C67.1533 124.033 67.5269 123.936 67.8247 123.74C68.1274 123.545 68.3691 123.289 68.5498 122.971C68.7305 122.649 68.8696 122.305 68.9673 121.938V120.173C68.9136 119.905 68.8281 119.644 68.7109 119.39C68.5986 119.136 68.4521 118.909 68.2715 118.708C68.0908 118.503 67.8711 118.342 67.6123 118.225C67.3584 118.103 67.0605 118.042 66.7188 118.042C66.3477 118.042 66.0278 118.12 65.7593 118.276C65.4907 118.433 65.2686 118.647 65.0928 118.921C64.9219 119.189 64.7949 119.5 64.7119 119.851C64.6289 120.203 64.5874 120.576 64.5874 120.972ZM76.936 123.169V117.075H78.2983V125H77.002L76.936 123.169ZM77.1924 121.499L77.7563 121.484C77.7563 122.012 77.7002 122.5 77.5879 122.949C77.4805 123.394 77.3047 123.779 77.0605 124.106C76.8164 124.434 76.4966 124.69 76.1011 124.875C75.7056 125.056 75.2246 125.146 74.6582 125.146C74.2725 125.146 73.9185 125.09 73.5962 124.978C73.2788 124.866 73.0054 124.692 72.7759 124.458C72.5464 124.224 72.3682 123.918 72.2412 123.542C72.1191 123.167 72.0581 122.715 72.0581 122.188V117.075H73.4131V122.202C73.4131 122.559 73.4521 122.854 73.5303 123.088C73.6133 123.318 73.7231 123.501 73.8599 123.638C74.0015 123.77 74.1577 123.862 74.3286 123.916C74.5044 123.97 74.6851 123.997 74.8706 123.997C75.4468 123.997 75.9033 123.887 76.2402 123.667C76.5771 123.442 76.8188 123.142 76.9653 122.766C77.1167 122.385 77.1924 121.963 77.1924 121.499ZM83.6523 125.146C83.1006 125.146 82.6001 125.054 82.1509 124.868C81.7065 124.678 81.3232 124.412 81.001 124.07C80.6836 123.728 80.4395 123.323 80.2686 122.854C80.0977 122.385 80.0122 121.873 80.0122 121.316V121.008C80.0122 120.364 80.1074 119.79 80.2979 119.287C80.4883 118.779 80.7471 118.35 81.0742 117.998C81.4014 117.646 81.7725 117.38 82.1875 117.2C82.6025 117.019 83.0322 116.929 83.4766 116.929C84.043 116.929 84.5312 117.026 84.9414 117.222C85.3564 117.417 85.6958 117.69 85.9595 118.042C86.2231 118.389 86.4185 118.799 86.5454 119.272C86.6724 119.741 86.7358 120.254 86.7358 120.811V121.418H80.8179V120.312H85.3809V120.21C85.3613 119.858 85.2881 119.517 85.1611 119.185C85.0391 118.853 84.8438 118.579 84.5752 118.364C84.3066 118.149 83.9404 118.042 83.4766 118.042C83.1689 118.042 82.8857 118.108 82.627 118.24C82.3682 118.367 82.146 118.557 81.9604 118.811C81.7749 119.065 81.6309 119.375 81.5283 119.741C81.4258 120.107 81.3745 120.53 81.3745 121.008V121.316C81.3745 121.692 81.4258 122.046 81.5283 122.378C81.6357 122.705 81.7896 122.993 81.9897 123.242C82.1948 123.491 82.4414 123.687 82.7295 123.828C83.0225 123.97 83.3545 124.041 83.7256 124.041C84.2041 124.041 84.6094 123.943 84.9414 123.748C85.2734 123.552 85.564 123.291 85.813 122.964L86.6333 123.616C86.4624 123.875 86.2451 124.121 85.9814 124.355C85.7178 124.59 85.3931 124.78 85.0073 124.927C84.6265 125.073 84.1748 125.146 83.6523 125.146ZM89.6655 118.65V125H88.3032V117.075H89.5923L89.6655 118.65ZM89.3872 120.737L88.7573 120.715C88.7622 120.173 88.833 119.673 88.9697 119.214C89.1064 118.75 89.3091 118.347 89.5776 118.005C89.8462 117.664 90.1807 117.4 90.5811 117.214C90.9814 117.024 91.4453 116.929 91.9727 116.929C92.3438 116.929 92.6855 116.982 92.998 117.09C93.3105 117.192 93.5815 117.356 93.811 117.581C94.0405 117.805 94.2188 118.093 94.3457 118.445C94.4727 118.796 94.5361 119.221 94.5361 119.719V125H93.1812V119.785C93.1812 119.37 93.1104 119.038 92.9688 118.789C92.832 118.54 92.6367 118.359 92.3828 118.247C92.1289 118.13 91.8311 118.071 91.4893 118.071C91.0889 118.071 90.7544 118.142 90.4858 118.284C90.2173 118.425 90.0024 118.621 89.8413 118.87C89.6802 119.119 89.563 119.404 89.4897 119.727C89.4214 120.044 89.3872 120.381 89.3872 120.737ZM94.5215 119.99L93.6133 120.269C93.6182 119.834 93.689 119.417 93.8257 119.016C93.9673 118.616 94.1699 118.259 94.4336 117.947C94.7021 117.634 95.0317 117.388 95.4224 117.207C95.813 117.021 96.2598 116.929 96.7627 116.929C97.1875 116.929 97.5635 116.985 97.8906 117.097C98.2227 117.209 98.501 117.383 98.7256 117.617C98.9551 117.847 99.1284 118.142 99.2456 118.503C99.3628 118.865 99.4214 119.294 99.4214 119.792V125H98.0591V119.778C98.0591 119.333 97.9883 118.989 97.8467 118.745C97.71 118.496 97.5146 118.323 97.2607 118.225C97.0117 118.123 96.7139 118.071 96.3672 118.071C96.0693 118.071 95.8057 118.123 95.5762 118.225C95.3467 118.328 95.1538 118.469 94.9976 118.65C94.8413 118.826 94.7217 119.028 94.6387 119.258C94.5605 119.487 94.5215 119.731 94.5215 119.99ZM108.511 117.075V118.115H104.226V117.075H108.511ZM105.676 115.149H107.031V123.037C107.031 123.306 107.073 123.508 107.156 123.645C107.239 123.782 107.346 123.872 107.478 123.916C107.61 123.96 107.751 123.982 107.903 123.982C108.015 123.982 108.132 123.972 108.254 123.953C108.381 123.928 108.477 123.909 108.54 123.894L108.547 125C108.44 125.034 108.298 125.066 108.123 125.095C107.952 125.129 107.744 125.146 107.5 125.146C107.168 125.146 106.863 125.081 106.584 124.949C106.306 124.817 106.084 124.597 105.918 124.29C105.757 123.977 105.676 123.557 105.676 123.03V115.149ZM113.389 125.146C112.837 125.146 112.336 125.054 111.887 124.868C111.443 124.678 111.06 124.412 110.737 124.07C110.42 123.728 110.176 123.323 110.005 122.854C109.834 122.385 109.749 121.873 109.749 121.316V121.008C109.749 120.364 109.844 119.79 110.034 119.287C110.225 118.779 110.483 118.35 110.811 117.998C111.138 117.646 111.509 117.38 111.924 117.2C112.339 117.019 112.769 116.929 113.213 116.929C113.779 116.929 114.268 117.026 114.678 117.222C115.093 117.417 115.432 117.69 115.696 118.042C115.959 118.389 116.155 118.799 116.282 119.272C116.409 119.741 116.472 120.254 116.472 120.811V121.418H110.554V120.312H115.117V120.21C115.098 119.858 115.024 119.517 114.897 119.185C114.775 118.853 114.58 118.579 114.312 118.364C114.043 118.149 113.677 118.042 113.213 118.042C112.905 118.042 112.622 118.108 112.363 118.24C112.104 118.367 111.882 118.557 111.697 118.811C111.511 119.065 111.367 119.375 111.265 119.741C111.162 120.107 111.111 120.53 111.111 121.008V121.316C111.111 121.692 111.162 122.046 111.265 122.378C111.372 122.705 111.526 122.993 111.726 123.242C111.931 123.491 112.178 123.687 112.466 123.828C112.759 123.97 113.091 124.041 113.462 124.041C113.94 124.041 114.346 123.943 114.678 123.748C115.01 123.552 115.3 123.291 115.549 122.964L116.37 123.616C116.199 123.875 115.981 124.121 115.718 124.355C115.454 124.59 115.129 124.78 114.744 124.927C114.363 125.073 113.911 125.146 113.389 125.146ZM119.402 118.65V125H118.04V117.075H119.329L119.402 118.65ZM119.124 120.737L118.494 120.715C118.499 120.173 118.569 119.673 118.706 119.214C118.843 118.75 119.045 118.347 119.314 118.005C119.583 117.664 119.917 117.4 120.317 117.214C120.718 117.024 121.182 116.929 121.709 116.929C122.08 116.929 122.422 116.982 122.734 117.09C123.047 117.192 123.318 117.356 123.547 117.581C123.777 117.805 123.955 118.093 124.082 118.445C124.209 118.796 124.272 119.221 124.272 119.719V125H122.917V119.785C122.917 119.37 122.847 119.038 122.705 118.789C122.568 118.54 122.373 118.359 122.119 118.247C121.865 118.13 121.567 118.071 121.226 118.071C120.825 118.071 120.491 118.142 120.222 118.284C119.954 118.425 119.739 118.621 119.578 118.87C119.417 119.119 119.299 119.404 119.226 119.727C119.158 120.044 119.124 120.381 119.124 120.737ZM124.258 119.99L123.35 120.269C123.354 119.834 123.425 119.417 123.562 119.016C123.704 118.616 123.906 118.259 124.17 117.947C124.438 117.634 124.768 117.388 125.159 117.207C125.549 117.021 125.996 116.929 126.499 116.929C126.924 116.929 127.3 116.985 127.627 117.097C127.959 117.209 128.237 117.383 128.462 117.617C128.691 117.847 128.865 118.142 128.982 118.503C129.099 118.865 129.158 119.294 129.158 119.792V125H127.795V119.778C127.795 119.333 127.725 118.989 127.583 118.745C127.446 118.496 127.251 118.323 126.997 118.225C126.748 118.123 126.45 118.071 126.104 118.071C125.806 118.071 125.542 118.123 125.312 118.225C125.083 118.328 124.89 118.469 124.734 118.65C124.578 118.826 124.458 119.028 124.375 119.258C124.297 119.487 124.258 119.731 124.258 119.99ZM134.57 121.125V120.957C134.57 120.386 134.653 119.856 134.819 119.368C134.985 118.875 135.225 118.447 135.537 118.086C135.85 117.72 136.228 117.437 136.672 117.236C137.117 117.031 137.615 116.929 138.167 116.929C138.723 116.929 139.224 117.031 139.668 117.236C140.117 117.437 140.498 117.72 140.811 118.086C141.128 118.447 141.37 118.875 141.536 119.368C141.702 119.856 141.785 120.386 141.785 120.957V121.125C141.785 121.697 141.702 122.227 141.536 122.715C141.37 123.203 141.128 123.63 140.811 123.997C140.498 124.358 140.12 124.641 139.675 124.846C139.236 125.046 138.738 125.146 138.181 125.146C137.625 125.146 137.124 125.046 136.68 124.846C136.235 124.641 135.854 124.358 135.537 123.997C135.225 123.63 134.985 123.203 134.819 122.715C134.653 122.227 134.57 121.697 134.57 121.125ZM135.925 120.957V121.125C135.925 121.521 135.972 121.895 136.064 122.246C136.157 122.593 136.296 122.9 136.482 123.169C136.672 123.438 136.909 123.65 137.192 123.806C137.476 123.958 137.805 124.033 138.181 124.033C138.552 124.033 138.877 123.958 139.155 123.806C139.438 123.65 139.673 123.438 139.858 123.169C140.044 122.9 140.183 122.593 140.276 122.246C140.374 121.895 140.422 121.521 140.422 121.125V120.957C140.422 120.566 140.374 120.198 140.276 119.851C140.183 119.5 140.042 119.189 139.851 118.921C139.666 118.647 139.431 118.433 139.148 118.276C138.87 118.12 138.542 118.042 138.167 118.042C137.795 118.042 137.468 118.12 137.185 118.276C136.907 118.433 136.672 118.647 136.482 118.921C136.296 119.189 136.157 119.5 136.064 119.851C135.972 120.198 135.925 120.566 135.925 120.957ZM143.477 113.75H144.839V123.462L144.722 125H143.477V113.75ZM150.193 120.972V121.125C150.193 121.702 150.125 122.236 149.988 122.729C149.851 123.218 149.651 123.643 149.387 124.004C149.124 124.365 148.801 124.646 148.42 124.846C148.04 125.046 147.603 125.146 147.109 125.146C146.606 125.146 146.165 125.061 145.784 124.89C145.408 124.714 145.09 124.463 144.832 124.136C144.573 123.809 144.365 123.413 144.209 122.949C144.058 122.485 143.953 121.963 143.894 121.382V120.708C143.953 120.122 144.058 119.597 144.209 119.133C144.365 118.669 144.573 118.274 144.832 117.947C145.09 117.615 145.408 117.363 145.784 117.192C146.16 117.017 146.597 116.929 147.095 116.929C147.593 116.929 148.035 117.026 148.42 117.222C148.806 117.412 149.128 117.686 149.387 118.042C149.651 118.398 149.851 118.826 149.988 119.324C150.125 119.817 150.193 120.366 150.193 120.972ZM148.831 121.125V120.972C148.831 120.576 148.794 120.205 148.721 119.858C148.647 119.507 148.53 119.199 148.369 118.936C148.208 118.667 147.996 118.457 147.732 118.306C147.468 118.149 147.144 118.071 146.758 118.071C146.416 118.071 146.118 118.13 145.864 118.247C145.615 118.364 145.403 118.523 145.227 118.723C145.051 118.918 144.907 119.143 144.795 119.397C144.688 119.646 144.607 119.905 144.553 120.173V121.938C144.631 122.28 144.758 122.61 144.934 122.927C145.115 123.24 145.354 123.496 145.652 123.696C145.955 123.896 146.328 123.997 146.772 123.997C147.139 123.997 147.451 123.923 147.71 123.777C147.974 123.625 148.186 123.418 148.347 123.154C148.513 122.891 148.635 122.585 148.713 122.239C148.792 121.892 148.831 121.521 148.831 121.125ZM151.943 117.075H153.306V125.945C153.306 126.428 153.228 126.838 153.071 127.175C152.92 127.512 152.69 127.766 152.383 127.937C152.08 128.113 151.697 128.201 151.233 128.201C151.111 128.201 150.969 128.188 150.808 128.164C150.642 128.14 150.503 128.11 150.391 128.076L150.398 126.985C150.491 127.004 150.596 127.019 150.713 127.029C150.83 127.043 150.933 127.051 151.021 127.051C151.221 127.051 151.389 127.014 151.526 126.941C151.663 126.868 151.765 126.75 151.833 126.589C151.907 126.428 151.943 126.213 151.943 125.945V117.075ZM151.804 114.973C151.804 114.753 151.873 114.568 152.009 114.417C152.146 114.265 152.344 114.189 152.603 114.189C152.866 114.189 153.066 114.265 153.203 114.417C153.34 114.568 153.408 114.753 153.408 114.973C153.408 115.183 153.34 115.364 153.203 115.515C153.066 115.662 152.866 115.735 152.603 115.735C152.344 115.735 152.146 115.662 152.009 115.515C151.873 115.364 151.804 115.183 151.804 114.973ZM158.784 125.146C158.232 125.146 157.732 125.054 157.283 124.868C156.838 124.678 156.455 124.412 156.133 124.07C155.815 123.728 155.571 123.323 155.4 122.854C155.229 122.385 155.144 121.873 155.144 121.316V121.008C155.144 120.364 155.239 119.79 155.43 119.287C155.62 118.779 155.879 118.35 156.206 117.998C156.533 117.646 156.904 117.38 157.319 117.2C157.734 117.019 158.164 116.929 158.608 116.929C159.175 116.929 159.663 117.026 160.073 117.222C160.488 117.417 160.828 117.69 161.091 118.042C161.355 118.389 161.55 118.799 161.677 119.272C161.804 119.741 161.868 120.254 161.868 120.811V121.418H155.95V120.312H160.513V120.21C160.493 119.858 160.42 119.517 160.293 119.185C160.171 118.853 159.976 118.579 159.707 118.364C159.438 118.149 159.072 118.042 158.608 118.042C158.301 118.042 158.018 118.108 157.759 118.24C157.5 118.367 157.278 118.557 157.092 118.811C156.907 119.065 156.763 119.375 156.66 119.741C156.558 120.107 156.506 120.53 156.506 121.008V121.316C156.506 121.692 156.558 122.046 156.66 122.378C156.768 122.705 156.921 122.993 157.122 123.242C157.327 123.491 157.573 123.687 157.861 123.828C158.154 123.97 158.486 124.041 158.857 124.041C159.336 124.041 159.741 123.943 160.073 123.748C160.405 123.552 160.696 123.291 160.945 122.964L161.765 123.616C161.594 123.875 161.377 124.121 161.113 124.355C160.85 124.59 160.525 124.78 160.139 124.927C159.758 125.073 159.307 125.146 158.784 125.146ZM166.768 117.075V118.115H162.483V117.075H166.768ZM163.933 115.149H165.288V123.037C165.288 123.306 165.33 123.508 165.413 123.645C165.496 123.782 165.603 123.872 165.735 123.916C165.867 123.96 166.008 123.982 166.16 123.982C166.272 123.982 166.389 123.972 166.511 123.953C166.638 123.928 166.733 123.909 166.797 123.894L166.804 125C166.697 125.034 166.555 125.066 166.379 125.095C166.208 125.129 166.001 125.146 165.757 125.146C165.425 125.146 165.12 125.081 164.841 124.949C164.563 124.817 164.341 124.597 164.175 124.29C164.014 123.977 163.933 123.557 163.933 123.03V115.149ZM169.829 117.075V125H168.467V117.075H169.829ZM168.364 114.973C168.364 114.753 168.43 114.568 168.562 114.417C168.699 114.265 168.899 114.189 169.163 114.189C169.421 114.189 169.619 114.265 169.756 114.417C169.897 114.568 169.968 114.753 169.968 114.973C169.968 115.183 169.897 115.364 169.756 115.515C169.619 115.662 169.421 115.735 169.163 115.735C168.899 115.735 168.699 115.662 168.562 115.515C168.43 115.364 168.364 115.183 168.364 114.973ZM174.414 123.777L176.582 117.075H177.966L175.117 125H174.209L174.414 123.777ZM172.605 117.075L174.839 123.813L174.993 125H174.084L171.213 117.075H172.605ZM178.794 121.125V120.957C178.794 120.386 178.877 119.856 179.043 119.368C179.209 118.875 179.448 118.447 179.761 118.086C180.073 117.72 180.452 117.437 180.896 117.236C181.34 117.031 181.838 116.929 182.39 116.929C182.947 116.929 183.447 117.031 183.892 117.236C184.341 117.437 184.722 117.72 185.034 118.086C185.352 118.447 185.593 118.875 185.759 119.368C185.925 119.856 186.008 120.386 186.008 120.957V121.125C186.008 121.697 185.925 122.227 185.759 122.715C185.593 123.203 185.352 123.63 185.034 123.997C184.722 124.358 184.343 124.641 183.899 124.846C183.459 125.046 182.961 125.146 182.405 125.146C181.848 125.146 181.348 125.046 180.903 124.846C180.459 124.641 180.078 124.358 179.761 123.997C179.448 123.63 179.209 123.203 179.043 122.715C178.877 122.227 178.794 121.697 178.794 121.125ZM180.149 120.957V121.125C180.149 121.521 180.195 121.895 180.288 122.246C180.381 122.593 180.52 122.9 180.706 123.169C180.896 123.438 181.133 123.65 181.416 123.806C181.699 123.958 182.029 124.033 182.405 124.033C182.776 124.033 183.101 123.958 183.379 123.806C183.662 123.65 183.896 123.438 184.082 123.169C184.268 122.9 184.407 122.593 184.5 122.246C184.597 121.895 184.646 121.521 184.646 121.125V120.957C184.646 120.566 184.597 120.198 184.5 119.851C184.407 119.5 184.265 119.189 184.075 118.921C183.889 118.647 183.655 118.433 183.372 118.276C183.093 118.12 182.766 118.042 182.39 118.042C182.019 118.042 181.692 118.12 181.409 118.276C181.13 118.433 180.896 118.647 180.706 118.921C180.52 119.189 180.381 119.5 180.288 119.851C180.195 120.198 180.149 120.566 180.149 120.957ZM42.4976 146.462V136.75H43.8599V148H42.6147L42.4976 146.462ZM37.1655 144.125V143.972C37.1655 143.366 37.2388 142.817 37.3853 142.324C37.5366 141.826 37.749 141.398 38.0225 141.042C38.3008 140.686 38.6304 140.412 39.0112 140.222C39.397 140.026 39.8267 139.929 40.3003 139.929C40.7983 139.929 41.2329 140.017 41.604 140.192C41.98 140.363 42.2974 140.615 42.5562 140.947C42.8198 141.274 43.0273 141.669 43.1787 142.133C43.3301 142.597 43.4351 143.122 43.4937 143.708V144.382C43.4399 144.963 43.335 145.485 43.1787 145.949C43.0273 146.413 42.8198 146.809 42.5562 147.136C42.2974 147.463 41.98 147.714 41.604 147.89C41.228 148.061 40.7886 148.146 40.2856 148.146C39.8218 148.146 39.397 148.046 39.0112 147.846C38.6304 147.646 38.3008 147.365 38.0225 147.004C37.749 146.643 37.5366 146.218 37.3853 145.729C37.2388 145.236 37.1655 144.702 37.1655 144.125ZM38.5278 143.972V144.125C38.5278 144.521 38.5669 144.892 38.645 145.239C38.728 145.585 38.855 145.891 39.0259 146.154C39.1968 146.418 39.4141 146.625 39.6777 146.777C39.9414 146.923 40.2563 146.997 40.6226 146.997C41.0718 146.997 41.4404 146.901 41.7285 146.711C42.0215 146.521 42.2559 146.269 42.4316 145.957C42.6074 145.644 42.7441 145.305 42.8418 144.938V143.173C42.7832 142.905 42.6978 142.646 42.5854 142.397C42.478 142.143 42.3364 141.918 42.1606 141.723C41.9897 141.523 41.7773 141.364 41.5234 141.247C41.2744 141.13 40.979 141.071 40.6372 141.071C40.2661 141.071 39.9463 141.149 39.6777 141.306C39.4141 141.457 39.1968 141.667 39.0259 141.936C38.855 142.199 38.728 142.507 38.645 142.858C38.5669 143.205 38.5278 143.576 38.5278 143.972ZM49.2578 148.146C48.7061 148.146 48.2056 148.054 47.7563 147.868C47.312 147.678 46.9287 147.412 46.6064 147.07C46.2891 146.728 46.0449 146.323 45.874 145.854C45.7031 145.385 45.6177 144.873 45.6177 144.316V144.008C45.6177 143.364 45.7129 142.79 45.9033 142.287C46.0938 141.779 46.3525 141.35 46.6797 140.998C47.0068 140.646 47.3779 140.38 47.793 140.2C48.208 140.019 48.6377 139.929 49.082 139.929C49.6484 139.929 50.1367 140.026 50.5469 140.222C50.9619 140.417 51.3013 140.69 51.5649 141.042C51.8286 141.389 52.0239 141.799 52.1509 142.272C52.2778 142.741 52.3413 143.254 52.3413 143.811V144.418H46.4233V143.312H50.9863V143.21C50.9668 142.858 50.8936 142.517 50.7666 142.185C50.6445 141.853 50.4492 141.579 50.1807 141.364C49.9121 141.149 49.5459 141.042 49.082 141.042C48.7744 141.042 48.4912 141.108 48.2324 141.24C47.9736 141.367 47.7515 141.557 47.5659 141.811C47.3804 142.065 47.2363 142.375 47.1338 142.741C47.0312 143.107 46.98 143.53 46.98 144.008V144.316C46.98 144.692 47.0312 145.046 47.1338 145.378C47.2412 145.705 47.395 145.993 47.5952 146.242C47.8003 146.491 48.0469 146.687 48.335 146.828C48.6279 146.97 48.96 147.041 49.3311 147.041C49.8096 147.041 50.2148 146.943 50.5469 146.748C50.8789 146.552 51.1694 146.291 51.4185 145.964L52.2388 146.616C52.0679 146.875 51.8506 147.121 51.5869 147.355C51.3232 147.59 50.9985 147.78 50.6128 147.927C50.2319 148.073 49.7803 148.146 49.2578 148.146ZM60.8154 147.033C61.1377 147.033 61.4355 146.967 61.709 146.835C61.9824 146.704 62.207 146.523 62.3828 146.293C62.5586 146.059 62.6587 145.793 62.6831 145.495H63.9722C63.9478 145.964 63.7891 146.401 63.4961 146.806C63.208 147.207 62.8296 147.531 62.3608 147.78C61.8921 148.024 61.377 148.146 60.8154 148.146C60.2197 148.146 59.6997 148.042 59.2554 147.832C58.8159 147.622 58.4497 147.333 58.1567 146.967C57.8687 146.601 57.6514 146.181 57.5049 145.708C57.3633 145.229 57.2925 144.724 57.2925 144.191V143.884C57.2925 143.352 57.3633 142.849 57.5049 142.375C57.6514 141.896 57.8687 141.474 58.1567 141.108C58.4497 140.742 58.8159 140.454 59.2554 140.244C59.6997 140.034 60.2197 139.929 60.8154 139.929C61.4355 139.929 61.9775 140.056 62.4414 140.31C62.9053 140.559 63.269 140.9 63.5327 141.335C63.8013 141.765 63.9478 142.253 63.9722 142.8H62.6831C62.6587 142.473 62.5659 142.177 62.4048 141.914C62.2485 141.65 62.0337 141.44 61.7603 141.284C61.4917 141.123 61.1768 141.042 60.8154 141.042C60.4004 141.042 60.0513 141.125 59.7681 141.291C59.4897 141.452 59.2676 141.672 59.1016 141.95C58.9404 142.224 58.8232 142.529 58.75 142.866C58.6816 143.198 58.6475 143.537 58.6475 143.884V144.191C58.6475 144.538 58.6816 144.88 58.75 145.217C58.8184 145.554 58.9331 145.859 59.0942 146.132C59.2603 146.406 59.4824 146.625 59.7607 146.792C60.0439 146.953 60.3955 147.033 60.8154 147.033ZM66.8506 141.32V148H65.4956V140.075H66.814L66.8506 141.32ZM69.3262 140.031L69.3188 141.291C69.2065 141.267 69.0991 141.252 68.9966 141.247C68.8989 141.237 68.7866 141.232 68.6597 141.232C68.3472 141.232 68.0713 141.281 67.832 141.379C67.5928 141.477 67.3901 141.613 67.2241 141.789C67.0581 141.965 66.9263 142.175 66.8286 142.419C66.7358 142.658 66.6748 142.922 66.6455 143.21L66.2646 143.43C66.2646 142.951 66.311 142.502 66.4038 142.082C66.5015 141.662 66.6504 141.291 66.8506 140.969C67.0508 140.642 67.3047 140.388 67.6123 140.207C67.9248 140.021 68.2959 139.929 68.7256 139.929C68.8232 139.929 68.9355 139.941 69.0625 139.965C69.1895 139.985 69.2773 140.007 69.3262 140.031ZM72.0508 140.075V148H70.6885V140.075H72.0508ZM70.5859 137.973C70.5859 137.753 70.6519 137.568 70.7837 137.417C70.9204 137.265 71.1206 137.189 71.3843 137.189C71.6431 137.189 71.8408 137.265 71.9775 137.417C72.1191 137.568 72.1899 137.753 72.1899 137.973C72.1899 138.183 72.1191 138.364 71.9775 138.515C71.8408 138.662 71.6431 138.735 71.3843 138.735C71.1206 138.735 70.9204 138.662 70.7837 138.515C70.6519 138.364 70.5859 138.183 70.5859 137.973ZM78.8989 146.645V142.565C78.8989 142.253 78.8354 141.982 78.7085 141.752C78.5864 141.518 78.4009 141.337 78.1519 141.21C77.9028 141.083 77.5952 141.02 77.229 141.02C76.8872 141.02 76.5869 141.079 76.3281 141.196C76.0742 141.313 75.874 141.467 75.7275 141.657C75.5859 141.848 75.5151 142.053 75.5151 142.272H74.1602C74.1602 141.989 74.2334 141.708 74.3799 141.43C74.5264 141.152 74.7363 140.9 75.0098 140.676C75.2881 140.446 75.6201 140.266 76.0059 140.134C76.3965 139.997 76.8311 139.929 77.3096 139.929C77.8857 139.929 78.3936 140.026 78.833 140.222C79.2773 140.417 79.624 140.712 79.873 141.108C80.127 141.499 80.2539 141.989 80.2539 142.58V146.271C80.2539 146.535 80.2759 146.816 80.3198 147.114C80.3687 147.412 80.4395 147.668 80.5322 147.883V148H79.1187C79.0503 147.844 78.9966 147.636 78.9575 147.377C78.9185 147.114 78.8989 146.87 78.8989 146.645ZM79.1333 143.195L79.1479 144.147H77.7783C77.3926 144.147 77.0483 144.179 76.7456 144.243C76.4429 144.301 76.189 144.392 75.9839 144.514C75.7788 144.636 75.6226 144.79 75.5151 144.975C75.4077 145.156 75.354 145.368 75.354 145.612C75.354 145.861 75.4102 146.088 75.5225 146.293C75.6348 146.499 75.8032 146.662 76.0278 146.784C76.2573 146.901 76.5381 146.96 76.8701 146.96C77.2852 146.96 77.6514 146.872 77.9688 146.696C78.2861 146.521 78.5376 146.306 78.7231 146.052C78.9136 145.798 79.0161 145.551 79.0308 145.312L79.6094 145.964C79.5752 146.169 79.4824 146.396 79.3311 146.645C79.1797 146.894 78.9771 147.133 78.7231 147.363C78.4741 147.587 78.1763 147.775 77.8296 147.927C77.4878 148.073 77.1021 148.146 76.6724 148.146C76.1353 148.146 75.6641 148.042 75.2588 147.832C74.8584 147.622 74.5459 147.341 74.3213 146.989C74.1016 146.633 73.9917 146.235 73.9917 145.795C73.9917 145.371 74.0747 144.997 74.2407 144.675C74.4067 144.348 74.646 144.077 74.9585 143.862C75.271 143.642 75.647 143.476 76.0864 143.364C76.5259 143.251 77.0166 143.195 77.5586 143.195H79.1333ZM83.7402 141.32V148H82.3853V140.075H83.7036L83.7402 141.32ZM86.2158 140.031L86.2085 141.291C86.0962 141.267 85.9888 141.252 85.8862 141.247C85.7886 141.237 85.6763 141.232 85.5493 141.232C85.2368 141.232 84.9609 141.281 84.7217 141.379C84.4824 141.477 84.2798 141.613 84.1138 141.789C83.9478 141.965 83.8159 142.175 83.7183 142.419C83.6255 142.658 83.5645 142.922 83.5352 143.21L83.1543 143.43C83.1543 142.951 83.2007 142.502 83.2935 142.082C83.3911 141.662 83.54 141.291 83.7402 140.969C83.9404 140.642 84.1943 140.388 84.502 140.207C84.8145 140.021 85.1855 139.929 85.6152 139.929C85.7129 139.929 85.8252 139.941 85.9521 139.965C86.0791 139.985 86.167 140.007 86.2158 140.031ZM96.0376 146.169V140.075H97.3999V148H96.1035L96.0376 146.169ZM96.2939 144.499L96.8579 144.484C96.8579 145.012 96.8018 145.5 96.6895 145.949C96.582 146.394 96.4062 146.779 96.1621 147.106C95.918 147.434 95.5981 147.69 95.2026 147.875C94.8071 148.056 94.3262 148.146 93.7598 148.146C93.374 148.146 93.02 148.09 92.6978 147.978C92.3804 147.866 92.1069 147.692 91.8774 147.458C91.6479 147.224 91.4697 146.918 91.3428 146.542C91.2207 146.167 91.1597 145.715 91.1597 145.188V140.075H92.5146V145.202C92.5146 145.559 92.5537 145.854 92.6318 146.088C92.7148 146.318 92.8247 146.501 92.9614 146.638C93.103 146.77 93.2593 146.862 93.4302 146.916C93.606 146.97 93.7866 146.997 93.9722 146.997C94.5483 146.997 95.0049 146.887 95.3418 146.667C95.6787 146.442 95.9204 146.142 96.0669 145.766C96.2183 145.385 96.2939 144.963 96.2939 144.499ZM100.813 141.65V148H99.4507V140.075H100.74L100.813 141.65ZM100.535 143.737L99.9048 143.715C99.9097 143.173 99.9805 142.673 100.117 142.214C100.254 141.75 100.457 141.347 100.725 141.005C100.994 140.664 101.328 140.4 101.729 140.214C102.129 140.024 102.593 139.929 103.12 139.929C103.491 139.929 103.833 139.982 104.146 140.09C104.458 140.192 104.729 140.356 104.958 140.581C105.188 140.805 105.366 141.093 105.493 141.445C105.62 141.796 105.684 142.221 105.684 142.719V148H104.329V142.785C104.329 142.37 104.258 142.038 104.116 141.789C103.979 141.54 103.784 141.359 103.53 141.247C103.276 141.13 102.979 141.071 102.637 141.071C102.236 141.071 101.902 141.142 101.633 141.284C101.365 141.425 101.15 141.621 100.989 141.87C100.828 142.119 100.71 142.404 100.637 142.727C100.569 143.044 100.535 143.381 100.535 143.737ZM105.669 142.99L104.761 143.269C104.766 142.834 104.836 142.417 104.973 142.016C105.115 141.616 105.317 141.259 105.581 140.947C105.85 140.634 106.179 140.388 106.57 140.207C106.96 140.021 107.407 139.929 107.91 139.929C108.335 139.929 108.711 139.985 109.038 140.097C109.37 140.209 109.648 140.383 109.873 140.617C110.103 140.847 110.276 141.142 110.393 141.503C110.51 141.865 110.569 142.294 110.569 142.792V148H109.207V142.778C109.207 142.333 109.136 141.989 108.994 141.745C108.857 141.496 108.662 141.323 108.408 141.225C108.159 141.123 107.861 141.071 107.515 141.071C107.217 141.071 106.953 141.123 106.724 141.225C106.494 141.328 106.301 141.469 106.145 141.65C105.989 141.826 105.869 142.028 105.786 142.258C105.708 142.487 105.669 142.731 105.669 142.99ZM117.292 146.645V142.565C117.292 142.253 117.229 141.982 117.102 141.752C116.98 141.518 116.794 141.337 116.545 141.21C116.296 141.083 115.989 141.02 115.623 141.02C115.281 141.02 114.98 141.079 114.722 141.196C114.468 141.313 114.268 141.467 114.121 141.657C113.979 141.848 113.909 142.053 113.909 142.272H112.554C112.554 141.989 112.627 141.708 112.773 141.43C112.92 141.152 113.13 140.9 113.403 140.676C113.682 140.446 114.014 140.266 114.399 140.134C114.79 139.997 115.225 139.929 115.703 139.929C116.279 139.929 116.787 140.026 117.227 140.222C117.671 140.417 118.018 140.712 118.267 141.108C118.521 141.499 118.647 141.989 118.647 142.58V146.271C118.647 146.535 118.669 146.816 118.713 147.114C118.762 147.412 118.833 147.668 118.926 147.883V148H117.512C117.444 147.844 117.39 147.636 117.351 147.377C117.312 147.114 117.292 146.87 117.292 146.645ZM117.527 143.195L117.542 144.147H116.172C115.786 144.147 115.442 144.179 115.139 144.243C114.836 144.301 114.583 144.392 114.377 144.514C114.172 144.636 114.016 144.79 113.909 144.975C113.801 145.156 113.748 145.368 113.748 145.612C113.748 145.861 113.804 146.088 113.916 146.293C114.028 146.499 114.197 146.662 114.421 146.784C114.651 146.901 114.932 146.96 115.264 146.96C115.679 146.96 116.045 146.872 116.362 146.696C116.68 146.521 116.931 146.306 117.117 146.052C117.307 145.798 117.41 145.551 117.424 145.312L118.003 145.964C117.969 146.169 117.876 146.396 117.725 146.645C117.573 146.894 117.371 147.133 117.117 147.363C116.868 147.587 116.57 147.775 116.223 147.927C115.881 148.073 115.496 148.146 115.066 148.146C114.529 148.146 114.058 148.042 113.652 147.832C113.252 147.622 112.939 147.341 112.715 146.989C112.495 146.633 112.385 146.235 112.385 145.795C112.385 145.371 112.468 144.997 112.634 144.675C112.8 144.348 113.04 144.077 113.352 143.862C113.665 143.642 114.041 143.476 114.48 143.364C114.919 143.251 115.41 143.195 115.952 143.195H117.527ZM126.521 148H125.166V139.24C125.166 138.669 125.269 138.188 125.474 137.797C125.684 137.402 125.984 137.104 126.375 136.904C126.765 136.699 127.229 136.596 127.766 136.596C127.922 136.596 128.079 136.606 128.235 136.625C128.396 136.645 128.552 136.674 128.704 136.713L128.63 137.819C128.528 137.795 128.411 137.778 128.279 137.768C128.152 137.758 128.025 137.753 127.898 137.753C127.61 137.753 127.361 137.812 127.151 137.929C126.946 138.042 126.79 138.208 126.682 138.427C126.575 138.647 126.521 138.918 126.521 139.24V148ZM128.206 140.075V141.115H123.914V140.075H128.206ZM129.355 144.125V143.957C129.355 143.386 129.438 142.856 129.604 142.368C129.771 141.875 130.01 141.447 130.322 141.086C130.635 140.72 131.013 140.437 131.458 140.236C131.902 140.031 132.4 139.929 132.952 139.929C133.508 139.929 134.009 140.031 134.453 140.236C134.902 140.437 135.283 140.72 135.596 141.086C135.913 141.447 136.155 141.875 136.321 142.368C136.487 142.856 136.57 143.386 136.57 143.957V144.125C136.57 144.697 136.487 145.227 136.321 145.715C136.155 146.203 135.913 146.63 135.596 146.997C135.283 147.358 134.905 147.641 134.46 147.846C134.021 148.046 133.523 148.146 132.966 148.146C132.41 148.146 131.909 148.046 131.465 147.846C131.021 147.641 130.64 147.358 130.322 146.997C130.01 146.63 129.771 146.203 129.604 145.715C129.438 145.227 129.355 144.697 129.355 144.125ZM130.71 143.957V144.125C130.71 144.521 130.757 144.895 130.85 145.246C130.942 145.593 131.082 145.9 131.267 146.169C131.458 146.438 131.694 146.65 131.978 146.806C132.261 146.958 132.59 147.033 132.966 147.033C133.337 147.033 133.662 146.958 133.94 146.806C134.224 146.65 134.458 146.438 134.644 146.169C134.829 145.9 134.968 145.593 135.061 145.246C135.159 144.895 135.208 144.521 135.208 144.125V143.957C135.208 143.566 135.159 143.198 135.061 142.851C134.968 142.5 134.827 142.189 134.636 141.921C134.451 141.647 134.216 141.433 133.933 141.276C133.655 141.12 133.328 141.042 132.952 141.042C132.581 141.042 132.253 141.12 131.97 141.276C131.692 141.433 131.458 141.647 131.267 141.921C131.082 142.189 130.942 142.5 130.85 142.851C130.757 143.198 130.71 143.566 130.71 143.957ZM139.624 141.767V148H138.269V140.075H139.551L139.624 141.767ZM139.302 143.737L138.738 143.715C138.743 143.173 138.823 142.673 138.979 142.214C139.136 141.75 139.355 141.347 139.639 141.005C139.922 140.664 140.259 140.4 140.649 140.214C141.045 140.024 141.482 139.929 141.96 139.929C142.351 139.929 142.703 139.982 143.015 140.09C143.328 140.192 143.594 140.358 143.813 140.588C144.038 140.817 144.209 141.115 144.326 141.481C144.443 141.843 144.502 142.285 144.502 142.807V148H143.14V142.792C143.14 142.377 143.079 142.045 142.957 141.796C142.834 141.542 142.656 141.359 142.422 141.247C142.188 141.13 141.899 141.071 141.558 141.071C141.221 141.071 140.913 141.142 140.635 141.284C140.361 141.425 140.125 141.621 139.924 141.87C139.729 142.119 139.575 142.404 139.463 142.727C139.355 143.044 139.302 143.381 139.302 143.737ZM149.878 140.075V141.115H145.593V140.075H149.878ZM147.043 138.149H148.398V146.037C148.398 146.306 148.44 146.508 148.523 146.645C148.606 146.782 148.713 146.872 148.845 146.916C148.977 146.96 149.119 146.982 149.27 146.982C149.382 146.982 149.5 146.972 149.622 146.953C149.749 146.928 149.844 146.909 149.907 146.894L149.915 148C149.807 148.034 149.666 148.066 149.49 148.095C149.319 148.129 149.111 148.146 148.867 148.146C148.535 148.146 148.23 148.081 147.952 147.949C147.673 147.817 147.451 147.597 147.285 147.29C147.124 146.977 147.043 146.557 147.043 146.03V138.149ZM154.756 148.146C154.204 148.146 153.704 148.054 153.254 147.868C152.81 147.678 152.427 147.412 152.104 147.07C151.787 146.728 151.543 146.323 151.372 145.854C151.201 145.385 151.116 144.873 151.116 144.316V144.008C151.116 143.364 151.211 142.79 151.401 142.287C151.592 141.779 151.851 141.35 152.178 140.998C152.505 140.646 152.876 140.38 153.291 140.2C153.706 140.019 154.136 139.929 154.58 139.929C155.146 139.929 155.635 140.026 156.045 140.222C156.46 140.417 156.799 140.69 157.063 141.042C157.327 141.389 157.522 141.799 157.649 142.272C157.776 142.741 157.839 143.254 157.839 143.811V144.418H151.921V143.312H156.484V143.21C156.465 142.858 156.392 142.517 156.265 142.185C156.143 141.853 155.947 141.579 155.679 141.364C155.41 141.149 155.044 141.042 154.58 141.042C154.272 141.042 153.989 141.108 153.73 141.24C153.472 141.367 153.25 141.557 153.064 141.811C152.878 142.065 152.734 142.375 152.632 142.741C152.529 143.107 152.478 143.53 152.478 144.008V144.316C152.478 144.692 152.529 145.046 152.632 145.378C152.739 145.705 152.893 145.993 153.093 146.242C153.298 146.491 153.545 146.687 153.833 146.828C154.126 146.97 154.458 147.041 154.829 147.041C155.308 147.041 155.713 146.943 156.045 146.748C156.377 146.552 156.667 146.291 156.917 145.964L157.737 146.616C157.566 146.875 157.349 147.121 157.085 147.355C156.821 147.59 156.497 147.78 156.111 147.927C155.73 148.073 155.278 148.146 154.756 148.146ZM168.137 146.462V136.75H169.5V148H168.254L168.137 146.462ZM162.805 144.125V143.972C162.805 143.366 162.878 142.817 163.025 142.324C163.176 141.826 163.389 141.398 163.662 141.042C163.94 140.686 164.27 140.412 164.651 140.222C165.037 140.026 165.466 139.929 165.94 139.929C166.438 139.929 166.873 140.017 167.244 140.192C167.62 140.363 167.937 140.615 168.196 140.947C168.459 141.274 168.667 141.669 168.818 142.133C168.97 142.597 169.075 143.122 169.133 143.708V144.382C169.08 144.963 168.975 145.485 168.818 145.949C168.667 146.413 168.459 146.809 168.196 147.136C167.937 147.463 167.62 147.714 167.244 147.89C166.868 148.061 166.428 148.146 165.925 148.146C165.461 148.146 165.037 148.046 164.651 147.846C164.27 147.646 163.94 147.365 163.662 147.004C163.389 146.643 163.176 146.218 163.025 145.729C162.878 145.236 162.805 144.702 162.805 144.125ZM164.167 143.972V144.125C164.167 144.521 164.207 144.892 164.285 145.239C164.368 145.585 164.495 145.891 164.666 146.154C164.836 146.418 165.054 146.625 165.317 146.777C165.581 146.923 165.896 146.997 166.262 146.997C166.711 146.997 167.08 146.901 167.368 146.711C167.661 146.521 167.896 146.269 168.071 145.957C168.247 145.644 168.384 145.305 168.481 144.938V143.173C168.423 142.905 168.337 142.646 168.225 142.397C168.118 142.143 167.976 141.918 167.8 141.723C167.629 141.523 167.417 141.364 167.163 141.247C166.914 141.13 166.619 141.071 166.277 141.071C165.906 141.071 165.586 141.149 165.317 141.306C165.054 141.457 164.836 141.667 164.666 141.936C164.495 142.199 164.368 142.507 164.285 142.858C164.207 143.205 164.167 143.576 164.167 143.972ZM174.897 148.146C174.346 148.146 173.845 148.054 173.396 147.868C172.952 147.678 172.568 147.412 172.246 147.07C171.929 146.728 171.685 146.323 171.514 145.854C171.343 145.385 171.257 144.873 171.257 144.316V144.008C171.257 143.364 171.353 142.79 171.543 142.287C171.733 141.779 171.992 141.35 172.319 140.998C172.646 140.646 173.018 140.38 173.433 140.2C173.848 140.019 174.277 139.929 174.722 139.929C175.288 139.929 175.776 140.026 176.187 140.222C176.602 140.417 176.941 140.69 177.205 141.042C177.468 141.389 177.664 141.799 177.791 142.272C177.917 142.741 177.981 143.254 177.981 143.811V144.418H172.063V143.312H176.626V143.21C176.606 142.858 176.533 142.517 176.406 142.185C176.284 141.853 176.089 141.579 175.82 141.364C175.552 141.149 175.186 141.042 174.722 141.042C174.414 141.042 174.131 141.108 173.872 141.24C173.613 141.367 173.391 141.557 173.206 141.811C173.02 142.065 172.876 142.375 172.773 142.741C172.671 143.107 172.62 143.53 172.62 144.008V144.316C172.62 144.692 172.671 145.046 172.773 145.378C172.881 145.705 173.035 145.993 173.235 146.242C173.44 146.491 173.687 146.687 173.975 146.828C174.268 146.97 174.6 147.041 174.971 147.041C175.449 147.041 175.854 146.943 176.187 146.748C176.519 146.552 176.809 146.291 177.058 145.964L177.878 146.616C177.708 146.875 177.49 147.121 177.227 147.355C176.963 147.59 176.638 147.78 176.252 147.927C175.872 148.073 175.42 148.146 174.897 148.146ZM42.4316 164.32V171H41.0767V163.075H42.395L42.4316 164.32ZM44.9072 163.031L44.8999 164.291C44.7876 164.267 44.6802 164.252 44.5776 164.247C44.48 164.237 44.3677 164.232 44.2407 164.232C43.9282 164.232 43.6523 164.281 43.4131 164.379C43.1738 164.477 42.9712 164.613 42.8052 164.789C42.6392 164.965 42.5073 165.175 42.4097 165.419C42.3169 165.658 42.2559 165.922 42.2266 166.21L41.8457 166.43C41.8457 165.951 41.8921 165.502 41.9849 165.082C42.0825 164.662 42.2314 164.291 42.4316 163.969C42.6318 163.642 42.8857 163.388 43.1934 163.207C43.5059 163.021 43.877 162.929 44.3066 162.929C44.4043 162.929 44.5166 162.941 44.6436 162.965C44.7705 162.985 44.8584 163.007 44.9072 163.031ZM49.3018 171.146C48.75 171.146 48.2495 171.054 47.8003 170.868C47.356 170.678 46.9727 170.412 46.6504 170.07C46.333 169.728 46.0889 169.323 45.918 168.854C45.7471 168.385 45.6616 167.873 45.6616 167.316V167.008C45.6616 166.364 45.7568 165.79 45.9473 165.287C46.1377 164.779 46.3965 164.35 46.7236 163.998C47.0508 163.646 47.4219 163.38 47.8369 163.2C48.252 163.019 48.6816 162.929 49.126 162.929C49.6924 162.929 50.1807 163.026 50.5908 163.222C51.0059 163.417 51.3452 163.69 51.6089 164.042C51.8726 164.389 52.0679 164.799 52.1948 165.272C52.3218 165.741 52.3853 166.254 52.3853 166.811V167.418H46.4673V166.312H51.0303V166.21C51.0107 165.858 50.9375 165.517 50.8105 165.185C50.6885 164.853 50.4932 164.579 50.2246 164.364C49.9561 164.149 49.5898 164.042 49.126 164.042C48.8184 164.042 48.5352 164.108 48.2764 164.24C48.0176 164.367 47.7954 164.557 47.6099 164.811C47.4243 165.065 47.2803 165.375 47.1777 165.741C47.0752 166.107 47.0239 166.53 47.0239 167.008V167.316C47.0239 167.692 47.0752 168.046 47.1777 168.378C47.2852 168.705 47.439 168.993 47.6392 169.242C47.8442 169.491 48.0908 169.687 48.3789 169.828C48.6719 169.97 49.0039 170.041 49.375 170.041C49.8535 170.041 50.2588 169.943 50.5908 169.748C50.9229 169.552 51.2134 169.291 51.4624 168.964L52.2827 169.616C52.1118 169.875 51.8945 170.121 51.6309 170.355C51.3672 170.59 51.0425 170.78 50.6567 170.927C50.2759 171.073 49.8242 171.146 49.3018 171.146ZM55.3223 164.767V171H53.9673V163.075H55.249L55.3223 164.767ZM55 166.737L54.436 166.715C54.4409 166.173 54.5215 165.673 54.6777 165.214C54.834 164.75 55.0537 164.347 55.3369 164.005C55.6201 163.664 55.957 163.4 56.3477 163.214C56.7432 163.024 57.1802 162.929 57.6587 162.929C58.0493 162.929 58.4009 162.982 58.7134 163.09C59.0259 163.192 59.292 163.358 59.5117 163.588C59.7363 163.817 59.9072 164.115 60.0244 164.481C60.1416 164.843 60.2002 165.285 60.2002 165.807V171H58.8379V165.792C58.8379 165.377 58.7769 165.045 58.6548 164.796C58.5327 164.542 58.3545 164.359 58.1201 164.247C57.8857 164.13 57.5977 164.071 57.2559 164.071C56.9189 164.071 56.6113 164.142 56.333 164.284C56.0596 164.425 55.8228 164.621 55.6226 164.87C55.4272 165.119 55.2734 165.404 55.1611 165.727C55.0537 166.044 55 166.381 55 166.737ZM67.2534 169.462V159.75H68.6157V171H67.3706L67.2534 169.462ZM61.9214 167.125V166.972C61.9214 166.366 61.9946 165.817 62.1411 165.324C62.2925 164.826 62.5049 164.398 62.7783 164.042C63.0566 163.686 63.3862 163.412 63.7671 163.222C64.1528 163.026 64.5825 162.929 65.0562 162.929C65.5542 162.929 65.9888 163.017 66.3599 163.192C66.7358 163.363 67.0532 163.615 67.312 163.947C67.5757 164.274 67.7832 164.669 67.9346 165.133C68.0859 165.597 68.1909 166.122 68.2495 166.708V167.382C68.1958 167.963 68.0908 168.485 67.9346 168.949C67.7832 169.413 67.5757 169.809 67.312 170.136C67.0532 170.463 66.7358 170.714 66.3599 170.89C65.9839 171.061 65.5444 171.146 65.0415 171.146C64.5776 171.146 64.1528 171.046 63.7671 170.846C63.3862 170.646 63.0566 170.365 62.7783 170.004C62.5049 169.643 62.2925 169.218 62.1411 168.729C61.9946 168.236 61.9214 167.702 61.9214 167.125ZM63.2837 166.972V167.125C63.2837 167.521 63.3228 167.892 63.4009 168.239C63.4839 168.585 63.6108 168.891 63.7817 169.154C63.9526 169.418 64.1699 169.625 64.4336 169.777C64.6973 169.923 65.0122 169.997 65.3784 169.997C65.8276 169.997 66.1963 169.901 66.4844 169.711C66.7773 169.521 67.0117 169.269 67.1875 168.957C67.3633 168.644 67.5 168.305 67.5977 167.938V166.173C67.5391 165.905 67.4536 165.646 67.3413 165.397C67.2339 165.143 67.0923 164.918 66.9165 164.723C66.7456 164.523 66.5332 164.364 66.2793 164.247C66.0303 164.13 65.7349 164.071 65.3931 164.071C65.022 164.071 64.7021 164.149 64.4336 164.306C64.1699 164.457 63.9526 164.667 63.7817 164.936C63.6108 165.199 63.4839 165.507 63.4009 165.858C63.3228 166.205 63.2837 166.576 63.2837 166.972ZM75.3979 169.645V165.565C75.3979 165.253 75.3345 164.982 75.2075 164.752C75.0854 164.518 74.8999 164.337 74.6509 164.21C74.4019 164.083 74.0942 164.02 73.728 164.02C73.3862 164.02 73.0859 164.079 72.8271 164.196C72.5732 164.313 72.373 164.467 72.2266 164.657C72.085 164.848 72.0142 165.053 72.0142 165.272H70.6592C70.6592 164.989 70.7324 164.708 70.8789 164.43C71.0254 164.152 71.2354 163.9 71.5088 163.676C71.7871 163.446 72.1191 163.266 72.5049 163.134C72.8955 162.997 73.3301 162.929 73.8086 162.929C74.3848 162.929 74.8926 163.026 75.332 163.222C75.7764 163.417 76.123 163.712 76.3721 164.108C76.626 164.499 76.7529 164.989 76.7529 165.58V169.271C76.7529 169.535 76.7749 169.816 76.8188 170.114C76.8677 170.412 76.9385 170.668 77.0312 170.883V171H75.6177C75.5493 170.844 75.4956 170.636 75.4565 170.377C75.4175 170.114 75.3979 169.87 75.3979 169.645ZM75.6323 166.195L75.647 167.147H74.2773C73.8916 167.147 73.5474 167.179 73.2446 167.243C72.9419 167.301 72.688 167.392 72.4829 167.514C72.2778 167.636 72.1216 167.79 72.0142 167.975C71.9067 168.156 71.853 168.368 71.853 168.612C71.853 168.861 71.9092 169.088 72.0215 169.293C72.1338 169.499 72.3022 169.662 72.5269 169.784C72.7563 169.901 73.0371 169.96 73.3691 169.96C73.7842 169.96 74.1504 169.872 74.4678 169.696C74.7852 169.521 75.0366 169.306 75.2222 169.052C75.4126 168.798 75.5151 168.551 75.5298 168.312L76.1084 168.964C76.0742 169.169 75.9814 169.396 75.8301 169.645C75.6787 169.894 75.4761 170.133 75.2222 170.363C74.9731 170.587 74.6753 170.775 74.3286 170.927C73.9868 171.073 73.6011 171.146 73.1714 171.146C72.6343 171.146 72.1631 171.042 71.7578 170.832C71.3574 170.622 71.0449 170.341 70.8203 169.989C70.6006 169.633 70.4907 169.235 70.4907 168.795C70.4907 168.371 70.5737 167.997 70.7397 167.675C70.9058 167.348 71.145 167.077 71.4575 166.862C71.77 166.642 72.146 166.476 72.5854 166.364C73.0249 166.251 73.5156 166.195 74.0576 166.195H75.6323ZM83.96 164.599V174.047H82.5977V163.075H83.8428L83.96 164.599ZM89.2993 166.972V167.125C89.2993 167.702 89.231 168.236 89.0942 168.729C88.9575 169.218 88.7573 169.643 88.4937 170.004C88.2349 170.365 87.915 170.646 87.5342 170.846C87.1533 171.046 86.7163 171.146 86.2231 171.146C85.7202 171.146 85.2759 171.063 84.8901 170.897C84.5044 170.731 84.1772 170.49 83.9087 170.172C83.6401 169.855 83.4253 169.474 83.2642 169.03C83.1079 168.585 83.0005 168.085 82.9419 167.528V166.708C83.0005 166.122 83.1104 165.597 83.2715 165.133C83.4326 164.669 83.645 164.274 83.9087 163.947C84.1772 163.615 84.502 163.363 84.8828 163.192C85.2637 163.017 85.7031 162.929 86.2012 162.929C86.6992 162.929 87.1411 163.026 87.5269 163.222C87.9126 163.412 88.2373 163.686 88.501 164.042C88.7646 164.398 88.9624 164.826 89.0942 165.324C89.231 165.817 89.2993 166.366 89.2993 166.972ZM87.937 167.125V166.972C87.937 166.576 87.8955 166.205 87.8125 165.858C87.7295 165.507 87.6001 165.199 87.4243 164.936C87.2534 164.667 87.0337 164.457 86.7651 164.306C86.4966 164.149 86.1768 164.071 85.8057 164.071C85.4639 164.071 85.166 164.13 84.9121 164.247C84.6631 164.364 84.4507 164.523 84.2749 164.723C84.0991 164.918 83.9551 165.143 83.8428 165.397C83.7354 165.646 83.6548 165.905 83.6011 166.173V168.07C83.6987 168.412 83.8354 168.734 84.0112 169.037C84.187 169.335 84.4214 169.577 84.7144 169.762C85.0073 169.943 85.376 170.033 85.8203 170.033C86.1865 170.033 86.5015 169.958 86.7651 169.806C87.0337 169.65 87.2534 169.438 87.4243 169.169C87.6001 168.9 87.7295 168.593 87.8125 168.246C87.8955 167.895 87.937 167.521 87.937 167.125ZM92.3828 164.32V171H91.0278V163.075H92.3462L92.3828 164.32ZM94.8584 163.031L94.8511 164.291C94.7388 164.267 94.6313 164.252 94.5288 164.247C94.4312 164.237 94.3188 164.232 94.1919 164.232C93.8794 164.232 93.6035 164.281 93.3643 164.379C93.125 164.477 92.9224 164.613 92.7563 164.789C92.5903 164.965 92.4585 165.175 92.3608 165.419C92.2681 165.658 92.207 165.922 92.1777 166.21L91.7969 166.43C91.7969 165.951 91.8433 165.502 91.936 165.082C92.0337 164.662 92.1826 164.291 92.3828 163.969C92.583 163.642 92.8369 163.388 93.1445 163.207C93.457 163.021 93.8281 162.929 94.2578 162.929C94.3555 162.929 94.4678 162.941 94.5947 162.965C94.7217 162.985 94.8096 163.007 94.8584 163.031ZM99.2529 171.146C98.7012 171.146 98.2007 171.054 97.7515 170.868C97.3071 170.678 96.9238 170.412 96.6016 170.07C96.2842 169.728 96.04 169.323 95.8691 168.854C95.6982 168.385 95.6128 167.873 95.6128 167.316V167.008C95.6128 166.364 95.708 165.79 95.8984 165.287C96.0889 164.779 96.3477 164.35 96.6748 163.998C97.002 163.646 97.373 163.38 97.7881 163.2C98.2031 163.019 98.6328 162.929 99.0771 162.929C99.6436 162.929 100.132 163.026 100.542 163.222C100.957 163.417 101.296 163.69 101.56 164.042C101.824 164.389 102.019 164.799 102.146 165.272C102.273 165.741 102.336 166.254 102.336 166.811V167.418H96.4185V166.312H100.981V166.21C100.962 165.858 100.889 165.517 100.762 165.185C100.64 164.853 100.444 164.579 100.176 164.364C99.9072 164.149 99.541 164.042 99.0771 164.042C98.7695 164.042 98.4863 164.108 98.2275 164.24C97.9688 164.367 97.7466 164.557 97.561 164.811C97.3755 165.065 97.2314 165.375 97.1289 165.741C97.0264 166.107 96.9751 166.53 96.9751 167.008V167.316C96.9751 167.692 97.0264 168.046 97.1289 168.378C97.2363 168.705 97.3901 168.993 97.5903 169.242C97.7954 169.491 98.042 169.687 98.3301 169.828C98.623 169.97 98.9551 170.041 99.3262 170.041C99.8047 170.041 100.21 169.943 100.542 169.748C100.874 169.552 101.165 169.291 101.414 168.964L102.234 169.616C102.063 169.875 101.846 170.121 101.582 170.355C101.318 170.59 100.994 170.78 100.608 170.927C100.227 171.073 99.7754 171.146 99.2529 171.146ZM106.226 169.777L108.394 163.075H109.778L106.929 171H106.021L106.226 169.777ZM104.417 163.075L106.65 169.813L106.804 171H105.896L103.025 163.075H104.417ZM112.554 163.075V171H111.191V163.075H112.554ZM111.089 160.973C111.089 160.753 111.155 160.568 111.287 160.417C111.423 160.265 111.624 160.189 111.887 160.189C112.146 160.189 112.344 160.265 112.48 160.417C112.622 160.568 112.693 160.753 112.693 160.973C112.693 161.183 112.622 161.364 112.48 161.515C112.344 161.662 112.146 161.735 111.887 161.735C111.624 161.735 111.423 161.662 111.287 161.515C111.155 161.364 111.089 161.183 111.089 160.973ZM119.724 169.462V159.75H121.086V171H119.841L119.724 169.462ZM114.392 167.125V166.972C114.392 166.366 114.465 165.817 114.612 165.324C114.763 164.826 114.976 164.398 115.249 164.042C115.527 163.686 115.857 163.412 116.238 163.222C116.624 163.026 117.053 162.929 117.527 162.929C118.025 162.929 118.459 163.017 118.831 163.192C119.207 163.363 119.524 163.615 119.783 163.947C120.046 164.274 120.254 164.669 120.405 165.133C120.557 165.597 120.662 166.122 120.72 166.708V167.382C120.667 167.963 120.562 168.485 120.405 168.949C120.254 169.413 120.046 169.809 119.783 170.136C119.524 170.463 119.207 170.714 118.831 170.89C118.455 171.061 118.015 171.146 117.512 171.146C117.048 171.146 116.624 171.046 116.238 170.846C115.857 170.646 115.527 170.365 115.249 170.004C114.976 169.643 114.763 169.218 114.612 168.729C114.465 168.236 114.392 167.702 114.392 167.125ZM115.754 166.972V167.125C115.754 167.521 115.793 167.892 115.872 168.239C115.955 168.585 116.082 168.891 116.252 169.154C116.423 169.418 116.641 169.625 116.904 169.777C117.168 169.923 117.483 169.997 117.849 169.997C118.298 169.997 118.667 169.901 118.955 169.711C119.248 169.521 119.482 169.269 119.658 168.957C119.834 168.644 119.971 168.305 120.068 167.938V166.173C120.01 165.905 119.924 165.646 119.812 165.397C119.705 165.143 119.563 164.918 119.387 164.723C119.216 164.523 119.004 164.364 118.75 164.247C118.501 164.13 118.206 164.071 117.864 164.071C117.493 164.071 117.173 164.149 116.904 164.306C116.641 164.457 116.423 164.667 116.252 164.936C116.082 165.199 115.955 165.507 115.872 165.858C115.793 166.205 115.754 166.576 115.754 166.972ZM126.484 171.146C125.933 171.146 125.432 171.054 124.983 170.868C124.539 170.678 124.155 170.412 123.833 170.07C123.516 169.728 123.271 169.323 123.101 168.854C122.93 168.385 122.844 167.873 122.844 167.316V167.008C122.844 166.364 122.939 165.79 123.13 165.287C123.32 164.779 123.579 164.35 123.906 163.998C124.233 163.646 124.604 163.38 125.02 163.2C125.435 163.019 125.864 162.929 126.309 162.929C126.875 162.929 127.363 163.026 127.773 163.222C128.188 163.417 128.528 163.69 128.792 164.042C129.055 164.389 129.25 164.799 129.377 165.272C129.504 165.741 129.568 166.254 129.568 166.811V167.418H123.65V166.312H128.213V166.21C128.193 165.858 128.12 165.517 127.993 165.185C127.871 164.853 127.676 164.579 127.407 164.364C127.139 164.149 126.772 164.042 126.309 164.042C126.001 164.042 125.718 164.108 125.459 164.24C125.2 164.367 124.978 164.557 124.792 164.811C124.607 165.065 124.463 165.375 124.36 165.741C124.258 166.107 124.207 166.53 124.207 167.008V167.316C124.207 167.692 124.258 168.046 124.36 168.378C124.468 168.705 124.622 168.993 124.822 169.242C125.027 169.491 125.273 169.687 125.562 169.828C125.854 169.97 126.187 170.041 126.558 170.041C127.036 170.041 127.441 169.943 127.773 169.748C128.105 169.552 128.396 169.291 128.645 168.964L129.465 169.616C129.294 169.875 129.077 170.121 128.813 170.355C128.55 170.59 128.225 170.78 127.839 170.927C127.458 171.073 127.007 171.146 126.484 171.146ZM132.505 164.767V171H131.15V163.075H132.432L132.505 164.767ZM132.183 166.737L131.619 166.715C131.624 166.173 131.704 165.673 131.86 165.214C132.017 164.75 132.236 164.347 132.52 164.005C132.803 163.664 133.14 163.4 133.53 163.214C133.926 163.024 134.363 162.929 134.841 162.929C135.232 162.929 135.583 162.982 135.896 163.09C136.208 163.192 136.475 163.358 136.694 163.588C136.919 163.817 137.09 164.115 137.207 164.481C137.324 164.843 137.383 165.285 137.383 165.807V171H136.021V165.792C136.021 165.377 135.959 165.045 135.837 164.796C135.715 164.542 135.537 164.359 135.303 164.247C135.068 164.13 134.78 164.071 134.438 164.071C134.102 164.071 133.794 164.142 133.516 164.284C133.242 164.425 133.005 164.621 132.805 164.87C132.61 165.119 132.456 165.404 132.344 165.727C132.236 166.044 132.183 166.381 132.183 166.737ZM142.612 170.033C142.935 170.033 143.232 169.967 143.506 169.835C143.779 169.704 144.004 169.523 144.18 169.293C144.355 169.059 144.456 168.793 144.48 168.495H145.769C145.745 168.964 145.586 169.401 145.293 169.806C145.005 170.207 144.626 170.531 144.158 170.78C143.689 171.024 143.174 171.146 142.612 171.146C142.017 171.146 141.497 171.042 141.052 170.832C140.613 170.622 140.247 170.333 139.954 169.967C139.666 169.601 139.448 169.181 139.302 168.708C139.16 168.229 139.089 167.724 139.089 167.191V166.884C139.089 166.352 139.16 165.849 139.302 165.375C139.448 164.896 139.666 164.474 139.954 164.108C140.247 163.742 140.613 163.454 141.052 163.244C141.497 163.034 142.017 162.929 142.612 162.929C143.232 162.929 143.774 163.056 144.238 163.31C144.702 163.559 145.066 163.9 145.33 164.335C145.598 164.765 145.745 165.253 145.769 165.8H144.48C144.456 165.473 144.363 165.177 144.202 164.914C144.045 164.65 143.831 164.44 143.557 164.284C143.289 164.123 142.974 164.042 142.612 164.042C142.197 164.042 141.848 164.125 141.565 164.291C141.287 164.452 141.064 164.672 140.898 164.95C140.737 165.224 140.62 165.529 140.547 165.866C140.479 166.198 140.444 166.537 140.444 166.884V167.191C140.444 167.538 140.479 167.88 140.547 168.217C140.615 168.554 140.73 168.859 140.891 169.132C141.057 169.406 141.279 169.625 141.558 169.792C141.841 169.953 142.192 170.033 142.612 170.033ZM148.765 163.075V171H147.402V163.075H148.765ZM147.3 160.973C147.3 160.753 147.366 160.568 147.498 160.417C147.634 160.265 147.834 160.189 148.098 160.189C148.357 160.189 148.555 160.265 148.691 160.417C148.833 160.568 148.904 160.753 148.904 160.973C148.904 161.183 148.833 161.364 148.691 161.515C148.555 161.662 148.357 161.735 148.098 161.735C147.834 161.735 147.634 161.662 147.498 161.515C147.366 161.364 147.3 161.183 147.3 160.973ZM155.613 169.645V165.565C155.613 165.253 155.549 164.982 155.422 164.752C155.3 164.518 155.115 164.337 154.866 164.21C154.617 164.083 154.309 164.02 153.943 164.02C153.601 164.02 153.301 164.079 153.042 164.196C152.788 164.313 152.588 164.467 152.441 164.657C152.3 164.848 152.229 165.053 152.229 165.272H150.874C150.874 164.989 150.947 164.708 151.094 164.43C151.24 164.152 151.45 163.9 151.724 163.676C152.002 163.446 152.334 163.266 152.72 163.134C153.11 162.997 153.545 162.929 154.023 162.929C154.6 162.929 155.107 163.026 155.547 163.222C155.991 163.417 156.338 163.712 156.587 164.108C156.841 164.499 156.968 164.989 156.968 165.58V169.271C156.968 169.535 156.99 169.816 157.034 170.114C157.083 170.412 157.153 170.668 157.246 170.883V171H155.833C155.764 170.844 155.71 170.636 155.671 170.377C155.632 170.114 155.613 169.87 155.613 169.645ZM155.847 166.195L155.862 167.147H154.492C154.106 167.147 153.762 167.179 153.459 167.243C153.157 167.301 152.903 167.392 152.698 167.514C152.493 167.636 152.336 167.79 152.229 167.975C152.122 168.156 152.068 168.368 152.068 168.612C152.068 168.861 152.124 169.088 152.236 169.293C152.349 169.499 152.517 169.662 152.742 169.784C152.971 169.901 153.252 169.96 153.584 169.96C153.999 169.96 154.365 169.872 154.683 169.696C155 169.521 155.251 169.306 155.437 169.052C155.627 168.798 155.73 168.551 155.745 168.312L156.323 168.964C156.289 169.169 156.196 169.396 156.045 169.645C155.894 169.894 155.691 170.133 155.437 170.363C155.188 170.587 154.89 170.775 154.543 170.927C154.202 171.073 153.816 171.146 153.386 171.146C152.849 171.146 152.378 171.042 151.973 170.832C151.572 170.622 151.26 170.341 151.035 169.989C150.815 169.633 150.706 169.235 150.706 168.795C150.706 168.371 150.789 167.997 150.955 167.675C151.121 167.348 151.36 167.077 151.672 166.862C151.985 166.642 152.361 166.476 152.8 166.364C153.24 166.251 153.73 166.195 154.272 166.195H155.847ZM153.423 161.903L154.844 159.75H156.477L154.514 161.903H153.423ZM160.454 164.32V171H159.099V163.075H160.417L160.454 164.32ZM162.93 163.031L162.922 164.291C162.81 164.267 162.703 164.252 162.6 164.247C162.502 164.237 162.39 164.232 162.263 164.232C161.951 164.232 161.675 164.281 161.436 164.379C161.196 164.477 160.994 164.613 160.828 164.789C160.662 164.965 160.53 165.175 160.432 165.419C160.339 165.658 160.278 165.922 160.249 166.21L159.868 166.43C159.868 165.951 159.915 165.502 160.007 165.082C160.105 164.662 160.254 164.291 160.454 163.969C160.654 163.642 160.908 163.388 161.216 163.207C161.528 163.021 161.899 162.929 162.329 162.929C162.427 162.929 162.539 162.941 162.666 162.965C162.793 162.985 162.881 163.007 162.93 163.031ZM165.654 163.075V171H164.292V163.075H165.654ZM164.189 160.973C164.189 160.753 164.255 160.568 164.387 160.417C164.524 160.265 164.724 160.189 164.988 160.189C165.247 160.189 165.444 160.265 165.581 160.417C165.723 160.568 165.793 160.753 165.793 160.973C165.793 161.183 165.723 161.364 165.581 161.515C165.444 161.662 165.247 161.735 164.988 161.735C164.724 161.735 164.524 161.662 164.387 161.515C164.255 161.364 164.189 161.183 164.189 160.973ZM172.502 169.645V165.565C172.502 165.253 172.439 164.982 172.312 164.752C172.19 164.518 172.004 164.337 171.755 164.21C171.506 164.083 171.199 164.02 170.833 164.02C170.491 164.02 170.19 164.079 169.932 164.196C169.678 164.313 169.478 164.467 169.331 164.657C169.189 164.848 169.119 165.053 169.119 165.272H167.764C167.764 164.989 167.837 164.708 167.983 164.43C168.13 164.152 168.34 163.9 168.613 163.676C168.892 163.446 169.224 163.266 169.609 163.134C170 162.997 170.435 162.929 170.913 162.929C171.489 162.929 171.997 163.026 172.437 163.222C172.881 163.417 173.228 163.712 173.477 164.108C173.73 164.499 173.857 164.989 173.857 165.58V169.271C173.857 169.535 173.879 169.816 173.923 170.114C173.972 170.412 174.043 170.668 174.136 170.883V171H172.722C172.654 170.844 172.6 170.636 172.561 170.377C172.522 170.114 172.502 169.87 172.502 169.645ZM172.737 166.195L172.751 167.147H171.382C170.996 167.147 170.652 167.179 170.349 167.243C170.046 167.301 169.792 167.392 169.587 167.514C169.382 167.636 169.226 167.79 169.119 167.975C169.011 168.156 168.958 168.368 168.958 168.612C168.958 168.861 169.014 169.088 169.126 169.293C169.238 169.499 169.407 169.662 169.631 169.784C169.861 169.901 170.142 169.96 170.474 169.96C170.889 169.96 171.255 169.872 171.572 169.696C171.89 169.521 172.141 169.306 172.327 169.052C172.517 168.798 172.62 168.551 172.634 168.312L173.213 168.964C173.179 169.169 173.086 169.396 172.935 169.645C172.783 169.894 172.581 170.133 172.327 170.363C172.078 170.587 171.78 170.775 171.433 170.927C171.091 171.073 170.706 171.146 170.276 171.146C169.739 171.146 169.268 171.042 168.862 170.832C168.462 170.622 168.149 170.341 167.925 169.989C167.705 169.633 167.595 169.235 167.595 168.795C167.595 168.371 167.678 167.997 167.844 167.675C168.01 167.348 168.25 167.077 168.562 166.862C168.875 166.642 169.25 166.476 169.69 166.364C170.129 166.251 170.62 166.195 171.162 166.195H172.737Z" fill="#FDFCFC"/>
</g>
<defs>
<linearGradient id="paint0_linear_201_2" x1="153" y1="17" x2="17" y2="379.5" gradientUnits="userSpaceOnUse">
<stop stop-color="#B17BFF"/>
<stop offset="1" stop-color="#4388F7"/>
</linearGradient>
<clipPath id="clip0_201_2">
<rect width="216" height="216" fill="white"/>
</clipPath>
</defs>
</svg>
