<svg width="216" height="216" viewBox="0 0 216 216" fill="none" xmlns="http://www.w3.org/2000/svg">
<g clip-path="url(#clip0_122_139)">
<path d="M88.2964 6.16148L93.7785 3.89073L93.9698 4.35267L96.7109 3.2173C97.6069 2.84615 98.5166 2.52102 99.4366 2.2419L99.2915 1.76344C101.181 1.19024 103.113 0.807806 105.059 0.61615L105.108 1.11375C107.031 0.924405 108.969 0.924406 110.892 1.11375L110.941 0.616152C112.887 0.80781 114.819 1.19024 116.709 1.76344L116.563 2.24191C117.483 2.52103 118.393 2.84616 119.289 3.2173L122.03 4.35268L122.222 3.89074L127.704 6.16149L127.512 6.62343L132.994 8.89418L133.186 8.43224L138.668 10.703L138.476 11.1649L143.959 13.4357L144.15 12.9738L149.632 15.2445L149.441 15.7064L154.923 17.9772L155.114 17.5153L160.596 19.786L160.405 20.2479L165.887 22.5187L166.078 22.0568L171.56 24.3275L171.369 24.7894L174.11 25.9248C175.006 26.296 175.879 26.7093 176.727 27.1625L176.963 26.7216C178.704 27.6522 180.341 28.7481 181.853 29.9889L181.535 30.3754C183.029 31.6013 184.399 32.971 185.625 34.4646L186.011 34.1474C187.252 35.6593 188.348 37.296 189.278 39.0373L188.837 39.273C189.291 40.1209 189.704 40.9941 190.075 41.8901L191.211 44.6311L191.673 44.4398L193.943 49.9219L193.481 50.1132L195.752 55.5953L196.214 55.4039L198.485 60.886L198.023 61.0774L200.294 66.5594L200.755 66.3681L203.026 71.8502L202.564 72.0415L204.835 77.5236L205.297 77.3322L207.568 82.8143L207.106 83.0057L209.377 88.4877L209.838 88.2964L212.109 93.7785L211.647 93.9698L212.783 96.7108C213.154 97.6069 213.479 98.5166 213.758 99.4366L214.237 99.2915C214.81 101.181 215.192 103.113 215.384 105.059L214.886 105.108C215.076 107.031 215.076 108.969 214.886 110.892L215.384 110.941C215.192 112.887 214.81 114.819 214.237 116.709L213.758 116.563C213.479 117.483 213.154 118.393 212.783 119.289L211.647 122.03L212.109 122.222L209.838 127.704L209.377 127.512L207.106 132.994L207.568 133.186L205.297 138.668L204.835 138.476L202.564 143.959L203.026 144.15L200.755 149.632L200.294 149.441L198.023 154.923L198.485 155.114L196.214 160.596L195.752 160.405L193.481 165.887L193.943 166.078L191.672 171.56L191.211 171.369L190.075 174.11C189.704 175.006 189.291 175.879 188.837 176.727L189.278 176.963C188.348 178.704 187.252 180.341 186.011 181.853L185.625 181.535C184.399 183.029 183.029 184.399 181.535 185.625L181.853 186.011C180.341 187.252 178.704 188.348 176.963 189.278L176.727 188.837C175.879 189.291 175.006 189.704 174.11 190.075L171.369 191.211L171.56 191.673L166.078 193.943L165.887 193.481L160.405 195.752L160.596 196.214L155.114 198.485L154.923 198.023L149.441 200.294L149.632 200.756L144.15 203.026L143.958 202.564L138.476 204.835L138.668 205.297L133.186 207.568L132.994 207.106L127.512 209.377L127.704 209.839L122.222 212.109L122.03 211.647L119.289 212.783C118.393 213.154 117.483 213.479 116.563 213.758L116.709 214.237C114.819 214.81 112.887 215.192 110.941 215.384L110.892 214.886C108.969 215.076 107.031 215.076 105.108 214.886L105.059 215.384C103.113 215.192 101.181 214.81 99.2915 214.237L99.4366 213.758C98.5166 213.479 97.6068 213.154 96.7108 212.783L93.9698 211.647L93.7785 212.109L88.2964 209.838L88.4877 209.377L83.0056 207.106L82.8143 207.568L77.3322 205.297L77.5236 204.835L72.0415 202.564L71.8502 203.026L66.3681 200.755L66.5594 200.294L61.0774 198.023L60.886 198.485L55.4039 196.214L55.5953 195.752L50.1132 193.481L49.9219 193.943L44.4398 191.672L44.6311 191.211L41.8901 190.075C40.9941 189.704 40.1209 189.291 39.273 188.837L39.0373 189.278C37.296 188.348 35.6593 187.252 34.1474 186.011L34.4646 185.625C32.971 184.399 31.6012 183.029 30.3754 181.535L29.9889 181.853C28.7481 180.341 27.6522 178.704 26.7216 176.963L27.1625 176.727C26.7093 175.879 26.296 175.006 25.9248 174.11L24.7894 171.369L24.3275 171.56L22.0567 166.078L22.5187 165.887L20.2479 160.405L19.786 160.596L17.5152 155.114L17.9772 154.923L15.7064 149.441L15.2445 149.632L12.9738 144.15L13.4357 143.958L11.1649 138.476L10.703 138.668L8.43229 133.186L8.89423 132.994L6.62348 127.512L6.16154 127.704L3.89079 122.222L4.35273 122.03L3.21736 119.289C2.84621 118.393 2.52108 117.483 2.24196 116.563L1.7635 116.709C1.1903 114.819 0.807867 112.887 0.616211 110.941L1.11381 110.892C0.924466 108.969 0.924467 107.031 1.11381 105.108L0.616213 105.059C0.80787 103.113 1.1903 101.181 1.7635 99.2915L2.24197 99.4366C2.52109 98.5166 2.84622 97.6068 3.21736 96.7108L4.35274 93.9698L3.8908 93.7785L6.16155 88.2964L6.62349 88.4877L8.89424 83.0056L8.4323 82.8143L10.703 77.3322L11.1649 77.5236L13.4357 72.0415L12.9738 71.8502L15.2445 66.3681L15.7064 66.5594L17.9772 61.0773L17.5153 60.886L19.786 55.4039L20.2479 55.5953L22.5187 50.1132L22.0568 49.9219L24.3275 44.4398L24.7894 44.6311L25.9248 41.8901C26.296 40.9941 26.7093 40.1209 27.1625 39.273L26.7216 39.0373C27.6522 37.296 28.7481 35.6593 29.9889 34.1474L30.3754 34.4646C31.6013 32.971 32.971 31.6012 34.4646 30.3754L34.1474 29.9889C35.6593 28.7481 37.296 27.6522 39.0373 26.7216L39.273 27.1625C40.1209 26.7093 40.9941 26.296 41.8901 25.9248L44.6311 24.7894L44.4398 24.3275L49.9219 22.0567L50.1132 22.5187L55.5953 20.2479L55.4039 19.786L60.886 17.5152L61.0774 17.9772L66.5594 15.7064L66.3681 15.2445L71.8502 12.9738L72.0415 13.4357L77.5236 11.1649L77.3322 10.703L82.8143 8.43223L83.0057 8.89417L88.4877 6.62342L88.2964 6.16148Z" fill="url(#paint0_linear_122_139)" stroke="#FAF9FB" stroke-dasharray="6 6"/>
<g clip-path="url(#clip1_122_139)">
<path d="M127.861 87.9848H122.006C121.658 87.9848 121.343 87.7876 121.205 87.4821L119.446 83.5601C117.055 84.0065 109.264 85.2004 103.303 83.1441L100.256 87.6078C100.096 87.844 99.8221 87.9848 99.5281 87.9848H94.5436C94.0686 87.9848 93.6842 87.6251 93.6729 87.1701L93.4806 79.4453C91.5719 78.039 82.3513 71.2329 80.3973 69.3608C77.9989 67.0639 78.7057 61.9198 78.7373 61.7031C78.7961 61.2893 79.1648 60.9816 79.599 60.9816H79.6013L83.0615 60.9859C83.0954 60.9859 83.1316 60.9881 83.1655 60.9924C83.1542 60.9902 85.0359 61.0292 87.4558 57.3824C88.288 56.1322 88.5798 55.0249 88.3265 54.0953C88.0302 53.0076 87.0713 52.4854 87.0622 52.481C86.714 52.3012 86.5353 51.9177 86.628 51.5515C86.6529 51.4539 87.268 49.1701 90.622 49.1701C93.6299 49.1701 97.6985 54.4594 98.4833 55.519C98.7614 55.896 98.671 56.416 98.2775 56.6826C97.8839 56.9512 97.3434 56.8624 97.063 56.4854C95.3261 54.1408 92.178 50.8386 90.622 50.8386C89.4889 50.8386 88.9009 51.2026 88.6024 51.5103C89.1045 51.9372 89.7332 52.6479 90.0136 53.675C90.3936 55.0726 90.0272 56.6219 88.9258 58.2795C86.0581 62.598 83.5319 62.6804 83.0253 62.6544L80.3883 62.6522C80.2797 64.2275 80.3725 66.9772 81.6299 68.182C83.6857 70.1495 94.7584 78.2795 94.8715 78.3619C95.0796 78.5157 95.2062 78.7519 95.213 79.0054L95.3939 86.3164H99.0555L102.231 81.6641C102.461 81.3283 102.909 81.1983 103.294 81.3499C109.793 83.9372 119.67 81.8136 119.769 81.7898C120.174 81.6966 120.597 81.9025 120.764 82.273L122.578 86.3164H126.991V78.2514C126.991 78.026 127.086 77.8093 127.255 77.6533C127.633 77.3001 136.437 68.9187 130.338 58.7389C121.981 44.7952 101.172 53.3976 100.962 53.4865C100.521 53.6728 100.008 53.4821 99.8131 53.0596C99.6186 52.637 99.8176 52.1452 100.259 51.9588C100.483 51.8657 122.723 42.6804 131.849 57.909C138 68.1755 130.295 76.9686 128.732 78.5872V87.1506C128.732 87.6121 128.343 87.9848 127.861 87.9848Z" fill="#FBF8FB"/>
<path d="M113.882 29.662C109.221 29.662 105.426 33.2979 105.426 37.7638C105.426 42.234 109.221 45.8678 113.882 45.8678C118.546 45.8678 122.341 42.234 122.341 37.7638C122.341 33.2979 118.546 29.662 113.882 29.662ZM113.882 47.5363C108.26 47.5363 103.683 43.1528 103.683 37.7638C103.683 32.377 108.26 27.9926 113.882 27.9926C119.507 27.9926 124.082 32.377 124.082 37.7638C124.082 43.1528 119.507 47.5363 113.882 47.5363Z" fill="#FBF8FB"/>
<path d="M114.64 42.0563H113.127C111.653 42.0563 110.452 40.9057 110.452 39.493C110.452 39.0314 110.841 38.6587 111.322 38.6587C111.804 38.6587 112.193 39.0314 112.193 39.493C112.193 39.9848 112.614 40.3879 113.127 40.3879H114.64C115.154 40.3879 115.572 39.9848 115.572 39.493C115.572 39.0011 115.154 38.6002 114.64 38.6002H113.127C111.653 38.6002 110.452 37.4496 110.452 36.0368C110.452 34.6219 111.653 33.4734 113.127 33.4734H114.64C116.115 33.4734 117.313 34.6219 117.313 36.0368C117.313 36.4984 116.924 36.8711 116.443 36.8711C115.961 36.8711 115.572 36.4984 115.572 36.0368C115.572 35.5428 115.154 35.1441 114.64 35.1441H113.127C112.614 35.1441 112.193 35.5428 112.193 36.0368C112.193 36.5287 112.614 36.9296 113.127 36.9296H114.64C116.115 36.9296 117.313 38.0802 117.313 39.493C117.313 40.9057 116.115 42.0563 114.64 42.0563Z" fill="#FBF8FB"/>
<path d="M113.882 35.1441C113.401 35.1441 113.012 34.7692 113.012 34.3077V32.7107C113.012 32.2492 113.401 31.8765 113.882 31.8765C114.364 31.8765 114.753 32.2492 114.753 32.7107V34.3077C114.753 34.7692 114.364 35.1441 113.882 35.1441Z" fill="#FBF8FB"/>
<path d="M113.882 43.6533C113.401 43.6533 113.012 43.2806 113.012 42.8191V41.2221C113.012 40.7606 113.401 40.3879 113.882 40.3879C114.364 40.3879 114.753 40.7606 114.753 41.2221V42.8191C114.753 43.2806 114.364 43.6533 113.882 43.6533Z" fill="#FBF8FB"/>
<path d="M121.793 56.9881C121.687 56.9881 121.579 56.9686 121.472 56.9296C114.142 54.1452 107.602 56.8862 107.539 56.9144C107.1 57.1008 106.584 56.9144 106.387 56.4962C106.191 56.0758 106.383 55.5818 106.822 55.3933C107.113 55.2654 114.075 52.325 122.115 55.3759C122.562 55.5471 122.779 56.0303 122.603 56.4594C122.467 56.7866 122.139 56.9881 121.793 56.9881Z" fill="#FBF8FB"/>
</g>
<path d="M34.0054 111.818H31.1562V110.668H34.0054C34.5571 110.668 35.0039 110.58 35.3457 110.404C35.6875 110.229 35.9365 109.984 36.0928 109.672C36.2539 109.359 36.3345 109.003 36.3345 108.603C36.3345 108.236 36.2539 107.892 36.0928 107.57C35.9365 107.248 35.6875 106.989 35.3457 106.793C35.0039 106.593 34.5571 106.493 34.0054 106.493H31.4858V116H30.0723V105.336H34.0054C34.811 105.336 35.4922 105.475 36.0488 105.753C36.6055 106.032 37.0278 106.417 37.3159 106.911C37.604 107.399 37.748 107.958 37.748 108.588C37.748 109.271 37.604 109.855 37.3159 110.338C37.0278 110.822 36.6055 111.19 36.0488 111.444C35.4922 111.693 34.811 111.818 34.0054 111.818ZM43.915 114.645V110.565C43.915 110.253 43.8516 109.982 43.7246 109.752C43.6025 109.518 43.417 109.337 43.168 109.21C42.9189 109.083 42.6113 109.02 42.2451 109.02C41.9033 109.02 41.603 109.079 41.3442 109.196C41.0903 109.313 40.8901 109.467 40.7437 109.657C40.6021 109.848 40.5312 110.053 40.5312 110.272H39.1763C39.1763 109.989 39.2495 109.708 39.396 109.43C39.5425 109.152 39.7524 108.9 40.0259 108.676C40.3042 108.446 40.6362 108.266 41.022 108.134C41.4126 107.997 41.8472 107.929 42.3257 107.929C42.9019 107.929 43.4097 108.026 43.8491 108.222C44.2935 108.417 44.6401 108.712 44.8892 109.108C45.1431 109.499 45.27 109.989 45.27 110.58V114.271C45.27 114.535 45.292 114.816 45.3359 115.114C45.3848 115.412 45.4556 115.668 45.5483 115.883V116H44.1348C44.0664 115.844 44.0127 115.636 43.9736 115.377C43.9346 115.114 43.915 114.87 43.915 114.645ZM44.1494 111.195L44.1641 112.147H42.7944C42.4087 112.147 42.0645 112.179 41.7617 112.243C41.459 112.301 41.2051 112.392 41 112.514C40.7949 112.636 40.6387 112.79 40.5312 112.975C40.4238 113.156 40.3701 113.368 40.3701 113.612C40.3701 113.861 40.4263 114.088 40.5386 114.293C40.6509 114.499 40.8193 114.662 41.0439 114.784C41.2734 114.901 41.5542 114.96 41.8862 114.96C42.3013 114.96 42.6675 114.872 42.9849 114.696C43.3022 114.521 43.5537 114.306 43.7393 114.052C43.9297 113.798 44.0322 113.551 44.0469 113.312L44.6255 113.964C44.5913 114.169 44.4985 114.396 44.3472 114.645C44.1958 114.894 43.9932 115.133 43.7393 115.363C43.4902 115.587 43.1924 115.775 42.8457 115.927C42.5039 116.073 42.1182 116.146 41.6885 116.146C41.1514 116.146 40.6802 116.042 40.2749 115.832C39.8745 115.622 39.562 115.341 39.3374 114.989C39.1177 114.633 39.0078 114.235 39.0078 113.795C39.0078 113.371 39.0908 112.997 39.2568 112.675C39.4229 112.348 39.6621 112.077 39.9746 111.862C40.2871 111.642 40.6631 111.476 41.1025 111.364C41.542 111.251 42.0327 111.195 42.5747 111.195H44.1494ZM48.7563 109.32V116H47.4014V108.075H48.7197L48.7563 109.32ZM51.2319 108.031L51.2246 109.291C51.1123 109.267 51.0049 109.252 50.9023 109.247C50.8047 109.237 50.6924 109.232 50.5654 109.232C50.2529 109.232 49.9771 109.281 49.7378 109.379C49.4985 109.477 49.2959 109.613 49.1299 109.789C48.9639 109.965 48.832 110.175 48.7344 110.419C48.6416 110.658 48.5806 110.922 48.5513 111.21L48.1704 111.43C48.1704 110.951 48.2168 110.502 48.3096 110.082C48.4072 109.662 48.5562 109.291 48.7563 108.969C48.9565 108.642 49.2104 108.388 49.5181 108.207C49.8306 108.021 50.2017 107.929 50.6313 107.929C50.729 107.929 50.8413 107.941 50.9683 107.965C51.0952 107.985 51.1831 108.007 51.2319 108.031ZM56.8643 114.645V110.565C56.8643 110.253 56.8008 109.982 56.6738 109.752C56.5518 109.518 56.3662 109.337 56.1172 109.21C55.8682 109.083 55.5605 109.02 55.1943 109.02C54.8525 109.02 54.5522 109.079 54.2935 109.196C54.0396 109.313 53.8394 109.467 53.6929 109.657C53.5513 109.848 53.4805 110.053 53.4805 110.272H52.1255C52.1255 109.989 52.1987 109.708 52.3452 109.43C52.4917 109.152 52.7017 108.9 52.9751 108.676C53.2534 108.446 53.5854 108.266 53.9712 108.134C54.3618 107.997 54.7964 107.929 55.2749 107.929C55.8511 107.929 56.3589 108.026 56.7983 108.222C57.2427 108.417 57.5894 108.712 57.8384 109.108C58.0923 109.499 58.2192 109.989 58.2192 110.58V114.271C58.2192 114.535 58.2412 114.816 58.2852 115.114C58.334 115.412 58.4048 115.668 58.4976 115.883V116H57.084C57.0156 115.844 56.9619 115.636 56.9229 115.377C56.8838 115.114 56.8643 114.87 56.8643 114.645ZM57.0986 111.195L57.1133 112.147H55.7437C55.3579 112.147 55.0137 112.179 54.7109 112.243C54.4082 112.301 54.1543 112.392 53.9492 112.514C53.7441 112.636 53.5879 112.79 53.4805 112.975C53.373 113.156 53.3193 113.368 53.3193 113.612C53.3193 113.861 53.3755 114.088 53.4878 114.293C53.6001 114.499 53.7686 114.662 53.9932 114.784C54.2227 114.901 54.5034 114.96 54.8354 114.96C55.2505 114.96 55.6167 114.872 55.9341 114.696C56.2515 114.521 56.5029 114.306 56.6885 114.052C56.8789 113.798 56.9814 113.551 56.9961 113.312L57.5747 113.964C57.5405 114.169 57.4478 114.396 57.2964 114.645C57.145 114.894 56.9424 115.133 56.6885 115.363C56.4395 115.587 56.1416 115.775 55.7949 115.927C55.4531 116.073 55.0674 116.146 54.6377 116.146C54.1006 116.146 53.6294 116.042 53.2241 115.832C52.8237 115.622 52.5112 115.341 52.2866 114.989C52.0669 114.633 51.957 114.235 51.957 113.795C51.957 113.371 52.04 112.997 52.2061 112.675C52.3721 112.348 52.6113 112.077 52.9238 111.862C53.2363 111.642 53.6123 111.476 54.0518 111.364C54.4912 111.251 54.9819 111.195 55.5239 111.195H57.0986ZM69.0591 119.047V109.599L69.1763 108.075H70.4214V119.047H69.0591ZM63.7344 112.125V111.972C63.7344 111.366 63.8052 110.817 63.9468 110.324C64.0884 109.826 64.2959 109.398 64.5693 109.042C64.8428 108.686 65.1724 108.412 65.5581 108.222C65.9487 108.026 66.3931 107.929 66.8911 107.929C67.3892 107.929 67.8262 108.017 68.2021 108.192C68.583 108.363 68.9053 108.615 69.1689 108.947C69.4375 109.274 69.6499 109.669 69.8062 110.133C69.9624 110.597 70.0698 111.122 70.1284 111.708V112.382C70.0747 112.963 69.9697 113.485 69.8135 113.949C69.6572 114.413 69.4448 114.809 69.1763 115.136C68.9126 115.463 68.5879 115.714 68.2021 115.89C67.8213 116.061 67.3794 116.146 66.8765 116.146C66.3882 116.146 65.9487 116.046 65.5581 115.846C65.1724 115.646 64.8428 115.365 64.5693 115.004C64.3008 114.643 64.0933 114.218 63.9468 113.729C63.8052 113.236 63.7344 112.702 63.7344 112.125ZM65.0967 111.972V112.125C65.0967 112.521 65.1382 112.895 65.2212 113.246C65.3042 113.593 65.4312 113.9 65.6021 114.169C65.7778 114.438 65.9976 114.65 66.2612 114.806C66.5298 114.958 66.8472 115.033 67.2134 115.033C67.6626 115.033 68.0361 114.936 68.334 114.74C68.6367 114.545 68.8784 114.289 69.0591 113.971C69.2397 113.649 69.3789 113.305 69.4766 112.938V111.173C69.4229 110.905 69.3374 110.644 69.2202 110.39C69.1079 110.136 68.9614 109.909 68.7808 109.708C68.6001 109.503 68.3804 109.342 68.1216 109.225C67.8677 109.103 67.5698 109.042 67.228 109.042C66.8569 109.042 66.5371 109.12 66.2686 109.276C66 109.433 65.7778 109.647 65.6021 109.921C65.4312 110.189 65.3042 110.5 65.2212 110.851C65.1382 111.203 65.0967 111.576 65.0967 111.972ZM77.4453 114.169V108.075H78.8076V116H77.5112L77.4453 114.169ZM77.7017 112.499L78.2656 112.484C78.2656 113.012 78.2095 113.5 78.0972 113.949C77.9897 114.394 77.814 114.779 77.5698 115.106C77.3257 115.434 77.0059 115.69 76.6104 115.875C76.2148 116.056 75.7339 116.146 75.1675 116.146C74.7817 116.146 74.4277 116.09 74.1055 115.978C73.7881 115.866 73.5146 115.692 73.2852 115.458C73.0557 115.224 72.8774 114.918 72.7505 114.542C72.6284 114.167 72.5674 113.715 72.5674 113.188V108.075H73.9224V113.202C73.9224 113.559 73.9614 113.854 74.0396 114.088C74.1226 114.318 74.2324 114.501 74.3691 114.638C74.5107 114.77 74.667 114.862 74.8379 114.916C75.0137 114.97 75.1943 114.997 75.3799 114.997C75.9561 114.997 76.4126 114.887 76.7495 114.667C77.0864 114.442 77.3281 114.142 77.4746 113.766C77.626 113.385 77.7017 112.963 77.7017 112.499ZM84.1616 116.146C83.6099 116.146 83.1094 116.054 82.6602 115.868C82.2158 115.678 81.8325 115.412 81.5103 115.07C81.1929 114.728 80.9487 114.323 80.7778 113.854C80.6069 113.385 80.5215 112.873 80.5215 112.316V112.008C80.5215 111.364 80.6167 110.79 80.8071 110.287C80.9976 109.779 81.2563 109.35 81.5835 108.998C81.9106 108.646 82.2817 108.38 82.6968 108.2C83.1118 108.019 83.5415 107.929 83.9858 107.929C84.5522 107.929 85.0405 108.026 85.4507 108.222C85.8657 108.417 86.2051 108.69 86.4688 109.042C86.7324 109.389 86.9277 109.799 87.0547 110.272C87.1816 110.741 87.2451 111.254 87.2451 111.811V112.418H81.3271V111.312H85.8901V111.21C85.8706 110.858 85.7974 110.517 85.6704 110.185C85.5483 109.853 85.353 109.579 85.0845 109.364C84.8159 109.149 84.4497 109.042 83.9858 109.042C83.6782 109.042 83.395 109.108 83.1362 109.24C82.8774 109.367 82.6553 109.557 82.4697 109.811C82.2842 110.065 82.1401 110.375 82.0376 110.741C81.9351 111.107 81.8838 111.53 81.8838 112.008V112.316C81.8838 112.692 81.9351 113.046 82.0376 113.378C82.145 113.705 82.2988 113.993 82.499 114.242C82.7041 114.491 82.9507 114.687 83.2388 114.828C83.5317 114.97 83.8638 115.041 84.2349 115.041C84.7134 115.041 85.1187 114.943 85.4507 114.748C85.7827 114.552 86.0732 114.291 86.3223 113.964L87.1426 114.616C86.9717 114.875 86.7544 115.121 86.4907 115.355C86.2271 115.59 85.9023 115.78 85.5166 115.927C85.1357 116.073 84.6841 116.146 84.1616 116.146ZM90.1748 109.65V116H88.8125V108.075H90.1016L90.1748 109.65ZM89.8965 111.737L89.2666 111.715C89.2715 111.173 89.3423 110.673 89.479 110.214C89.6157 109.75 89.8184 109.347 90.0869 109.005C90.3555 108.664 90.6899 108.4 91.0903 108.214C91.4907 108.024 91.9546 107.929 92.4819 107.929C92.853 107.929 93.1948 107.982 93.5073 108.09C93.8198 108.192 94.0908 108.356 94.3203 108.581C94.5498 108.805 94.728 109.093 94.855 109.445C94.9819 109.796 95.0454 110.221 95.0454 110.719V116H93.6904V110.785C93.6904 110.37 93.6196 110.038 93.478 109.789C93.3413 109.54 93.146 109.359 92.8921 109.247C92.6382 109.13 92.3403 109.071 91.9985 109.071C91.5981 109.071 91.2637 109.142 90.9951 109.284C90.7266 109.425 90.5117 109.621 90.3506 109.87C90.1895 110.119 90.0723 110.404 89.999 110.727C89.9307 111.044 89.8965 111.381 89.8965 111.737ZM95.0308 110.99L94.1226 111.269C94.1274 110.834 94.1982 110.417 94.335 110.016C94.4766 109.616 94.6792 109.259 94.9429 108.947C95.2114 108.634 95.541 108.388 95.9316 108.207C96.3223 108.021 96.769 107.929 97.272 107.929C97.6968 107.929 98.0728 107.985 98.3999 108.097C98.7319 108.209 99.0103 108.383 99.2349 108.617C99.4644 108.847 99.6377 109.142 99.7549 109.503C99.8721 109.865 99.9307 110.294 99.9307 110.792V116H98.5684V110.778C98.5684 110.333 98.4976 109.989 98.356 109.745C98.2192 109.496 98.0239 109.323 97.77 109.225C97.521 109.123 97.2231 109.071 96.8765 109.071C96.5786 109.071 96.3149 109.123 96.0854 109.225C95.856 109.328 95.6631 109.469 95.5068 109.65C95.3506 109.826 95.231 110.028 95.1479 110.258C95.0698 110.487 95.0308 110.731 95.0308 110.99ZM109.02 108.075V109.115H104.735V108.075H109.02ZM106.186 106.149H107.541V114.037C107.541 114.306 107.582 114.508 107.665 114.645C107.748 114.782 107.855 114.872 107.987 114.916C108.119 114.96 108.261 114.982 108.412 114.982C108.524 114.982 108.642 114.972 108.764 114.953C108.891 114.928 108.986 114.909 109.049 114.894L109.057 116C108.949 116.034 108.808 116.066 108.632 116.095C108.461 116.129 108.253 116.146 108.009 116.146C107.677 116.146 107.372 116.081 107.094 115.949C106.815 115.817 106.593 115.597 106.427 115.29C106.266 114.977 106.186 114.557 106.186 114.03V106.149ZM113.898 116.146C113.346 116.146 112.846 116.054 112.396 115.868C111.952 115.678 111.569 115.412 111.247 115.07C110.929 114.728 110.685 114.323 110.514 113.854C110.343 113.385 110.258 112.873 110.258 112.316V112.008C110.258 111.364 110.353 110.79 110.543 110.287C110.734 109.779 110.993 109.35 111.32 108.998C111.647 108.646 112.018 108.38 112.433 108.2C112.848 108.019 113.278 107.929 113.722 107.929C114.289 107.929 114.777 108.026 115.187 108.222C115.602 108.417 115.941 108.69 116.205 109.042C116.469 109.389 116.664 109.799 116.791 110.272C116.918 110.741 116.981 111.254 116.981 111.811V112.418H111.063V111.312H115.626V111.21C115.607 110.858 115.534 110.517 115.407 110.185C115.285 109.853 115.089 109.579 114.821 109.364C114.552 109.149 114.186 109.042 113.722 109.042C113.415 109.042 113.131 109.108 112.873 109.24C112.614 109.367 112.392 109.557 112.206 109.811C112.021 110.065 111.876 110.375 111.774 110.741C111.671 111.107 111.62 111.53 111.62 112.008V112.316C111.62 112.692 111.671 113.046 111.774 113.378C111.881 113.705 112.035 113.993 112.235 114.242C112.44 114.491 112.687 114.687 112.975 114.828C113.268 114.97 113.6 115.041 113.971 115.041C114.45 115.041 114.855 114.943 115.187 114.748C115.519 114.552 115.81 114.291 116.059 113.964L116.879 114.616C116.708 114.875 116.491 115.121 116.227 115.355C115.963 115.59 115.639 115.78 115.253 115.927C114.872 116.073 114.42 116.146 113.898 116.146ZM119.911 109.65V116H118.549V108.075H119.838L119.911 109.65ZM119.633 111.737L119.003 111.715C119.008 111.173 119.079 110.673 119.215 110.214C119.352 109.75 119.555 109.347 119.823 109.005C120.092 108.664 120.426 108.4 120.827 108.214C121.227 108.024 121.691 107.929 122.218 107.929C122.589 107.929 122.931 107.982 123.244 108.09C123.556 108.192 123.827 108.356 124.057 108.581C124.286 108.805 124.464 109.093 124.591 109.445C124.718 109.796 124.782 110.221 124.782 110.719V116H123.427V110.785C123.427 110.37 123.356 110.038 123.214 109.789C123.078 109.54 122.882 109.359 122.628 109.247C122.375 109.13 122.077 109.071 121.735 109.071C121.334 109.071 121 109.142 120.731 109.284C120.463 109.425 120.248 109.621 120.087 109.87C119.926 110.119 119.809 110.404 119.735 110.727C119.667 111.044 119.633 111.381 119.633 111.737ZM124.767 110.99L123.859 111.269C123.864 110.834 123.935 110.417 124.071 110.016C124.213 109.616 124.416 109.259 124.679 108.947C124.948 108.634 125.277 108.388 125.668 108.207C126.059 108.021 126.505 107.929 127.008 107.929C127.433 107.929 127.809 107.985 128.136 108.097C128.468 108.209 128.747 108.383 128.971 108.617C129.201 108.847 129.374 109.142 129.491 109.503C129.608 109.865 129.667 110.294 129.667 110.792V116H128.305V110.778C128.305 110.333 128.234 109.989 128.092 109.745C127.956 109.496 127.76 109.323 127.506 109.225C127.257 109.123 126.959 109.071 126.613 109.071C126.315 109.071 126.051 109.123 125.822 109.225C125.592 109.328 125.399 109.469 125.243 109.65C125.087 109.826 124.967 110.028 124.884 110.258C124.806 110.487 124.767 110.731 124.767 110.99ZM140.434 114.462V104.75H141.796V116H140.551L140.434 114.462ZM135.102 112.125V111.972C135.102 111.366 135.175 110.817 135.321 110.324C135.473 109.826 135.685 109.398 135.958 109.042C136.237 108.686 136.566 108.412 136.947 108.222C137.333 108.026 137.763 107.929 138.236 107.929C138.734 107.929 139.169 108.017 139.54 108.192C139.916 108.363 140.233 108.615 140.492 108.947C140.756 109.274 140.963 109.669 141.115 110.133C141.266 110.597 141.371 111.122 141.43 111.708V112.382C141.376 112.963 141.271 113.485 141.115 113.949C140.963 114.413 140.756 114.809 140.492 115.136C140.233 115.463 139.916 115.714 139.54 115.89C139.164 116.061 138.725 116.146 138.222 116.146C137.758 116.146 137.333 116.046 136.947 115.846C136.566 115.646 136.237 115.365 135.958 115.004C135.685 114.643 135.473 114.218 135.321 113.729C135.175 113.236 135.102 112.702 135.102 112.125ZM136.464 111.972V112.125C136.464 112.521 136.503 112.892 136.581 113.239C136.664 113.585 136.791 113.891 136.962 114.154C137.133 114.418 137.35 114.625 137.614 114.777C137.877 114.923 138.192 114.997 138.559 114.997C139.008 114.997 139.376 114.901 139.665 114.711C139.958 114.521 140.192 114.269 140.368 113.957C140.543 113.644 140.68 113.305 140.778 112.938V111.173C140.719 110.905 140.634 110.646 140.521 110.397C140.414 110.143 140.272 109.918 140.097 109.723C139.926 109.523 139.713 109.364 139.459 109.247C139.21 109.13 138.915 109.071 138.573 109.071C138.202 109.071 137.882 109.149 137.614 109.306C137.35 109.457 137.133 109.667 136.962 109.936C136.791 110.199 136.664 110.507 136.581 110.858C136.503 111.205 136.464 111.576 136.464 111.972ZM145.377 108.075V116H144.015V108.075H145.377ZM143.913 105.973C143.913 105.753 143.979 105.568 144.11 105.417C144.247 105.265 144.447 105.189 144.711 105.189C144.97 105.189 145.167 105.265 145.304 105.417C145.446 105.568 145.517 105.753 145.517 105.973C145.517 106.183 145.446 106.364 145.304 106.515C145.167 106.662 144.97 106.735 144.711 106.735C144.447 106.735 144.247 106.662 144.11 106.515C143.979 106.364 143.913 106.183 143.913 105.973ZM148.908 109.767V116H147.553V108.075H148.834L148.908 109.767ZM148.585 111.737L148.021 111.715C148.026 111.173 148.107 110.673 148.263 110.214C148.419 109.75 148.639 109.347 148.922 109.005C149.206 108.664 149.542 108.4 149.933 108.214C150.329 108.024 150.766 107.929 151.244 107.929C151.635 107.929 151.986 107.982 152.299 108.09C152.611 108.192 152.877 108.358 153.097 108.588C153.322 108.817 153.493 109.115 153.61 109.481C153.727 109.843 153.786 110.285 153.786 110.807V116H152.423V110.792C152.423 110.377 152.362 110.045 152.24 109.796C152.118 109.542 151.94 109.359 151.706 109.247C151.471 109.13 151.183 109.071 150.841 109.071C150.504 109.071 150.197 109.142 149.918 109.284C149.645 109.425 149.408 109.621 149.208 109.87C149.013 110.119 148.859 110.404 148.747 110.727C148.639 111.044 148.585 111.381 148.585 111.737ZM157.199 104.75V116H155.844V104.75H157.199ZM156.876 111.737L156.312 111.715C156.317 111.173 156.398 110.673 156.554 110.214C156.71 109.75 156.93 109.347 157.213 109.005C157.497 108.664 157.833 108.4 158.224 108.214C158.62 108.024 159.057 107.929 159.535 107.929C159.926 107.929 160.277 107.982 160.59 108.09C160.902 108.192 161.168 108.358 161.388 108.588C161.613 108.817 161.784 109.115 161.901 109.481C162.018 109.843 162.077 110.285 162.077 110.807V116H160.714V110.792C160.714 110.377 160.653 110.045 160.531 109.796C160.409 109.542 160.231 109.359 159.997 109.247C159.762 109.13 159.474 109.071 159.132 109.071C158.795 109.071 158.488 109.142 158.209 109.284C157.936 109.425 157.699 109.621 157.499 109.87C157.304 110.119 157.15 110.404 157.038 110.727C156.93 111.044 156.876 111.381 156.876 111.737ZM167.394 116.146C166.842 116.146 166.342 116.054 165.893 115.868C165.448 115.678 165.065 115.412 164.743 115.07C164.425 114.728 164.181 114.323 164.01 113.854C163.839 113.385 163.754 112.873 163.754 112.316V112.008C163.754 111.364 163.849 110.79 164.04 110.287C164.23 109.779 164.489 109.35 164.816 108.998C165.143 108.646 165.514 108.38 165.929 108.2C166.344 108.019 166.774 107.929 167.218 107.929C167.785 107.929 168.273 108.026 168.683 108.222C169.098 108.417 169.438 108.69 169.701 109.042C169.965 109.389 170.16 109.799 170.287 110.272C170.414 110.741 170.478 111.254 170.478 111.811V112.418H164.56V111.312H169.123V111.21C169.103 110.858 169.03 110.517 168.903 110.185C168.781 109.853 168.585 109.579 168.317 109.364C168.048 109.149 167.682 109.042 167.218 109.042C166.911 109.042 166.627 109.108 166.369 109.24C166.11 109.367 165.888 109.557 165.702 109.811C165.517 110.065 165.373 110.375 165.27 110.741C165.167 111.107 165.116 111.53 165.116 112.008V112.316C165.116 112.692 165.167 113.046 165.27 113.378C165.377 113.705 165.531 113.993 165.731 114.242C165.937 114.491 166.183 114.687 166.471 114.828C166.764 114.97 167.096 115.041 167.467 115.041C167.946 115.041 168.351 114.943 168.683 114.748C169.015 114.552 169.306 114.291 169.555 113.964L170.375 114.616C170.204 114.875 169.987 115.121 169.723 115.355C169.459 115.59 169.135 115.78 168.749 115.927C168.368 116.073 167.917 116.146 167.394 116.146ZM173.532 108.075V116H172.169V108.075H173.532ZM172.067 105.973C172.067 105.753 172.133 105.568 172.265 105.417C172.401 105.265 172.602 105.189 172.865 105.189C173.124 105.189 173.322 105.265 173.458 105.417C173.6 105.568 173.671 105.753 173.671 105.973C173.671 106.183 173.6 106.364 173.458 106.515C173.322 106.662 173.124 106.735 172.865 106.735C172.602 106.735 172.401 106.662 172.265 106.515C172.133 106.364 172.067 106.183 172.067 105.973ZM177.062 109.32V116H175.707V108.075H177.025L177.062 109.32ZM179.538 108.031L179.53 109.291C179.418 109.267 179.311 109.252 179.208 109.247C179.11 109.237 178.998 109.232 178.871 109.232C178.559 109.232 178.283 109.281 178.043 109.379C177.804 109.477 177.602 109.613 177.436 109.789C177.27 109.965 177.138 110.175 177.04 110.419C176.947 110.658 176.886 110.922 176.857 111.21L176.476 111.43C176.476 110.951 176.522 110.502 176.615 110.082C176.713 109.662 176.862 109.291 177.062 108.969C177.262 108.642 177.516 108.388 177.824 108.207C178.136 108.021 178.507 107.929 178.937 107.929C179.035 107.929 179.147 107.941 179.274 107.965C179.401 107.985 179.489 108.007 179.538 108.031ZM180.285 112.125V111.957C180.285 111.386 180.368 110.856 180.534 110.368C180.7 109.875 180.939 109.447 181.251 109.086C181.564 108.72 181.942 108.437 182.387 108.236C182.831 108.031 183.329 107.929 183.881 107.929C184.438 107.929 184.938 108.031 185.382 108.236C185.832 108.437 186.212 108.72 186.525 109.086C186.842 109.447 187.084 109.875 187.25 110.368C187.416 110.856 187.499 111.386 187.499 111.957V112.125C187.499 112.697 187.416 113.227 187.25 113.715C187.084 114.203 186.842 114.63 186.525 114.997C186.212 115.358 185.834 115.641 185.39 115.846C184.95 116.046 184.452 116.146 183.896 116.146C183.339 116.146 182.838 116.046 182.394 115.846C181.95 115.641 181.569 115.358 181.251 114.997C180.939 114.63 180.7 114.203 180.534 113.715C180.368 113.227 180.285 112.697 180.285 112.125ZM181.64 111.957V112.125C181.64 112.521 181.686 112.895 181.779 113.246C181.872 113.593 182.011 113.9 182.196 114.169C182.387 114.438 182.624 114.65 182.907 114.806C183.19 114.958 183.52 115.033 183.896 115.033C184.267 115.033 184.591 114.958 184.87 114.806C185.153 114.65 185.387 114.438 185.573 114.169C185.758 113.9 185.897 113.593 185.99 113.246C186.088 112.895 186.137 112.521 186.137 112.125V111.957C186.137 111.566 186.088 111.198 185.99 110.851C185.897 110.5 185.756 110.189 185.565 109.921C185.38 109.647 185.146 109.433 184.862 109.276C184.584 109.12 184.257 109.042 183.881 109.042C183.51 109.042 183.183 109.12 182.899 109.276C182.621 109.433 182.387 109.647 182.196 109.921C182.011 110.189 181.872 110.5 181.779 110.851C181.686 111.198 181.64 111.566 181.64 111.957ZM35.126 132.767V139H33.771V131.075H35.0527L35.126 132.767ZM34.8037 134.737L34.2397 134.715C34.2446 134.173 34.3252 133.673 34.4814 133.214C34.6377 132.75 34.8574 132.347 35.1406 132.005C35.4238 131.664 35.7607 131.4 36.1514 131.214C36.5469 131.024 36.9839 130.929 37.4624 130.929C37.853 130.929 38.2046 130.982 38.5171 131.09C38.8296 131.192 39.0957 131.358 39.3154 131.588C39.54 131.817 39.7109 132.115 39.8281 132.481C39.9453 132.843 40.0039 133.285 40.0039 133.807V139H38.6416V133.792C38.6416 133.377 38.5806 133.045 38.4585 132.796C38.3364 132.542 38.1582 132.359 37.9238 132.247C37.6895 132.13 37.4014 132.071 37.0596 132.071C36.7227 132.071 36.415 132.142 36.1367 132.284C35.8633 132.425 35.6265 132.621 35.4263 132.87C35.231 133.119 35.0771 133.404 34.9648 133.727C34.8574 134.044 34.8037 134.381 34.8037 134.737ZM46.7349 137.645V133.565C46.7349 133.253 46.6714 132.982 46.5444 132.752C46.4224 132.518 46.2368 132.337 45.9878 132.21C45.7388 132.083 45.4312 132.02 45.0649 132.02C44.7231 132.02 44.4229 132.079 44.1641 132.196C43.9102 132.313 43.71 132.467 43.5635 132.657C43.4219 132.848 43.3511 133.053 43.3511 133.272H41.9961C41.9961 132.989 42.0693 132.708 42.2158 132.43C42.3623 132.152 42.5723 131.9 42.8457 131.676C43.124 131.446 43.4561 131.266 43.8418 131.134C44.2324 130.997 44.667 130.929 45.1455 130.929C45.7217 130.929 46.2295 131.026 46.6689 131.222C47.1133 131.417 47.46 131.712 47.709 132.108C47.9629 132.499 48.0898 132.989 48.0898 133.58V137.271C48.0898 137.535 48.1118 137.816 48.1558 138.114C48.2046 138.412 48.2754 138.668 48.3682 138.883V139H46.9546C46.8862 138.844 46.8325 138.636 46.7935 138.377C46.7544 138.114 46.7349 137.87 46.7349 137.645ZM46.9692 134.195L46.9839 135.147H45.6143C45.2285 135.147 44.8843 135.179 44.5815 135.243C44.2788 135.301 44.0249 135.392 43.8198 135.514C43.6147 135.636 43.4585 135.79 43.3511 135.975C43.2437 136.156 43.1899 136.368 43.1899 136.612C43.1899 136.861 43.2461 137.088 43.3584 137.293C43.4707 137.499 43.6392 137.662 43.8638 137.784C44.0933 137.901 44.374 137.96 44.7061 137.96C45.1211 137.96 45.4873 137.872 45.8047 137.696C46.1221 137.521 46.3735 137.306 46.5591 137.052C46.7495 136.798 46.8521 136.551 46.8667 136.312L47.4453 136.964C47.4111 137.169 47.3184 137.396 47.167 137.645C47.0156 137.894 46.813 138.133 46.5591 138.363C46.3101 138.587 46.0122 138.775 45.6655 138.927C45.3237 139.073 44.938 139.146 44.5083 139.146C43.9712 139.146 43.5 139.042 43.0947 138.832C42.6943 138.622 42.3818 138.341 42.1572 137.989C41.9375 137.633 41.8276 137.235 41.8276 136.795C41.8276 136.371 41.9106 135.997 42.0767 135.675C42.2427 135.348 42.4819 135.077 42.7944 134.862C43.1069 134.642 43.4829 134.476 43.9224 134.364C44.3618 134.251 44.8525 134.195 45.3945 134.195H46.9692ZM58.0801 134.818H55.231V133.668H58.0801C58.6318 133.668 59.0786 133.58 59.4204 133.404C59.7622 133.229 60.0112 132.984 60.1675 132.672C60.3286 132.359 60.4092 132.003 60.4092 131.603C60.4092 131.236 60.3286 130.892 60.1675 130.57C60.0112 130.248 59.7622 129.989 59.4204 129.793C59.0786 129.593 58.6318 129.493 58.0801 129.493H55.5605V139H54.147V128.336H58.0801C58.8857 128.336 59.5669 128.475 60.1235 128.753C60.6802 129.032 61.1025 129.417 61.3906 129.911C61.6787 130.399 61.8228 130.958 61.8228 131.588C61.8228 132.271 61.6787 132.855 61.3906 133.338C61.1025 133.822 60.6802 134.19 60.1235 134.444C59.5669 134.693 58.8857 134.818 58.0801 134.818ZM62.9434 135.125V134.957C62.9434 134.386 63.0264 133.856 63.1924 133.368C63.3584 132.875 63.5977 132.447 63.9102 132.086C64.2227 131.72 64.6011 131.437 65.0454 131.236C65.4897 131.031 65.9878 130.929 66.5396 130.929C67.0962 130.929 67.5967 131.031 68.041 131.236C68.4902 131.437 68.8711 131.72 69.1836 132.086C69.501 132.447 69.7427 132.875 69.9087 133.368C70.0747 133.856 70.1577 134.386 70.1577 134.957V135.125C70.1577 135.697 70.0747 136.227 69.9087 136.715C69.7427 137.203 69.501 137.63 69.1836 137.997C68.8711 138.358 68.4927 138.641 68.0483 138.846C67.6089 139.046 67.1108 139.146 66.5542 139.146C65.9976 139.146 65.4971 139.046 65.0527 138.846C64.6084 138.641 64.2275 138.358 63.9102 137.997C63.5977 137.63 63.3584 137.203 63.1924 136.715C63.0264 136.227 62.9434 135.697 62.9434 135.125ZM64.2983 134.957V135.125C64.2983 135.521 64.3447 135.895 64.4375 136.246C64.5303 136.593 64.6694 136.9 64.855 137.169C65.0454 137.438 65.2822 137.65 65.5654 137.806C65.8486 137.958 66.1782 138.033 66.5542 138.033C66.9253 138.033 67.25 137.958 67.5283 137.806C67.8115 137.65 68.0459 137.438 68.2314 137.169C68.417 136.9 68.5562 136.593 68.6489 136.246C68.7466 135.895 68.7954 135.521 68.7954 135.125V134.957C68.7954 134.566 68.7466 134.198 68.6489 133.851C68.5562 133.5 68.4146 133.189 68.2241 132.921C68.0386 132.647 67.8042 132.433 67.521 132.276C67.2427 132.12 66.9155 132.042 66.5396 132.042C66.1685 132.042 65.8413 132.12 65.5581 132.276C65.2798 132.433 65.0454 132.647 64.855 132.921C64.6694 133.189 64.5303 133.5 64.4375 133.851C64.3447 134.198 64.2983 134.566 64.2983 134.957ZM76.7056 137.169V131.075H78.0679V139H76.7715L76.7056 137.169ZM76.9619 135.499L77.5259 135.484C77.5259 136.012 77.4697 136.5 77.3574 136.949C77.25 137.394 77.0742 137.779 76.8301 138.106C76.5859 138.434 76.2661 138.69 75.8706 138.875C75.4751 139.056 74.9941 139.146 74.4277 139.146C74.042 139.146 73.688 139.09 73.3657 138.978C73.0483 138.866 72.7749 138.692 72.5454 138.458C72.3159 138.224 72.1377 137.918 72.0107 137.542C71.8887 137.167 71.8276 136.715 71.8276 136.188V131.075H73.1826V136.202C73.1826 136.559 73.2217 136.854 73.2998 137.088C73.3828 137.318 73.4927 137.501 73.6294 137.638C73.771 137.77 73.9272 137.862 74.0981 137.916C74.2739 137.97 74.4546 137.997 74.6401 137.997C75.2163 137.997 75.6729 137.887 76.0098 137.667C76.3467 137.442 76.5884 137.142 76.7349 136.766C76.8862 136.385 76.9619 135.963 76.9619 135.499ZM81.4883 132.599V142.047H80.126V131.075H81.3711L81.4883 132.599ZM86.8276 134.972V135.125C86.8276 135.702 86.7593 136.236 86.6226 136.729C86.4858 137.218 86.2856 137.643 86.022 138.004C85.7632 138.365 85.4434 138.646 85.0625 138.846C84.6816 139.046 84.2446 139.146 83.7515 139.146C83.2485 139.146 82.8042 139.063 82.4185 138.897C82.0327 138.731 81.7056 138.49 81.437 138.172C81.1685 137.855 80.9536 137.474 80.7925 137.03C80.6362 136.585 80.5288 136.085 80.4702 135.528V134.708C80.5288 134.122 80.6387 133.597 80.7998 133.133C80.9609 132.669 81.1733 132.274 81.437 131.947C81.7056 131.615 82.0303 131.363 82.4111 131.192C82.792 131.017 83.2314 130.929 83.7295 130.929C84.2275 130.929 84.6694 131.026 85.0552 131.222C85.4409 131.412 85.7656 131.686 86.0293 132.042C86.293 132.398 86.4907 132.826 86.6226 133.324C86.7593 133.817 86.8276 134.366 86.8276 134.972ZM85.4653 135.125V134.972C85.4653 134.576 85.4238 134.205 85.3408 133.858C85.2578 133.507 85.1284 133.199 84.9526 132.936C84.7817 132.667 84.562 132.457 84.2935 132.306C84.0249 132.149 83.7051 132.071 83.334 132.071C82.9922 132.071 82.6943 132.13 82.4404 132.247C82.1914 132.364 81.979 132.523 81.8032 132.723C81.6274 132.918 81.4834 133.143 81.3711 133.397C81.2637 133.646 81.1831 133.905 81.1294 134.173V136.07C81.2271 136.412 81.3638 136.734 81.5396 137.037C81.7153 137.335 81.9497 137.577 82.2427 137.762C82.5356 137.943 82.9043 138.033 83.3486 138.033C83.7148 138.033 84.0298 137.958 84.2935 137.806C84.562 137.65 84.7817 137.438 84.9526 137.169C85.1284 136.9 85.2578 136.593 85.3408 136.246C85.4238 135.895 85.4653 135.521 85.4653 135.125ZM93.229 137.645V133.565C93.229 133.253 93.1655 132.982 93.0386 132.752C92.9165 132.518 92.731 132.337 92.4819 132.21C92.2329 132.083 91.9253 132.02 91.5591 132.02C91.2173 132.02 90.917 132.079 90.6582 132.196C90.4043 132.313 90.2041 132.467 90.0576 132.657C89.916 132.848 89.8452 133.053 89.8452 133.272H88.4902C88.4902 132.989 88.5635 132.708 88.71 132.43C88.8564 132.152 89.0664 131.9 89.3398 131.676C89.6182 131.446 89.9502 131.266 90.3359 131.134C90.7266 130.997 91.1611 130.929 91.6396 130.929C92.2158 130.929 92.7236 131.026 93.1631 131.222C93.6074 131.417 93.9541 131.712 94.2031 132.108C94.457 132.499 94.584 132.989 94.584 133.58V137.271C94.584 137.535 94.606 137.816 94.6499 138.114C94.6987 138.412 94.7695 138.668 94.8623 138.883V139H93.4487C93.3804 138.844 93.3267 138.636 93.2876 138.377C93.2485 138.114 93.229 137.87 93.229 137.645ZM93.4634 134.195L93.478 135.147H92.1084C91.7227 135.147 91.3784 135.179 91.0757 135.243C90.7729 135.301 90.519 135.392 90.314 135.514C90.1089 135.636 89.9526 135.79 89.8452 135.975C89.7378 136.156 89.6841 136.368 89.6841 136.612C89.6841 136.861 89.7402 137.088 89.8525 137.293C89.9648 137.499 90.1333 137.662 90.3579 137.784C90.5874 137.901 90.8682 137.96 91.2002 137.96C91.6152 137.96 91.9814 137.872 92.2988 137.696C92.6162 137.521 92.8677 137.306 93.0532 137.052C93.2437 136.798 93.3462 136.551 93.3608 136.312L93.9395 136.964C93.9053 137.169 93.8125 137.396 93.6611 137.645C93.5098 137.894 93.3071 138.133 93.0532 138.363C92.8042 138.587 92.5063 138.775 92.1597 138.927C91.8179 139.073 91.4321 139.146 91.0024 139.146C90.4653 139.146 89.9941 139.042 89.5889 138.832C89.1885 138.622 88.876 138.341 88.6514 137.989C88.4316 137.633 88.3218 137.235 88.3218 136.795C88.3218 136.371 88.4048 135.997 88.5708 135.675C88.7368 135.348 88.9761 135.077 89.2886 134.862C89.6011 134.642 89.9771 134.476 90.4165 134.364C90.856 134.251 91.3467 134.195 91.8887 134.195H93.4634ZM98.0703 132.767V139H96.7153V131.075H97.9971L98.0703 132.767ZM97.748 134.737L97.1841 134.715C97.189 134.173 97.2695 133.673 97.4258 133.214C97.582 132.75 97.8018 132.347 98.085 132.005C98.3682 131.664 98.7051 131.4 99.0957 131.214C99.4912 131.024 99.9282 130.929 100.407 130.929C100.797 130.929 101.149 130.982 101.461 131.09C101.774 131.192 102.04 131.358 102.26 131.588C102.484 131.817 102.655 132.115 102.772 132.481C102.89 132.843 102.948 133.285 102.948 133.807V139H101.586V133.792C101.586 133.377 101.525 133.045 101.403 132.796C101.281 132.542 101.103 132.359 100.868 132.247C100.634 132.13 100.346 132.071 100.004 132.071C99.667 132.071 99.3594 132.142 99.0811 132.284C98.8076 132.425 98.5708 132.621 98.3706 132.87C98.1753 133.119 98.0215 133.404 97.9092 133.727C97.8018 134.044 97.748 134.381 97.748 134.737ZM108.178 138.033C108.5 138.033 108.798 137.967 109.071 137.835C109.345 137.704 109.569 137.523 109.745 137.293C109.921 137.059 110.021 136.793 110.045 136.495H111.334C111.31 136.964 111.151 137.401 110.858 137.806C110.57 138.207 110.192 138.531 109.723 138.78C109.254 139.024 108.739 139.146 108.178 139.146C107.582 139.146 107.062 139.042 106.618 138.832C106.178 138.622 105.812 138.333 105.519 137.967C105.231 137.601 105.014 137.181 104.867 136.708C104.726 136.229 104.655 135.724 104.655 135.191V134.884C104.655 134.352 104.726 133.849 104.867 133.375C105.014 132.896 105.231 132.474 105.519 132.108C105.812 131.742 106.178 131.454 106.618 131.244C107.062 131.034 107.582 130.929 108.178 130.929C108.798 130.929 109.34 131.056 109.804 131.31C110.268 131.559 110.631 131.9 110.895 132.335C111.164 132.765 111.31 133.253 111.334 133.8H110.045C110.021 133.473 109.928 133.177 109.767 132.914C109.611 132.65 109.396 132.44 109.123 132.284C108.854 132.123 108.539 132.042 108.178 132.042C107.763 132.042 107.414 132.125 107.13 132.291C106.852 132.452 106.63 132.672 106.464 132.95C106.303 133.224 106.186 133.529 106.112 133.866C106.044 134.198 106.01 134.537 106.01 134.884V135.191C106.01 135.538 106.044 135.88 106.112 136.217C106.181 136.554 106.295 136.859 106.457 137.132C106.623 137.406 106.845 137.625 107.123 137.792C107.406 137.953 107.758 138.033 108.178 138.033ZM107.431 139.073H108.405L108.317 139.461C108.6 139.51 108.856 139.627 109.086 139.813C109.32 139.999 109.438 140.304 109.438 140.729C109.438 140.958 109.389 141.166 109.291 141.351C109.198 141.542 109.059 141.703 108.874 141.834C108.688 141.971 108.456 142.076 108.178 142.149C107.904 142.223 107.584 142.259 107.218 142.259L107.167 141.476C107.392 141.476 107.594 141.451 107.775 141.402C107.96 141.354 108.107 141.275 108.214 141.168C108.327 141.061 108.383 140.921 108.383 140.75C108.383 140.589 108.341 140.462 108.258 140.37C108.175 140.277 108.046 140.206 107.87 140.157C107.699 140.113 107.477 140.082 107.204 140.062L107.431 139.073ZM117.531 137.645V133.565C117.531 133.253 117.467 132.982 117.34 132.752C117.218 132.518 117.033 132.337 116.784 132.21C116.535 132.083 116.227 132.02 115.861 132.02C115.519 132.02 115.219 132.079 114.96 132.196C114.706 132.313 114.506 132.467 114.359 132.657C114.218 132.848 114.147 133.053 114.147 133.272H112.792C112.792 132.989 112.865 132.708 113.012 132.43C113.158 132.152 113.368 131.9 113.642 131.676C113.92 131.446 114.252 131.266 114.638 131.134C115.028 130.997 115.463 130.929 115.941 130.929C116.518 130.929 117.025 131.026 117.465 131.222C117.909 131.417 118.256 131.712 118.505 132.108C118.759 132.499 118.886 132.989 118.886 133.58V137.271C118.886 137.535 118.908 137.816 118.952 138.114C119 138.412 119.071 138.668 119.164 138.883V139H117.75C117.682 138.844 117.628 138.636 117.589 138.377C117.55 138.114 117.531 137.87 117.531 137.645ZM117.765 134.195L117.78 135.147H116.41C116.024 135.147 115.68 135.179 115.377 135.243C115.075 135.301 114.821 135.392 114.616 135.514C114.411 135.636 114.254 135.79 114.147 135.975C114.04 136.156 113.986 136.368 113.986 136.612C113.986 136.861 114.042 137.088 114.154 137.293C114.267 137.499 114.435 137.662 114.66 137.784C114.889 137.901 115.17 137.96 115.502 137.96C115.917 137.96 116.283 137.872 116.601 137.696C116.918 137.521 117.169 137.306 117.355 137.052C117.545 136.798 117.648 136.551 117.663 136.312L118.241 136.964C118.207 137.169 118.114 137.396 117.963 137.645C117.812 137.894 117.609 138.133 117.355 138.363C117.106 138.587 116.808 138.775 116.461 138.927C116.12 139.073 115.734 139.146 115.304 139.146C114.767 139.146 114.296 139.042 113.891 138.832C113.49 138.622 113.178 138.341 112.953 137.989C112.733 137.633 112.624 137.235 112.624 136.795C112.624 136.371 112.707 135.997 112.873 135.675C113.039 135.348 113.278 135.077 113.59 134.862C113.903 134.642 114.279 134.476 114.718 134.364C115.158 134.251 115.648 134.195 116.19 134.195H117.765ZM128.026 139.146C127.475 139.146 126.974 139.054 126.525 138.868C126.081 138.678 125.697 138.412 125.375 138.07C125.058 137.728 124.813 137.323 124.643 136.854C124.472 136.385 124.386 135.873 124.386 135.316V135.008C124.386 134.364 124.481 133.79 124.672 133.287C124.862 132.779 125.121 132.35 125.448 131.998C125.775 131.646 126.146 131.38 126.562 131.2C126.977 131.019 127.406 130.929 127.851 130.929C128.417 130.929 128.905 131.026 129.315 131.222C129.73 131.417 130.07 131.69 130.333 132.042C130.597 132.389 130.792 132.799 130.919 133.272C131.046 133.741 131.11 134.254 131.11 134.811V135.418H125.192V134.312H129.755V134.21C129.735 133.858 129.662 133.517 129.535 133.185C129.413 132.853 129.218 132.579 128.949 132.364C128.681 132.149 128.314 132.042 127.851 132.042C127.543 132.042 127.26 132.108 127.001 132.24C126.742 132.367 126.52 132.557 126.334 132.811C126.149 133.065 126.005 133.375 125.902 133.741C125.8 134.107 125.749 134.53 125.749 135.008V135.316C125.749 135.692 125.8 136.046 125.902 136.378C126.01 136.705 126.164 136.993 126.364 137.242C126.569 137.491 126.815 137.687 127.104 137.828C127.396 137.97 127.729 138.041 128.1 138.041C128.578 138.041 128.983 137.943 129.315 137.748C129.647 137.552 129.938 137.291 130.187 136.964L131.007 137.616C130.836 137.875 130.619 138.121 130.355 138.355C130.092 138.59 129.767 138.78 129.381 138.927C129 139.073 128.549 139.146 128.026 139.146ZM139.584 138.033C139.906 138.033 140.204 137.967 140.478 137.835C140.751 137.704 140.976 137.523 141.151 137.293C141.327 137.059 141.427 136.793 141.452 136.495H142.741C142.716 136.964 142.558 137.401 142.265 137.806C141.977 138.207 141.598 138.531 141.129 138.78C140.661 139.024 140.146 139.146 139.584 139.146C138.988 139.146 138.468 139.042 138.024 138.832C137.584 138.622 137.218 138.333 136.925 137.967C136.637 137.601 136.42 137.181 136.273 136.708C136.132 136.229 136.061 135.724 136.061 135.191V134.884C136.061 134.352 136.132 133.849 136.273 133.375C136.42 132.896 136.637 132.474 136.925 132.108C137.218 131.742 137.584 131.454 138.024 131.244C138.468 131.034 138.988 130.929 139.584 130.929C140.204 130.929 140.746 131.056 141.21 131.31C141.674 131.559 142.038 131.9 142.301 132.335C142.57 132.765 142.716 133.253 142.741 133.8H141.452C141.427 133.473 141.334 133.177 141.173 132.914C141.017 132.65 140.802 132.44 140.529 132.284C140.26 132.123 139.945 132.042 139.584 132.042C139.169 132.042 138.82 132.125 138.537 132.291C138.258 132.452 138.036 132.672 137.87 132.95C137.709 133.224 137.592 133.529 137.519 133.866C137.45 134.198 137.416 134.537 137.416 134.884V135.191C137.416 135.538 137.45 135.88 137.519 136.217C137.587 136.554 137.702 136.859 137.863 137.132C138.029 137.406 138.251 137.625 138.529 137.792C138.812 137.953 139.164 138.033 139.584 138.033ZM148.937 137.645V133.565C148.937 133.253 148.874 132.982 148.747 132.752C148.625 132.518 148.439 132.337 148.19 132.21C147.941 132.083 147.633 132.02 147.267 132.02C146.925 132.02 146.625 132.079 146.366 132.196C146.112 132.313 145.912 132.467 145.766 132.657C145.624 132.848 145.553 133.053 145.553 133.272H144.198C144.198 132.989 144.271 132.708 144.418 132.43C144.564 132.152 144.774 131.9 145.048 131.676C145.326 131.446 145.658 131.266 146.044 131.134C146.435 130.997 146.869 130.929 147.348 130.929C147.924 130.929 148.432 131.026 148.871 131.222C149.315 131.417 149.662 131.712 149.911 132.108C150.165 132.499 150.292 132.989 150.292 133.58V137.271C150.292 137.535 150.314 137.816 150.358 138.114C150.407 138.412 150.478 138.668 150.57 138.883V139H149.157C149.088 138.844 149.035 138.636 148.996 138.377C148.957 138.114 148.937 137.87 148.937 137.645ZM149.171 134.195L149.186 135.147H147.816C147.431 135.147 147.086 135.179 146.784 135.243C146.481 135.301 146.227 135.392 146.022 135.514C145.817 135.636 145.661 135.79 145.553 135.975C145.446 136.156 145.392 136.368 145.392 136.612C145.392 136.861 145.448 137.088 145.561 137.293C145.673 137.499 145.841 137.662 146.066 137.784C146.295 137.901 146.576 137.96 146.908 137.96C147.323 137.96 147.689 137.872 148.007 137.696C148.324 137.521 148.576 137.306 148.761 137.052C148.952 136.798 149.054 136.551 149.069 136.312L149.647 136.964C149.613 137.169 149.521 137.396 149.369 137.645C149.218 137.894 149.015 138.133 148.761 138.363C148.512 138.587 148.214 138.775 147.868 138.927C147.526 139.073 147.14 139.146 146.71 139.146C146.173 139.146 145.702 139.042 145.297 138.832C144.896 138.622 144.584 138.341 144.359 137.989C144.14 137.633 144.03 137.235 144.03 136.795C144.03 136.371 144.113 135.997 144.279 135.675C144.445 135.348 144.684 135.077 144.997 134.862C145.309 134.642 145.685 134.476 146.125 134.364C146.564 134.251 147.055 134.195 147.597 134.195H149.171ZM153.778 132.767V139H152.423V131.075H153.705L153.778 132.767ZM153.456 134.737L152.892 134.715C152.897 134.173 152.978 133.673 153.134 133.214C153.29 132.75 153.51 132.347 153.793 132.005C154.076 131.664 154.413 131.4 154.804 131.214C155.199 131.024 155.636 130.929 156.115 130.929C156.505 130.929 156.857 130.982 157.169 131.09C157.482 131.192 157.748 131.358 157.968 131.588C158.192 131.817 158.363 132.115 158.48 132.481C158.598 132.843 158.656 133.285 158.656 133.807V139H157.294V133.792C157.294 133.377 157.233 133.045 157.111 132.796C156.989 132.542 156.811 132.359 156.576 132.247C156.342 132.13 156.054 132.071 155.712 132.071C155.375 132.071 155.067 132.142 154.789 132.284C154.516 132.425 154.279 132.621 154.079 132.87C153.883 133.119 153.729 133.404 153.617 133.727C153.51 134.044 153.456 134.381 153.456 134.737ZM165.329 136.898C165.329 136.703 165.285 136.522 165.197 136.356C165.114 136.185 164.94 136.031 164.677 135.895C164.418 135.753 164.027 135.631 163.505 135.528C163.065 135.436 162.667 135.326 162.311 135.199C161.959 135.072 161.659 134.918 161.41 134.737C161.166 134.557 160.978 134.344 160.846 134.1C160.714 133.856 160.648 133.57 160.648 133.243C160.648 132.931 160.717 132.635 160.854 132.357C160.995 132.079 161.193 131.832 161.447 131.617C161.706 131.402 162.016 131.234 162.377 131.112C162.738 130.99 163.141 130.929 163.585 130.929C164.22 130.929 164.762 131.041 165.211 131.266C165.661 131.49 166.005 131.791 166.244 132.167C166.483 132.538 166.603 132.95 166.603 133.404H165.248C165.248 133.185 165.182 132.972 165.05 132.767C164.923 132.557 164.735 132.384 164.486 132.247C164.242 132.11 163.942 132.042 163.585 132.042C163.209 132.042 162.904 132.101 162.67 132.218C162.44 132.33 162.272 132.474 162.165 132.65C162.062 132.826 162.011 133.011 162.011 133.207C162.011 133.353 162.035 133.485 162.084 133.602C162.138 133.714 162.23 133.819 162.362 133.917C162.494 134.01 162.68 134.098 162.919 134.181C163.158 134.264 163.463 134.347 163.834 134.43C164.484 134.576 165.019 134.752 165.438 134.957C165.858 135.162 166.171 135.414 166.376 135.711C166.581 136.009 166.684 136.371 166.684 136.795C166.684 137.142 166.61 137.459 166.464 137.748C166.322 138.036 166.115 138.285 165.841 138.495C165.573 138.7 165.25 138.861 164.875 138.978C164.503 139.09 164.086 139.146 163.622 139.146C162.924 139.146 162.333 139.022 161.85 138.773C161.366 138.524 161 138.202 160.751 137.806C160.502 137.411 160.377 136.993 160.377 136.554H161.74C161.759 136.925 161.867 137.22 162.062 137.44C162.257 137.655 162.497 137.809 162.78 137.901C163.063 137.989 163.344 138.033 163.622 138.033C163.993 138.033 164.303 137.984 164.552 137.887C164.806 137.789 164.999 137.655 165.131 137.484C165.263 137.313 165.329 137.118 165.329 136.898ZM168.104 135.125V134.957C168.104 134.386 168.188 133.856 168.354 133.368C168.52 132.875 168.759 132.447 169.071 132.086C169.384 131.72 169.762 131.437 170.207 131.236C170.651 131.031 171.149 130.929 171.701 130.929C172.257 130.929 172.758 131.031 173.202 131.236C173.651 131.437 174.032 131.72 174.345 132.086C174.662 132.447 174.904 132.875 175.07 133.368C175.236 133.856 175.319 134.386 175.319 134.957V135.125C175.319 135.697 175.236 136.227 175.07 136.715C174.904 137.203 174.662 137.63 174.345 137.997C174.032 138.358 173.654 138.641 173.209 138.846C172.77 139.046 172.272 139.146 171.715 139.146C171.159 139.146 170.658 139.046 170.214 138.846C169.77 138.641 169.389 138.358 169.071 137.997C168.759 137.63 168.52 137.203 168.354 136.715C168.188 136.227 168.104 135.697 168.104 135.125ZM169.459 134.957V135.125C169.459 135.521 169.506 135.895 169.599 136.246C169.691 136.593 169.831 136.9 170.016 137.169C170.207 137.438 170.443 137.65 170.727 137.806C171.01 137.958 171.339 138.033 171.715 138.033C172.086 138.033 172.411 137.958 172.689 137.806C172.973 137.65 173.207 137.438 173.393 137.169C173.578 136.9 173.717 136.593 173.81 136.246C173.908 135.895 173.957 135.521 173.957 135.125V134.957C173.957 134.566 173.908 134.198 173.81 133.851C173.717 133.5 173.576 133.189 173.385 132.921C173.2 132.647 172.965 132.433 172.682 132.276C172.404 132.12 172.077 132.042 171.701 132.042C171.33 132.042 171.002 132.12 170.719 132.276C170.441 132.433 170.207 132.647 170.016 132.921C169.831 133.189 169.691 133.5 169.599 133.851C169.506 134.198 169.459 134.566 169.459 134.957ZM181.867 137.169V131.075H183.229V139H181.933L181.867 137.169ZM182.123 135.499L182.687 135.484C182.687 136.012 182.631 136.5 182.519 136.949C182.411 137.394 182.235 137.779 181.991 138.106C181.747 138.434 181.427 138.69 181.032 138.875C180.636 139.056 180.155 139.146 179.589 139.146C179.203 139.146 178.849 139.09 178.527 138.978C178.209 138.866 177.936 138.692 177.707 138.458C177.477 138.224 177.299 137.918 177.172 137.542C177.05 137.167 176.989 136.715 176.989 136.188V131.075H178.344V136.202C178.344 136.559 178.383 136.854 178.461 137.088C178.544 137.318 178.654 137.501 178.791 137.638C178.932 137.77 179.088 137.862 179.259 137.916C179.435 137.97 179.616 137.997 179.801 137.997C180.377 137.997 180.834 137.887 181.171 137.667C181.508 137.442 181.75 137.142 181.896 136.766C182.047 136.385 182.123 135.963 182.123 135.499ZM32.7383 160.462V150.75H34.1006V162H32.8555L32.7383 160.462ZM27.4062 158.125V157.972C27.4062 157.366 27.4795 156.817 27.626 156.324C27.7773 155.826 27.9897 155.398 28.2632 155.042C28.5415 154.686 28.8711 154.412 29.252 154.222C29.6377 154.026 30.0674 153.929 30.541 153.929C31.0391 153.929 31.4736 154.017 31.8447 154.192C32.2207 154.363 32.5381 154.615 32.7969 154.947C33.0605 155.274 33.2681 155.669 33.4194 156.133C33.5708 156.597 33.6758 157.122 33.7344 157.708V158.382C33.6807 158.963 33.5757 159.485 33.4194 159.949C33.2681 160.413 33.0605 160.809 32.7969 161.136C32.5381 161.463 32.2207 161.714 31.8447 161.89C31.4688 162.061 31.0293 162.146 30.5264 162.146C30.0625 162.146 29.6377 162.046 29.252 161.846C28.8711 161.646 28.5415 161.365 28.2632 161.004C27.9897 160.643 27.7773 160.218 27.626 159.729C27.4795 159.236 27.4062 158.702 27.4062 158.125ZM28.7686 157.972V158.125C28.7686 158.521 28.8076 158.892 28.8857 159.239C28.9688 159.585 29.0957 159.891 29.2666 160.154C29.4375 160.418 29.6548 160.625 29.9185 160.777C30.1821 160.923 30.4971 160.997 30.8633 160.997C31.3125 160.997 31.6812 160.901 31.9692 160.711C32.2622 160.521 32.4966 160.269 32.6724 159.957C32.8481 159.644 32.9849 159.305 33.0825 158.938V157.173C33.0239 156.905 32.9385 156.646 32.8262 156.397C32.7188 156.143 32.5771 155.918 32.4014 155.723C32.2305 155.523 32.0181 155.364 31.7642 155.247C31.5151 155.13 31.2197 155.071 30.8779 155.071C30.5068 155.071 30.187 155.149 29.9185 155.306C29.6548 155.457 29.4375 155.667 29.2666 155.936C29.0957 156.199 28.9688 156.507 28.8857 156.858C28.8076 157.205 28.7686 157.576 28.7686 157.972ZM39.4985 162.146C38.9468 162.146 38.4463 162.054 37.9971 161.868C37.5527 161.678 37.1694 161.412 36.8472 161.07C36.5298 160.728 36.2856 160.323 36.1147 159.854C35.9438 159.385 35.8584 158.873 35.8584 158.316V158.008C35.8584 157.364 35.9536 156.79 36.144 156.287C36.3345 155.779 36.5933 155.35 36.9204 154.998C37.2476 154.646 37.6187 154.38 38.0337 154.2C38.4487 154.019 38.8784 153.929 39.3228 153.929C39.8892 153.929 40.3774 154.026 40.7876 154.222C41.2026 154.417 41.542 154.69 41.8057 155.042C42.0693 155.389 42.2646 155.799 42.3916 156.272C42.5186 156.741 42.582 157.254 42.582 157.811V158.418H36.6641V157.312H41.2271V157.21C41.2075 156.858 41.1343 156.517 41.0073 156.185C40.8853 155.853 40.6899 155.579 40.4214 155.364C40.1528 155.149 39.7866 155.042 39.3228 155.042C39.0151 155.042 38.7319 155.108 38.4731 155.24C38.2144 155.367 37.9922 155.557 37.8066 155.811C37.6211 156.065 37.4771 156.375 37.3745 156.741C37.272 157.107 37.2207 157.53 37.2207 158.008V158.316C37.2207 158.692 37.272 159.046 37.3745 159.378C37.4819 159.705 37.6357 159.993 37.8359 160.242C38.041 160.491 38.2876 160.687 38.5757 160.828C38.8687 160.97 39.2007 161.041 39.5718 161.041C40.0503 161.041 40.4556 160.943 40.7876 160.748C41.1196 160.552 41.4102 160.291 41.6592 159.964L42.4795 160.616C42.3086 160.875 42.0913 161.121 41.8276 161.355C41.564 161.59 41.2393 161.78 40.8535 161.927C40.4727 162.073 40.021 162.146 39.4985 162.146ZM49.2397 155.599V165.047H47.8774V154.075H49.1226L49.2397 155.599ZM54.5791 157.972V158.125C54.5791 158.702 54.5107 159.236 54.374 159.729C54.2373 160.218 54.0371 160.643 53.7734 161.004C53.5146 161.365 53.1948 161.646 52.814 161.846C52.4331 162.046 51.9961 162.146 51.5029 162.146C51 162.146 50.5557 162.063 50.1699 161.897C49.7842 161.731 49.457 161.49 49.1885 161.172C48.9199 160.855 48.7051 160.474 48.5439 160.03C48.3877 159.585 48.2803 159.085 48.2217 158.528V157.708C48.2803 157.122 48.3901 156.597 48.5513 156.133C48.7124 155.669 48.9248 155.274 49.1885 154.947C49.457 154.615 49.7817 154.363 50.1626 154.192C50.5435 154.017 50.9829 153.929 51.481 153.929C51.979 153.929 52.4209 154.026 52.8066 154.222C53.1924 154.412 53.5171 154.686 53.7808 155.042C54.0444 155.398 54.2422 155.826 54.374 156.324C54.5107 156.817 54.5791 157.366 54.5791 157.972ZM53.2168 158.125V157.972C53.2168 157.576 53.1753 157.205 53.0923 156.858C53.0093 156.507 52.8799 156.199 52.7041 155.936C52.5332 155.667 52.3135 155.457 52.0449 155.306C51.7764 155.149 51.4565 155.071 51.0854 155.071C50.7437 155.071 50.4458 155.13 50.1919 155.247C49.9429 155.364 49.7305 155.523 49.5547 155.723C49.3789 155.918 49.2349 156.143 49.1226 156.397C49.0151 156.646 48.9346 156.905 48.8809 157.173V159.07C48.9785 159.412 49.1152 159.734 49.291 160.037C49.4668 160.335 49.7012 160.577 49.9941 160.762C50.2871 160.943 50.6558 161.033 51.1001 161.033C51.4663 161.033 51.7812 160.958 52.0449 160.806C52.3135 160.65 52.5332 160.438 52.7041 160.169C52.8799 159.9 53.0093 159.593 53.0923 159.246C53.1753 158.895 53.2168 158.521 53.2168 158.125ZM59.5962 162.146C59.0444 162.146 58.5439 162.054 58.0947 161.868C57.6504 161.678 57.2671 161.412 56.9448 161.07C56.6274 160.728 56.3833 160.323 56.2124 159.854C56.0415 159.385 55.9561 158.873 55.9561 158.316V158.008C55.9561 157.364 56.0513 156.79 56.2417 156.287C56.4321 155.779 56.6909 155.35 57.0181 154.998C57.3452 154.646 57.7163 154.38 58.1313 154.2C58.5464 154.019 58.9761 153.929 59.4204 153.929C59.9868 153.929 60.4751 154.026 60.8853 154.222C61.3003 154.417 61.6396 154.69 61.9033 155.042C62.167 155.389 62.3623 155.799 62.4893 156.272C62.6162 156.741 62.6797 157.254 62.6797 157.811V158.418H56.7617V157.312H61.3247V157.21C61.3052 156.858 61.2319 156.517 61.105 156.185C60.9829 155.853 60.7876 155.579 60.519 155.364C60.2505 155.149 59.8843 155.042 59.4204 155.042C59.1128 155.042 58.8296 155.108 58.5708 155.24C58.312 155.367 58.0898 155.557 57.9043 155.811C57.7188 156.065 57.5747 156.375 57.4722 156.741C57.3696 157.107 57.3184 157.53 57.3184 158.008V158.316C57.3184 158.692 57.3696 159.046 57.4722 159.378C57.5796 159.705 57.7334 159.993 57.9336 160.242C58.1387 160.491 58.3853 160.687 58.6733 160.828C58.9663 160.97 59.2983 161.041 59.6694 161.041C60.1479 161.041 60.5532 160.943 60.8853 160.748C61.2173 160.552 61.5078 160.291 61.7568 159.964L62.5771 160.616C62.4062 160.875 62.189 161.121 61.9253 161.355C61.6616 161.59 61.3369 161.78 60.9512 161.927C60.5703 162.073 60.1187 162.146 59.5962 162.146ZM65.6167 155.32V162H64.2617V154.075H65.5801L65.6167 155.32ZM68.0923 154.031L68.085 155.291C67.9727 155.267 67.8652 155.252 67.7627 155.247C67.665 155.237 67.5527 155.232 67.4258 155.232C67.1133 155.232 66.8374 155.281 66.5981 155.379C66.3589 155.477 66.1562 155.613 65.9902 155.789C65.8242 155.965 65.6924 156.175 65.5947 156.419C65.502 156.658 65.4409 156.922 65.4116 157.21L65.0308 157.43C65.0308 156.951 65.0771 156.502 65.1699 156.082C65.2676 155.662 65.4165 155.291 65.6167 154.969C65.8169 154.642 66.0708 154.388 66.3784 154.207C66.6909 154.021 67.062 153.929 67.4917 153.929C67.5894 153.929 67.7017 153.941 67.8286 153.965C67.9556 153.985 68.0435 154.007 68.0923 154.031ZM74.1934 160.462V150.75H75.5557V162H74.3105L74.1934 160.462ZM68.8613 158.125V157.972C68.8613 157.366 68.9346 156.817 69.0811 156.324C69.2324 155.826 69.4448 155.398 69.7183 155.042C69.9966 154.686 70.3262 154.412 70.707 154.222C71.0928 154.026 71.5225 153.929 71.9961 153.929C72.4941 153.929 72.9287 154.017 73.2998 154.192C73.6758 154.363 73.9932 154.615 74.252 154.947C74.5156 155.274 74.7231 155.669 74.8745 156.133C75.0259 156.597 75.1309 157.122 75.1895 157.708V158.382C75.1357 158.963 75.0308 159.485 74.8745 159.949C74.7231 160.413 74.5156 160.809 74.252 161.136C73.9932 161.463 73.6758 161.714 73.2998 161.89C72.9238 162.061 72.4844 162.146 71.9814 162.146C71.5176 162.146 71.0928 162.046 70.707 161.846C70.3262 161.646 69.9966 161.365 69.7183 161.004C69.4448 160.643 69.2324 160.218 69.0811 159.729C68.9346 159.236 68.8613 158.702 68.8613 158.125ZM70.2236 157.972V158.125C70.2236 158.521 70.2627 158.892 70.3408 159.239C70.4238 159.585 70.5508 159.891 70.7217 160.154C70.8926 160.418 71.1099 160.625 71.3735 160.777C71.6372 160.923 71.9521 160.997 72.3184 160.997C72.7676 160.997 73.1362 160.901 73.4243 160.711C73.7173 160.521 73.9517 160.269 74.1274 159.957C74.3032 159.644 74.4399 159.305 74.5376 158.938V157.173C74.479 156.905 74.3936 156.646 74.2812 156.397C74.1738 156.143 74.0322 155.918 73.8564 155.723C73.6855 155.523 73.4731 155.364 73.2192 155.247C72.9702 155.13 72.6748 155.071 72.333 155.071C71.9619 155.071 71.6421 155.149 71.3735 155.306C71.1099 155.457 70.8926 155.667 70.7217 155.936C70.5508 156.199 70.4238 156.507 70.3408 156.858C70.2627 157.205 70.2236 157.576 70.2236 157.972ZM80.9536 162.146C80.4019 162.146 79.9014 162.054 79.4521 161.868C79.0078 161.678 78.6245 161.412 78.3022 161.07C77.9849 160.728 77.7407 160.323 77.5698 159.854C77.3989 159.385 77.3135 158.873 77.3135 158.316V158.008C77.3135 157.364 77.4087 156.79 77.5991 156.287C77.7896 155.779 78.0483 155.35 78.3755 154.998C78.7026 154.646 79.0737 154.38 79.4888 154.2C79.9038 154.019 80.3335 153.929 80.7778 153.929C81.3442 153.929 81.8325 154.026 82.2427 154.222C82.6577 154.417 82.9971 154.69 83.2607 155.042C83.5244 155.389 83.7197 155.799 83.8467 156.272C83.9736 156.741 84.0371 157.254 84.0371 157.811V158.418H78.1191V157.312H82.6821V157.21C82.6626 156.858 82.5894 156.517 82.4624 156.185C82.3403 155.853 82.145 155.579 81.8765 155.364C81.6079 155.149 81.2417 155.042 80.7778 155.042C80.4702 155.042 80.187 155.108 79.9282 155.24C79.6694 155.367 79.4473 155.557 79.2617 155.811C79.0762 156.065 78.9321 156.375 78.8296 156.741C78.7271 157.107 78.6758 157.53 78.6758 158.008V158.316C78.6758 158.692 78.7271 159.046 78.8296 159.378C78.937 159.705 79.0908 159.993 79.291 160.242C79.4961 160.491 79.7427 160.687 80.0308 160.828C80.3237 160.97 80.6558 161.041 81.0269 161.041C81.5054 161.041 81.9106 160.943 82.2427 160.748C82.5747 160.552 82.8652 160.291 83.1143 159.964L83.9346 160.616C83.7637 160.875 83.5464 161.121 83.2827 161.355C83.019 161.59 82.6943 161.78 82.3086 161.927C81.9277 162.073 81.4761 162.146 80.9536 162.146ZM86.9741 155.32V162H85.6191V154.075H86.9375L86.9741 155.32ZM89.4497 154.031L89.4424 155.291C89.3301 155.267 89.2227 155.252 89.1201 155.247C89.0225 155.237 88.9102 155.232 88.7832 155.232C88.4707 155.232 88.1948 155.281 87.9556 155.379C87.7163 155.477 87.5137 155.613 87.3477 155.789C87.1816 155.965 87.0498 156.175 86.9521 156.419C86.8594 156.658 86.7983 156.922 86.769 157.21L86.3882 157.43C86.3882 156.951 86.4346 156.502 86.5273 156.082C86.625 155.662 86.7739 155.291 86.9741 154.969C87.1743 154.642 87.4282 154.388 87.7358 154.207C88.0483 154.021 88.4194 153.929 88.8491 153.929C88.9468 153.929 89.0591 153.941 89.186 153.965C89.313 153.985 89.4009 154.007 89.4497 154.031ZM94.064 158.125V157.957C94.064 157.386 94.147 156.856 94.313 156.368C94.479 155.875 94.7183 155.447 95.0308 155.086C95.3433 154.72 95.7217 154.437 96.166 154.236C96.6104 154.031 97.1084 153.929 97.6602 153.929C98.2168 153.929 98.7173 154.031 99.1616 154.236C99.6108 154.437 99.9917 154.72 100.304 155.086C100.622 155.447 100.863 155.875 101.029 156.368C101.195 156.856 101.278 157.386 101.278 157.957V158.125C101.278 158.697 101.195 159.227 101.029 159.715C100.863 160.203 100.622 160.63 100.304 160.997C99.9917 161.358 99.6133 161.641 99.1689 161.846C98.7295 162.046 98.2314 162.146 97.6748 162.146C97.1182 162.146 96.6177 162.046 96.1733 161.846C95.729 161.641 95.3481 161.358 95.0308 160.997C94.7183 160.63 94.479 160.203 94.313 159.715C94.147 159.227 94.064 158.697 94.064 158.125ZM95.4189 157.957V158.125C95.4189 158.521 95.4653 158.895 95.5581 159.246C95.6509 159.593 95.79 159.9 95.9756 160.169C96.166 160.438 96.4028 160.65 96.686 160.806C96.9692 160.958 97.2988 161.033 97.6748 161.033C98.0459 161.033 98.3706 160.958 98.6489 160.806C98.9321 160.65 99.1665 160.438 99.3521 160.169C99.5376 159.9 99.6768 159.593 99.7695 159.246C99.8672 158.895 99.916 158.521 99.916 158.125V157.957C99.916 157.566 99.8672 157.198 99.7695 156.851C99.6768 156.5 99.5352 156.189 99.3447 155.921C99.1592 155.647 98.9248 155.433 98.6416 155.276C98.3633 155.12 98.0361 155.042 97.6602 155.042C97.2891 155.042 96.9619 155.12 96.6787 155.276C96.4004 155.433 96.166 155.647 95.9756 155.921C95.79 156.189 95.6509 156.5 95.5581 156.851C95.4653 157.198 95.4189 157.566 95.4189 157.957ZM104.333 155.599V165.047H102.97V154.075H104.215L104.333 155.599ZM109.672 157.972V158.125C109.672 158.702 109.604 159.236 109.467 159.729C109.33 160.218 109.13 160.643 108.866 161.004C108.607 161.365 108.288 161.646 107.907 161.846C107.526 162.046 107.089 162.146 106.596 162.146C106.093 162.146 105.648 162.063 105.263 161.897C104.877 161.731 104.55 161.49 104.281 161.172C104.013 160.855 103.798 160.474 103.637 160.03C103.48 159.585 103.373 159.085 103.314 158.528V157.708C103.373 157.122 103.483 156.597 103.644 156.133C103.805 155.669 104.018 155.274 104.281 154.947C104.55 154.615 104.875 154.363 105.255 154.192C105.636 154.017 106.076 153.929 106.574 153.929C107.072 153.929 107.514 154.026 107.899 154.222C108.285 154.412 108.61 154.686 108.874 155.042C109.137 155.398 109.335 155.826 109.467 156.324C109.604 156.817 109.672 157.366 109.672 157.972ZM108.31 158.125V157.972C108.31 157.576 108.268 157.205 108.185 156.858C108.102 156.507 107.973 156.199 107.797 155.936C107.626 155.667 107.406 155.457 107.138 155.306C106.869 155.149 106.549 155.071 106.178 155.071C105.836 155.071 105.539 155.13 105.285 155.247C105.036 155.364 104.823 155.523 104.647 155.723C104.472 155.918 104.328 156.143 104.215 156.397C104.108 156.646 104.027 156.905 103.974 157.173V159.07C104.071 159.412 104.208 159.734 104.384 160.037C104.56 160.335 104.794 160.577 105.087 160.762C105.38 160.943 105.749 161.033 106.193 161.033C106.559 161.033 106.874 160.958 107.138 160.806C107.406 160.65 107.626 160.438 107.797 160.169C107.973 159.9 108.102 159.593 108.185 159.246C108.268 158.895 108.31 158.521 108.31 158.125ZM111.042 158.125V157.957C111.042 157.386 111.125 156.856 111.291 156.368C111.457 155.875 111.696 155.447 112.008 155.086C112.321 154.72 112.699 154.437 113.144 154.236C113.588 154.031 114.086 153.929 114.638 153.929C115.194 153.929 115.695 154.031 116.139 154.236C116.588 154.437 116.969 154.72 117.282 155.086C117.599 155.447 117.841 155.875 118.007 156.368C118.173 156.856 118.256 157.386 118.256 157.957V158.125C118.256 158.697 118.173 159.227 118.007 159.715C117.841 160.203 117.599 160.63 117.282 160.997C116.969 161.358 116.591 161.641 116.146 161.846C115.707 162.046 115.209 162.146 114.652 162.146C114.096 162.146 113.595 162.046 113.151 161.846C112.707 161.641 112.326 161.358 112.008 160.997C111.696 160.63 111.457 160.203 111.291 159.715C111.125 159.227 111.042 158.697 111.042 158.125ZM112.396 157.957V158.125C112.396 158.521 112.443 158.895 112.536 159.246C112.628 159.593 112.768 159.9 112.953 160.169C113.144 160.438 113.38 160.65 113.664 160.806C113.947 160.958 114.276 161.033 114.652 161.033C115.023 161.033 115.348 160.958 115.626 160.806C115.91 160.65 116.144 160.438 116.33 160.169C116.515 159.9 116.654 159.593 116.747 159.246C116.845 158.895 116.894 158.521 116.894 158.125V157.957C116.894 157.566 116.845 157.198 116.747 156.851C116.654 156.5 116.513 156.189 116.322 155.921C116.137 155.647 115.902 155.433 115.619 155.276C115.341 155.12 115.014 155.042 114.638 155.042C114.267 155.042 113.939 155.12 113.656 155.276C113.378 155.433 113.144 155.647 112.953 155.921C112.768 156.189 112.628 156.5 112.536 156.851C112.443 157.198 112.396 157.566 112.396 157.957ZM121.31 155.32V162H119.955V154.075H121.273L121.31 155.32ZM123.786 154.031L123.778 155.291C123.666 155.267 123.559 155.252 123.456 155.247C123.358 155.237 123.246 155.232 123.119 155.232C122.807 155.232 122.531 155.281 122.292 155.379C122.052 155.477 121.85 155.613 121.684 155.789C121.518 155.965 121.386 156.175 121.288 156.419C121.195 156.658 121.134 156.922 121.105 157.21L120.724 157.43C120.724 156.951 120.771 156.502 120.863 156.082C120.961 155.662 121.11 155.291 121.31 154.969C121.51 154.642 121.764 154.388 122.072 154.207C122.384 154.021 122.755 153.929 123.185 153.929C123.283 153.929 123.395 153.941 123.522 153.965C123.649 153.985 123.737 154.007 123.786 154.031ZM128.722 154.075V155.115H124.438V154.075H128.722ZM125.888 152.149H127.243V160.037C127.243 160.306 127.284 160.508 127.367 160.645C127.45 160.782 127.558 160.872 127.689 160.916C127.821 160.96 127.963 160.982 128.114 160.982C128.227 160.982 128.344 160.972 128.466 160.953C128.593 160.928 128.688 160.909 128.751 160.894L128.759 162C128.651 162.034 128.51 162.066 128.334 162.095C128.163 162.129 127.956 162.146 127.711 162.146C127.379 162.146 127.074 162.081 126.796 161.949C126.518 161.817 126.295 161.597 126.129 161.29C125.968 160.977 125.888 160.557 125.888 160.03V152.149ZM135.16 160.169V154.075H136.522V162H135.226L135.16 160.169ZM135.417 158.499L135.98 158.484C135.98 159.012 135.924 159.5 135.812 159.949C135.705 160.394 135.529 160.779 135.285 161.106C135.041 161.434 134.721 161.69 134.325 161.875C133.93 162.056 133.449 162.146 132.882 162.146C132.497 162.146 132.143 162.09 131.82 161.978C131.503 161.866 131.229 161.692 131 161.458C130.771 161.224 130.592 160.918 130.465 160.542C130.343 160.167 130.282 159.715 130.282 159.188V154.075H131.637V159.202C131.637 159.559 131.676 159.854 131.754 160.088C131.837 160.318 131.947 160.501 132.084 160.638C132.226 160.77 132.382 160.862 132.553 160.916C132.729 160.97 132.909 160.997 133.095 160.997C133.671 160.997 134.127 160.887 134.464 160.667C134.801 160.442 135.043 160.142 135.189 159.766C135.341 159.385 135.417 158.963 135.417 158.499ZM139.943 155.767V162H138.588V154.075H139.87L139.943 155.767ZM139.621 157.737L139.057 157.715C139.062 157.173 139.142 156.673 139.298 156.214C139.455 155.75 139.674 155.347 139.958 155.005C140.241 154.664 140.578 154.4 140.968 154.214C141.364 154.024 141.801 153.929 142.279 153.929C142.67 153.929 143.021 153.982 143.334 154.09C143.646 154.192 143.913 154.358 144.132 154.588C144.357 154.817 144.528 155.115 144.645 155.481C144.762 155.843 144.821 156.285 144.821 156.807V162H143.458V156.792C143.458 156.377 143.397 156.045 143.275 155.796C143.153 155.542 142.975 155.359 142.741 155.247C142.506 155.13 142.218 155.071 141.876 155.071C141.54 155.071 141.232 155.142 140.954 155.284C140.68 155.425 140.443 155.621 140.243 155.87C140.048 156.119 139.894 156.404 139.782 156.727C139.674 157.044 139.621 157.381 139.621 157.737ZM148.351 154.075V162H146.989V154.075H148.351ZM146.886 151.973C146.886 151.753 146.952 151.568 147.084 151.417C147.221 151.265 147.421 151.189 147.685 151.189C147.943 151.189 148.141 151.265 148.278 151.417C148.419 151.568 148.49 151.753 148.49 151.973C148.49 152.183 148.419 152.364 148.278 152.515C148.141 152.662 147.943 152.735 147.685 152.735C147.421 152.735 147.221 152.662 147.084 152.515C146.952 152.364 146.886 152.183 146.886 151.973ZM155.521 160.462V150.75H156.884V162H155.639L155.521 160.462ZM150.189 158.125V157.972C150.189 157.366 150.263 156.817 150.409 156.324C150.561 155.826 150.773 155.398 151.046 155.042C151.325 154.686 151.654 154.412 152.035 154.222C152.421 154.026 152.851 153.929 153.324 153.929C153.822 153.929 154.257 154.017 154.628 154.192C155.004 154.363 155.321 154.615 155.58 154.947C155.844 155.274 156.051 155.669 156.203 156.133C156.354 156.597 156.459 157.122 156.518 157.708V158.382C156.464 158.963 156.359 159.485 156.203 159.949C156.051 160.413 155.844 160.809 155.58 161.136C155.321 161.463 155.004 161.714 154.628 161.89C154.252 162.061 153.812 162.146 153.31 162.146C152.846 162.146 152.421 162.046 152.035 161.846C151.654 161.646 151.325 161.365 151.046 161.004C150.773 160.643 150.561 160.218 150.409 159.729C150.263 159.236 150.189 158.702 150.189 158.125ZM151.552 157.972V158.125C151.552 158.521 151.591 158.892 151.669 159.239C151.752 159.585 151.879 159.891 152.05 160.154C152.221 160.418 152.438 160.625 152.702 160.777C152.965 160.923 153.28 160.997 153.646 160.997C154.096 160.997 154.464 160.901 154.752 160.711C155.045 160.521 155.28 160.269 155.456 159.957C155.631 159.644 155.768 159.305 155.866 158.938V157.173C155.807 156.905 155.722 156.646 155.609 156.397C155.502 156.143 155.36 155.918 155.185 155.723C155.014 155.523 154.801 155.364 154.547 155.247C154.298 155.13 154.003 155.071 153.661 155.071C153.29 155.071 152.97 155.149 152.702 155.306C152.438 155.457 152.221 155.667 152.05 155.936C151.879 156.199 151.752 156.507 151.669 156.858C151.591 157.205 151.552 157.576 151.552 157.972ZM163.666 160.645V156.565C163.666 156.253 163.603 155.982 163.476 155.752C163.354 155.518 163.168 155.337 162.919 155.21C162.67 155.083 162.362 155.02 161.996 155.02C161.654 155.02 161.354 155.079 161.095 155.196C160.841 155.313 160.641 155.467 160.495 155.657C160.353 155.848 160.282 156.053 160.282 156.272H158.927C158.927 155.989 159 155.708 159.147 155.43C159.293 155.152 159.503 154.9 159.777 154.676C160.055 154.446 160.387 154.266 160.773 154.134C161.164 153.997 161.598 153.929 162.077 153.929C162.653 153.929 163.161 154.026 163.6 154.222C164.044 154.417 164.391 154.712 164.64 155.108C164.894 155.499 165.021 155.989 165.021 156.58V160.271C165.021 160.535 165.043 160.816 165.087 161.114C165.136 161.412 165.207 161.668 165.299 161.883V162H163.886C163.817 161.844 163.764 161.636 163.725 161.377C163.686 161.114 163.666 160.87 163.666 160.645ZM163.9 157.195L163.915 158.147H162.545C162.16 158.147 161.815 158.179 161.513 158.243C161.21 158.301 160.956 158.392 160.751 158.514C160.546 158.636 160.39 158.79 160.282 158.975C160.175 159.156 160.121 159.368 160.121 159.612C160.121 159.861 160.177 160.088 160.29 160.293C160.402 160.499 160.57 160.662 160.795 160.784C161.024 160.901 161.305 160.96 161.637 160.96C162.052 160.96 162.418 160.872 162.736 160.696C163.053 160.521 163.305 160.306 163.49 160.052C163.681 159.798 163.783 159.551 163.798 159.312L164.376 159.964C164.342 160.169 164.25 160.396 164.098 160.645C163.947 160.894 163.744 161.133 163.49 161.363C163.241 161.587 162.943 161.775 162.597 161.927C162.255 162.073 161.869 162.146 161.439 162.146C160.902 162.146 160.431 162.042 160.026 161.832C159.625 161.622 159.313 161.341 159.088 160.989C158.869 160.633 158.759 160.235 158.759 159.795C158.759 159.371 158.842 158.997 159.008 158.675C159.174 158.348 159.413 158.077 159.726 157.862C160.038 157.642 160.414 157.476 160.854 157.364C161.293 157.251 161.784 157.195 162.326 157.195H163.9ZM172.147 160.462V150.75H173.51V162H172.265L172.147 160.462ZM166.815 158.125V157.972C166.815 157.366 166.889 156.817 167.035 156.324C167.187 155.826 167.399 155.398 167.672 155.042C167.951 154.686 168.28 154.412 168.661 154.222C169.047 154.026 169.477 153.929 169.95 153.929C170.448 153.929 170.883 154.017 171.254 154.192C171.63 154.363 171.947 154.615 172.206 154.947C172.47 155.274 172.677 155.669 172.829 156.133C172.98 156.597 173.085 157.122 173.144 157.708V158.382C173.09 158.963 172.985 159.485 172.829 159.949C172.677 160.413 172.47 160.809 172.206 161.136C171.947 161.463 171.63 161.714 171.254 161.89C170.878 162.061 170.438 162.146 169.936 162.146C169.472 162.146 169.047 162.046 168.661 161.846C168.28 161.646 167.951 161.365 167.672 161.004C167.399 160.643 167.187 160.218 167.035 159.729C166.889 159.236 166.815 158.702 166.815 158.125ZM168.178 157.972V158.125C168.178 158.521 168.217 158.892 168.295 159.239C168.378 159.585 168.505 159.891 168.676 160.154C168.847 160.418 169.064 160.625 169.328 160.777C169.591 160.923 169.906 160.997 170.272 160.997C170.722 160.997 171.09 160.901 171.378 160.711C171.671 160.521 171.906 160.269 172.082 159.957C172.257 159.644 172.394 159.305 172.492 158.938V157.173C172.433 156.905 172.348 156.646 172.235 156.397C172.128 156.143 171.986 155.918 171.811 155.723C171.64 155.523 171.427 155.364 171.173 155.247C170.924 155.13 170.629 155.071 170.287 155.071C169.916 155.071 169.596 155.149 169.328 155.306C169.064 155.457 168.847 155.667 168.676 155.936C168.505 156.199 168.378 156.507 168.295 156.858C168.217 157.205 168.178 157.576 168.178 157.972ZM178.908 162.146C178.356 162.146 177.855 162.054 177.406 161.868C176.962 161.678 176.579 161.412 176.256 161.07C175.939 160.728 175.695 160.323 175.524 159.854C175.353 159.385 175.268 158.873 175.268 158.316V158.008C175.268 157.364 175.363 156.79 175.553 156.287C175.744 155.779 176.002 155.35 176.33 154.998C176.657 154.646 177.028 154.38 177.443 154.2C177.858 154.019 178.288 153.929 178.732 153.929C179.298 153.929 179.787 154.026 180.197 154.222C180.612 154.417 180.951 154.69 181.215 155.042C181.479 155.389 181.674 155.799 181.801 156.272C181.928 156.741 181.991 157.254 181.991 157.811V158.418H176.073V157.312H180.636V157.21C180.617 156.858 180.543 156.517 180.417 156.185C180.294 155.853 180.099 155.579 179.831 155.364C179.562 155.149 179.196 155.042 178.732 155.042C178.424 155.042 178.141 155.108 177.882 155.24C177.624 155.367 177.401 155.557 177.216 155.811C177.03 156.065 176.886 156.375 176.784 156.741C176.681 157.107 176.63 157.53 176.63 158.008V158.316C176.63 158.692 176.681 159.046 176.784 159.378C176.891 159.705 177.045 159.993 177.245 160.242C177.45 160.491 177.697 160.687 177.985 160.828C178.278 160.97 178.61 161.041 178.981 161.041C179.459 161.041 179.865 160.943 180.197 160.748C180.529 160.552 180.819 160.291 181.068 159.964L181.889 160.616C181.718 160.875 181.5 161.121 181.237 161.355C180.973 161.59 180.648 161.78 180.263 161.927C179.882 162.073 179.43 162.146 178.908 162.146ZM188.188 159.898C188.188 159.703 188.144 159.522 188.056 159.356C187.973 159.185 187.799 159.031 187.536 158.895C187.277 158.753 186.886 158.631 186.364 158.528C185.924 158.436 185.526 158.326 185.17 158.199C184.818 158.072 184.518 157.918 184.269 157.737C184.025 157.557 183.837 157.344 183.705 157.1C183.573 156.856 183.507 156.57 183.507 156.243C183.507 155.931 183.576 155.635 183.712 155.357C183.854 155.079 184.052 154.832 184.306 154.617C184.564 154.402 184.875 154.234 185.236 154.112C185.597 153.99 186 153.929 186.444 153.929C187.079 153.929 187.621 154.041 188.07 154.266C188.52 154.49 188.864 154.791 189.103 155.167C189.342 155.538 189.462 155.95 189.462 156.404H188.107C188.107 156.185 188.041 155.972 187.909 155.767C187.782 155.557 187.594 155.384 187.345 155.247C187.101 155.11 186.801 155.042 186.444 155.042C186.068 155.042 185.763 155.101 185.529 155.218C185.299 155.33 185.131 155.474 185.023 155.65C184.921 155.826 184.87 156.011 184.87 156.207C184.87 156.353 184.894 156.485 184.943 156.602C184.997 156.714 185.089 156.819 185.221 156.917C185.353 157.01 185.539 157.098 185.778 157.181C186.017 157.264 186.322 157.347 186.693 157.43C187.343 157.576 187.877 157.752 188.297 157.957C188.717 158.162 189.03 158.414 189.235 158.711C189.44 159.009 189.542 159.371 189.542 159.795C189.542 160.142 189.469 160.459 189.323 160.748C189.181 161.036 188.974 161.285 188.7 161.495C188.432 161.7 188.109 161.861 187.733 161.978C187.362 162.09 186.945 162.146 186.481 162.146C185.783 162.146 185.192 162.022 184.708 161.773C184.225 161.524 183.859 161.202 183.61 160.806C183.361 160.411 183.236 159.993 183.236 159.554H184.599C184.618 159.925 184.726 160.22 184.921 160.44C185.116 160.655 185.355 160.809 185.639 160.901C185.922 160.989 186.203 161.033 186.481 161.033C186.852 161.033 187.162 160.984 187.411 160.887C187.665 160.789 187.858 160.655 187.99 160.484C188.122 160.313 188.188 160.118 188.188 159.898Z" fill="#FFFCFC"/>
</g>
<defs>
<linearGradient id="paint0_linear_122_139" x1="153" y1="17" x2="17" y2="379.5" gradientUnits="userSpaceOnUse">
<stop stop-color="#B17BFF"/>
<stop offset="1" stop-color="#4388F7"/>
</linearGradient>
<clipPath id="clip0_122_139">
<rect width="216" height="216" fill="white"/>
</clipPath>
<clipPath id="clip1_122_139">
<rect width="60" height="60" fill="white" transform="translate(78 28)"/>
</clipPath>
</defs>
</svg>
