<svg width="217" height="217" viewBox="0 0 217 217" fill="none" xmlns="http://www.w3.org/2000/svg">
<path d="M88.6802 6.54533L94.1623 4.27458L94.3536 4.73652L97.0947 3.60115C97.9907 3.23 98.9004 2.90487 99.8204 2.62575L99.6753 2.14729C101.565 1.57409 103.497 1.19166 105.443 1L105.492 1.4976C107.415 1.30825 109.353 1.30826 111.276 1.4976L111.325 1C113.271 1.19166 115.203 1.57409 117.093 2.14729L116.947 2.62576C117.867 2.90488 118.777 3.23001 119.673 3.60115L122.414 4.73653L122.606 4.27459L128.088 6.54534L127.896 7.00728L133.378 9.27803L133.57 8.81609L139.052 11.0869L138.86 11.5487L144.343 13.8196L144.534 13.3576L150.016 15.6284L149.825 16.0903L155.307 18.361L155.498 17.8992L160.98 20.1698L160.789 20.6318L166.271 22.9025L166.462 22.4407L171.944 24.7113L171.753 25.1733L174.494 26.3087C175.39 26.6799 176.263 27.0932 177.111 27.5464L177.347 27.1054C179.088 28.036 180.725 29.1319 182.237 30.3727L181.919 30.7593C183.413 31.9852 184.783 33.3549 186.009 34.8484L186.395 34.5312C187.636 36.0432 188.732 37.6799 189.662 39.4212L189.221 39.6568C189.675 40.5047 190.088 41.3779 190.459 42.2739L191.595 45.0149L192.057 44.8237L194.327 50.3058L193.865 50.4971L196.136 55.9791L196.598 55.7878L198.869 61.2699L198.407 61.4613L200.678 66.9433L201.139 66.752L203.41 72.234L202.948 72.4253L205.219 77.9074L205.681 77.716L207.952 83.1982L207.49 83.3895L209.761 88.8716L210.222 88.6803L212.493 94.1624L212.031 94.3537L213.167 97.0947C213.538 97.9908 213.863 98.9005 214.142 99.8204L214.621 99.6753C215.194 101.565 215.576 103.497 215.768 105.443L215.27 105.492C215.46 107.415 215.46 109.353 215.27 111.276L215.768 111.325C215.576 113.271 215.194 115.203 214.621 117.093L214.142 116.947C213.863 117.867 213.538 118.777 213.167 119.673L212.031 122.414L212.493 122.606L210.222 128.088L209.761 127.896L207.49 133.378L207.952 133.57L205.681 139.052L205.219 138.86L202.948 144.343L203.41 144.534L201.139 150.016L200.678 149.825L198.407 155.307L198.869 155.498L196.598 160.98L196.136 160.789L193.865 166.271L194.327 166.462L192.056 171.944L191.595 171.753L190.459 174.494C190.088 175.39 189.675 176.263 189.221 177.111L189.662 177.347C188.732 179.088 187.636 180.725 186.395 182.237L186.009 181.919C184.783 183.413 183.413 184.783 181.919 186.009L182.237 186.395C180.725 187.636 179.088 188.732 177.347 189.662L177.111 189.221C176.263 189.675 175.39 190.088 174.494 190.459L171.753 191.595L171.944 192.057L166.462 194.327L166.271 193.865L160.789 196.136L160.98 196.598L155.498 198.869L155.307 198.407L149.825 200.678L150.016 201.14L144.534 203.41L144.342 202.948L138.86 205.219L139.052 205.681L133.57 207.952L133.378 207.49L127.896 209.761L128.088 210.223L122.606 212.493L122.414 212.031L119.673 213.167C118.777 213.538 117.867 213.863 116.947 214.142L117.093 214.621C115.203 215.194 113.271 215.576 111.325 215.768L111.276 215.27C109.353 215.46 107.415 215.46 105.492 215.27L105.443 215.768C103.497 215.576 101.565 215.194 99.6753 214.621L99.8204 214.142C98.9004 213.863 97.9906 213.538 97.0946 213.167L94.3536 212.031L94.1623 212.493L88.6802 210.222L88.8715 209.761L83.3894 207.49L83.1981 207.952L77.716 205.681L77.9074 205.219L72.4253 202.948L72.234 203.41L66.7519 201.139L66.9432 200.678L61.4612 198.407L61.2698 198.869L55.7877 196.598L55.9791 196.136L50.497 193.865L50.3057 194.327L44.8236 192.056L45.0149 191.595L42.2739 190.459C41.3779 190.088 40.5047 189.675 39.6568 189.221L39.4211 189.662C37.6798 188.732 36.0431 187.636 34.5312 186.395L34.8484 186.009C33.3548 184.783 31.985 183.413 30.7592 181.919L30.3727 182.237C29.1319 180.725 28.036 179.088 27.1054 177.347L27.5463 177.111C27.0931 176.263 26.6798 175.39 26.3086 174.494L25.1732 171.753L24.7113 171.944L22.4405 166.462L22.9025 166.271L20.6317 160.789L20.1698 160.98L17.899 155.498L18.361 155.307L16.0902 149.825L15.6283 150.016L13.3576 144.534L13.8195 144.342L11.5487 138.86L11.0868 139.052L8.81608 133.57L9.27802 133.378L7.00727 127.896L6.54533 128.088L4.27458 122.606L4.73652 122.414L3.60115 119.673C3.23 118.777 2.90487 117.867 2.62575 116.947L2.14729 117.093C1.57409 115.203 1.19166 113.271 1 111.325L1.4976 111.276C1.30825 109.353 1.30826 107.415 1.4976 105.492L1 105.443C1.19166 103.497 1.57409 101.565 2.14729 99.6753L2.62576 99.8204C2.90488 98.9005 3.23001 97.9907 3.60115 97.0947L4.73653 94.3537L4.27459 94.1624L6.54534 88.6803L7.00728 88.8716L9.27803 83.3895L8.81609 83.1982L11.0868 77.716L11.5487 77.9074L13.8195 72.4253L13.3576 72.234L15.6283 66.752L16.0902 66.9433L18.361 61.4612L17.8991 61.2699L20.1698 55.7878L20.6317 55.9791L22.9025 50.4971L22.4406 50.3058L24.7113 44.8237L25.1732 45.0149L26.3086 42.2739C26.6798 41.3779 27.0931 40.5047 27.5463 39.6568L27.1054 39.4212C28.036 37.6799 29.1319 36.0432 30.3727 34.5312L30.7592 34.8484C31.9851 33.3549 33.3548 31.9851 34.8484 30.7593L34.5312 30.3727C36.0431 29.1319 37.6798 28.036 39.4211 27.1054L39.6568 27.5464C40.5047 27.0932 41.3779 26.6799 42.2739 26.3087L45.0149 25.1733L44.8236 24.7113L50.3057 22.4405L50.497 22.9025L55.9791 20.6318L55.7877 20.1698L61.2698 17.899L61.4612 18.361L66.9432 16.0903L66.7519 15.6284L72.234 13.3576L72.4253 13.8196L77.9074 11.5487L77.716 11.0869L83.1981 8.81608L83.3895 9.27802L88.8715 7.00727L88.6802 6.54533Z" fill="url(#paint0_linear_202_2)" stroke="#FAF9FB" stroke-dasharray="6 6"/>
<path d="M78.0201 72.3147V81.2241C78.0201 82.1164 77.8167 82.9957 77.4226 83.7974L77.1049 84.431C76.965 84.7284 76.965 85.0647 77.1049 85.3621L78.1218 87.431C78.2997 87.7802 78.6429 88 79.037 88H103.442H134.966C135.526 88 135.983 87.5345 135.983 86.9655V42.4828C136.644 41.5905 137 40.5172 137 39.3793C137 38.2414 136.644 37.1681 135.983 36.2759V29.0345C135.983 28.4655 135.526 28 134.966 28H93.2735C92.7142 28 92.2566 28.4655 92.2566 29.0345V55.931H90.2228C89.9177 55.931 89.6254 56.0733 89.4347 56.306C89.2822 56.4871 89.2059 56.7198 89.2059 56.9655H87.1721C86.8544 56.9655 86.562 57.1078 86.3713 57.3664C86.1807 57.625 86.1044 57.9483 86.1807 58.2586L86.9306 61.3233C81.8589 62.319 78.0201 66.8707 78.0201 72.3147ZM103.442 67.6207V66.2759H107.51V77.6552H104.459V72.3147C104.459 70.6466 104.091 69.056 103.442 67.6207ZM134.966 39.3793C134.966 40.2069 134.648 40.9828 134.076 41.5776C133.504 42.1595 132.729 42.4828 131.916 42.4828C131.102 42.4828 130.339 42.1595 129.755 41.5776C129.183 40.9957 128.865 40.2069 128.865 39.3793C128.865 38.5517 129.183 37.7759 129.755 37.181C130.327 36.5991 131.102 36.2759 131.916 36.2759C132.729 36.2759 133.492 36.5991 134.076 37.181C134.648 37.7759 134.966 38.5517 134.966 39.3793ZM94.2904 30.069H133.949V34.6336C133.314 34.3491 132.627 34.2069 131.916 34.2069C130.555 34.2069 129.284 34.75 128.318 35.7198C127.352 36.7026 126.831 37.9957 126.831 39.3793C126.831 40.7629 127.365 42.056 128.318 43.0388C129.284 44.0216 130.555 44.5517 131.916 44.5517C132.627 44.5517 133.314 44.3966 133.949 44.125V85.931H105.082L105.362 85.3621C105.502 85.0647 105.502 84.7284 105.362 84.431L105.044 83.7974C104.65 83.0086 104.447 82.1164 104.447 81.2241V79.7241H130.886C131.445 79.7241 131.903 79.2586 131.903 78.6897C131.903 78.1207 131.445 77.6552 130.886 77.6552H129.869V56.9655C129.869 56.3966 129.411 55.931 128.852 55.931H122.751C122.191 55.931 121.734 56.3966 121.734 56.9655V77.6552H119.7V61.1034C119.7 60.5345 119.242 60.069 118.683 60.069H112.582C112.023 60.069 111.565 60.5345 111.565 61.1034V77.6552H109.531V65.2414C109.531 64.6724 109.074 64.2069 108.514 64.2069H102.413C102.032 64.2069 101.701 64.4138 101.536 64.7241C99.8833 62.8879 97.6334 61.6207 95.1039 61.2328L97.2013 57.4828C97.3792 57.1595 97.3792 56.7716 97.2013 56.4483C97.0233 56.125 96.6801 55.931 96.3242 55.931H94.2904V30.069ZM113.611 77.6552V62.1379H117.679V77.6552H113.611ZM123.78 77.6552V58H127.848V77.6552H123.78ZM94.57 58L92.8413 61.1034H92.0787L91.4685 58H94.57ZM89.5873 59.0345L89.994 61.1034H89.0407C89.0153 61.1034 89.0025 61.1034 88.9771 61.1034L88.4687 59.0345H89.5873ZM89.0407 63.1724H93.426C98.3834 63.1724 102.413 67.2716 102.413 72.3147V81.2241C102.413 82.4267 102.692 83.6422 103.226 84.7155L103.315 84.8965L102.807 85.931H79.6598L79.1514 84.8965L79.2403 84.7155C79.7742 83.6422 80.0539 82.4267 80.0539 81.2241V72.3147C80.0539 67.2716 84.0833 63.1724 89.0407 63.1724Z" fill="#FDFAFA"/>
<path d="M83.538 78.5015C84.0387 78.8578 84.5861 79.0912 85.1451 79.214V80.0862C85.1451 80.6267 85.5643 81.069 86.0767 81.069C86.5891 81.069 87.0084 80.6267 87.0084 80.0862V79.214C87.5674 79.0912 88.1147 78.8578 88.6155 78.5015C89.3608 77.9733 89.8033 77.1011 89.8033 76.1552C89.8033 75.2093 89.3608 74.3371 88.6155 73.8089L84.5744 70.9711C84.3532 70.8114 84.2134 70.5412 84.2134 70.2586C84.2134 69.9761 84.3532 69.7058 84.5744 69.5461C85.4828 68.9074 86.6706 68.9074 87.579 69.5461C87.8003 69.7058 87.94 69.9761 87.94 70.2586V71.2414C87.94 71.7819 88.3593 72.2242 88.8717 72.2242C89.3841 72.2242 89.8033 71.7819 89.8033 71.2414V70.2586C89.8033 69.3127 89.3608 68.4405 88.6155 67.9123C88.1147 67.5561 87.5674 67.3227 87.0084 67.1998V66.3276C87.0084 65.7871 86.5891 65.3448 86.0767 65.3448C85.5643 65.3448 85.1451 65.7871 85.1451 66.3276V67.1998C84.5861 67.3227 84.0387 67.5561 83.538 67.9123C82.7926 68.4405 82.3501 69.3127 82.3501 70.2586C82.3501 71.2045 82.7926 72.0767 83.538 72.605L87.579 75.4427C87.8003 75.6024 87.94 75.8727 87.94 76.1552C87.94 76.4377 87.8003 76.708 87.579 76.8677C86.6706 77.5065 85.4828 77.5065 84.5744 76.8677C84.3532 76.708 84.2134 76.4377 84.2134 76.1552V75.1724C84.2134 74.6319 83.7942 74.1897 83.2818 74.1897C82.7693 74.1897 82.3501 74.6319 82.3501 75.1724V76.1552C82.3501 77.1011 82.7926 77.9733 83.538 78.5015Z" fill="#FDFAFA"/>
<path d="M93.5298 40.7759H97.2564C97.7688 40.7759 98.1881 40.3336 98.1881 39.7931C98.1881 39.2526 97.7688 38.8104 97.2564 38.8104H93.5298C93.0174 38.8104 92.5981 39.2526 92.5981 39.7931C92.5981 40.3336 93.0174 40.7759 93.5298 40.7759Z" fill="#FDFAFA"/>
<path d="M93.5298 44.7069H99.1197C99.6321 44.7069 100.051 44.2647 100.051 43.7242C100.051 43.1836 99.6321 42.7414 99.1197 42.7414H93.5298C93.0174 42.7414 92.5981 43.1836 92.5981 43.7242C92.5981 44.2647 93.0174 44.7069 93.5298 44.7069Z" fill="#FDFAFA"/>
<path d="M93.5298 48.6379H95.3931C95.9055 48.6379 96.3248 48.1957 96.3248 47.6552C96.3248 47.1147 95.9055 46.6724 95.3931 46.6724H93.5298C93.0174 46.6724 92.5981 47.1147 92.5981 47.6552C92.5981 48.1957 93.0174 48.6379 93.5298 48.6379Z" fill="#FDFAFA"/>
<path d="M117.753 43.7242H114.026C113.514 43.7242 113.094 44.1664 113.094 44.7069C113.094 45.2475 113.514 45.6897 114.026 45.6897H115.726L111.732 50.6035H104.71C104.372 50.6035 104.069 50.7878 103.906 51.0949L100.447 57.4828H95.3931C94.8807 57.4828 94.4614 57.925 94.4614 58.4656C94.4614 59.0061 94.8807 59.4483 95.3931 59.4483H100.983C101.321 59.4483 101.624 59.2641 101.787 58.9569L105.245 52.569H112.163C112.431 52.569 112.699 52.4462 112.873 52.225L116.821 47.3604V48.638C116.821 49.1785 117.24 49.6207 117.753 49.6207C118.265 49.6207 118.684 49.1785 118.684 48.638V44.7069C118.684 44.1664 118.265 43.7242 117.753 43.7242Z" fill="#FDFAFA"/>
<path d="M53.1221 111.818H50.2729V110.668H53.1221C53.6738 110.668 54.1206 110.58 54.4624 110.404C54.8042 110.229 55.0532 109.984 55.2095 109.672C55.3706 109.359 55.4512 109.003 55.4512 108.603C55.4512 108.236 55.3706 107.892 55.2095 107.57C55.0532 107.248 54.8042 106.989 54.4624 106.793C54.1206 106.593 53.6738 106.493 53.1221 106.493H50.6025V116H49.189V105.336H53.1221C53.9277 105.336 54.6089 105.475 55.1655 105.753C55.7222 106.032 56.1445 106.417 56.4326 106.911C56.7207 107.399 56.8647 107.958 56.8647 108.588C56.8647 109.271 56.7207 109.855 56.4326 110.338C56.1445 110.822 55.7222 111.19 55.1655 111.444C54.6089 111.693 53.9277 111.818 53.1221 111.818ZM63.0317 114.645V110.565C63.0317 110.253 62.9683 109.982 62.8413 109.752C62.7192 109.518 62.5337 109.337 62.2847 109.21C62.0356 109.083 61.728 109.02 61.3618 109.02C61.02 109.02 60.7197 109.079 60.4609 109.196C60.207 109.313 60.0068 109.467 59.8604 109.657C59.7188 109.848 59.6479 110.053 59.6479 110.272H58.293C58.293 109.989 58.3662 109.708 58.5127 109.43C58.6592 109.152 58.8691 108.9 59.1426 108.676C59.4209 108.446 59.7529 108.266 60.1387 108.134C60.5293 107.997 60.9639 107.929 61.4424 107.929C62.0186 107.929 62.5264 108.026 62.9658 108.222C63.4102 108.417 63.7568 108.712 64.0059 109.108C64.2598 109.499 64.3867 109.989 64.3867 110.58V114.271C64.3867 114.535 64.4087 114.816 64.4526 115.114C64.5015 115.412 64.5723 115.668 64.665 115.883V116H63.2515C63.1831 115.844 63.1294 115.636 63.0903 115.377C63.0513 115.114 63.0317 114.87 63.0317 114.645ZM63.2661 111.195L63.2808 112.147H61.9111C61.5254 112.147 61.1812 112.179 60.8784 112.243C60.5757 112.301 60.3218 112.392 60.1167 112.514C59.9116 112.636 59.7554 112.79 59.6479 112.975C59.5405 113.156 59.4868 113.368 59.4868 113.612C59.4868 113.861 59.543 114.088 59.6553 114.293C59.7676 114.499 59.936 114.662 60.1606 114.784C60.3901 114.901 60.6709 114.96 61.0029 114.96C61.418 114.96 61.7842 114.872 62.1016 114.696C62.4189 114.521 62.6704 114.306 62.856 114.052C63.0464 113.798 63.1489 113.551 63.1636 113.312L63.7422 113.964C63.708 114.169 63.6152 114.396 63.4639 114.645C63.3125 114.894 63.1099 115.133 62.856 115.363C62.6069 115.587 62.3091 115.775 61.9624 115.927C61.6206 116.073 61.2349 116.146 60.8052 116.146C60.2681 116.146 59.7969 116.042 59.3916 115.832C58.9912 115.622 58.6787 115.341 58.4541 114.989C58.2344 114.633 58.1245 114.235 58.1245 113.795C58.1245 113.371 58.2075 112.997 58.3735 112.675C58.5396 112.348 58.7788 112.077 59.0913 111.862C59.4038 111.642 59.7798 111.476 60.2192 111.364C60.6587 111.251 61.1494 111.195 61.6914 111.195H63.2661ZM67.873 109.32V116H66.5181V108.075H67.8364L67.873 109.32ZM70.3486 108.031L70.3413 109.291C70.229 109.267 70.1216 109.252 70.019 109.247C69.9214 109.237 69.8091 109.232 69.6821 109.232C69.3696 109.232 69.0938 109.281 68.8545 109.379C68.6152 109.477 68.4126 109.613 68.2466 109.789C68.0806 109.965 67.9487 110.175 67.8511 110.419C67.7583 110.658 67.6973 110.922 67.668 111.21L67.2871 111.43C67.2871 110.951 67.3335 110.502 67.4263 110.082C67.5239 109.662 67.6729 109.291 67.873 108.969C68.0732 108.642 68.3271 108.388 68.6348 108.207C68.9473 108.021 69.3184 107.929 69.748 107.929C69.8457 107.929 69.958 107.941 70.085 107.965C70.2119 107.985 70.2998 108.007 70.3486 108.031ZM75.981 114.645V110.565C75.981 110.253 75.9175 109.982 75.7905 109.752C75.6685 109.518 75.4829 109.337 75.2339 109.21C74.9849 109.083 74.6772 109.02 74.311 109.02C73.9692 109.02 73.6689 109.079 73.4102 109.196C73.1562 109.313 72.9561 109.467 72.8096 109.657C72.668 109.848 72.5972 110.053 72.5972 110.272H71.2422C71.2422 109.989 71.3154 109.708 71.4619 109.43C71.6084 109.152 71.8184 108.9 72.0918 108.676C72.3701 108.446 72.7021 108.266 73.0879 108.134C73.4785 107.997 73.9131 107.929 74.3916 107.929C74.9678 107.929 75.4756 108.026 75.915 108.222C76.3594 108.417 76.7061 108.712 76.9551 109.108C77.209 109.499 77.3359 109.989 77.3359 110.58V114.271C77.3359 114.535 77.3579 114.816 77.4019 115.114C77.4507 115.412 77.5215 115.668 77.6143 115.883V116H76.2007C76.1323 115.844 76.0786 115.636 76.0396 115.377C76.0005 115.114 75.981 114.87 75.981 114.645ZM76.2153 111.195L76.23 112.147H74.8604C74.4746 112.147 74.1304 112.179 73.8276 112.243C73.5249 112.301 73.271 112.392 73.0659 112.514C72.8608 112.636 72.7046 112.79 72.5972 112.975C72.4897 113.156 72.436 113.368 72.436 113.612C72.436 113.861 72.4922 114.088 72.6045 114.293C72.7168 114.499 72.8853 114.662 73.1099 114.784C73.3394 114.901 73.6201 114.96 73.9521 114.96C74.3672 114.96 74.7334 114.872 75.0508 114.696C75.3682 114.521 75.6196 114.306 75.8052 114.052C75.9956 113.798 76.0981 113.551 76.1128 113.312L76.6914 113.964C76.6572 114.169 76.5645 114.396 76.4131 114.645C76.2617 114.894 76.0591 115.133 75.8052 115.363C75.5562 115.587 75.2583 115.775 74.9116 115.927C74.5698 116.073 74.1841 116.146 73.7544 116.146C73.2173 116.146 72.7461 116.042 72.3408 115.832C71.9404 115.622 71.6279 115.341 71.4033 114.989C71.1836 114.633 71.0737 114.235 71.0737 113.795C71.0737 113.371 71.1567 112.997 71.3228 112.675C71.4888 112.348 71.728 112.077 72.0405 111.862C72.353 111.642 72.729 111.476 73.1685 111.364C73.6079 111.251 74.0986 111.195 74.6406 111.195H76.2153ZM88.1758 119.047V109.599L88.293 108.075H89.5381V119.047H88.1758ZM82.8511 112.125V111.972C82.8511 111.366 82.9219 110.817 83.0635 110.324C83.2051 109.826 83.4126 109.398 83.686 109.042C83.9595 108.686 84.2891 108.412 84.6748 108.222C85.0654 108.026 85.5098 107.929 86.0078 107.929C86.5059 107.929 86.9429 108.017 87.3188 108.192C87.6997 108.363 88.022 108.615 88.2856 108.947C88.5542 109.274 88.7666 109.669 88.9229 110.133C89.0791 110.597 89.1865 111.122 89.2451 111.708V112.382C89.1914 112.963 89.0864 113.485 88.9302 113.949C88.7739 114.413 88.5615 114.809 88.293 115.136C88.0293 115.463 87.7046 115.714 87.3188 115.89C86.938 116.061 86.4961 116.146 85.9932 116.146C85.5049 116.146 85.0654 116.046 84.6748 115.846C84.2891 115.646 83.9595 115.365 83.686 115.004C83.4175 114.643 83.21 114.218 83.0635 113.729C82.9219 113.236 82.8511 112.702 82.8511 112.125ZM84.2134 111.972V112.125C84.2134 112.521 84.2549 112.895 84.3379 113.246C84.4209 113.593 84.5479 113.9 84.7188 114.169C84.8945 114.438 85.1143 114.65 85.3779 114.806C85.6465 114.958 85.9639 115.033 86.3301 115.033C86.7793 115.033 87.1528 114.936 87.4507 114.74C87.7534 114.545 87.9951 114.289 88.1758 113.971C88.3564 113.649 88.4956 113.305 88.5933 112.938V111.173C88.5396 110.905 88.4541 110.644 88.3369 110.39C88.2246 110.136 88.0781 109.909 87.8975 109.708C87.7168 109.503 87.4971 109.342 87.2383 109.225C86.9844 109.103 86.6865 109.042 86.3447 109.042C85.9736 109.042 85.6538 109.12 85.3853 109.276C85.1167 109.433 84.8945 109.647 84.7188 109.921C84.5479 110.189 84.4209 110.5 84.3379 110.851C84.2549 111.203 84.2134 111.576 84.2134 111.972ZM96.562 114.169V108.075H97.9243V116H96.6279L96.562 114.169ZM96.8184 112.499L97.3823 112.484C97.3823 113.012 97.3262 113.5 97.2139 113.949C97.1064 114.394 96.9307 114.779 96.6865 115.106C96.4424 115.434 96.1226 115.69 95.7271 115.875C95.3315 116.056 94.8506 116.146 94.2842 116.146C93.8984 116.146 93.5444 116.09 93.2222 115.978C92.9048 115.866 92.6313 115.692 92.4019 115.458C92.1724 115.224 91.9941 114.918 91.8672 114.542C91.7451 114.167 91.6841 113.715 91.6841 113.188V108.075H93.0391V113.202C93.0391 113.559 93.0781 113.854 93.1562 114.088C93.2393 114.318 93.3491 114.501 93.4858 114.638C93.6274 114.77 93.7837 114.862 93.9546 114.916C94.1304 114.97 94.311 114.997 94.4966 114.997C95.0728 114.997 95.5293 114.887 95.8662 114.667C96.2031 114.442 96.4448 114.142 96.5913 113.766C96.7427 113.385 96.8184 112.963 96.8184 112.499ZM103.278 116.146C102.727 116.146 102.226 116.054 101.777 115.868C101.333 115.678 100.949 115.412 100.627 115.07C100.31 114.728 100.065 114.323 99.8945 113.854C99.7236 113.385 99.6382 112.873 99.6382 112.316V112.008C99.6382 111.364 99.7334 110.79 99.9238 110.287C100.114 109.779 100.373 109.35 100.7 108.998C101.027 108.646 101.398 108.38 101.813 108.2C102.229 108.019 102.658 107.929 103.103 107.929C103.669 107.929 104.157 108.026 104.567 108.222C104.982 108.417 105.322 108.69 105.585 109.042C105.849 109.389 106.044 109.799 106.171 110.272C106.298 110.741 106.362 111.254 106.362 111.811V112.418H100.444V111.312H105.007V111.21C104.987 110.858 104.914 110.517 104.787 110.185C104.665 109.853 104.47 109.579 104.201 109.364C103.933 109.149 103.566 109.042 103.103 109.042C102.795 109.042 102.512 109.108 102.253 109.24C101.994 109.367 101.772 109.557 101.586 109.811C101.401 110.065 101.257 110.375 101.154 110.741C101.052 111.107 101 111.53 101 112.008V112.316C101 112.692 101.052 113.046 101.154 113.378C101.262 113.705 101.416 113.993 101.616 114.242C101.821 114.491 102.067 114.687 102.355 114.828C102.648 114.97 102.98 115.041 103.352 115.041C103.83 115.041 104.235 114.943 104.567 114.748C104.899 114.552 105.19 114.291 105.439 113.964L106.259 114.616C106.088 114.875 105.871 115.121 105.607 115.355C105.344 115.59 105.019 115.78 104.633 115.927C104.252 116.073 103.801 116.146 103.278 116.146ZM109.292 109.65V116H107.929V108.075H109.218L109.292 109.65ZM109.013 111.737L108.383 111.715C108.388 111.173 108.459 110.673 108.596 110.214C108.732 109.75 108.935 109.347 109.204 109.005C109.472 108.664 109.807 108.4 110.207 108.214C110.607 108.024 111.071 107.929 111.599 107.929C111.97 107.929 112.312 107.982 112.624 108.09C112.937 108.192 113.208 108.356 113.437 108.581C113.667 108.805 113.845 109.093 113.972 109.445C114.099 109.796 114.162 110.221 114.162 110.719V116H112.807V110.785C112.807 110.37 112.736 110.038 112.595 109.789C112.458 109.54 112.263 109.359 112.009 109.247C111.755 109.13 111.457 109.071 111.115 109.071C110.715 109.071 110.38 109.142 110.112 109.284C109.843 109.425 109.628 109.621 109.467 109.87C109.306 110.119 109.189 110.404 109.116 110.727C109.047 111.044 109.013 111.381 109.013 111.737ZM114.147 110.99L113.239 111.269C113.244 110.834 113.315 110.417 113.452 110.016C113.593 109.616 113.796 109.259 114.06 108.947C114.328 108.634 114.658 108.388 115.048 108.207C115.439 108.021 115.886 107.929 116.389 107.929C116.813 107.929 117.189 107.985 117.517 108.097C117.849 108.209 118.127 108.383 118.352 108.617C118.581 108.847 118.754 109.142 118.872 109.503C118.989 109.865 119.047 110.294 119.047 110.792V116H117.685V110.778C117.685 110.333 117.614 109.989 117.473 109.745C117.336 109.496 117.141 109.323 116.887 109.225C116.638 109.123 116.34 109.071 115.993 109.071C115.695 109.071 115.432 109.123 115.202 109.225C114.973 109.328 114.78 109.469 114.624 109.65C114.467 109.826 114.348 110.028 114.265 110.258C114.187 110.487 114.147 110.731 114.147 110.99ZM129.807 119.047V109.599L129.924 108.075H131.169V119.047H129.807ZM124.482 112.125V111.972C124.482 111.366 124.553 110.817 124.694 110.324C124.836 109.826 125.043 109.398 125.317 109.042C125.59 108.686 125.92 108.412 126.306 108.222C126.696 108.026 127.141 107.929 127.639 107.929C128.137 107.929 128.574 108.017 128.95 108.192C129.331 108.363 129.653 108.615 129.917 108.947C130.185 109.274 130.397 109.669 130.554 110.133C130.71 110.597 130.817 111.122 130.876 111.708V112.382C130.822 112.963 130.717 113.485 130.561 113.949C130.405 114.413 130.192 114.809 129.924 115.136C129.66 115.463 129.335 115.714 128.95 115.89C128.569 116.061 128.127 116.146 127.624 116.146C127.136 116.146 126.696 116.046 126.306 115.846C125.92 115.646 125.59 115.365 125.317 115.004C125.048 114.643 124.841 114.218 124.694 113.729C124.553 113.236 124.482 112.702 124.482 112.125ZM125.844 111.972V112.125C125.844 112.521 125.886 112.895 125.969 113.246C126.052 113.593 126.179 113.9 126.35 114.169C126.525 114.438 126.745 114.65 127.009 114.806C127.277 114.958 127.595 115.033 127.961 115.033C128.41 115.033 128.784 114.936 129.082 114.74C129.384 114.545 129.626 114.289 129.807 113.971C129.987 113.649 130.126 113.305 130.224 112.938V111.173C130.17 110.905 130.085 110.644 129.968 110.39C129.855 110.136 129.709 109.909 129.528 109.708C129.348 109.503 129.128 109.342 128.869 109.225C128.615 109.103 128.317 109.042 127.976 109.042C127.604 109.042 127.285 109.12 127.016 109.276C126.748 109.433 126.525 109.647 126.35 109.921C126.179 110.189 126.052 110.5 125.969 110.851C125.886 111.203 125.844 111.576 125.844 111.972ZM138.193 114.169V108.075H139.555V116H138.259L138.193 114.169ZM138.449 112.499L139.013 112.484C139.013 113.012 138.957 113.5 138.845 113.949C138.737 114.394 138.562 114.779 138.317 115.106C138.073 115.434 137.753 115.69 137.358 115.875C136.962 116.056 136.481 116.146 135.915 116.146C135.529 116.146 135.175 116.09 134.853 115.978C134.536 115.866 134.262 115.692 134.033 115.458C133.803 115.224 133.625 114.918 133.498 114.542C133.376 114.167 133.315 113.715 133.315 113.188V108.075H134.67V113.202C134.67 113.559 134.709 113.854 134.787 114.088C134.87 114.318 134.98 114.501 135.117 114.638C135.258 114.77 135.415 114.862 135.585 114.916C135.761 114.97 135.942 114.997 136.127 114.997C136.704 114.997 137.16 114.887 137.497 114.667C137.834 114.442 138.076 114.142 138.222 113.766C138.374 113.385 138.449 112.963 138.449 112.499ZM144.909 116.146C144.357 116.146 143.857 116.054 143.408 115.868C142.963 115.678 142.58 115.412 142.258 115.07C141.94 114.728 141.696 114.323 141.525 113.854C141.354 113.385 141.269 112.873 141.269 112.316V112.008C141.269 111.364 141.364 110.79 141.555 110.287C141.745 109.779 142.004 109.35 142.331 108.998C142.658 108.646 143.029 108.38 143.444 108.2C143.859 108.019 144.289 107.929 144.733 107.929C145.3 107.929 145.788 108.026 146.198 108.222C146.613 108.417 146.953 108.69 147.216 109.042C147.48 109.389 147.675 109.799 147.802 110.272C147.929 110.741 147.993 111.254 147.993 111.811V112.418H142.075V111.312H146.638V111.21C146.618 110.858 146.545 110.517 146.418 110.185C146.296 109.853 146.101 109.579 145.832 109.364C145.563 109.149 145.197 109.042 144.733 109.042C144.426 109.042 144.143 109.108 143.884 109.24C143.625 109.367 143.403 109.557 143.217 109.811C143.032 110.065 142.888 110.375 142.785 110.741C142.683 111.107 142.631 111.53 142.631 112.008V112.316C142.631 112.692 142.683 113.046 142.785 113.378C142.893 113.705 143.046 113.993 143.247 114.242C143.452 114.491 143.698 114.687 143.986 114.828C144.279 114.97 144.611 115.041 144.982 115.041C145.461 115.041 145.866 114.943 146.198 114.748C146.53 114.552 146.821 114.291 147.07 113.964L147.89 114.616C147.719 114.875 147.502 115.121 147.238 115.355C146.975 115.59 146.65 115.78 146.264 115.927C145.883 116.073 145.432 116.146 144.909 116.146ZM150.93 109.32V116H149.575V108.075H150.893L150.93 109.32ZM153.405 108.031L153.398 109.291C153.286 109.267 153.178 109.252 153.076 109.247C152.978 109.237 152.866 109.232 152.739 109.232C152.426 109.232 152.15 109.281 151.911 109.379C151.672 109.477 151.469 109.613 151.303 109.789C151.137 109.965 151.005 110.175 150.908 110.419C150.815 110.658 150.754 110.922 150.725 111.21L150.344 111.43C150.344 110.951 150.39 110.502 150.483 110.082C150.581 109.662 150.729 109.291 150.93 108.969C151.13 108.642 151.384 108.388 151.691 108.207C152.004 108.021 152.375 107.929 152.805 107.929C152.902 107.929 153.015 107.941 153.142 107.965C153.269 107.985 153.356 108.007 153.405 108.031ZM162.993 113.898C162.993 113.703 162.949 113.522 162.861 113.356C162.778 113.185 162.604 113.031 162.341 112.895C162.082 112.753 161.691 112.631 161.169 112.528C160.729 112.436 160.332 112.326 159.975 112.199C159.624 112.072 159.323 111.918 159.074 111.737C158.83 111.557 158.642 111.344 158.51 111.1C158.378 110.856 158.312 110.57 158.312 110.243C158.312 109.931 158.381 109.635 158.518 109.357C158.659 109.079 158.857 108.832 159.111 108.617C159.37 108.402 159.68 108.234 160.041 108.112C160.402 107.99 160.805 107.929 161.25 107.929C161.884 107.929 162.426 108.041 162.875 108.266C163.325 108.49 163.669 108.791 163.908 109.167C164.147 109.538 164.267 109.95 164.267 110.404H162.912C162.912 110.185 162.846 109.972 162.714 109.767C162.587 109.557 162.399 109.384 162.15 109.247C161.906 109.11 161.606 109.042 161.25 109.042C160.874 109.042 160.568 109.101 160.334 109.218C160.104 109.33 159.936 109.474 159.829 109.65C159.726 109.826 159.675 110.011 159.675 110.207C159.675 110.353 159.699 110.485 159.748 110.602C159.802 110.714 159.895 110.819 160.026 110.917C160.158 111.01 160.344 111.098 160.583 111.181C160.822 111.264 161.127 111.347 161.499 111.43C162.148 111.576 162.683 111.752 163.103 111.957C163.522 112.162 163.835 112.414 164.04 112.711C164.245 113.009 164.348 113.371 164.348 113.795C164.348 114.142 164.274 114.459 164.128 114.748C163.986 115.036 163.779 115.285 163.505 115.495C163.237 115.7 162.915 115.861 162.539 115.978C162.167 116.09 161.75 116.146 161.286 116.146C160.588 116.146 159.997 116.022 159.514 115.773C159.03 115.524 158.664 115.202 158.415 114.806C158.166 114.411 158.042 113.993 158.042 113.554H159.404C159.423 113.925 159.531 114.22 159.726 114.44C159.921 114.655 160.161 114.809 160.444 114.901C160.727 114.989 161.008 115.033 161.286 115.033C161.657 115.033 161.967 114.984 162.216 114.887C162.47 114.789 162.663 114.655 162.795 114.484C162.927 114.313 162.993 114.118 162.993 113.898ZM169.416 116.146C168.864 116.146 168.364 116.054 167.915 115.868C167.47 115.678 167.087 115.412 166.765 115.07C166.447 114.728 166.203 114.323 166.032 113.854C165.861 113.385 165.776 112.873 165.776 112.316V112.008C165.776 111.364 165.871 110.79 166.062 110.287C166.252 109.779 166.511 109.35 166.838 108.998C167.165 108.646 167.536 108.38 167.951 108.2C168.366 108.019 168.796 107.929 169.24 107.929C169.807 107.929 170.295 108.026 170.705 108.222C171.12 108.417 171.459 108.69 171.723 109.042C171.987 109.389 172.182 109.799 172.309 110.272C172.436 110.741 172.5 111.254 172.5 111.811V112.418H166.582V111.312H171.145V111.21C171.125 110.858 171.052 110.517 170.925 110.185C170.803 109.853 170.607 109.579 170.339 109.364C170.07 109.149 169.704 109.042 169.24 109.042C168.933 109.042 168.649 109.108 168.391 109.24C168.132 109.367 167.91 109.557 167.724 109.811C167.539 110.065 167.395 110.375 167.292 110.741C167.189 111.107 167.138 111.53 167.138 112.008V112.316C167.138 112.692 167.189 113.046 167.292 113.378C167.399 113.705 167.553 113.993 167.753 114.242C167.958 114.491 168.205 114.687 168.493 114.828C168.786 114.97 169.118 115.041 169.489 115.041C169.968 115.041 170.373 114.943 170.705 114.748C171.037 114.552 171.328 114.291 171.577 113.964L172.397 114.616C172.226 114.875 172.009 115.121 171.745 115.355C171.481 115.59 171.157 115.78 170.771 115.927C170.39 116.073 169.938 116.146 169.416 116.146ZM79.8262 135.125V134.957C79.8262 134.386 79.9092 133.856 80.0752 133.368C80.2412 132.875 80.4805 132.447 80.793 132.086C81.1055 131.72 81.4839 131.437 81.9282 131.236C82.3726 131.031 82.8706 130.929 83.4224 130.929C83.979 130.929 84.4795 131.031 84.9238 131.236C85.373 131.437 85.7539 131.72 86.0664 132.086C86.3838 132.447 86.6255 132.875 86.7915 133.368C86.9575 133.856 87.0405 134.386 87.0405 134.957V135.125C87.0405 135.697 86.9575 136.227 86.7915 136.715C86.6255 137.203 86.3838 137.63 86.0664 137.997C85.7539 138.358 85.3755 138.641 84.9312 138.846C84.4917 139.046 83.9937 139.146 83.437 139.146C82.8804 139.146 82.3799 139.046 81.9355 138.846C81.4912 138.641 81.1104 138.358 80.793 137.997C80.4805 137.63 80.2412 137.203 80.0752 136.715C79.9092 136.227 79.8262 135.697 79.8262 135.125ZM81.1812 134.957V135.125C81.1812 135.521 81.2275 135.895 81.3203 136.246C81.4131 136.593 81.5522 136.9 81.7378 137.169C81.9282 137.438 82.165 137.65 82.4482 137.806C82.7314 137.958 83.061 138.033 83.437 138.033C83.8081 138.033 84.1328 137.958 84.4111 137.806C84.6943 137.65 84.9287 137.438 85.1143 137.169C85.2998 136.9 85.439 136.593 85.5317 136.246C85.6294 135.895 85.6782 135.521 85.6782 135.125V134.957C85.6782 134.566 85.6294 134.198 85.5317 133.851C85.439 133.5 85.2974 133.189 85.1069 132.921C84.9214 132.647 84.687 132.433 84.4038 132.276C84.1255 132.12 83.7983 132.042 83.4224 132.042C83.0513 132.042 82.7241 132.12 82.4409 132.276C82.1626 132.433 81.9282 132.647 81.7378 132.921C81.5522 133.189 81.4131 133.5 81.3203 133.851C81.2275 134.198 81.1812 134.566 81.1812 134.957ZM90.0947 132.32V139H88.7397V131.075H90.0581L90.0947 132.32ZM92.5703 131.031L92.563 132.291C92.4507 132.267 92.3433 132.252 92.2407 132.247C92.1431 132.237 92.0308 132.232 91.9038 132.232C91.5913 132.232 91.3154 132.281 91.0762 132.379C90.8369 132.477 90.6343 132.613 90.4683 132.789C90.3022 132.965 90.1704 133.175 90.0728 133.419C89.98 133.658 89.9189 133.922 89.8896 134.21L89.5088 134.43C89.5088 133.951 89.5552 133.502 89.6479 133.082C89.7456 132.662 89.8945 132.291 90.0947 131.969C90.2949 131.642 90.5488 131.388 90.8564 131.207C91.1689 131.021 91.54 130.929 91.9697 130.929C92.0674 130.929 92.1797 130.941 92.3066 130.965C92.4336 130.985 92.5215 131.007 92.5703 131.031ZM98.8105 131.075H100.041V138.832C100.041 139.53 99.8994 140.125 99.6162 140.619C99.333 141.112 98.9375 141.485 98.4297 141.739C97.9268 141.998 97.3457 142.127 96.6865 142.127C96.4131 142.127 96.0908 142.083 95.7197 141.996C95.3535 141.913 94.9922 141.769 94.6357 141.563C94.2842 141.363 93.9888 141.092 93.7495 140.75L94.46 139.945C94.792 140.345 95.1387 140.624 95.5 140.78C95.8662 140.936 96.2275 141.014 96.584 141.014C97.0137 141.014 97.3848 140.934 97.6973 140.772C98.0098 140.611 98.2515 140.372 98.4224 140.055C98.5981 139.742 98.686 139.356 98.686 138.897V132.818L98.8105 131.075ZM93.354 135.125V134.972C93.354 134.366 93.4248 133.817 93.5664 133.324C93.7129 132.826 93.9204 132.398 94.189 132.042C94.4624 131.686 94.792 131.412 95.1777 131.222C95.5635 131.026 95.998 130.929 96.4814 130.929C96.9795 130.929 97.4141 131.017 97.7852 131.192C98.1611 131.363 98.4785 131.615 98.7373 131.947C99.001 132.274 99.2085 132.669 99.3599 133.133C99.5112 133.597 99.6162 134.122 99.6748 134.708V135.382C99.6211 135.963 99.5161 136.485 99.3599 136.949C99.2085 137.413 99.001 137.809 98.7373 138.136C98.4785 138.463 98.1611 138.714 97.7852 138.89C97.4092 139.061 96.9697 139.146 96.4668 139.146C95.9932 139.146 95.5635 139.046 95.1777 138.846C94.7969 138.646 94.4697 138.365 94.1963 138.004C93.9229 137.643 93.7129 137.218 93.5664 136.729C93.4248 136.236 93.354 135.702 93.354 135.125ZM94.709 134.972V135.125C94.709 135.521 94.748 135.892 94.8262 136.239C94.9092 136.585 95.0337 136.891 95.1997 137.154C95.3706 137.418 95.5879 137.625 95.8516 137.777C96.1152 137.923 96.4302 137.997 96.7964 137.997C97.2456 137.997 97.6167 137.901 97.9097 137.711C98.2026 137.521 98.4346 137.269 98.6055 136.957C98.7812 136.644 98.918 136.305 99.0156 135.938V134.173C98.9619 133.905 98.8789 133.646 98.7666 133.397C98.6592 133.143 98.5176 132.918 98.3418 132.723C98.1709 132.523 97.9585 132.364 97.7046 132.247C97.4507 132.13 97.1528 132.071 96.811 132.071C96.4399 132.071 96.1201 132.149 95.8516 132.306C95.5879 132.457 95.3706 132.667 95.1997 132.936C95.0337 133.199 94.9092 133.507 94.8262 133.858C94.748 134.205 94.709 134.576 94.709 134.972ZM106.772 137.645V133.565C106.772 133.253 106.708 132.982 106.582 132.752C106.459 132.518 106.274 132.337 106.025 132.21C105.776 132.083 105.468 132.02 105.102 132.02C104.76 132.02 104.46 132.079 104.201 132.196C103.947 132.313 103.747 132.467 103.601 132.657C103.459 132.848 103.388 133.053 103.388 133.272H102.033C102.033 132.989 102.106 132.708 102.253 132.43C102.399 132.152 102.609 131.9 102.883 131.676C103.161 131.446 103.493 131.266 103.879 131.134C104.27 130.997 104.704 130.929 105.183 130.929C105.759 130.929 106.267 131.026 106.706 131.222C107.15 131.417 107.497 131.712 107.746 132.108C108 132.499 108.127 132.989 108.127 133.58V137.271C108.127 137.535 108.149 137.816 108.193 138.114C108.242 138.412 108.312 138.668 108.405 138.883V139H106.992C106.923 138.844 106.87 138.636 106.831 138.377C106.792 138.114 106.772 137.87 106.772 137.645ZM107.006 134.195L107.021 135.147H105.651C105.266 135.147 104.921 135.179 104.619 135.243C104.316 135.301 104.062 135.392 103.857 135.514C103.652 135.636 103.496 135.79 103.388 135.975C103.281 136.156 103.227 136.368 103.227 136.612C103.227 136.861 103.283 137.088 103.396 137.293C103.508 137.499 103.676 137.662 103.901 137.784C104.13 137.901 104.411 137.96 104.743 137.96C105.158 137.96 105.524 137.872 105.842 137.696C106.159 137.521 106.411 137.306 106.596 137.052C106.787 136.798 106.889 136.551 106.904 136.312L107.482 136.964C107.448 137.169 107.355 137.396 107.204 137.645C107.053 137.894 106.85 138.133 106.596 138.363C106.347 138.587 106.049 138.775 105.703 138.927C105.361 139.073 104.975 139.146 104.545 139.146C104.008 139.146 103.537 139.042 103.132 138.832C102.731 138.622 102.419 138.341 102.194 137.989C101.975 137.633 101.865 137.235 101.865 136.795C101.865 136.371 101.948 135.997 102.114 135.675C102.28 135.348 102.519 135.077 102.832 134.862C103.144 134.642 103.52 134.476 103.959 134.364C104.399 134.251 104.89 134.195 105.432 134.195H107.006ZM111.613 132.767V139H110.258V131.075H111.54L111.613 132.767ZM111.291 134.737L110.727 134.715C110.732 134.173 110.812 133.673 110.969 133.214C111.125 132.75 111.345 132.347 111.628 132.005C111.911 131.664 112.248 131.4 112.639 131.214C113.034 131.024 113.471 130.929 113.95 130.929C114.34 130.929 114.692 130.982 115.004 131.09C115.317 131.192 115.583 131.358 115.803 131.588C116.027 131.817 116.198 132.115 116.315 132.481C116.433 132.843 116.491 133.285 116.491 133.807V139H115.129V133.792C115.129 133.377 115.068 133.045 114.946 132.796C114.824 132.542 114.646 132.359 114.411 132.247C114.177 132.13 113.889 132.071 113.547 132.071C113.21 132.071 112.902 132.142 112.624 132.284C112.351 132.425 112.114 132.621 111.914 132.87C111.718 133.119 111.564 133.404 111.452 133.727C111.345 134.044 111.291 134.381 111.291 134.737ZM120.021 131.075V139H118.659V131.075H120.021ZM118.557 128.973C118.557 128.753 118.623 128.568 118.754 128.417C118.891 128.265 119.091 128.189 119.355 128.189C119.614 128.189 119.812 128.265 119.948 128.417C120.09 128.568 120.161 128.753 120.161 128.973C120.161 129.183 120.09 129.364 119.948 129.515C119.812 129.662 119.614 129.735 119.355 129.735C119.091 129.735 118.891 129.662 118.754 129.515C118.623 129.364 118.557 129.183 118.557 128.973ZM128.1 137.887V139H122.336V137.887H128.1ZM127.888 132.035L122.644 139H121.816V138.004L127.023 131.075H127.888V132.035ZM127.287 131.075V132.196H121.875V131.075H127.287ZM134.311 137.645V133.565C134.311 133.253 134.248 132.982 134.121 132.752C133.999 132.518 133.813 132.337 133.564 132.21C133.315 132.083 133.007 132.02 132.641 132.02C132.299 132.02 131.999 132.079 131.74 132.196C131.486 132.313 131.286 132.467 131.14 132.657C130.998 132.848 130.927 133.053 130.927 133.272H129.572C129.572 132.989 129.646 132.708 129.792 132.43C129.938 132.152 130.148 131.9 130.422 131.676C130.7 131.446 131.032 131.266 131.418 131.134C131.809 130.997 132.243 130.929 132.722 130.929C133.298 130.929 133.806 131.026 134.245 131.222C134.689 131.417 135.036 131.712 135.285 132.108C135.539 132.499 135.666 132.989 135.666 133.58V137.271C135.666 137.535 135.688 137.816 135.732 138.114C135.781 138.412 135.852 138.668 135.944 138.883V139H134.531C134.462 138.844 134.409 138.636 134.37 138.377C134.331 138.114 134.311 137.87 134.311 137.645ZM134.545 134.195L134.56 135.147H133.19C132.805 135.147 132.46 135.179 132.158 135.243C131.855 135.301 131.601 135.392 131.396 135.514C131.191 135.636 131.035 135.79 130.927 135.975C130.82 136.156 130.766 136.368 130.766 136.612C130.766 136.861 130.822 137.088 130.935 137.293C131.047 137.499 131.215 137.662 131.44 137.784C131.669 137.901 131.95 137.96 132.282 137.96C132.697 137.96 133.063 137.872 133.381 137.696C133.698 137.521 133.95 137.306 134.135 137.052C134.326 136.798 134.428 136.551 134.443 136.312L135.021 136.964C134.987 137.169 134.895 137.396 134.743 137.645C134.592 137.894 134.389 138.133 134.135 138.363C133.886 138.587 133.588 138.775 133.242 138.927C132.9 139.073 132.514 139.146 132.084 139.146C131.547 139.146 131.076 139.042 130.671 138.832C130.271 138.622 129.958 138.341 129.733 137.989C129.514 137.633 129.404 137.235 129.404 136.795C129.404 136.371 129.487 135.997 129.653 135.675C129.819 135.348 130.058 135.077 130.371 134.862C130.683 134.642 131.059 134.476 131.499 134.364C131.938 134.251 132.429 134.195 132.971 134.195H134.545ZM139.152 132.32V139H137.797V131.075H139.116L139.152 132.32ZM141.628 131.031L141.621 132.291C141.508 132.267 141.401 132.252 141.298 132.247C141.201 132.237 141.088 132.232 140.961 132.232C140.649 132.232 140.373 132.281 140.134 132.379C139.895 132.477 139.692 132.613 139.526 132.789C139.36 132.965 139.228 133.175 139.13 133.419C139.038 133.658 138.977 133.922 138.947 134.21L138.566 134.43C138.566 133.951 138.613 133.502 138.706 133.082C138.803 132.662 138.952 132.291 139.152 131.969C139.353 131.642 139.606 131.388 139.914 131.207C140.227 131.021 140.598 130.929 141.027 130.929C141.125 130.929 141.237 130.941 141.364 130.965C141.491 130.985 141.579 131.007 141.628 131.031ZM53.6421 162H52.2871V153.387C52.2871 152.786 52.4043 152.278 52.6387 151.863C52.873 151.448 53.2075 151.133 53.6421 150.918C54.0767 150.704 54.5918 150.596 55.1875 150.596C55.5391 150.596 55.8833 150.64 56.2202 150.728C56.5571 150.811 56.9038 150.916 57.2603 151.043L57.0332 152.186C56.8086 152.098 56.5474 152.015 56.2495 151.937C55.9565 151.854 55.6343 151.812 55.2827 151.812C54.7017 151.812 54.2817 151.944 54.0229 152.208C53.769 152.466 53.6421 152.859 53.6421 153.387V162ZM55.2607 154.075V155.115H51.0347V154.075H55.2607ZM57.9268 154.075V162H56.5718V154.075H57.9268ZM61.5083 155.767V162H60.1533V154.075H61.4351L61.5083 155.767ZM61.186 157.737L60.6221 157.715C60.627 157.173 60.7075 156.673 60.8638 156.214C61.02 155.75 61.2397 155.347 61.5229 155.005C61.8062 154.664 62.1431 154.4 62.5337 154.214C62.9292 154.024 63.3662 153.929 63.8447 153.929C64.2354 153.929 64.5869 153.982 64.8994 154.09C65.2119 154.192 65.478 154.358 65.6978 154.588C65.9224 154.817 66.0933 155.115 66.2104 155.481C66.3276 155.843 66.3862 156.285 66.3862 156.807V162H65.0239V156.792C65.0239 156.377 64.9629 156.045 64.8408 155.796C64.7188 155.542 64.5405 155.359 64.3062 155.247C64.0718 155.13 63.7837 155.071 63.4419 155.071C63.105 155.071 62.7974 155.142 62.519 155.284C62.2456 155.425 62.0088 155.621 61.8086 155.87C61.6133 156.119 61.4595 156.404 61.3472 156.727C61.2397 157.044 61.186 157.381 61.186 157.737ZM73.1172 160.645V156.565C73.1172 156.253 73.0537 155.982 72.9268 155.752C72.8047 155.518 72.6191 155.337 72.3701 155.21C72.1211 155.083 71.8135 155.02 71.4473 155.02C71.1055 155.02 70.8052 155.079 70.5464 155.196C70.2925 155.313 70.0923 155.467 69.9458 155.657C69.8042 155.848 69.7334 156.053 69.7334 156.272H68.3784C68.3784 155.989 68.4517 155.708 68.5981 155.43C68.7446 155.152 68.9546 154.9 69.228 154.676C69.5063 154.446 69.8384 154.266 70.2241 154.134C70.6147 153.997 71.0493 153.929 71.5278 153.929C72.104 153.929 72.6118 154.026 73.0513 154.222C73.4956 154.417 73.8423 154.712 74.0913 155.108C74.3452 155.499 74.4722 155.989 74.4722 156.58V160.271C74.4722 160.535 74.4941 160.816 74.5381 161.114C74.5869 161.412 74.6577 161.668 74.7505 161.883V162H73.3369C73.2686 161.844 73.2148 161.636 73.1758 161.377C73.1367 161.114 73.1172 160.87 73.1172 160.645ZM73.3516 157.195L73.3662 158.147H71.9966C71.6108 158.147 71.2666 158.179 70.9639 158.243C70.6611 158.301 70.4072 158.392 70.2021 158.514C69.9971 158.636 69.8408 158.79 69.7334 158.975C69.626 159.156 69.5723 159.368 69.5723 159.612C69.5723 159.861 69.6284 160.088 69.7407 160.293C69.853 160.499 70.0215 160.662 70.2461 160.784C70.4756 160.901 70.7563 160.96 71.0884 160.96C71.5034 160.96 71.8696 160.872 72.187 160.696C72.5044 160.521 72.7559 160.306 72.9414 160.052C73.1318 159.798 73.2344 159.551 73.249 159.312L73.8276 159.964C73.7935 160.169 73.7007 160.396 73.5493 160.645C73.3979 160.894 73.1953 161.133 72.9414 161.363C72.6924 161.587 72.3945 161.775 72.0479 161.927C71.7061 162.073 71.3203 162.146 70.8906 162.146C70.3535 162.146 69.8823 162.042 69.4771 161.832C69.0767 161.622 68.7642 161.341 68.5396 160.989C68.3198 160.633 68.21 160.235 68.21 159.795C68.21 159.371 68.293 158.997 68.459 158.675C68.625 158.348 68.8643 158.077 69.1768 157.862C69.4893 157.642 69.8652 157.476 70.3047 157.364C70.7441 157.251 71.2349 157.195 71.7769 157.195H73.3516ZM77.9585 155.767V162H76.6035V154.075H77.8853L77.9585 155.767ZM77.6362 157.737L77.0723 157.715C77.0771 157.173 77.1577 156.673 77.314 156.214C77.4702 155.75 77.6899 155.347 77.9731 155.005C78.2563 154.664 78.5933 154.4 78.9839 154.214C79.3794 154.024 79.8164 153.929 80.2949 153.929C80.6855 153.929 81.0371 153.982 81.3496 154.09C81.6621 154.192 81.9282 154.358 82.1479 154.588C82.3726 154.817 82.5435 155.115 82.6606 155.481C82.7778 155.843 82.8364 156.285 82.8364 156.807V162H81.4741V156.792C81.4741 156.377 81.4131 156.045 81.291 155.796C81.1689 155.542 80.9907 155.359 80.7563 155.247C80.522 155.13 80.2339 155.071 79.8921 155.071C79.5552 155.071 79.2476 155.142 78.9692 155.284C78.6958 155.425 78.459 155.621 78.2588 155.87C78.0635 156.119 77.9097 156.404 77.7974 156.727C77.6899 157.044 77.6362 157.381 77.6362 157.737ZM88.0659 161.033C88.3882 161.033 88.686 160.967 88.9595 160.835C89.2329 160.704 89.4575 160.523 89.6333 160.293C89.8091 160.059 89.9092 159.793 89.9336 159.495H91.2227C91.1982 159.964 91.0396 160.401 90.7466 160.806C90.4585 161.207 90.0801 161.531 89.6113 161.78C89.1426 162.024 88.6274 162.146 88.0659 162.146C87.4702 162.146 86.9502 162.042 86.5059 161.832C86.0664 161.622 85.7002 161.333 85.4072 160.967C85.1191 160.601 84.9019 160.181 84.7554 159.708C84.6138 159.229 84.543 158.724 84.543 158.191V157.884C84.543 157.352 84.6138 156.849 84.7554 156.375C84.9019 155.896 85.1191 155.474 85.4072 155.108C85.7002 154.742 86.0664 154.454 86.5059 154.244C86.9502 154.034 87.4702 153.929 88.0659 153.929C88.686 153.929 89.228 154.056 89.6919 154.31C90.1558 154.559 90.5195 154.9 90.7832 155.335C91.0518 155.765 91.1982 156.253 91.2227 156.8H89.9336C89.9092 156.473 89.8164 156.177 89.6553 155.914C89.499 155.65 89.2842 155.44 89.0107 155.284C88.7422 155.123 88.4272 155.042 88.0659 155.042C87.6509 155.042 87.3018 155.125 87.0186 155.291C86.7402 155.452 86.5181 155.672 86.3521 155.95C86.1909 156.224 86.0737 156.529 86.0005 156.866C85.9321 157.198 85.8979 157.537 85.8979 157.884V158.191C85.8979 158.538 85.9321 158.88 86.0005 159.217C86.0688 159.554 86.1836 159.859 86.3447 160.132C86.5107 160.406 86.7329 160.625 87.0112 160.792C87.2944 160.953 87.646 161.033 88.0659 161.033ZM96.0347 162.146C95.4829 162.146 94.9824 162.054 94.5332 161.868C94.0889 161.678 93.7056 161.412 93.3833 161.07C93.0659 160.728 92.8218 160.323 92.6509 159.854C92.48 159.385 92.3945 158.873 92.3945 158.316V158.008C92.3945 157.364 92.4897 156.79 92.6802 156.287C92.8706 155.779 93.1294 155.35 93.4565 154.998C93.7837 154.646 94.1548 154.38 94.5698 154.2C94.9849 154.019 95.4146 153.929 95.8589 153.929C96.4253 153.929 96.9136 154.026 97.3237 154.222C97.7388 154.417 98.0781 154.69 98.3418 155.042C98.6055 155.389 98.8008 155.799 98.9277 156.272C99.0547 156.741 99.1182 157.254 99.1182 157.811V158.418H93.2002V157.312H97.7632V157.21C97.7437 156.858 97.6704 156.517 97.5435 156.185C97.4214 155.853 97.2261 155.579 96.9575 155.364C96.689 155.149 96.3228 155.042 95.8589 155.042C95.5513 155.042 95.2681 155.108 95.0093 155.24C94.7505 155.367 94.5283 155.557 94.3428 155.811C94.1572 156.065 94.0132 156.375 93.9106 156.741C93.8081 157.107 93.7568 157.53 93.7568 158.008V158.316C93.7568 158.692 93.8081 159.046 93.9106 159.378C94.0181 159.705 94.1719 159.993 94.3721 160.242C94.5771 160.491 94.8237 160.687 95.1118 160.828C95.4048 160.97 95.7368 161.041 96.1079 161.041C96.5864 161.041 96.9917 160.943 97.3237 160.748C97.6558 160.552 97.9463 160.291 98.1953 159.964L99.0156 160.616C98.8447 160.875 98.6274 161.121 98.3638 161.355C98.1001 161.59 97.7754 161.78 97.3896 161.927C97.0088 162.073 96.5571 162.146 96.0347 162.146ZM102.172 154.075V162H100.81V154.075H102.172ZM100.708 151.973C100.708 151.753 100.773 151.568 100.905 151.417C101.042 151.265 101.242 151.189 101.506 151.189C101.765 151.189 101.962 151.265 102.099 151.417C102.241 151.568 102.312 151.753 102.312 151.973C102.312 152.183 102.241 152.364 102.099 152.515C101.962 152.662 101.765 152.735 101.506 152.735C101.242 152.735 101.042 152.662 100.905 152.515C100.773 152.364 100.708 152.183 100.708 151.973ZM105.703 155.32V162H104.348V154.075H105.666L105.703 155.32ZM108.178 154.031L108.171 155.291C108.059 155.267 107.951 155.252 107.849 155.247C107.751 155.237 107.639 155.232 107.512 155.232C107.199 155.232 106.923 155.281 106.684 155.379C106.445 155.477 106.242 155.613 106.076 155.789C105.91 155.965 105.778 156.175 105.681 156.419C105.588 156.658 105.527 156.922 105.498 157.21L105.117 157.43C105.117 156.951 105.163 156.502 105.256 156.082C105.354 155.662 105.502 155.291 105.703 154.969C105.903 154.642 106.157 154.388 106.464 154.207C106.777 154.021 107.148 153.929 107.578 153.929C107.675 153.929 107.788 153.941 107.915 153.965C108.042 153.985 108.129 154.007 108.178 154.031ZM113.811 160.645V156.565C113.811 156.253 113.747 155.982 113.62 155.752C113.498 155.518 113.312 155.337 113.063 155.21C112.814 155.083 112.507 155.02 112.141 155.02C111.799 155.02 111.499 155.079 111.24 155.196C110.986 155.313 110.786 155.467 110.639 155.657C110.498 155.848 110.427 156.053 110.427 156.272H109.072C109.072 155.989 109.145 155.708 109.292 155.43C109.438 155.152 109.648 154.9 109.921 154.676C110.2 154.446 110.532 154.266 110.917 154.134C111.308 153.997 111.743 153.929 112.221 153.929C112.797 153.929 113.305 154.026 113.745 154.222C114.189 154.417 114.536 154.712 114.785 155.108C115.039 155.499 115.166 155.989 115.166 156.58V160.271C115.166 160.535 115.188 160.816 115.231 161.114C115.28 161.412 115.351 161.668 115.444 161.883V162H114.03C113.962 161.844 113.908 161.636 113.869 161.377C113.83 161.114 113.811 160.87 113.811 160.645ZM114.045 157.195L114.06 158.147H112.69C112.304 158.147 111.96 158.179 111.657 158.243C111.354 158.301 111.101 158.392 110.896 158.514C110.69 158.636 110.534 158.79 110.427 158.975C110.319 159.156 110.266 159.368 110.266 159.612C110.266 159.861 110.322 160.088 110.434 160.293C110.546 160.499 110.715 160.662 110.939 160.784C111.169 160.901 111.45 160.96 111.782 160.96C112.197 160.96 112.563 160.872 112.88 160.696C113.198 160.521 113.449 160.306 113.635 160.052C113.825 159.798 113.928 159.551 113.942 159.312L114.521 159.964C114.487 160.169 114.394 160.396 114.243 160.645C114.091 160.894 113.889 161.133 113.635 161.363C113.386 161.587 113.088 161.775 112.741 161.927C112.399 162.073 112.014 162.146 111.584 162.146C111.047 162.146 110.576 162.042 110.17 161.832C109.77 161.622 109.458 161.341 109.233 160.989C109.013 160.633 108.903 160.235 108.903 159.795C108.903 159.371 108.986 158.997 109.152 158.675C109.318 158.348 109.558 158.077 109.87 157.862C110.183 157.642 110.559 157.476 110.998 157.364C111.438 157.251 111.928 157.195 112.47 157.195H114.045ZM118.645 155.65V162H117.282V154.075H118.571L118.645 155.65ZM118.366 157.737L117.736 157.715C117.741 157.173 117.812 156.673 117.949 156.214C118.085 155.75 118.288 155.347 118.557 155.005C118.825 154.664 119.16 154.4 119.56 154.214C119.96 154.024 120.424 153.929 120.952 153.929C121.323 153.929 121.665 153.982 121.977 154.09C122.29 154.192 122.561 154.356 122.79 154.581C123.02 154.805 123.198 155.093 123.325 155.445C123.452 155.796 123.515 156.221 123.515 156.719V162H122.16V156.785C122.16 156.37 122.089 156.038 121.948 155.789C121.811 155.54 121.616 155.359 121.362 155.247C121.108 155.13 120.81 155.071 120.468 155.071C120.068 155.071 119.733 155.142 119.465 155.284C119.196 155.425 118.981 155.621 118.82 155.87C118.659 156.119 118.542 156.404 118.469 156.727C118.4 157.044 118.366 157.381 118.366 157.737ZM123.5 156.99L122.592 157.269C122.597 156.834 122.668 156.417 122.805 156.016C122.946 155.616 123.149 155.259 123.413 154.947C123.681 154.634 124.011 154.388 124.401 154.207C124.792 154.021 125.239 153.929 125.742 153.929C126.167 153.929 126.542 153.985 126.87 154.097C127.202 154.209 127.48 154.383 127.705 154.617C127.934 154.847 128.107 155.142 128.225 155.503C128.342 155.865 128.4 156.294 128.4 156.792V162H127.038V156.778C127.038 156.333 126.967 155.989 126.826 155.745C126.689 155.496 126.494 155.323 126.24 155.225C125.991 155.123 125.693 155.071 125.346 155.071C125.048 155.071 124.785 155.123 124.555 155.225C124.326 155.328 124.133 155.469 123.977 155.65C123.82 155.826 123.701 156.028 123.618 156.258C123.54 156.487 123.5 156.731 123.5 156.99ZM133.74 162.146C133.188 162.146 132.688 162.054 132.238 161.868C131.794 161.678 131.411 161.412 131.088 161.07C130.771 160.728 130.527 160.323 130.356 159.854C130.185 159.385 130.1 158.873 130.1 158.316V158.008C130.1 157.364 130.195 156.79 130.385 156.287C130.576 155.779 130.834 155.35 131.162 154.998C131.489 154.646 131.86 154.38 132.275 154.2C132.69 154.019 133.12 153.929 133.564 153.929C134.13 153.929 134.619 154.026 135.029 154.222C135.444 154.417 135.783 154.69 136.047 155.042C136.311 155.389 136.506 155.799 136.633 156.272C136.76 156.741 136.823 157.254 136.823 157.811V158.418H130.905V157.312H135.468V157.21C135.449 156.858 135.375 156.517 135.249 156.185C135.126 155.853 134.931 155.579 134.663 155.364C134.394 155.149 134.028 155.042 133.564 155.042C133.256 155.042 132.973 155.108 132.714 155.24C132.456 155.367 132.233 155.557 132.048 155.811C131.862 156.065 131.718 156.375 131.616 156.741C131.513 157.107 131.462 157.53 131.462 158.008V158.316C131.462 158.692 131.513 159.046 131.616 159.378C131.723 159.705 131.877 159.993 132.077 160.242C132.282 160.491 132.529 160.687 132.817 160.828C133.11 160.97 133.442 161.041 133.813 161.041C134.292 161.041 134.697 160.943 135.029 160.748C135.361 160.552 135.651 160.291 135.9 159.964L136.721 160.616C136.55 160.875 136.333 161.121 136.069 161.355C135.805 161.59 135.48 161.78 135.095 161.927C134.714 162.073 134.262 162.146 133.74 162.146ZM139.76 155.767V162H138.405V154.075H139.687L139.76 155.767ZM139.438 157.737L138.874 157.715C138.879 157.173 138.959 156.673 139.116 156.214C139.272 155.75 139.492 155.347 139.775 155.005C140.058 154.664 140.395 154.4 140.786 154.214C141.181 154.024 141.618 153.929 142.097 153.929C142.487 153.929 142.839 153.982 143.151 154.09C143.464 154.192 143.73 154.358 143.95 154.588C144.174 154.817 144.345 155.115 144.462 155.481C144.58 155.843 144.638 156.285 144.638 156.807V162H143.276V156.792C143.276 156.377 143.215 156.045 143.093 155.796C142.971 155.542 142.792 155.359 142.558 155.247C142.324 155.13 142.036 155.071 141.694 155.071C141.357 155.071 141.049 155.142 140.771 155.284C140.498 155.425 140.261 155.621 140.061 155.87C139.865 156.119 139.711 156.404 139.599 156.727C139.492 157.044 139.438 157.381 139.438 157.737ZM150.014 154.075V155.115H145.729V154.075H150.014ZM147.18 152.149H148.535V160.037C148.535 160.306 148.576 160.508 148.659 160.645C148.742 160.782 148.85 160.872 148.981 160.916C149.113 160.96 149.255 160.982 149.406 160.982C149.519 160.982 149.636 160.972 149.758 160.953C149.885 160.928 149.98 160.909 150.043 160.894L150.051 162C149.943 162.034 149.802 162.066 149.626 162.095C149.455 162.129 149.248 162.146 149.003 162.146C148.671 162.146 148.366 162.081 148.088 161.949C147.81 161.817 147.587 161.597 147.421 161.29C147.26 160.977 147.18 160.557 147.18 160.03V152.149ZM154.892 162.146C154.34 162.146 153.84 162.054 153.391 161.868C152.946 161.678 152.563 161.412 152.241 161.07C151.923 160.728 151.679 160.323 151.508 159.854C151.337 159.385 151.252 158.873 151.252 158.316V158.008C151.252 157.364 151.347 156.79 151.538 156.287C151.728 155.779 151.987 155.35 152.314 154.998C152.641 154.646 153.012 154.38 153.427 154.2C153.842 154.019 154.272 153.929 154.716 153.929C155.283 153.929 155.771 154.026 156.181 154.222C156.596 154.417 156.936 154.69 157.199 155.042C157.463 155.389 157.658 155.799 157.785 156.272C157.912 156.741 157.976 157.254 157.976 157.811V158.418H152.058V157.312H156.621V157.21C156.601 156.858 156.528 156.517 156.401 156.185C156.279 155.853 156.083 155.579 155.815 155.364C155.546 155.149 155.18 155.042 154.716 155.042C154.409 155.042 154.125 155.108 153.867 155.24C153.608 155.367 153.386 155.557 153.2 155.811C153.015 156.065 152.871 156.375 152.768 156.741C152.666 157.107 152.614 157.53 152.614 158.008V158.316C152.614 158.692 152.666 159.046 152.768 159.378C152.875 159.705 153.029 159.993 153.229 160.242C153.435 160.491 153.681 160.687 153.969 160.828C154.262 160.97 154.594 161.041 154.965 161.041C155.444 161.041 155.849 160.943 156.181 160.748C156.513 160.552 156.804 160.291 157.053 159.964L157.873 160.616C157.702 160.875 157.485 161.121 157.221 161.355C156.958 161.59 156.633 161.78 156.247 161.927C155.866 162.073 155.415 162.146 154.892 162.146ZM166.567 162.146C166.015 162.146 165.515 162.054 165.065 161.868C164.621 161.678 164.238 161.412 163.916 161.07C163.598 160.728 163.354 160.323 163.183 159.854C163.012 159.385 162.927 158.873 162.927 158.316V158.008C162.927 157.364 163.022 156.79 163.212 156.287C163.403 155.779 163.662 155.35 163.989 154.998C164.316 154.646 164.687 154.38 165.102 154.2C165.517 154.019 165.947 153.929 166.391 153.929C166.958 153.929 167.446 154.026 167.856 154.222C168.271 154.417 168.61 154.69 168.874 155.042C169.138 155.389 169.333 155.799 169.46 156.272C169.587 156.741 169.65 157.254 169.65 157.811V158.418H163.732V157.312H168.295V157.21C168.276 156.858 168.203 156.517 168.076 156.185C167.954 155.853 167.758 155.579 167.49 155.364C167.221 155.149 166.855 155.042 166.391 155.042C166.083 155.042 165.8 155.108 165.542 155.24C165.283 155.367 165.061 155.557 164.875 155.811C164.689 156.065 164.545 156.375 164.443 156.741C164.34 157.107 164.289 157.53 164.289 158.008V158.316C164.289 158.692 164.34 159.046 164.443 159.378C164.55 159.705 164.704 159.993 164.904 160.242C165.109 160.491 165.356 160.687 165.644 160.828C165.937 160.97 166.269 161.041 166.64 161.041C167.119 161.041 167.524 160.943 167.856 160.748C168.188 160.552 168.479 160.291 168.728 159.964L169.548 160.616C169.377 160.875 169.16 161.121 168.896 161.355C168.632 161.59 168.308 161.78 167.922 161.927C167.541 162.073 167.089 162.146 166.567 162.146ZM53.3784 184.033C53.7007 184.033 53.9985 183.967 54.272 183.835C54.5454 183.704 54.77 183.523 54.9458 183.293C55.1216 183.059 55.2217 182.793 55.2461 182.495H56.5352C56.5107 182.964 56.3521 183.401 56.0591 183.806C55.771 184.207 55.3926 184.531 54.9238 184.78C54.4551 185.024 53.9399 185.146 53.3784 185.146C52.7827 185.146 52.2627 185.042 51.8184 184.832C51.3789 184.622 51.0127 184.333 50.7197 183.967C50.4316 183.601 50.2144 183.181 50.0679 182.708C49.9263 182.229 49.8555 181.724 49.8555 181.191V180.884C49.8555 180.352 49.9263 179.849 50.0679 179.375C50.2144 178.896 50.4316 178.474 50.7197 178.108C51.0127 177.742 51.3789 177.454 51.8184 177.244C52.2627 177.034 52.7827 176.929 53.3784 176.929C53.9985 176.929 54.5405 177.056 55.0044 177.31C55.4683 177.559 55.832 177.9 56.0957 178.335C56.3643 178.765 56.5107 179.253 56.5352 179.8H55.2461C55.2217 179.473 55.1289 179.177 54.9678 178.914C54.8115 178.65 54.5967 178.44 54.3232 178.284C54.0547 178.123 53.7397 178.042 53.3784 178.042C52.9634 178.042 52.6143 178.125 52.3311 178.291C52.0527 178.452 51.8306 178.672 51.6646 178.95C51.5034 179.224 51.3862 179.529 51.313 179.866C51.2446 180.198 51.2104 180.537 51.2104 180.884V181.191C51.2104 181.538 51.2446 181.88 51.313 182.217C51.3813 182.554 51.4961 182.859 51.6572 183.132C51.8232 183.406 52.0454 183.625 52.3237 183.792C52.6069 183.953 52.9585 184.033 53.3784 184.033ZM57.6997 181.125V180.957C57.6997 180.386 57.7827 179.856 57.9487 179.368C58.1147 178.875 58.354 178.447 58.6665 178.086C58.979 177.72 59.3574 177.437 59.8018 177.236C60.2461 177.031 60.7441 176.929 61.2959 176.929C61.8525 176.929 62.353 177.031 62.7974 177.236C63.2466 177.437 63.6274 177.72 63.9399 178.086C64.2573 178.447 64.499 178.875 64.665 179.368C64.8311 179.856 64.9141 180.386 64.9141 180.957V181.125C64.9141 181.697 64.8311 182.227 64.665 182.715C64.499 183.203 64.2573 183.63 63.9399 183.997C63.6274 184.358 63.249 184.641 62.8047 184.846C62.3652 185.046 61.8672 185.146 61.3105 185.146C60.7539 185.146 60.2534 185.046 59.8091 184.846C59.3647 184.641 58.9839 184.358 58.6665 183.997C58.354 183.63 58.1147 183.203 57.9487 182.715C57.7827 182.227 57.6997 181.697 57.6997 181.125ZM59.0547 180.957V181.125C59.0547 181.521 59.1011 181.895 59.1938 182.246C59.2866 182.593 59.4258 182.9 59.6113 183.169C59.8018 183.438 60.0386 183.65 60.3218 183.806C60.605 183.958 60.9346 184.033 61.3105 184.033C61.6816 184.033 62.0063 183.958 62.2847 183.806C62.5679 183.65 62.8022 183.438 62.9878 183.169C63.1733 182.9 63.3125 182.593 63.4053 182.246C63.5029 181.895 63.5518 181.521 63.5518 181.125V180.957C63.5518 180.566 63.5029 180.198 63.4053 179.851C63.3125 179.5 63.1709 179.189 62.9805 178.921C62.7949 178.647 62.5605 178.433 62.2773 178.276C61.999 178.12 61.6719 178.042 61.2959 178.042C60.9248 178.042 60.5977 178.12 60.3145 178.276C60.0361 178.433 59.8018 178.647 59.6113 178.921C59.4258 179.189 59.2866 179.5 59.1938 179.851C59.1011 180.198 59.0547 180.566 59.0547 180.957ZM67.9609 178.65V185H66.5986V177.075H67.8877L67.9609 178.65ZM67.6826 180.737L67.0527 180.715C67.0576 180.173 67.1284 179.673 67.2651 179.214C67.4019 178.75 67.6045 178.347 67.873 178.005C68.1416 177.664 68.4761 177.4 68.8765 177.214C69.2769 177.024 69.7407 176.929 70.2681 176.929C70.6392 176.929 70.981 176.982 71.2935 177.09C71.606 177.192 71.877 177.356 72.1064 177.581C72.3359 177.805 72.5142 178.093 72.6411 178.445C72.7681 178.796 72.8315 179.221 72.8315 179.719V185H71.4766V179.785C71.4766 179.37 71.4058 179.038 71.2642 178.789C71.1274 178.54 70.9321 178.359 70.6782 178.247C70.4243 178.13 70.1265 178.071 69.7847 178.071C69.3843 178.071 69.0498 178.142 68.7812 178.284C68.5127 178.425 68.2979 178.621 68.1367 178.87C67.9756 179.119 67.8584 179.404 67.7852 179.727C67.7168 180.044 67.6826 180.381 67.6826 180.737ZM72.8169 179.99L71.9087 180.269C71.9136 179.834 71.9844 179.417 72.1211 179.016C72.2627 178.616 72.4653 178.259 72.729 177.947C72.9976 177.634 73.3271 177.388 73.7178 177.207C74.1084 177.021 74.5552 176.929 75.0581 176.929C75.4829 176.929 75.8589 176.985 76.186 177.097C76.5181 177.209 76.7964 177.383 77.021 177.617C77.2505 177.847 77.4238 178.142 77.541 178.503C77.6582 178.865 77.7168 179.294 77.7168 179.792V185H76.3545V179.778C76.3545 179.333 76.2837 178.989 76.1421 178.745C76.0054 178.496 75.8101 178.323 75.5562 178.225C75.3071 178.123 75.0093 178.071 74.6626 178.071C74.3647 178.071 74.1011 178.123 73.8716 178.225C73.6421 178.328 73.4492 178.469 73.293 178.65C73.1367 178.826 73.0171 179.028 72.9341 179.258C72.856 179.487 72.8169 179.731 72.8169 179.99ZM83.0562 185.146C82.5044 185.146 82.0039 185.054 81.5547 184.868C81.1104 184.678 80.7271 184.412 80.4048 184.07C80.0874 183.728 79.8433 183.323 79.6724 182.854C79.5015 182.385 79.416 181.873 79.416 181.316V181.008C79.416 180.364 79.5112 179.79 79.7017 179.287C79.8921 178.779 80.1509 178.35 80.478 177.998C80.8052 177.646 81.1763 177.38 81.5913 177.2C82.0063 177.019 82.436 176.929 82.8804 176.929C83.4468 176.929 83.9351 177.026 84.3452 177.222C84.7603 177.417 85.0996 177.69 85.3633 178.042C85.627 178.389 85.8223 178.799 85.9492 179.272C86.0762 179.741 86.1396 180.254 86.1396 180.811V181.418H80.2217V180.312H84.7847V180.21C84.7651 179.858 84.6919 179.517 84.5649 179.185C84.4429 178.853 84.2476 178.579 83.979 178.364C83.7104 178.149 83.3442 178.042 82.8804 178.042C82.5728 178.042 82.2896 178.108 82.0308 178.24C81.772 178.367 81.5498 178.557 81.3643 178.811C81.1787 179.065 81.0347 179.375 80.9321 179.741C80.8296 180.107 80.7783 180.53 80.7783 181.008V181.316C80.7783 181.692 80.8296 182.046 80.9321 182.378C81.0396 182.705 81.1934 182.993 81.3936 183.242C81.5986 183.491 81.8452 183.687 82.1333 183.828C82.4263 183.97 82.7583 184.041 83.1294 184.041C83.6079 184.041 84.0132 183.943 84.3452 183.748C84.6772 183.552 84.9678 183.291 85.2168 182.964L86.0371 183.616C85.8662 183.875 85.6489 184.121 85.3853 184.355C85.1216 184.59 84.7969 184.78 84.4111 184.927C84.0303 185.073 83.5786 185.146 83.0562 185.146ZM90.8931 184.033C91.2153 184.033 91.5132 183.967 91.7866 183.835C92.0601 183.704 92.2847 183.523 92.4604 183.293C92.6362 183.059 92.7363 182.793 92.7607 182.495H94.0498C94.0254 182.964 93.8667 183.401 93.5737 183.806C93.2856 184.207 92.9072 184.531 92.4385 184.78C91.9697 185.024 91.4546 185.146 90.8931 185.146C90.2974 185.146 89.7773 185.042 89.333 184.832C88.8936 184.622 88.5273 184.333 88.2344 183.967C87.9463 183.601 87.729 183.181 87.5825 182.708C87.4409 182.229 87.3701 181.724 87.3701 181.191V180.884C87.3701 180.352 87.4409 179.849 87.5825 179.375C87.729 178.896 87.9463 178.474 88.2344 178.108C88.5273 177.742 88.8936 177.454 89.333 177.244C89.7773 177.034 90.2974 176.929 90.8931 176.929C91.5132 176.929 92.0552 177.056 92.519 177.31C92.9829 177.559 93.3467 177.9 93.6104 178.335C93.8789 178.765 94.0254 179.253 94.0498 179.8H92.7607C92.7363 179.473 92.6436 179.177 92.4824 178.914C92.3262 178.65 92.1113 178.44 91.8379 178.284C91.5693 178.123 91.2544 178.042 90.8931 178.042C90.478 178.042 90.1289 178.125 89.8457 178.291C89.5674 178.452 89.3452 178.672 89.1792 178.95C89.0181 179.224 88.9009 179.529 88.8276 179.866C88.7593 180.198 88.7251 180.537 88.7251 180.884V181.191C88.7251 181.538 88.7593 181.88 88.8276 182.217C88.896 182.554 89.0107 182.859 89.1719 183.132C89.3379 183.406 89.5601 183.625 89.8384 183.792C90.1216 183.953 90.4731 184.033 90.8931 184.033ZM90.146 185.073H91.1201L91.0322 185.461C91.3154 185.51 91.5718 185.627 91.8013 185.813C92.0356 185.999 92.1528 186.304 92.1528 186.729C92.1528 186.958 92.104 187.166 92.0063 187.351C91.9136 187.542 91.7744 187.703 91.5889 187.834C91.4033 187.971 91.1714 188.076 90.8931 188.149C90.6196 188.223 90.2998 188.259 89.9336 188.259L89.8823 187.476C90.1069 187.476 90.3096 187.451 90.4902 187.402C90.6758 187.354 90.8223 187.275 90.9297 187.168C91.042 187.061 91.0981 186.921 91.0981 186.75C91.0981 186.589 91.0566 186.462 90.9736 186.37C90.8906 186.277 90.7612 186.206 90.5854 186.157C90.4146 186.113 90.1924 186.082 89.9189 186.062L90.146 185.073ZM100.246 183.645V179.565C100.246 179.253 100.183 178.982 100.056 178.752C99.9336 178.518 99.748 178.337 99.499 178.21C99.25 178.083 98.9424 178.02 98.5762 178.02C98.2344 178.02 97.9341 178.079 97.6753 178.196C97.4214 178.313 97.2212 178.467 97.0747 178.657C96.9331 178.848 96.8623 179.053 96.8623 179.272H95.5073C95.5073 178.989 95.5806 178.708 95.7271 178.43C95.8735 178.152 96.0835 177.9 96.3569 177.676C96.6353 177.446 96.9673 177.266 97.353 177.134C97.7437 176.997 98.1782 176.929 98.6567 176.929C99.2329 176.929 99.7407 177.026 100.18 177.222C100.625 177.417 100.971 177.712 101.22 178.108C101.474 178.499 101.601 178.989 101.601 179.58V183.271C101.601 183.535 101.623 183.816 101.667 184.114C101.716 184.412 101.787 184.668 101.879 184.883V185H100.466C100.397 184.844 100.344 184.636 100.305 184.377C100.266 184.114 100.246 183.87 100.246 183.645ZM100.48 180.195L100.495 181.147H99.1255C98.7397 181.147 98.3955 181.179 98.0928 181.243C97.79 181.301 97.5361 181.392 97.3311 181.514C97.126 181.636 96.9697 181.79 96.8623 181.975C96.7549 182.156 96.7012 182.368 96.7012 182.612C96.7012 182.861 96.7573 183.088 96.8696 183.293C96.9819 183.499 97.1504 183.662 97.375 183.784C97.6045 183.901 97.8853 183.96 98.2173 183.96C98.6323 183.96 98.9985 183.872 99.3159 183.696C99.6333 183.521 99.8848 183.306 100.07 183.052C100.261 182.798 100.363 182.551 100.378 182.312L100.957 182.964C100.922 183.169 100.83 183.396 100.678 183.645C100.527 183.894 100.324 184.133 100.07 184.363C99.8213 184.587 99.5234 184.775 99.1768 184.927C98.835 185.073 98.4492 185.146 98.0195 185.146C97.4824 185.146 97.0112 185.042 96.606 184.832C96.2056 184.622 95.8931 184.341 95.6685 183.989C95.4487 183.633 95.3389 183.235 95.3389 182.795C95.3389 182.371 95.4219 181.997 95.5879 181.675C95.7539 181.348 95.9932 181.077 96.3057 180.862C96.6182 180.642 96.9941 180.476 97.4336 180.364C97.873 180.251 98.3638 180.195 98.9058 180.195H100.48ZM105.087 178.32V185H103.732V177.075H105.051L105.087 178.32ZM107.563 177.031L107.556 178.291C107.443 178.267 107.336 178.252 107.233 178.247C107.136 178.237 107.023 178.232 106.896 178.232C106.584 178.232 106.308 178.281 106.069 178.379C105.83 178.477 105.627 178.613 105.461 178.789C105.295 178.965 105.163 179.175 105.065 179.419C104.973 179.658 104.912 179.922 104.882 180.21L104.501 180.43C104.501 179.951 104.548 179.502 104.641 179.082C104.738 178.662 104.887 178.291 105.087 177.969C105.288 177.642 105.542 177.388 105.849 177.207C106.162 177.021 106.533 176.929 106.962 176.929C107.06 176.929 107.172 176.941 107.299 176.965C107.426 176.985 107.514 177.007 107.563 177.031ZM117.209 183.645V179.565C117.209 179.253 117.146 178.982 117.019 178.752C116.896 178.518 116.711 178.337 116.462 178.21C116.213 178.083 115.905 178.02 115.539 178.02C115.197 178.02 114.897 178.079 114.638 178.196C114.384 178.313 114.184 178.467 114.038 178.657C113.896 178.848 113.825 179.053 113.825 179.272H112.47C112.47 178.989 112.543 178.708 112.69 178.43C112.836 178.152 113.046 177.9 113.32 177.676C113.598 177.446 113.93 177.266 114.316 177.134C114.707 176.997 115.141 176.929 115.62 176.929C116.196 176.929 116.704 177.026 117.143 177.222C117.587 177.417 117.934 177.712 118.183 178.108C118.437 178.499 118.564 178.989 118.564 179.58V183.271C118.564 183.535 118.586 183.816 118.63 184.114C118.679 184.412 118.75 184.668 118.842 184.883V185H117.429C117.36 184.844 117.307 184.636 117.268 184.377C117.229 184.114 117.209 183.87 117.209 183.645ZM117.443 180.195L117.458 181.147H116.088C115.703 181.147 115.358 181.179 115.056 181.243C114.753 181.301 114.499 181.392 114.294 181.514C114.089 181.636 113.933 181.79 113.825 181.975C113.718 182.156 113.664 182.368 113.664 182.612C113.664 182.861 113.72 183.088 113.833 183.293C113.945 183.499 114.113 183.662 114.338 183.784C114.567 183.901 114.848 183.96 115.18 183.96C115.595 183.96 115.961 183.872 116.279 183.696C116.596 183.521 116.848 183.306 117.033 183.052C117.224 182.798 117.326 182.551 117.341 182.312L117.919 182.964C117.885 183.169 117.792 183.396 117.641 183.645C117.49 183.894 117.287 184.133 117.033 184.363C116.784 184.587 116.486 184.775 116.14 184.927C115.798 185.073 115.412 185.146 114.982 185.146C114.445 185.146 113.974 185.042 113.569 184.832C113.168 184.622 112.856 184.341 112.631 183.989C112.412 183.633 112.302 183.235 112.302 182.795C112.302 182.371 112.385 181.997 112.551 181.675C112.717 181.348 112.956 181.077 113.269 180.862C113.581 180.642 113.957 180.476 114.396 180.364C114.836 180.251 115.327 180.195 115.869 180.195H117.443ZM125.888 177.075V185H124.526V177.075H125.888ZM124.423 174.973C124.423 174.753 124.489 174.568 124.621 174.417C124.758 174.265 124.958 174.189 125.222 174.189C125.48 174.189 125.678 174.265 125.815 174.417C125.957 174.568 126.027 174.753 126.027 174.973C126.027 175.183 125.957 175.364 125.815 175.515C125.678 175.662 125.48 175.735 125.222 175.735C124.958 175.735 124.758 175.662 124.621 175.515C124.489 175.364 124.423 175.183 124.423 174.973ZM129.418 178.767V185H128.063V177.075H129.345L129.418 178.767ZM129.096 180.737L128.532 180.715C128.537 180.173 128.618 179.673 128.774 179.214C128.93 178.75 129.15 178.347 129.433 178.005C129.716 177.664 130.053 177.4 130.444 177.214C130.839 177.024 131.276 176.929 131.755 176.929C132.146 176.929 132.497 176.982 132.81 177.09C133.122 177.192 133.388 177.358 133.608 177.588C133.833 177.817 134.003 178.115 134.121 178.481C134.238 178.843 134.296 179.285 134.296 179.807V185H132.934V179.792C132.934 179.377 132.873 179.045 132.751 178.796C132.629 178.542 132.451 178.359 132.216 178.247C131.982 178.13 131.694 178.071 131.352 178.071C131.015 178.071 130.708 178.142 130.429 178.284C130.156 178.425 129.919 178.621 129.719 178.87C129.523 179.119 129.37 179.404 129.257 179.727C129.15 180.044 129.096 180.381 129.096 180.737ZM138.764 183.777L140.932 177.075H142.316L139.467 185H138.559L138.764 183.777ZM136.955 177.075L139.189 183.813L139.343 185H138.435L135.563 177.075H136.955ZM146.806 185.146C146.254 185.146 145.754 185.054 145.305 184.868C144.86 184.678 144.477 184.412 144.155 184.07C143.837 183.728 143.593 183.323 143.422 182.854C143.251 182.385 143.166 181.873 143.166 181.316V181.008C143.166 180.364 143.261 179.79 143.452 179.287C143.642 178.779 143.901 178.35 144.228 177.998C144.555 177.646 144.926 177.38 145.341 177.2C145.756 177.019 146.186 176.929 146.63 176.929C147.197 176.929 147.685 177.026 148.095 177.222C148.51 177.417 148.85 177.69 149.113 178.042C149.377 178.389 149.572 178.799 149.699 179.272C149.826 179.741 149.89 180.254 149.89 180.811V181.418H143.972V180.312H148.535V180.21C148.515 179.858 148.442 179.517 148.315 179.185C148.193 178.853 147.998 178.579 147.729 178.364C147.46 178.149 147.094 178.042 146.63 178.042C146.323 178.042 146.04 178.108 145.781 178.24C145.522 178.367 145.3 178.557 145.114 178.811C144.929 179.065 144.785 179.375 144.682 179.741C144.58 180.107 144.528 180.53 144.528 181.008V181.316C144.528 181.692 144.58 182.046 144.682 182.378C144.79 182.705 144.943 182.993 145.144 183.242C145.349 183.491 145.595 183.687 145.883 183.828C146.176 183.97 146.508 184.041 146.879 184.041C147.358 184.041 147.763 183.943 148.095 183.748C148.427 183.552 148.718 183.291 148.967 182.964L149.787 183.616C149.616 183.875 149.399 184.121 149.135 184.355C148.872 184.59 148.547 184.78 148.161 184.927C147.78 185.073 147.329 185.146 146.806 185.146ZM156.086 182.898C156.086 182.703 156.042 182.522 155.954 182.356C155.871 182.185 155.698 182.031 155.434 181.895C155.175 181.753 154.785 181.631 154.262 181.528C153.823 181.436 153.425 181.326 153.068 181.199C152.717 181.072 152.417 180.918 152.167 180.737C151.923 180.557 151.735 180.344 151.604 180.1C151.472 179.856 151.406 179.57 151.406 179.243C151.406 178.931 151.474 178.635 151.611 178.357C151.752 178.079 151.95 177.832 152.204 177.617C152.463 177.402 152.773 177.234 153.134 177.112C153.496 176.99 153.898 176.929 154.343 176.929C154.978 176.929 155.52 177.041 155.969 177.266C156.418 177.49 156.762 177.791 157.001 178.167C157.241 178.538 157.36 178.95 157.36 179.404H156.005C156.005 179.185 155.939 178.972 155.808 178.767C155.681 178.557 155.493 178.384 155.244 178.247C155 178.11 154.699 178.042 154.343 178.042C153.967 178.042 153.662 178.101 153.427 178.218C153.198 178.33 153.029 178.474 152.922 178.65C152.819 178.826 152.768 179.011 152.768 179.207C152.768 179.353 152.792 179.485 152.841 179.602C152.895 179.714 152.988 179.819 153.12 179.917C153.251 180.01 153.437 180.098 153.676 180.181C153.916 180.264 154.221 180.347 154.592 180.43C155.241 180.576 155.776 180.752 156.196 180.957C156.616 181.162 156.928 181.414 157.133 181.711C157.338 182.009 157.441 182.371 157.441 182.795C157.441 183.142 157.368 183.459 157.221 183.748C157.08 184.036 156.872 184.285 156.599 184.495C156.33 184.7 156.008 184.861 155.632 184.978C155.261 185.09 154.843 185.146 154.379 185.146C153.681 185.146 153.09 185.022 152.607 184.773C152.124 184.524 151.757 184.202 151.508 183.806C151.259 183.411 151.135 182.993 151.135 182.554H152.497C152.517 182.925 152.624 183.22 152.819 183.44C153.015 183.655 153.254 183.809 153.537 183.901C153.82 183.989 154.101 184.033 154.379 184.033C154.75 184.033 155.061 183.984 155.31 183.887C155.563 183.789 155.756 183.655 155.888 183.484C156.02 183.313 156.086 183.118 156.086 182.898ZM162.539 177.075V178.115H158.254V177.075H162.539ZM159.704 175.149H161.059V183.037C161.059 183.306 161.101 183.508 161.184 183.645C161.267 183.782 161.374 183.872 161.506 183.916C161.638 183.96 161.779 183.982 161.931 183.982C162.043 183.982 162.16 183.972 162.282 183.953C162.409 183.928 162.504 183.909 162.568 183.894L162.575 185C162.468 185.034 162.326 185.066 162.15 185.095C161.979 185.129 161.772 185.146 161.528 185.146C161.196 185.146 160.891 185.081 160.612 184.949C160.334 184.817 160.112 184.597 159.946 184.29C159.785 183.977 159.704 183.557 159.704 183.03V175.149ZM165.6 177.075V185H164.238V177.075H165.6ZM164.135 174.973C164.135 174.753 164.201 174.568 164.333 174.417C164.47 174.265 164.67 174.189 164.934 174.189C165.192 174.189 165.39 174.265 165.527 174.417C165.668 174.568 165.739 174.753 165.739 174.973C165.739 175.183 165.668 175.364 165.527 175.515C165.39 175.662 165.192 175.735 164.934 175.735C164.67 175.735 164.47 175.662 164.333 175.515C164.201 175.364 164.135 175.183 164.135 174.973ZM169.13 178.32V185H167.775V177.075H169.094L169.13 178.32ZM171.606 177.031L171.599 178.291C171.486 178.267 171.379 178.252 171.276 178.247C171.179 178.237 171.066 178.232 170.939 178.232C170.627 178.232 170.351 178.281 170.112 178.379C169.873 178.477 169.67 178.613 169.504 178.789C169.338 178.965 169.206 179.175 169.108 179.419C169.016 179.658 168.955 179.922 168.925 180.21L168.544 180.43C168.544 179.951 168.591 179.502 168.684 179.082C168.781 178.662 168.93 178.291 169.13 177.969C169.331 177.642 169.584 177.388 169.892 177.207C170.205 177.021 170.576 176.929 171.005 176.929C171.103 176.929 171.215 176.941 171.342 176.965C171.469 176.985 171.557 177.007 171.606 177.031Z" fill="#FFFAFA"/>
<defs>
<linearGradient id="paint0_linear_202_2" x1="153.384" y1="17.3839" x2="17.3838" y2="379.884" gradientUnits="userSpaceOnUse">
<stop stop-color="#B17BFF"/>
<stop offset="1" stop-color="#4388F7"/>
</linearGradient>
</defs>
</svg>
