<svg width="216" height="216" viewBox="0 0 216 216" fill="none" xmlns="http://www.w3.org/2000/svg">
<g clip-path="url(#clip0_202_6)">
<path d="M88.2964 6.16148L93.7785 3.89073L93.9698 4.35267L96.7109 3.2173C97.6069 2.84615 98.5166 2.52102 99.4366 2.2419L99.2915 1.76344C101.181 1.19024 103.113 0.807806 105.059 0.61615L105.108 1.11375C107.031 0.924405 108.969 0.924406 110.892 1.11375L110.941 0.616152C112.887 0.80781 114.819 1.19024 116.709 1.76344L116.563 2.24191C117.483 2.52103 118.393 2.84616 119.289 3.2173L122.03 4.35268L122.222 3.89074L127.704 6.16149L127.512 6.62343L132.994 8.89418L133.186 8.43224L138.668 10.703L138.476 11.1649L143.959 13.4357L144.15 12.9738L149.632 15.2445L149.441 15.7064L154.923 17.9772L155.114 17.5153L160.596 19.786L160.405 20.2479L165.887 22.5187L166.078 22.0568L171.56 24.3275L171.369 24.7894L174.11 25.9248C175.006 26.296 175.879 26.7093 176.727 27.1625L176.963 26.7216C178.704 27.6522 180.341 28.7481 181.853 29.9889L181.535 30.3754C183.029 31.6013 184.399 32.971 185.625 34.4646L186.011 34.1474C187.252 35.6593 188.348 37.296 189.278 39.0373L188.837 39.273C189.291 40.1209 189.704 40.9941 190.075 41.8901L191.211 44.6311L191.673 44.4398L193.943 49.9219L193.481 50.1132L195.752 55.5953L196.214 55.4039L198.485 60.886L198.023 61.0774L200.294 66.5594L200.755 66.3681L203.026 71.8502L202.564 72.0415L204.835 77.5236L205.297 77.3322L207.568 82.8143L207.106 83.0057L209.377 88.4877L209.838 88.2964L212.109 93.7785L211.647 93.9698L212.783 96.7108C213.154 97.6069 213.479 98.5166 213.758 99.4366L214.237 99.2915C214.81 101.181 215.192 103.113 215.384 105.059L214.886 105.108C215.076 107.031 215.076 108.969 214.886 110.892L215.384 110.941C215.192 112.887 214.81 114.819 214.237 116.709L213.758 116.563C213.479 117.483 213.154 118.393 212.783 119.289L211.647 122.03L212.109 122.222L209.838 127.704L209.377 127.512L207.106 132.994L207.568 133.186L205.297 138.668L204.835 138.476L202.564 143.959L203.026 144.15L200.755 149.632L200.294 149.441L198.023 154.923L198.485 155.114L196.214 160.596L195.752 160.405L193.481 165.887L193.943 166.078L191.672 171.56L191.211 171.369L190.075 174.11C189.704 175.006 189.291 175.879 188.837 176.727L189.278 176.963C188.348 178.704 187.252 180.341 186.011 181.853L185.625 181.535C184.399 183.029 183.029 184.399 181.535 185.625L181.853 186.011C180.341 187.252 178.704 188.348 176.963 189.278L176.727 188.837C175.879 189.291 175.006 189.704 174.11 190.075L171.369 191.211L171.56 191.673L166.078 193.943L165.887 193.481L160.405 195.752L160.596 196.214L155.114 198.485L154.923 198.023L149.441 200.294L149.632 200.756L144.15 203.026L143.958 202.564L138.476 204.835L138.668 205.297L133.186 207.568L132.994 207.106L127.512 209.377L127.704 209.839L122.222 212.109L122.03 211.647L119.289 212.783C118.393 213.154 117.483 213.479 116.563 213.758L116.709 214.237C114.819 214.81 112.887 215.192 110.941 215.384L110.892 214.886C108.969 215.076 107.031 215.076 105.108 214.886L105.059 215.384C103.113 215.192 101.181 214.81 99.2915 214.237L99.4366 213.758C98.5166 213.479 97.6068 213.154 96.7108 212.783L93.9698 211.647L93.7785 212.109L88.2964 209.838L88.4877 209.377L83.0056 207.106L82.8143 207.568L77.3322 205.297L77.5236 204.835L72.0415 202.564L71.8502 203.026L66.3681 200.755L66.5594 200.294L61.0774 198.023L60.886 198.485L55.4039 196.214L55.5953 195.752L50.1132 193.481L49.9219 193.943L44.4398 191.672L44.6311 191.211L41.8901 190.075C40.9941 189.704 40.1209 189.291 39.273 188.837L39.0373 189.278C37.296 188.348 35.6593 187.252 34.1474 186.011L34.4646 185.625C32.971 184.399 31.6012 183.029 30.3754 181.535L29.9889 181.853C28.7481 180.341 27.6522 178.704 26.7216 176.963L27.1625 176.727C26.7093 175.879 26.296 175.006 25.9248 174.11L24.7894 171.369L24.3275 171.56L22.0567 166.078L22.5187 165.887L20.2479 160.405L19.786 160.596L17.5152 155.114L17.9772 154.923L15.7064 149.441L15.2445 149.632L12.9738 144.15L13.4357 143.958L11.1649 138.476L10.703 138.668L8.43229 133.186L8.89423 132.994L6.62348 127.512L6.16154 127.704L3.89079 122.222L4.35273 122.03L3.21736 119.289C2.84621 118.393 2.52108 117.483 2.24196 116.563L1.7635 116.709C1.1903 114.819 0.807867 112.887 0.616211 110.941L1.11381 110.892C0.924466 108.969 0.924467 107.031 1.11381 105.108L0.616213 105.059C0.80787 103.113 1.1903 101.181 1.7635 99.2915L2.24197 99.4366C2.52109 98.5166 2.84622 97.6068 3.21736 96.7108L4.35274 93.9698L3.8908 93.7785L6.16155 88.2964L6.62349 88.4877L8.89424 83.0056L8.4323 82.8143L10.703 77.3322L11.1649 77.5236L13.4357 72.0415L12.9738 71.8502L15.2445 66.3681L15.7064 66.5594L17.9772 61.0773L17.5153 60.886L19.786 55.4039L20.2479 55.5953L22.5187 50.1132L22.0568 49.9219L24.3275 44.4398L24.7894 44.6311L25.9248 41.8901C26.296 40.9941 26.7093 40.1209 27.1625 39.273L26.7216 39.0373C27.6522 37.296 28.7481 35.6593 29.9889 34.1474L30.3754 34.4646C31.6013 32.971 32.971 31.6012 34.4646 30.3754L34.1474 29.9889C35.6593 28.7481 37.296 27.6522 39.0373 26.7216L39.273 27.1625C40.1209 26.7093 40.9941 26.296 41.8901 25.9248L44.6311 24.7894L44.4398 24.3275L49.9219 22.0567L50.1132 22.5187L55.5953 20.2479L55.4039 19.786L60.886 17.5152L61.0774 17.9772L66.5594 15.7064L66.3681 15.2445L71.8502 12.9738L72.0415 13.4357L77.5236 11.1649L77.3322 10.703L82.8143 8.43223L83.0057 8.89417L88.4877 6.62342L88.2964 6.16148Z" fill="url(#paint0_linear_202_6)" stroke="#FAF9FB" stroke-dasharray="6 6"/>
<path d="M103.162 37.6774C103.695 37.6774 104.129 38.1122 104.129 38.6452H106.065C106.065 37.3863 105.252 36.3203 104.129 35.9196V34.7742H102.194V35.9196C101.071 36.3203 100.258 37.3863 100.258 38.6452C100.258 40.248 101.559 41.5484 103.162 41.5484C103.695 41.5484 104.129 41.9831 104.129 42.5161C104.129 43.0492 103.695 43.4839 103.162 43.4839C102.629 43.4839 102.194 43.0492 102.194 42.5161H100.258C100.258 43.775 101.071 44.841 102.194 45.2417V46.3871H104.129V45.2417C105.252 44.841 106.065 43.775 106.065 42.5161C106.065 40.9133 104.764 39.6129 103.162 39.6129C102.629 39.6129 102.194 39.1782 102.194 38.6452C102.194 38.1122 102.629 37.6774 103.162 37.6774Z" fill="#FDFAFA"/>
<path d="M103.161 33.8065C106.896 33.8065 109.936 36.8458 109.936 40.5806C109.936 42.0927 109.44 43.5255 108.507 44.7276L110.038 45.9184C111.236 44.3722 111.871 42.5275 111.871 40.5806C111.871 35.776 107.966 31.871 103.161 31.871C101.215 31.871 99.3698 32.5061 97.8237 33.7044L99.0145 35.2354C100.217 34.3017 101.649 33.8065 103.161 33.8065Z" fill="#FDFAFA"/>
<path d="M103.161 49.2903C105.108 49.2903 106.953 48.6552 108.499 47.4569L107.308 45.9259C106.106 46.8596 104.673 47.3548 103.161 47.3548C99.4265 47.3548 96.3871 44.3155 96.3871 40.5807C96.3871 39.0686 96.8824 37.6358 97.8161 36.4337L96.2851 35.243C95.0867 36.7891 94.4517 38.6338 94.4517 40.5807C94.4517 45.3853 98.3566 49.2903 103.161 49.2903Z" fill="#FDFAFA"/>
<path d="M124.452 58.9677V74.4516H122.516V58.9677H124.452ZM91.5487 72.5161H93.4842V74.4516H91.5487V72.5161ZM99.2906 68.6452H101.226V74.4516H99.2906V68.6452ZM107.033 66.7097H108.968V74.4516H107.033V66.7097ZM114.775 62.8387H116.71V74.4516H114.775V62.8387ZM120.581 74.4516H118.645V60.9032H112.839V74.4516H110.904V64.7742H105.097V74.4516H103.162V66.7097H97.3552V74.4516H95.4197V70.5806H89.6132V74.4516H87.6777V76.3871H128.323V74.4516H126.387V57.0323H120.581V74.4516Z" fill="#FDFAFA"/>
<path d="M126.387 53.1613H124.452V55.0968H126.387V53.1613Z" fill="#FDFAFA"/>
<path d="M126.387 49.2903H124.452V51.2258H126.387V49.2903Z" fill="#FDFAFA"/>
<path d="M136.065 83.1613C136.065 84.7641 134.764 86.0645 133.161 86.0645H82.8387C81.2359 86.0645 79.9355 84.7641 79.9355 83.1613V80.2581H99.2903V81.2258C99.2903 82.8286 100.591 84.129 102.194 84.129H113.806C115.409 84.129 116.71 82.8286 116.71 81.2258V80.2581H136.065V83.1613ZM81.871 46.3871C81.871 44.7843 83.1714 43.4839 84.7742 43.4839H90.9322C91.091 44.1492 91.2913 44.7994 91.5522 45.4194H85.7419C84.6759 45.4194 83.8065 46.2888 83.8065 47.3548V78.3226H81.871V46.3871ZM103.161 29.9355C109.032 29.9355 113.806 34.7099 113.806 40.5806C113.806 46.4514 109.032 51.2258 103.161 51.2258C97.2906 51.2258 92.5161 46.4514 92.5161 40.5806C92.5161 34.7099 97.2906 29.9355 103.161 29.9355ZM120.581 43.4839V45.4194H114.77C115.031 44.7994 115.232 44.1492 115.39 43.4839H120.581ZM101.226 80.2581H114.774V81.2258C114.774 81.7588 114.339 82.1935 113.806 82.1935H102.194C101.661 82.1935 101.226 81.7588 101.226 81.2258V80.2581ZM123.484 35.3564L125.34 37.6774H124.452V47.3548H130.258V78.3226H85.7419V47.3548H92.5766C94.8183 50.8402 98.7195 53.1613 103.161 53.1613C107.603 53.1613 111.504 50.8402 113.746 47.3548H120.581V55.0968H122.516V37.6774H121.628L123.484 35.3564ZM131.226 43.4839C132.829 43.4839 134.129 44.7843 134.129 46.3871V78.3226H132.194V47.3548C132.194 46.2888 131.324 45.4194 130.258 45.4194H126.387V43.4839H131.226ZM136.065 78.3226V46.3871C136.065 43.7182 133.895 41.5484 131.226 41.5484H126.387V39.6129H129.37L123.484 32.2566L117.598 39.6129H120.581V41.5484H115.693C115.715 41.2271 115.742 40.9095 115.742 40.5806C115.742 33.6439 110.098 28 103.161 28C96.2245 28 90.5806 33.6439 90.5806 40.5806C90.5806 40.9095 90.6071 41.2271 90.6298 41.5484H84.7742C82.1053 41.5484 79.9355 43.7182 79.9355 46.3871V78.3226H78V83.1613C78 85.8301 80.1699 88 82.8387 88H133.161C135.83 88 138 85.8301 138 83.1613V78.3226H136.065Z" fill="#FDFAFA"/>
<path d="M30.1069 124.85V126H24.46V124.85H30.1069ZM24.7456 115.336V126H23.332V115.336H24.7456ZM29.3599 119.921V121.071H24.46V119.921H29.3599ZM30.0337 115.336V116.493H24.46V115.336H30.0337ZM36.2666 123.898C36.2666 123.703 36.2227 123.522 36.1348 123.356C36.0518 123.185 35.8784 123.031 35.6147 122.895C35.356 122.753 34.9653 122.631 34.4429 122.528C34.0034 122.436 33.6055 122.326 33.249 122.199C32.8975 122.072 32.5972 121.918 32.3481 121.737C32.104 121.557 31.916 121.344 31.7842 121.1C31.6523 120.856 31.5864 120.57 31.5864 120.243C31.5864 119.931 31.6548 119.635 31.7915 119.357C31.9331 119.079 32.1309 118.832 32.3848 118.617C32.6436 118.402 32.9536 118.234 33.3149 118.112C33.6763 117.99 34.0791 117.929 34.5234 117.929C35.1582 117.929 35.7002 118.041 36.1494 118.266C36.5986 118.49 36.9429 118.791 37.1821 119.167C37.4214 119.538 37.541 119.95 37.541 120.404H36.186C36.186 120.185 36.1201 119.972 35.9883 119.767C35.8613 119.557 35.6733 119.384 35.4243 119.247C35.1802 119.11 34.8799 119.042 34.5234 119.042C34.1475 119.042 33.8423 119.101 33.6079 119.218C33.3784 119.33 33.21 119.474 33.1025 119.65C33 119.826 32.9487 120.011 32.9487 120.207C32.9487 120.353 32.9731 120.485 33.022 120.602C33.0757 120.714 33.1685 120.819 33.3003 120.917C33.4321 121.01 33.6177 121.098 33.8569 121.181C34.0962 121.264 34.4014 121.347 34.7725 121.43C35.4219 121.576 35.9565 121.752 36.3765 121.957C36.7964 122.162 37.1089 122.414 37.314 122.711C37.519 123.009 37.6216 123.371 37.6216 123.795C37.6216 124.142 37.5483 124.459 37.4019 124.748C37.2603 125.036 37.0527 125.285 36.7793 125.495C36.5107 125.7 36.1885 125.861 35.8125 125.978C35.4414 126.09 35.0239 126.146 34.5601 126.146C33.8618 126.146 33.271 126.022 32.7876 125.773C32.3042 125.524 31.938 125.202 31.689 124.806C31.4399 124.411 31.3154 123.993 31.3154 123.554H32.6777C32.6973 123.925 32.8047 124.22 33 124.44C33.1953 124.655 33.4346 124.809 33.7178 124.901C34.001 124.989 34.2817 125.033 34.5601 125.033C34.9312 125.033 35.2412 124.984 35.4902 124.887C35.7441 124.789 35.937 124.655 36.0688 124.484C36.2007 124.313 36.2666 124.118 36.2666 123.898ZM42.7192 118.075V119.115H38.4346V118.075H42.7192ZM39.8848 116.149H41.2397V124.037C41.2397 124.306 41.2812 124.508 41.3643 124.645C41.4473 124.782 41.5547 124.872 41.6865 124.916C41.8184 124.96 41.96 124.982 42.1113 124.982C42.2236 124.982 42.3408 124.972 42.4629 124.953C42.5898 124.928 42.6851 124.909 42.7485 124.894L42.7559 126C42.6484 126.034 42.5068 126.066 42.3311 126.095C42.1602 126.129 41.9526 126.146 41.7085 126.146C41.3765 126.146 41.0713 126.081 40.793 125.949C40.5146 125.817 40.2925 125.597 40.1265 125.29C39.9653 124.977 39.8848 124.557 39.8848 124.03V116.149ZM48.9814 124.645V120.565C48.9814 120.253 48.918 119.982 48.791 119.752C48.6689 119.518 48.4834 119.337 48.2344 119.21C47.9854 119.083 47.6777 119.02 47.3115 119.02C46.9697 119.02 46.6694 119.079 46.4106 119.196C46.1567 119.313 45.9565 119.467 45.8101 119.657C45.6685 119.848 45.5977 120.053 45.5977 120.272H44.2427C44.2427 119.989 44.3159 119.708 44.4624 119.43C44.6089 119.152 44.8188 118.9 45.0923 118.676C45.3706 118.446 45.7026 118.266 46.0884 118.134C46.479 117.997 46.9136 117.929 47.3921 117.929C47.9683 117.929 48.4761 118.026 48.9155 118.222C49.3599 118.417 49.7065 118.712 49.9556 119.108C50.2095 119.499 50.3364 119.989 50.3364 120.58V124.271C50.3364 124.535 50.3584 124.816 50.4023 125.114C50.4512 125.412 50.522 125.668 50.6147 125.883V126H49.2012C49.1328 125.844 49.0791 125.636 49.04 125.377C49.001 125.114 48.9814 124.87 48.9814 124.645ZM49.2158 121.195L49.2305 122.147H47.8608C47.4751 122.147 47.1309 122.179 46.8281 122.243C46.5254 122.301 46.2715 122.392 46.0664 122.514C45.8613 122.636 45.7051 122.79 45.5977 122.975C45.4902 123.156 45.4365 123.368 45.4365 123.612C45.4365 123.861 45.4927 124.088 45.605 124.293C45.7173 124.499 45.8857 124.662 46.1104 124.784C46.3398 124.901 46.6206 124.96 46.9526 124.96C47.3677 124.96 47.7339 124.872 48.0513 124.696C48.3687 124.521 48.6201 124.306 48.8057 124.052C48.9961 123.798 49.0986 123.551 49.1133 123.312L49.6919 123.964C49.6577 124.169 49.5649 124.396 49.4136 124.645C49.2622 124.894 49.0596 125.133 48.8057 125.363C48.5566 125.587 48.2588 125.775 47.9121 125.927C47.5703 126.073 47.1846 126.146 46.7549 126.146C46.2178 126.146 45.7466 126.042 45.3413 125.832C44.9409 125.622 44.6284 125.341 44.4038 124.989C44.1841 124.633 44.0742 124.235 44.0742 123.795C44.0742 123.371 44.1572 122.997 44.3232 122.675C44.4893 122.348 44.7285 122.077 45.041 121.862C45.3535 121.642 45.7295 121.476 46.1689 121.364C46.6084 121.251 47.0991 121.195 47.6411 121.195H49.2158ZM46.7915 116.903L48.2124 114.75H49.8457L47.8828 116.903H46.7915ZM59.3599 125.033C59.6821 125.033 59.98 124.967 60.2534 124.835C60.5269 124.704 60.7515 124.523 60.9272 124.293C61.103 124.059 61.2031 123.793 61.2275 123.495H62.5166C62.4922 123.964 62.3335 124.401 62.0405 124.806C61.7524 125.207 61.374 125.531 60.9053 125.78C60.4365 126.024 59.9214 126.146 59.3599 126.146C58.7642 126.146 58.2441 126.042 57.7998 125.832C57.3604 125.622 56.9941 125.333 56.7012 124.967C56.4131 124.601 56.1958 124.181 56.0493 123.708C55.9077 123.229 55.8369 122.724 55.8369 122.191V121.884C55.8369 121.352 55.9077 120.849 56.0493 120.375C56.1958 119.896 56.4131 119.474 56.7012 119.108C56.9941 118.742 57.3604 118.454 57.7998 118.244C58.2441 118.034 58.7642 117.929 59.3599 117.929C59.98 117.929 60.522 118.056 60.9858 118.31C61.4497 118.559 61.8135 118.9 62.0771 119.335C62.3457 119.765 62.4922 120.253 62.5166 120.8H61.2275C61.2031 120.473 61.1104 120.177 60.9492 119.914C60.793 119.65 60.5781 119.44 60.3047 119.284C60.0361 119.123 59.7212 119.042 59.3599 119.042C58.9448 119.042 58.5957 119.125 58.3125 119.291C58.0342 119.452 57.812 119.672 57.646 119.95C57.4849 120.224 57.3677 120.529 57.2944 120.866C57.2261 121.198 57.1919 121.537 57.1919 121.884V122.191C57.1919 122.538 57.2261 122.88 57.2944 123.217C57.3628 123.554 57.4775 123.859 57.6387 124.132C57.8047 124.406 58.0269 124.625 58.3052 124.792C58.5884 124.953 58.9399 125.033 59.3599 125.033ZM63.6812 122.125V121.957C63.6812 121.386 63.7642 120.856 63.9302 120.368C64.0962 119.875 64.3354 119.447 64.6479 119.086C64.9604 118.72 65.3389 118.437 65.7832 118.236C66.2275 118.031 66.7256 117.929 67.2773 117.929C67.834 117.929 68.3345 118.031 68.7788 118.236C69.228 118.437 69.6089 118.72 69.9214 119.086C70.2388 119.447 70.4805 119.875 70.6465 120.368C70.8125 120.856 70.8955 121.386 70.8955 121.957V122.125C70.8955 122.697 70.8125 123.227 70.6465 123.715C70.4805 124.203 70.2388 124.63 69.9214 124.997C69.6089 125.358 69.2305 125.641 68.7861 125.846C68.3467 126.046 67.8486 126.146 67.292 126.146C66.7354 126.146 66.2349 126.046 65.7905 125.846C65.3462 125.641 64.9653 125.358 64.6479 124.997C64.3354 124.63 64.0962 124.203 63.9302 123.715C63.7642 123.227 63.6812 122.697 63.6812 122.125ZM65.0361 121.957V122.125C65.0361 122.521 65.0825 122.895 65.1753 123.246C65.2681 123.593 65.4072 123.9 65.5928 124.169C65.7832 124.438 66.02 124.65 66.3032 124.806C66.5864 124.958 66.916 125.033 67.292 125.033C67.6631 125.033 67.9878 124.958 68.2661 124.806C68.5493 124.65 68.7837 124.438 68.9692 124.169C69.1548 123.9 69.2939 123.593 69.3867 123.246C69.4844 122.895 69.5332 122.521 69.5332 122.125V121.957C69.5332 121.566 69.4844 121.198 69.3867 120.851C69.2939 120.5 69.1523 120.189 68.9619 119.921C68.7764 119.647 68.542 119.433 68.2588 119.276C67.9805 119.12 67.6533 119.042 67.2773 119.042C66.9062 119.042 66.5791 119.12 66.2959 119.276C66.0176 119.433 65.7832 119.647 65.5928 119.921C65.4072 120.189 65.2681 120.5 65.1753 120.851C65.0825 121.198 65.0361 121.566 65.0361 121.957ZM73.9497 119.767V126H72.5947V118.075H73.8765L73.9497 119.767ZM73.6274 121.737L73.0635 121.715C73.0684 121.173 73.1489 120.673 73.3052 120.214C73.4614 119.75 73.6812 119.347 73.9644 119.005C74.2476 118.664 74.5845 118.4 74.9751 118.214C75.3706 118.024 75.8076 117.929 76.2861 117.929C76.6768 117.929 77.0283 117.982 77.3408 118.09C77.6533 118.192 77.9194 118.358 78.1392 118.588C78.3638 118.817 78.5347 119.115 78.6519 119.481C78.769 119.843 78.8276 120.285 78.8276 120.807V126H77.4653V120.792C77.4653 120.377 77.4043 120.045 77.2822 119.796C77.1602 119.542 76.9819 119.359 76.7476 119.247C76.5132 119.13 76.2251 119.071 75.8833 119.071C75.5464 119.071 75.2388 119.142 74.9604 119.284C74.687 119.425 74.4502 119.621 74.25 119.87C74.0547 120.119 73.9009 120.404 73.7886 120.727C73.6812 121.044 73.6274 121.381 73.6274 121.737ZM82.9072 126H81.5522V117.24C81.5522 116.669 81.6548 116.188 81.8599 115.797C82.0698 115.402 82.3701 115.104 82.7607 114.904C83.1514 114.699 83.6152 114.596 84.1523 114.596C84.3086 114.596 84.4648 114.606 84.6211 114.625C84.7822 114.645 84.9385 114.674 85.0898 114.713L85.0166 115.819C84.9141 115.795 84.7969 115.778 84.665 115.768C84.5381 115.758 84.4111 115.753 84.2842 115.753C83.9961 115.753 83.7471 115.812 83.5371 115.929C83.332 116.042 83.1758 116.208 83.0684 116.427C82.9609 116.647 82.9072 116.918 82.9072 117.24V126ZM84.5918 118.075V119.115H80.2998V118.075H84.5918ZM90.9492 124.169V118.075H92.3115V126H91.0151L90.9492 124.169ZM91.2056 122.499L91.7695 122.484C91.7695 123.012 91.7134 123.5 91.6011 123.949C91.4937 124.394 91.3179 124.779 91.0737 125.106C90.8296 125.434 90.5098 125.69 90.1143 125.875C89.7188 126.056 89.2378 126.146 88.6714 126.146C88.2856 126.146 87.9316 126.09 87.6094 125.978C87.292 125.866 87.0186 125.692 86.7891 125.458C86.5596 125.224 86.3813 124.918 86.2544 124.542C86.1323 124.167 86.0713 123.715 86.0713 123.188V118.075H87.4263V123.202C87.4263 123.559 87.4653 123.854 87.5435 124.088C87.6265 124.318 87.7363 124.501 87.873 124.638C88.0146 124.77 88.1709 124.862 88.3418 124.916C88.5176 124.97 88.6982 124.997 88.8838 124.997C89.46 124.997 89.9165 124.887 90.2534 124.667C90.5903 124.442 90.832 124.142 90.9785 123.766C91.1299 123.385 91.2056 122.963 91.2056 122.499ZM98.9912 123.898C98.9912 123.703 98.9473 123.522 98.8594 123.356C98.7764 123.185 98.603 123.031 98.3394 122.895C98.0806 122.753 97.6899 122.631 97.1675 122.528C96.728 122.436 96.3301 122.326 95.9736 122.199C95.6221 122.072 95.3218 121.918 95.0728 121.737C94.8286 121.557 94.6406 121.344 94.5088 121.1C94.377 120.856 94.311 120.57 94.311 120.243C94.311 119.931 94.3794 119.635 94.5161 119.357C94.6577 119.079 94.8555 118.832 95.1094 118.617C95.3682 118.402 95.6782 118.234 96.0396 118.112C96.4009 117.99 96.8037 117.929 97.248 117.929C97.8828 117.929 98.4248 118.041 98.874 118.266C99.3232 118.49 99.6675 118.791 99.9067 119.167C100.146 119.538 100.266 119.95 100.266 120.404H98.9106C98.9106 120.185 98.8447 119.972 98.7129 119.767C98.5859 119.557 98.3979 119.384 98.1489 119.247C97.9048 119.11 97.6045 119.042 97.248 119.042C96.8721 119.042 96.5669 119.101 96.3325 119.218C96.103 119.33 95.9346 119.474 95.8271 119.65C95.7246 119.826 95.6733 120.011 95.6733 120.207C95.6733 120.353 95.6978 120.485 95.7466 120.602C95.8003 120.714 95.8931 120.819 96.0249 120.917C96.1567 121.01 96.3423 121.098 96.5815 121.181C96.8208 121.264 97.126 121.347 97.4971 121.43C98.1465 121.576 98.6812 121.752 99.1011 121.957C99.521 122.162 99.8335 122.414 100.039 122.711C100.244 123.009 100.346 123.371 100.346 123.795C100.346 124.142 100.273 124.459 100.126 124.748C99.9849 125.036 99.7773 125.285 99.5039 125.495C99.2354 125.7 98.9131 125.861 98.5371 125.978C98.166 126.09 97.7485 126.146 97.2847 126.146C96.5864 126.146 95.9956 126.022 95.5122 125.773C95.0288 125.524 94.6626 125.202 94.4136 124.806C94.1646 124.411 94.04 123.993 94.04 123.554H95.4023C95.4219 123.925 95.5293 124.22 95.7246 124.44C95.9199 124.655 96.1592 124.809 96.4424 124.901C96.7256 124.989 97.0063 125.033 97.2847 125.033C97.6558 125.033 97.9658 124.984 98.2148 124.887C98.4688 124.789 98.6616 124.655 98.7935 124.484C98.9253 124.313 98.9912 124.118 98.9912 123.898ZM101.767 122.125V121.957C101.767 121.386 101.85 120.856 102.016 120.368C102.182 119.875 102.421 119.447 102.734 119.086C103.046 118.72 103.425 118.437 103.869 118.236C104.313 118.031 104.812 117.929 105.363 117.929C105.92 117.929 106.42 118.031 106.865 118.236C107.314 118.437 107.695 118.72 108.007 119.086C108.325 119.447 108.566 119.875 108.732 120.368C108.898 120.856 108.981 121.386 108.981 121.957V122.125C108.981 122.697 108.898 123.227 108.732 123.715C108.566 124.203 108.325 124.63 108.007 124.997C107.695 125.358 107.316 125.641 106.872 125.846C106.433 126.046 105.935 126.146 105.378 126.146C104.821 126.146 104.321 126.046 103.876 125.846C103.432 125.641 103.051 125.358 102.734 124.997C102.421 124.63 102.182 124.203 102.016 123.715C101.85 123.227 101.767 122.697 101.767 122.125ZM103.122 121.957V122.125C103.122 122.521 103.168 122.895 103.261 123.246C103.354 123.593 103.493 123.9 103.679 124.169C103.869 124.438 104.106 124.65 104.389 124.806C104.672 124.958 105.002 125.033 105.378 125.033C105.749 125.033 106.074 124.958 106.352 124.806C106.635 124.65 106.87 124.438 107.055 124.169C107.241 123.9 107.38 123.593 107.473 123.246C107.57 122.895 107.619 122.521 107.619 122.125V121.957C107.619 121.566 107.57 121.198 107.473 120.851C107.38 120.5 107.238 120.189 107.048 119.921C106.862 119.647 106.628 119.433 106.345 119.276C106.066 119.12 105.739 119.042 105.363 119.042C104.992 119.042 104.665 119.12 104.382 119.276C104.104 119.433 103.869 119.647 103.679 119.921C103.493 120.189 103.354 120.5 103.261 120.851C103.168 121.198 103.122 121.566 103.122 121.957ZM117.69 126.146C117.138 126.146 116.638 126.054 116.188 125.868C115.744 125.678 115.361 125.412 115.039 125.07C114.721 124.728 114.477 124.323 114.306 123.854C114.135 123.385 114.05 122.873 114.05 122.316V122.008C114.05 121.364 114.145 120.79 114.335 120.287C114.526 119.779 114.785 119.35 115.112 118.998C115.439 118.646 115.81 118.38 116.225 118.2C116.64 118.019 117.07 117.929 117.514 117.929C118.081 117.929 118.569 118.026 118.979 118.222C119.394 118.417 119.733 118.69 119.997 119.042C120.261 119.389 120.456 119.799 120.583 120.272C120.71 120.741 120.773 121.254 120.773 121.811V122.418H114.855V121.312H119.418V121.21C119.399 120.858 119.326 120.517 119.199 120.185C119.077 119.853 118.881 119.579 118.613 119.364C118.344 119.149 117.978 119.042 117.514 119.042C117.207 119.042 116.923 119.108 116.665 119.24C116.406 119.367 116.184 119.557 115.998 119.811C115.812 120.065 115.668 120.375 115.566 120.741C115.463 121.107 115.412 121.53 115.412 122.008V122.316C115.412 122.692 115.463 123.046 115.566 123.378C115.673 123.705 115.827 123.993 116.027 124.242C116.232 124.491 116.479 124.687 116.767 124.828C117.06 124.97 117.392 125.041 117.763 125.041C118.242 125.041 118.647 124.943 118.979 124.748C119.311 124.552 119.602 124.291 119.851 123.964L120.671 124.616C120.5 124.875 120.283 125.121 120.019 125.355C119.755 125.59 119.431 125.78 119.045 125.927C118.664 126.073 118.212 126.146 117.69 126.146ZM127.431 119.599V129.047H126.069V118.075H127.314L127.431 119.599ZM132.771 121.972V122.125C132.771 122.702 132.702 123.236 132.565 123.729C132.429 124.218 132.229 124.643 131.965 125.004C131.706 125.365 131.386 125.646 131.005 125.846C130.625 126.046 130.188 126.146 129.694 126.146C129.191 126.146 128.747 126.063 128.361 125.897C127.976 125.731 127.648 125.49 127.38 125.172C127.111 124.855 126.896 124.474 126.735 124.03C126.579 123.585 126.472 123.085 126.413 122.528V121.708C126.472 121.122 126.582 120.597 126.743 120.133C126.904 119.669 127.116 119.274 127.38 118.947C127.648 118.615 127.973 118.363 128.354 118.192C128.735 118.017 129.174 117.929 129.672 117.929C130.17 117.929 130.612 118.026 130.998 118.222C131.384 118.412 131.708 118.686 131.972 119.042C132.236 119.398 132.434 119.826 132.565 120.324C132.702 120.817 132.771 121.366 132.771 121.972ZM131.408 122.125V121.972C131.408 121.576 131.367 121.205 131.284 120.858C131.201 120.507 131.071 120.199 130.896 119.936C130.725 119.667 130.505 119.457 130.236 119.306C129.968 119.149 129.648 119.071 129.277 119.071C128.935 119.071 128.637 119.13 128.383 119.247C128.134 119.364 127.922 119.523 127.746 119.723C127.57 119.918 127.426 120.143 127.314 120.397C127.207 120.646 127.126 120.905 127.072 121.173V123.07C127.17 123.412 127.307 123.734 127.482 124.037C127.658 124.335 127.893 124.577 128.186 124.762C128.479 124.943 128.847 125.033 129.292 125.033C129.658 125.033 129.973 124.958 130.236 124.806C130.505 124.65 130.725 124.438 130.896 124.169C131.071 123.9 131.201 123.593 131.284 123.246C131.367 122.895 131.408 122.521 131.408 122.125ZM135.854 119.32V126H134.499V118.075H135.817L135.854 119.32ZM138.33 118.031L138.322 119.291C138.21 119.267 138.103 119.252 138 119.247C137.902 119.237 137.79 119.232 137.663 119.232C137.351 119.232 137.075 119.281 136.835 119.379C136.596 119.477 136.394 119.613 136.228 119.789C136.062 119.965 135.93 120.175 135.832 120.419C135.739 120.658 135.678 120.922 135.649 121.21L135.268 121.43C135.268 120.951 135.314 120.502 135.407 120.082C135.505 119.662 135.654 119.291 135.854 118.969C136.054 118.642 136.308 118.388 136.616 118.207C136.928 118.021 137.299 117.929 137.729 117.929C137.827 117.929 137.939 117.941 138.066 117.965C138.193 117.985 138.281 118.007 138.33 118.031ZM142.724 126.146C142.172 126.146 141.672 126.054 141.223 125.868C140.778 125.678 140.395 125.412 140.073 125.07C139.755 124.728 139.511 124.323 139.34 123.854C139.169 123.385 139.084 122.873 139.084 122.316V122.008C139.084 121.364 139.179 120.79 139.37 120.287C139.56 119.779 139.819 119.35 140.146 118.998C140.473 118.646 140.844 118.38 141.259 118.2C141.674 118.019 142.104 117.929 142.548 117.929C143.115 117.929 143.603 118.026 144.013 118.222C144.428 118.417 144.768 118.69 145.031 119.042C145.295 119.389 145.49 119.799 145.617 120.272C145.744 120.741 145.808 121.254 145.808 121.811V122.418H139.89V121.312H144.453V121.21C144.433 120.858 144.36 120.517 144.233 120.185C144.111 119.853 143.916 119.579 143.647 119.364C143.378 119.149 143.012 119.042 142.548 119.042C142.241 119.042 141.958 119.108 141.699 119.24C141.44 119.367 141.218 119.557 141.032 119.811C140.847 120.065 140.703 120.375 140.6 120.741C140.498 121.107 140.446 121.53 140.446 122.008V122.316C140.446 122.692 140.498 123.046 140.6 123.378C140.708 123.705 140.861 123.993 141.062 124.242C141.267 124.491 141.513 124.687 141.801 124.828C142.094 124.97 142.426 125.041 142.797 125.041C143.276 125.041 143.681 124.943 144.013 124.748C144.345 124.552 144.636 124.291 144.885 123.964L145.705 124.616C145.534 124.875 145.317 125.121 145.053 125.355C144.79 125.59 144.465 125.78 144.079 125.927C143.698 126.073 143.247 126.146 142.724 126.146ZM150.561 125.033C150.883 125.033 151.181 124.967 151.455 124.835C151.728 124.704 151.953 124.523 152.128 124.293C152.304 124.059 152.404 123.793 152.429 123.495H153.718C153.693 123.964 153.535 124.401 153.242 124.806C152.954 125.207 152.575 125.531 152.106 125.78C151.638 126.024 151.123 126.146 150.561 126.146C149.965 126.146 149.445 126.042 149.001 125.832C148.562 125.622 148.195 125.333 147.902 124.967C147.614 124.601 147.397 124.181 147.25 123.708C147.109 123.229 147.038 122.724 147.038 122.191V121.884C147.038 121.352 147.109 120.849 147.25 120.375C147.397 119.896 147.614 119.474 147.902 119.108C148.195 118.742 148.562 118.454 149.001 118.244C149.445 118.034 149.965 117.929 150.561 117.929C151.181 117.929 151.723 118.056 152.187 118.31C152.651 118.559 153.015 118.9 153.278 119.335C153.547 119.765 153.693 120.253 153.718 120.8H152.429C152.404 120.473 152.312 120.177 152.15 119.914C151.994 119.65 151.779 119.44 151.506 119.284C151.237 119.123 150.922 119.042 150.561 119.042C150.146 119.042 149.797 119.125 149.514 119.291C149.235 119.452 149.013 119.672 148.847 119.95C148.686 120.224 148.569 120.529 148.496 120.866C148.427 121.198 148.393 121.537 148.393 121.884V122.191C148.393 122.538 148.427 122.88 148.496 123.217C148.564 123.554 148.679 123.859 148.84 124.132C149.006 124.406 149.228 124.625 149.506 124.792C149.79 124.953 150.141 125.033 150.561 125.033ZM156.713 118.075V126H155.351V118.075H156.713ZM155.249 115.973C155.249 115.753 155.314 115.568 155.446 115.417C155.583 115.265 155.783 115.189 156.047 115.189C156.306 115.189 156.503 115.265 156.64 115.417C156.782 115.568 156.853 115.753 156.853 115.973C156.853 116.183 156.782 116.364 156.64 116.515C156.503 116.662 156.306 116.735 156.047 116.735C155.783 116.735 155.583 116.662 155.446 116.515C155.314 116.364 155.249 116.183 155.249 115.973ZM163.503 123.898C163.503 123.703 163.459 123.522 163.371 123.356C163.288 123.185 163.115 123.031 162.851 122.895C162.592 122.753 162.202 122.631 161.679 122.528C161.24 122.436 160.842 122.326 160.485 122.199C160.134 122.072 159.833 121.918 159.584 121.737C159.34 121.557 159.152 121.344 159.021 121.1C158.889 120.856 158.823 120.57 158.823 120.243C158.823 119.931 158.891 119.635 159.028 119.357C159.169 119.079 159.367 118.832 159.621 118.617C159.88 118.402 160.19 118.234 160.551 118.112C160.913 117.99 161.315 117.929 161.76 117.929C162.395 117.929 162.937 118.041 163.386 118.266C163.835 118.49 164.179 118.791 164.418 119.167C164.658 119.538 164.777 119.95 164.777 120.404H163.422C163.422 120.185 163.356 119.972 163.225 119.767C163.098 119.557 162.91 119.384 162.661 119.247C162.417 119.11 162.116 119.042 161.76 119.042C161.384 119.042 161.079 119.101 160.844 119.218C160.615 119.33 160.446 119.474 160.339 119.65C160.236 119.826 160.185 120.011 160.185 120.207C160.185 120.353 160.209 120.485 160.258 120.602C160.312 120.714 160.405 120.819 160.537 120.917C160.668 121.01 160.854 121.098 161.093 121.181C161.333 121.264 161.638 121.347 162.009 121.43C162.658 121.576 163.193 121.752 163.613 121.957C164.033 122.162 164.345 122.414 164.55 122.711C164.755 123.009 164.858 123.371 164.858 123.795C164.858 124.142 164.785 124.459 164.638 124.748C164.497 125.036 164.289 125.285 164.016 125.495C163.747 125.7 163.425 125.861 163.049 125.978C162.678 126.09 162.26 126.146 161.796 126.146C161.098 126.146 160.507 126.022 160.024 125.773C159.541 125.524 159.174 125.202 158.925 124.806C158.676 124.411 158.552 123.993 158.552 123.554H159.914C159.934 123.925 160.041 124.22 160.236 124.44C160.432 124.655 160.671 124.809 160.954 124.901C161.237 124.989 161.518 125.033 161.796 125.033C162.167 125.033 162.478 124.984 162.727 124.887C162.98 124.789 163.173 124.655 163.305 124.484C163.437 124.313 163.503 124.118 163.503 123.898ZM171.311 124.645V120.565C171.311 120.253 171.247 119.982 171.12 119.752C170.998 119.518 170.812 119.337 170.563 119.21C170.314 119.083 170.007 119.02 169.641 119.02C169.299 119.02 168.999 119.079 168.74 119.196C168.486 119.313 168.286 119.467 168.139 119.657C167.998 119.848 167.927 120.053 167.927 120.272H166.572C166.572 119.989 166.645 119.708 166.792 119.43C166.938 119.152 167.148 118.9 167.421 118.676C167.7 118.446 168.032 118.266 168.417 118.134C168.808 117.997 169.243 117.929 169.721 117.929C170.297 117.929 170.805 118.026 171.245 118.222C171.689 118.417 172.036 118.712 172.285 119.108C172.539 119.499 172.666 119.989 172.666 120.58V124.271C172.666 124.535 172.688 124.816 172.731 125.114C172.78 125.412 172.851 125.668 172.944 125.883V126H171.53C171.462 125.844 171.408 125.636 171.369 125.377C171.33 125.114 171.311 124.87 171.311 124.645ZM171.545 121.195L171.56 122.147H170.19C169.804 122.147 169.46 122.179 169.157 122.243C168.854 122.301 168.601 122.392 168.396 122.514C168.19 122.636 168.034 122.79 167.927 122.975C167.819 123.156 167.766 123.368 167.766 123.612C167.766 123.861 167.822 124.088 167.934 124.293C168.046 124.499 168.215 124.662 168.439 124.784C168.669 124.901 168.95 124.96 169.282 124.96C169.697 124.96 170.063 124.872 170.38 124.696C170.698 124.521 170.949 124.306 171.135 124.052C171.325 123.798 171.428 123.551 171.442 123.312L172.021 123.964C171.987 124.169 171.894 124.396 171.743 124.645C171.591 124.894 171.389 125.133 171.135 125.363C170.886 125.587 170.588 125.775 170.241 125.927C169.899 126.073 169.514 126.146 169.084 126.146C168.547 126.146 168.076 126.042 167.67 125.832C167.27 125.622 166.958 125.341 166.733 124.989C166.513 124.633 166.403 124.235 166.403 123.795C166.403 123.371 166.486 122.997 166.652 122.675C166.818 122.348 167.058 122.077 167.37 121.862C167.683 121.642 168.059 121.476 168.498 121.364C168.938 121.251 169.428 121.195 169.97 121.195H171.545ZM183.513 124.462V114.75H184.875V126H183.63L183.513 124.462ZM178.181 122.125V121.972C178.181 121.366 178.254 120.817 178.4 120.324C178.552 119.826 178.764 119.398 179.038 119.042C179.316 118.686 179.646 118.412 180.026 118.222C180.412 118.026 180.842 117.929 181.315 117.929C181.813 117.929 182.248 118.017 182.619 118.192C182.995 118.363 183.312 118.615 183.571 118.947C183.835 119.274 184.042 119.669 184.194 120.133C184.345 120.597 184.45 121.122 184.509 121.708V122.382C184.455 122.963 184.35 123.485 184.194 123.949C184.042 124.413 183.835 124.809 183.571 125.136C183.312 125.463 182.995 125.714 182.619 125.89C182.243 126.061 181.804 126.146 181.301 126.146C180.837 126.146 180.412 126.046 180.026 125.846C179.646 125.646 179.316 125.365 179.038 125.004C178.764 124.643 178.552 124.218 178.4 123.729C178.254 123.236 178.181 122.702 178.181 122.125ZM179.543 121.972V122.125C179.543 122.521 179.582 122.892 179.66 123.239C179.743 123.585 179.87 123.891 180.041 124.154C180.212 124.418 180.429 124.625 180.693 124.777C180.957 124.923 181.271 124.997 181.638 124.997C182.087 124.997 182.456 124.901 182.744 124.711C183.037 124.521 183.271 124.269 183.447 123.957C183.623 123.644 183.759 123.305 183.857 122.938V121.173C183.798 120.905 183.713 120.646 183.601 120.397C183.493 120.143 183.352 119.918 183.176 119.723C183.005 119.523 182.792 119.364 182.539 119.247C182.29 119.13 181.994 119.071 181.652 119.071C181.281 119.071 180.961 119.149 180.693 119.306C180.429 119.457 180.212 119.667 180.041 119.936C179.87 120.199 179.743 120.507 179.66 120.858C179.582 121.205 179.543 121.576 179.543 121.972ZM190.273 126.146C189.721 126.146 189.221 126.054 188.771 125.868C188.327 125.678 187.944 125.412 187.622 125.07C187.304 124.728 187.06 124.323 186.889 123.854C186.718 123.385 186.633 122.873 186.633 122.316V122.008C186.633 121.364 186.728 120.79 186.918 120.287C187.109 119.779 187.368 119.35 187.695 118.998C188.022 118.646 188.393 118.38 188.808 118.2C189.223 118.019 189.653 117.929 190.097 117.929C190.664 117.929 191.152 118.026 191.562 118.222C191.977 118.417 192.316 118.69 192.58 119.042C192.844 119.389 193.039 119.799 193.166 120.272C193.293 120.741 193.356 121.254 193.356 121.811V122.418H187.438V121.312H192.001V121.21C191.982 120.858 191.909 120.517 191.782 120.185C191.66 119.853 191.464 119.579 191.196 119.364C190.927 119.149 190.561 119.042 190.097 119.042C189.79 119.042 189.506 119.108 189.248 119.24C188.989 119.367 188.767 119.557 188.581 119.811C188.396 120.065 188.251 120.375 188.149 120.741C188.046 121.107 187.995 121.53 187.995 122.008V122.316C187.995 122.692 188.046 123.046 188.149 123.378C188.256 123.705 188.41 123.993 188.61 124.242C188.815 124.491 189.062 124.687 189.35 124.828C189.643 124.97 189.975 125.041 190.346 125.041C190.825 125.041 191.23 124.943 191.562 124.748C191.894 124.552 192.185 124.291 192.434 123.964L193.254 124.616C193.083 124.875 192.866 125.121 192.602 125.355C192.338 125.59 192.014 125.78 191.628 125.927C191.247 126.073 190.795 126.146 190.273 126.146ZM34.3989 148.033C34.7212 148.033 35.019 147.967 35.2925 147.835C35.5659 147.704 35.7905 147.523 35.9663 147.293C36.1421 147.059 36.2422 146.793 36.2666 146.495H37.5557C37.5312 146.964 37.3726 147.401 37.0796 147.806C36.7915 148.207 36.4131 148.531 35.9443 148.78C35.4756 149.024 34.9604 149.146 34.3989 149.146C33.8032 149.146 33.2832 149.042 32.8389 148.832C32.3994 148.622 32.0332 148.333 31.7402 147.967C31.4521 147.601 31.2349 147.181 31.0884 146.708C30.9468 146.229 30.876 145.724 30.876 145.191V144.884C30.876 144.352 30.9468 143.849 31.0884 143.375C31.2349 142.896 31.4521 142.474 31.7402 142.108C32.0332 141.742 32.3994 141.454 32.8389 141.244C33.2832 141.034 33.8032 140.929 34.3989 140.929C35.019 140.929 35.561 141.056 36.0249 141.31C36.4888 141.559 36.8525 141.9 37.1162 142.335C37.3848 142.765 37.5312 143.253 37.5557 143.8H36.2666C36.2422 143.473 36.1494 143.177 35.9883 142.914C35.832 142.65 35.6172 142.44 35.3438 142.284C35.0752 142.123 34.7603 142.042 34.3989 142.042C33.9839 142.042 33.6348 142.125 33.3516 142.291C33.0732 142.452 32.8511 142.672 32.6851 142.95C32.5239 143.224 32.4067 143.529 32.3335 143.866C32.2651 144.198 32.231 144.537 32.231 144.884V145.191C32.231 145.538 32.2651 145.88 32.3335 146.217C32.4019 146.554 32.5166 146.859 32.6777 147.132C32.8438 147.406 33.0659 147.625 33.3442 147.792C33.6274 147.953 33.979 148.033 34.3989 148.033ZM40.5513 137.75V149H39.189V137.75H40.5513ZM47.3994 147.645V143.565C47.3994 143.253 47.3359 142.982 47.209 142.752C47.0869 142.518 46.9014 142.337 46.6523 142.21C46.4033 142.083 46.0957 142.02 45.7295 142.02C45.3877 142.02 45.0874 142.079 44.8286 142.196C44.5747 142.313 44.3745 142.467 44.228 142.657C44.0864 142.848 44.0156 143.053 44.0156 143.272H42.6606C42.6606 142.989 42.7339 142.708 42.8804 142.43C43.0269 142.152 43.2368 141.9 43.5103 141.676C43.7886 141.446 44.1206 141.266 44.5063 141.134C44.897 140.997 45.3315 140.929 45.8101 140.929C46.3862 140.929 46.894 141.026 47.3335 141.222C47.7778 141.417 48.1245 141.712 48.3735 142.108C48.6274 142.499 48.7544 142.989 48.7544 143.58V147.271C48.7544 147.535 48.7764 147.816 48.8203 148.114C48.8691 148.412 48.9399 148.668 49.0327 148.883V149H47.6191C47.5508 148.844 47.4971 148.636 47.458 148.377C47.4189 148.114 47.3994 147.87 47.3994 147.645ZM47.6338 144.195L47.6484 145.147H46.2788C45.8931 145.147 45.5488 145.179 45.2461 145.243C44.9434 145.301 44.6895 145.392 44.4844 145.514C44.2793 145.636 44.123 145.79 44.0156 145.975C43.9082 146.156 43.8545 146.368 43.8545 146.612C43.8545 146.861 43.9106 147.088 44.0229 147.293C44.1353 147.499 44.3037 147.662 44.5283 147.784C44.7578 147.901 45.0386 147.96 45.3706 147.96C45.7856 147.96 46.1519 147.872 46.4692 147.696C46.7866 147.521 47.0381 147.306 47.2236 147.052C47.4141 146.798 47.5166 146.551 47.5312 146.312L48.1099 146.964C48.0757 147.169 47.9829 147.396 47.8315 147.645C47.6802 147.894 47.4775 148.133 47.2236 148.363C46.9746 148.587 46.6768 148.775 46.3301 148.927C45.9883 149.073 45.6025 149.146 45.1729 149.146C44.6357 149.146 44.1646 149.042 43.7593 148.832C43.3589 148.622 43.0464 148.341 42.8218 147.989C42.6021 147.633 42.4922 147.235 42.4922 146.795C42.4922 146.371 42.5752 145.997 42.7412 145.675C42.9072 145.348 43.1465 145.077 43.459 144.862C43.7715 144.642 44.1475 144.476 44.5869 144.364C45.0264 144.251 45.5171 144.195 46.0591 144.195H47.6338ZM52.2407 142.32V149H50.8857V141.075H52.2041L52.2407 142.32ZM54.7163 141.031L54.709 142.291C54.5967 142.267 54.4893 142.252 54.3867 142.247C54.2891 142.237 54.1768 142.232 54.0498 142.232C53.7373 142.232 53.4614 142.281 53.2222 142.379C52.9829 142.477 52.7803 142.613 52.6143 142.789C52.4482 142.965 52.3164 143.175 52.2188 143.419C52.126 143.658 52.0649 143.922 52.0356 144.21L51.6548 144.43C51.6548 143.951 51.7012 143.502 51.7939 143.082C51.8916 142.662 52.0405 142.291 52.2407 141.969C52.4409 141.642 52.6948 141.388 53.0024 141.207C53.3149 141.021 53.686 140.929 54.1157 140.929C54.2134 140.929 54.3257 140.941 54.4526 140.965C54.5796 140.985 54.6675 141.007 54.7163 141.031ZM59.1108 149.146C58.5591 149.146 58.0586 149.054 57.6094 148.868C57.165 148.678 56.7817 148.412 56.4595 148.07C56.1421 147.728 55.8979 147.323 55.7271 146.854C55.5562 146.385 55.4707 145.873 55.4707 145.316V145.008C55.4707 144.364 55.5659 143.79 55.7563 143.287C55.9468 142.779 56.2056 142.35 56.5327 141.998C56.8599 141.646 57.231 141.38 57.646 141.2C58.061 141.019 58.4907 140.929 58.9351 140.929C59.5015 140.929 59.9897 141.026 60.3999 141.222C60.8149 141.417 61.1543 141.69 61.418 142.042C61.6816 142.389 61.877 142.799 62.0039 143.272C62.1309 143.741 62.1943 144.254 62.1943 144.811V145.418H56.2764V144.312H60.8394V144.21C60.8198 143.858 60.7466 143.517 60.6196 143.185C60.4976 142.853 60.3022 142.579 60.0337 142.364C59.7651 142.149 59.3989 142.042 58.9351 142.042C58.6274 142.042 58.3442 142.108 58.0854 142.24C57.8267 142.367 57.6045 142.557 57.4189 142.811C57.2334 143.065 57.0894 143.375 56.9868 143.741C56.8843 144.107 56.833 144.53 56.833 145.008V145.316C56.833 145.692 56.8843 146.046 56.9868 146.378C57.0942 146.705 57.248 146.993 57.4482 147.242C57.6533 147.491 57.8999 147.687 58.188 147.828C58.481 147.97 58.813 148.041 59.1841 148.041C59.6626 148.041 60.0679 147.943 60.3999 147.748C60.7319 147.552 61.0225 147.291 61.2715 146.964L62.0918 147.616C61.9209 147.875 61.7036 148.121 61.4399 148.355C61.1763 148.59 60.8516 148.78 60.4658 148.927C60.085 149.073 59.6333 149.146 59.1108 149.146ZM69.6797 147.887V149H63.9155V147.887H69.6797ZM69.4673 142.035L64.2231 149H63.3955V148.004L68.603 141.075H69.4673V142.035ZM68.8667 141.075V142.196H63.4541V141.075H68.8667ZM75.8906 147.645V143.565C75.8906 143.253 75.8271 142.982 75.7002 142.752C75.5781 142.518 75.3926 142.337 75.1436 142.21C74.8945 142.083 74.5869 142.02 74.2207 142.02C73.8789 142.02 73.5786 142.079 73.3198 142.196C73.0659 142.313 72.8657 142.467 72.7192 142.657C72.5776 142.848 72.5068 143.053 72.5068 143.272H71.1519C71.1519 142.989 71.2251 142.708 71.3716 142.43C71.5181 142.152 71.728 141.9 72.0015 141.676C72.2798 141.446 72.6118 141.266 72.9976 141.134C73.3882 140.997 73.8228 140.929 74.3013 140.929C74.8774 140.929 75.3853 141.026 75.8247 141.222C76.269 141.417 76.6157 141.712 76.8647 142.108C77.1187 142.499 77.2456 142.989 77.2456 143.58V147.271C77.2456 147.535 77.2676 147.816 77.3115 148.114C77.3604 148.412 77.4312 148.668 77.5239 148.883V149H76.1104C76.042 148.844 75.9883 148.636 75.9492 148.377C75.9102 148.114 75.8906 147.87 75.8906 147.645ZM76.125 144.195L76.1396 145.147H74.77C74.3843 145.147 74.04 145.179 73.7373 145.243C73.4346 145.301 73.1807 145.392 72.9756 145.514C72.7705 145.636 72.6143 145.79 72.5068 145.975C72.3994 146.156 72.3457 146.368 72.3457 146.612C72.3457 146.861 72.4019 147.088 72.5142 147.293C72.6265 147.499 72.7949 147.662 73.0195 147.784C73.249 147.901 73.5298 147.96 73.8618 147.96C74.2769 147.96 74.6431 147.872 74.9604 147.696C75.2778 147.521 75.5293 147.306 75.7148 147.052C75.9053 146.798 76.0078 146.551 76.0225 146.312L76.6011 146.964C76.5669 147.169 76.4741 147.396 76.3228 147.645C76.1714 147.894 75.9688 148.133 75.7148 148.363C75.4658 148.587 75.168 148.775 74.8213 148.927C74.4795 149.073 74.0938 149.146 73.6641 149.146C73.127 149.146 72.6558 149.042 72.2505 148.832C71.8501 148.622 71.5376 148.341 71.313 147.989C71.0933 147.633 70.9834 147.235 70.9834 146.795C70.9834 146.371 71.0664 145.997 71.2324 145.675C71.3984 145.348 71.6377 145.077 71.9502 144.862C72.2627 144.642 72.6387 144.476 73.0781 144.364C73.5176 144.251 74.0083 144.195 74.5503 144.195H76.125ZM84.4526 142.599V152.047H83.0903V141.075H84.3354L84.4526 142.599ZM89.792 144.972V145.125C89.792 145.702 89.7236 146.236 89.5869 146.729C89.4502 147.218 89.25 147.643 88.9863 148.004C88.7275 148.365 88.4077 148.646 88.0269 148.846C87.646 149.046 87.209 149.146 86.7158 149.146C86.2129 149.146 85.7686 149.063 85.3828 148.897C84.9971 148.731 84.6699 148.49 84.4014 148.172C84.1328 147.855 83.918 147.474 83.7568 147.03C83.6006 146.585 83.4932 146.085 83.4346 145.528V144.708C83.4932 144.122 83.603 143.597 83.7642 143.133C83.9253 142.669 84.1377 142.274 84.4014 141.947C84.6699 141.615 84.9946 141.363 85.3755 141.192C85.7563 141.017 86.1958 140.929 86.6938 140.929C87.1919 140.929 87.6338 141.026 88.0195 141.222C88.4053 141.412 88.73 141.686 88.9937 142.042C89.2573 142.398 89.4551 142.826 89.5869 143.324C89.7236 143.817 89.792 144.366 89.792 144.972ZM88.4297 145.125V144.972C88.4297 144.576 88.3882 144.205 88.3052 143.858C88.2222 143.507 88.0928 143.199 87.917 142.936C87.7461 142.667 87.5264 142.457 87.2578 142.306C86.9893 142.149 86.6694 142.071 86.2983 142.071C85.9565 142.071 85.6587 142.13 85.4048 142.247C85.1558 142.364 84.9434 142.523 84.7676 142.723C84.5918 142.918 84.4478 143.143 84.3354 143.397C84.228 143.646 84.1475 143.905 84.0938 144.173V146.07C84.1914 146.412 84.3281 146.734 84.5039 147.037C84.6797 147.335 84.9141 147.577 85.207 147.762C85.5 147.943 85.8687 148.033 86.313 148.033C86.6792 148.033 86.9941 147.958 87.2578 147.806C87.5264 147.65 87.7461 147.438 87.917 147.169C88.0928 146.9 88.2222 146.593 88.3052 146.246C88.3882 145.895 88.4297 145.521 88.4297 145.125ZM96.1934 147.645V143.565C96.1934 143.253 96.1299 142.982 96.0029 142.752C95.8809 142.518 95.6953 142.337 95.4463 142.21C95.1973 142.083 94.8896 142.02 94.5234 142.02C94.1816 142.02 93.8813 142.079 93.6226 142.196C93.3687 142.313 93.1685 142.467 93.022 142.657C92.8804 142.848 92.8096 143.053 92.8096 143.272H91.4546C91.4546 142.989 91.5278 142.708 91.6743 142.43C91.8208 142.152 92.0308 141.9 92.3042 141.676C92.5825 141.446 92.9146 141.266 93.3003 141.134C93.6909 140.997 94.1255 140.929 94.604 140.929C95.1802 140.929 95.688 141.026 96.1274 141.222C96.5718 141.417 96.9185 141.712 97.1675 142.108C97.4214 142.499 97.5483 142.989 97.5483 143.58V147.271C97.5483 147.535 97.5703 147.816 97.6143 148.114C97.6631 148.412 97.7339 148.668 97.8267 148.883V149H96.4131C96.3447 148.844 96.291 148.636 96.252 148.377C96.2129 148.114 96.1934 147.87 96.1934 147.645ZM96.4277 144.195L96.4424 145.147H95.0728C94.687 145.147 94.3428 145.179 94.04 145.243C93.7373 145.301 93.4834 145.392 93.2783 145.514C93.0732 145.636 92.917 145.79 92.8096 145.975C92.7021 146.156 92.6484 146.368 92.6484 146.612C92.6484 146.861 92.7046 147.088 92.8169 147.293C92.9292 147.499 93.0977 147.662 93.3223 147.784C93.5518 147.901 93.8325 147.96 94.1646 147.96C94.5796 147.96 94.9458 147.872 95.2632 147.696C95.5806 147.521 95.832 147.306 96.0176 147.052C96.208 146.798 96.3105 146.551 96.3252 146.312L96.9038 146.964C96.8696 147.169 96.7769 147.396 96.6255 147.645C96.4741 147.894 96.2715 148.133 96.0176 148.363C95.7686 148.587 95.4707 148.775 95.124 148.927C94.7822 149.073 94.3965 149.146 93.9668 149.146C93.4297 149.146 92.9585 149.042 92.5532 148.832C92.1528 148.622 91.8403 148.341 91.6157 147.989C91.396 147.633 91.2861 147.235 91.2861 146.795C91.2861 146.371 91.3691 145.997 91.5352 145.675C91.7012 145.348 91.9404 145.077 92.2529 144.862C92.5654 144.642 92.9414 144.476 93.3809 144.364C93.8203 144.251 94.311 144.195 94.853 144.195H96.4277ZM101.035 142.32V149H99.6797V141.075H100.998L101.035 142.32ZM103.51 141.031L103.503 142.291C103.391 142.267 103.283 142.252 103.181 142.247C103.083 142.237 102.971 142.232 102.844 142.232C102.531 142.232 102.255 142.281 102.016 142.379C101.777 142.477 101.574 142.613 101.408 142.789C101.242 142.965 101.11 143.175 101.013 143.419C100.92 143.658 100.859 143.922 100.83 144.21L100.449 144.43C100.449 143.951 100.495 143.502 100.588 143.082C100.686 142.662 100.834 142.291 101.035 141.969C101.235 141.642 101.489 141.388 101.796 141.207C102.109 141.021 102.48 140.929 102.91 140.929C103.007 140.929 103.12 140.941 103.247 140.965C103.374 140.985 103.461 141.007 103.51 141.031ZM109.143 147.645V143.565C109.143 143.253 109.079 142.982 108.952 142.752C108.83 142.518 108.645 142.337 108.396 142.21C108.146 142.083 107.839 142.02 107.473 142.02C107.131 142.02 106.831 142.079 106.572 142.196C106.318 142.313 106.118 142.467 105.971 142.657C105.83 142.848 105.759 143.053 105.759 143.272H104.404C104.404 142.989 104.477 142.708 104.624 142.43C104.77 142.152 104.98 141.9 105.253 141.676C105.532 141.446 105.864 141.266 106.25 141.134C106.64 140.997 107.075 140.929 107.553 140.929C108.129 140.929 108.637 141.026 109.077 141.222C109.521 141.417 109.868 141.712 110.117 142.108C110.371 142.499 110.498 142.989 110.498 143.58V147.271C110.498 147.535 110.52 147.816 110.563 148.114C110.612 148.412 110.683 148.668 110.776 148.883V149H109.362C109.294 148.844 109.24 148.636 109.201 148.377C109.162 148.114 109.143 147.87 109.143 147.645ZM109.377 144.195L109.392 145.147H108.022C107.636 145.147 107.292 145.179 106.989 145.243C106.687 145.301 106.433 145.392 106.228 145.514C106.022 145.636 105.866 145.79 105.759 145.975C105.651 146.156 105.598 146.368 105.598 146.612C105.598 146.861 105.654 147.088 105.766 147.293C105.878 147.499 106.047 147.662 106.271 147.784C106.501 147.901 106.782 147.96 107.114 147.96C107.529 147.96 107.895 147.872 108.212 147.696C108.53 147.521 108.781 147.306 108.967 147.052C109.157 146.798 109.26 146.551 109.274 146.312L109.853 146.964C109.819 147.169 109.726 147.396 109.575 147.645C109.423 147.894 109.221 148.133 108.967 148.363C108.718 148.587 108.42 148.775 108.073 148.927C107.731 149.073 107.346 149.146 106.916 149.146C106.379 149.146 105.908 149.042 105.502 148.832C105.102 148.622 104.79 148.341 104.565 147.989C104.345 147.633 104.235 147.235 104.235 146.795C104.235 146.371 104.318 145.997 104.484 145.675C104.65 145.348 104.89 145.077 105.202 144.862C105.515 144.642 105.891 144.476 106.33 144.364C106.77 144.251 107.26 144.195 107.802 144.195H109.377ZM119.521 148.033C119.843 148.033 120.141 147.967 120.415 147.835C120.688 147.704 120.913 147.523 121.088 147.293C121.264 147.059 121.364 146.793 121.389 146.495H122.678C122.653 146.964 122.495 147.401 122.202 147.806C121.914 148.207 121.535 148.531 121.066 148.78C120.598 149.024 120.083 149.146 119.521 149.146C118.925 149.146 118.405 149.042 117.961 148.832C117.521 148.622 117.155 148.333 116.862 147.967C116.574 147.601 116.357 147.181 116.21 146.708C116.069 146.229 115.998 145.724 115.998 145.191V144.884C115.998 144.352 116.069 143.849 116.21 143.375C116.357 142.896 116.574 142.474 116.862 142.108C117.155 141.742 117.521 141.454 117.961 141.244C118.405 141.034 118.925 140.929 119.521 140.929C120.141 140.929 120.683 141.056 121.147 141.31C121.611 141.559 121.975 141.9 122.238 142.335C122.507 142.765 122.653 143.253 122.678 143.8H121.389C121.364 143.473 121.271 143.177 121.11 142.914C120.954 142.65 120.739 142.44 120.466 142.284C120.197 142.123 119.882 142.042 119.521 142.042C119.106 142.042 118.757 142.125 118.474 142.291C118.195 142.452 117.973 142.672 117.807 142.95C117.646 143.224 117.529 143.529 117.456 143.866C117.387 144.198 117.353 144.537 117.353 144.884V145.191C117.353 145.538 117.387 145.88 117.456 146.217C117.524 146.554 117.639 146.859 117.8 147.132C117.966 147.406 118.188 147.625 118.466 147.792C118.75 147.953 119.101 148.033 119.521 148.033ZM123.842 145.125V144.957C123.842 144.386 123.925 143.856 124.091 143.368C124.257 142.875 124.497 142.447 124.809 142.086C125.122 141.72 125.5 141.437 125.944 141.236C126.389 141.031 126.887 140.929 127.438 140.929C127.995 140.929 128.496 141.031 128.94 141.236C129.389 141.437 129.77 141.72 130.083 142.086C130.4 142.447 130.642 142.875 130.808 143.368C130.974 143.856 131.057 144.386 131.057 144.957V145.125C131.057 145.697 130.974 146.227 130.808 146.715C130.642 147.203 130.4 147.63 130.083 147.997C129.77 148.358 129.392 148.641 128.947 148.846C128.508 149.046 128.01 149.146 127.453 149.146C126.896 149.146 126.396 149.046 125.952 148.846C125.507 148.641 125.126 148.358 124.809 147.997C124.497 147.63 124.257 147.203 124.091 146.715C123.925 146.227 123.842 145.697 123.842 145.125ZM125.197 144.957V145.125C125.197 145.521 125.244 145.895 125.336 146.246C125.429 146.593 125.568 146.9 125.754 147.169C125.944 147.438 126.181 147.65 126.464 147.806C126.748 147.958 127.077 148.033 127.453 148.033C127.824 148.033 128.149 147.958 128.427 147.806C128.71 147.65 128.945 147.438 129.13 147.169C129.316 146.9 129.455 146.593 129.548 146.246C129.646 145.895 129.694 145.521 129.694 145.125V144.957C129.694 144.566 129.646 144.198 129.548 143.851C129.455 143.5 129.313 143.189 129.123 142.921C128.938 142.647 128.703 142.433 128.42 142.276C128.142 142.12 127.814 142.042 127.438 142.042C127.067 142.042 126.74 142.12 126.457 142.276C126.179 142.433 125.944 142.647 125.754 142.921C125.568 143.189 125.429 143.5 125.336 143.851C125.244 144.198 125.197 144.566 125.197 144.957ZM134.104 142.65V149H132.741V141.075H134.03L134.104 142.65ZM133.825 144.737L133.195 144.715C133.2 144.173 133.271 143.673 133.408 143.214C133.544 142.75 133.747 142.347 134.016 142.005C134.284 141.664 134.619 141.4 135.019 141.214C135.419 141.024 135.883 140.929 136.411 140.929C136.782 140.929 137.124 140.982 137.436 141.09C137.749 141.192 138.02 141.356 138.249 141.581C138.479 141.805 138.657 142.093 138.784 142.445C138.911 142.796 138.974 143.221 138.974 143.719V149H137.619V143.785C137.619 143.37 137.548 143.038 137.407 142.789C137.27 142.54 137.075 142.359 136.821 142.247C136.567 142.13 136.269 142.071 135.927 142.071C135.527 142.071 135.192 142.142 134.924 142.284C134.655 142.425 134.44 142.621 134.279 142.87C134.118 143.119 134.001 143.404 133.928 143.727C133.859 144.044 133.825 144.381 133.825 144.737ZM138.959 143.99L138.051 144.269C138.056 143.834 138.127 143.417 138.264 143.016C138.405 142.616 138.608 142.259 138.872 141.947C139.14 141.634 139.47 141.388 139.86 141.207C140.251 141.021 140.698 140.929 141.201 140.929C141.625 140.929 142.001 140.985 142.329 141.097C142.661 141.209 142.939 141.383 143.164 141.617C143.393 141.847 143.566 142.142 143.684 142.503C143.801 142.865 143.859 143.294 143.859 143.792V149H142.497V143.778C142.497 143.333 142.426 142.989 142.285 142.745C142.148 142.496 141.953 142.323 141.699 142.225C141.45 142.123 141.152 142.071 140.805 142.071C140.507 142.071 140.244 142.123 140.014 142.225C139.785 142.328 139.592 142.469 139.436 142.65C139.279 142.826 139.16 143.028 139.077 143.258C138.999 143.487 138.959 143.731 138.959 143.99ZM149.199 149.146C148.647 149.146 148.146 149.054 147.697 148.868C147.253 148.678 146.87 148.412 146.547 148.07C146.23 147.728 145.986 147.323 145.815 146.854C145.644 146.385 145.559 145.873 145.559 145.316V145.008C145.559 144.364 145.654 143.79 145.844 143.287C146.035 142.779 146.293 142.35 146.621 141.998C146.948 141.646 147.319 141.38 147.734 141.2C148.149 141.019 148.579 140.929 149.023 140.929C149.589 140.929 150.078 141.026 150.488 141.222C150.903 141.417 151.242 141.69 151.506 142.042C151.77 142.389 151.965 142.799 152.092 143.272C152.219 143.741 152.282 144.254 152.282 144.811V145.418H146.364V144.312H150.927V144.21C150.908 143.858 150.834 143.517 150.708 143.185C150.585 142.853 150.39 142.579 150.122 142.364C149.853 142.149 149.487 142.042 149.023 142.042C148.715 142.042 148.432 142.108 148.173 142.24C147.915 142.367 147.692 142.557 147.507 142.811C147.321 143.065 147.177 143.375 147.075 143.741C146.972 144.107 146.921 144.53 146.921 145.008V145.316C146.921 145.692 146.972 146.046 147.075 146.378C147.182 146.705 147.336 146.993 147.536 147.242C147.741 147.491 147.988 147.687 148.276 147.828C148.569 147.97 148.901 148.041 149.272 148.041C149.75 148.041 150.156 147.943 150.488 147.748C150.82 147.552 151.11 147.291 151.359 146.964L152.18 147.616C152.009 147.875 151.792 148.121 151.528 148.355C151.264 148.59 150.939 148.78 150.554 148.927C150.173 149.073 149.721 149.146 149.199 149.146ZM157.036 148.033C157.358 148.033 157.656 147.967 157.929 147.835C158.203 147.704 158.427 147.523 158.603 147.293C158.779 147.059 158.879 146.793 158.903 146.495H160.192C160.168 146.964 160.009 147.401 159.716 147.806C159.428 148.207 159.05 148.531 158.581 148.78C158.112 149.024 157.597 149.146 157.036 149.146C156.44 149.146 155.92 149.042 155.476 148.832C155.036 148.622 154.67 148.333 154.377 147.967C154.089 147.601 153.872 147.181 153.725 146.708C153.583 146.229 153.513 145.724 153.513 145.191V144.884C153.513 144.352 153.583 143.849 153.725 143.375C153.872 142.896 154.089 142.474 154.377 142.108C154.67 141.742 155.036 141.454 155.476 141.244C155.92 141.034 156.44 140.929 157.036 140.929C157.656 140.929 158.198 141.056 158.662 141.31C159.125 141.559 159.489 141.9 159.753 142.335C160.021 142.765 160.168 143.253 160.192 143.8H158.903C158.879 143.473 158.786 143.177 158.625 142.914C158.469 142.65 158.254 142.44 157.98 142.284C157.712 142.123 157.397 142.042 157.036 142.042C156.621 142.042 156.271 142.125 155.988 142.291C155.71 142.452 155.488 142.672 155.322 142.95C155.161 143.224 155.043 143.529 154.97 143.866C154.902 144.198 154.868 144.537 154.868 144.884V145.191C154.868 145.538 154.902 145.88 154.97 146.217C155.039 146.554 155.153 146.859 155.314 147.132C155.48 147.406 155.703 147.625 155.981 147.792C156.264 147.953 156.616 148.033 157.036 148.033ZM156.289 149.073H157.263L157.175 149.461C157.458 149.51 157.714 149.627 157.944 149.813C158.178 149.999 158.295 150.304 158.295 150.729C158.295 150.958 158.247 151.166 158.149 151.351C158.056 151.542 157.917 151.703 157.731 151.834C157.546 151.971 157.314 152.076 157.036 152.149C156.762 152.223 156.442 152.259 156.076 152.259L156.025 151.476C156.25 151.476 156.452 151.451 156.633 151.402C156.818 151.354 156.965 151.275 157.072 151.168C157.185 151.061 157.241 150.921 157.241 150.75C157.241 150.589 157.199 150.462 157.116 150.37C157.033 150.277 156.904 150.206 156.728 150.157C156.557 150.113 156.335 150.082 156.062 150.062L156.289 149.073ZM166.389 147.645V143.565C166.389 143.253 166.325 142.982 166.198 142.752C166.076 142.518 165.891 142.337 165.642 142.21C165.393 142.083 165.085 142.02 164.719 142.02C164.377 142.02 164.077 142.079 163.818 142.196C163.564 142.313 163.364 142.467 163.217 142.657C163.076 142.848 163.005 143.053 163.005 143.272H161.65C161.65 142.989 161.723 142.708 161.87 142.43C162.016 142.152 162.226 141.9 162.5 141.676C162.778 141.446 163.11 141.266 163.496 141.134C163.886 140.997 164.321 140.929 164.799 140.929C165.375 140.929 165.883 141.026 166.323 141.222C166.767 141.417 167.114 141.712 167.363 142.108C167.617 142.499 167.744 142.989 167.744 143.58V147.271C167.744 147.535 167.766 147.816 167.81 148.114C167.858 148.412 167.929 148.668 168.022 148.883V149H166.608C166.54 148.844 166.486 148.636 166.447 148.377C166.408 148.114 166.389 147.87 166.389 147.645ZM166.623 144.195L166.638 145.147H165.268C164.882 145.147 164.538 145.179 164.235 145.243C163.933 145.301 163.679 145.392 163.474 145.514C163.269 145.636 163.112 145.79 163.005 145.975C162.897 146.156 162.844 146.368 162.844 146.612C162.844 146.861 162.9 147.088 163.012 147.293C163.125 147.499 163.293 147.662 163.518 147.784C163.747 147.901 164.028 147.96 164.36 147.96C164.775 147.96 165.141 147.872 165.458 147.696C165.776 147.521 166.027 147.306 166.213 147.052C166.403 146.798 166.506 146.551 166.521 146.312L167.099 146.964C167.065 147.169 166.972 147.396 166.821 147.645C166.669 147.894 166.467 148.133 166.213 148.363C165.964 148.587 165.666 148.775 165.319 148.927C164.978 149.073 164.592 149.146 164.162 149.146C163.625 149.146 163.154 149.042 162.749 148.832C162.348 148.622 162.036 148.341 161.811 147.989C161.591 147.633 161.481 147.235 161.481 146.795C161.481 146.371 161.564 145.997 161.73 145.675C161.896 145.348 162.136 145.077 162.448 144.862C162.761 144.642 163.137 144.476 163.576 144.364C164.016 144.251 164.506 144.195 165.048 144.195H166.623ZM171.23 142.32V149H169.875V141.075H171.193L171.23 142.32ZM173.706 141.031L173.698 142.291C173.586 142.267 173.479 142.252 173.376 142.247C173.278 142.237 173.166 142.232 173.039 142.232C172.727 142.232 172.451 142.281 172.211 142.379C171.972 142.477 171.77 142.613 171.604 142.789C171.438 142.965 171.306 143.175 171.208 143.419C171.115 143.658 171.054 143.922 171.025 144.21L170.644 144.43C170.644 143.951 170.69 143.502 170.783 143.082C170.881 142.662 171.03 142.291 171.23 141.969C171.43 141.642 171.684 141.388 171.992 141.207C172.304 141.021 172.675 140.929 173.105 140.929C173.203 140.929 173.315 140.941 173.442 140.965C173.569 140.985 173.657 141.007 173.706 141.031ZM183.352 147.645V143.565C183.352 143.253 183.288 142.982 183.161 142.752C183.039 142.518 182.854 142.337 182.604 142.21C182.355 142.083 182.048 142.02 181.682 142.02C181.34 142.02 181.04 142.079 180.781 142.196C180.527 142.313 180.327 142.467 180.18 142.657C180.039 142.848 179.968 143.053 179.968 143.272H178.613C178.613 142.989 178.686 142.708 178.833 142.43C178.979 142.152 179.189 141.9 179.462 141.676C179.741 141.446 180.073 141.266 180.458 141.134C180.849 140.997 181.284 140.929 181.762 140.929C182.338 140.929 182.846 141.026 183.286 141.222C183.73 141.417 184.077 141.712 184.326 142.108C184.58 142.499 184.707 142.989 184.707 143.58V147.271C184.707 147.535 184.729 147.816 184.772 148.114C184.821 148.412 184.892 148.668 184.985 148.883V149H183.571C183.503 148.844 183.449 148.636 183.41 148.377C183.371 148.114 183.352 147.87 183.352 147.645ZM183.586 144.195L183.601 145.147H182.231C181.845 145.147 181.501 145.179 181.198 145.243C180.896 145.301 180.642 145.392 180.437 145.514C180.231 145.636 180.075 145.79 179.968 145.975C179.86 146.156 179.807 146.368 179.807 146.612C179.807 146.861 179.863 147.088 179.975 147.293C180.087 147.499 180.256 147.662 180.48 147.784C180.71 147.901 180.991 147.96 181.323 147.96C181.738 147.96 182.104 147.872 182.421 147.696C182.739 147.521 182.99 147.306 183.176 147.052C183.366 146.798 183.469 146.551 183.483 146.312L184.062 146.964C184.028 147.169 183.935 147.396 183.784 147.645C183.632 147.894 183.43 148.133 183.176 148.363C182.927 148.587 182.629 148.775 182.282 148.927C181.94 149.073 181.555 149.146 181.125 149.146C180.588 149.146 180.117 149.042 179.711 148.832C179.311 148.622 178.999 148.341 178.774 147.989C178.554 147.633 178.444 147.235 178.444 146.795C178.444 146.371 178.527 145.997 178.693 145.675C178.859 145.348 179.099 145.077 179.411 144.862C179.724 144.642 180.1 144.476 180.539 144.364C180.979 144.251 181.469 144.195 182.011 144.195H183.586ZM32.9561 164.075V172H31.5938V164.075H32.9561ZM31.4912 161.973C31.4912 161.753 31.5571 161.568 31.689 161.417C31.8257 161.265 32.0259 161.189 32.2896 161.189C32.5483 161.189 32.7461 161.265 32.8828 161.417C33.0244 161.568 33.0952 161.753 33.0952 161.973C33.0952 162.183 33.0244 162.364 32.8828 162.515C32.7461 162.662 32.5483 162.735 32.2896 162.735C32.0259 162.735 31.8257 162.662 31.689 162.515C31.5571 162.364 31.4912 162.183 31.4912 161.973ZM36.4863 165.767V172H35.1313V164.075H36.4131L36.4863 165.767ZM36.1641 167.737L35.6001 167.715C35.605 167.173 35.6855 166.673 35.8418 166.214C35.998 165.75 36.2178 165.347 36.501 165.005C36.7842 164.664 37.1211 164.4 37.5117 164.214C37.9072 164.024 38.3442 163.929 38.8228 163.929C39.2134 163.929 39.5649 163.982 39.8774 164.09C40.1899 164.192 40.4561 164.358 40.6758 164.588C40.9004 164.817 41.0713 165.115 41.1885 165.481C41.3057 165.843 41.3643 166.285 41.3643 166.807V172H40.002V166.792C40.002 166.377 39.9409 166.045 39.8188 165.796C39.6968 165.542 39.5186 165.359 39.2842 165.247C39.0498 165.13 38.7617 165.071 38.4199 165.071C38.083 165.071 37.7754 165.142 37.4971 165.284C37.2236 165.425 36.9868 165.621 36.7866 165.87C36.5913 166.119 36.4375 166.404 36.3252 166.727C36.2178 167.044 36.1641 167.381 36.1641 167.737ZM45.832 170.777L48 164.075H49.3843L46.5352 172H45.627L45.832 170.777ZM44.0229 164.075L46.2568 170.813L46.4106 172H45.5024L42.6313 164.075H44.0229ZM53.874 172.146C53.3223 172.146 52.8218 172.054 52.3726 171.868C51.9282 171.678 51.5449 171.412 51.2227 171.07C50.9053 170.728 50.6611 170.323 50.4902 169.854C50.3193 169.385 50.2339 168.873 50.2339 168.316V168.008C50.2339 167.364 50.3291 166.79 50.5195 166.287C50.71 165.779 50.9688 165.35 51.2959 164.998C51.623 164.646 51.9941 164.38 52.4092 164.2C52.8242 164.019 53.2539 163.929 53.6982 163.929C54.2646 163.929 54.7529 164.026 55.1631 164.222C55.5781 164.417 55.9175 164.69 56.1812 165.042C56.4448 165.389 56.6401 165.799 56.7671 166.272C56.894 166.741 56.9575 167.254 56.9575 167.811V168.418H51.0396V167.312H55.6025V167.21C55.583 166.858 55.5098 166.517 55.3828 166.185C55.2607 165.853 55.0654 165.579 54.7969 165.364C54.5283 165.149 54.1621 165.042 53.6982 165.042C53.3906 165.042 53.1074 165.108 52.8486 165.24C52.5898 165.367 52.3677 165.557 52.1821 165.811C51.9966 166.065 51.8525 166.375 51.75 166.741C51.6475 167.107 51.5962 167.53 51.5962 168.008V168.316C51.5962 168.692 51.6475 169.046 51.75 169.378C51.8574 169.705 52.0112 169.993 52.2114 170.242C52.4165 170.491 52.6631 170.687 52.9512 170.828C53.2441 170.97 53.5762 171.041 53.9473 171.041C54.4258 171.041 54.8311 170.943 55.1631 170.748C55.4951 170.552 55.7856 170.291 56.0347 169.964L56.855 170.616C56.6841 170.875 56.4668 171.121 56.2031 171.355C55.9395 171.59 55.6147 171.78 55.229 171.927C54.8481 172.073 54.3965 172.146 53.874 172.146ZM63.1538 169.898C63.1538 169.703 63.1099 169.522 63.022 169.356C62.939 169.185 62.7656 169.031 62.502 168.895C62.2432 168.753 61.8525 168.631 61.3301 168.528C60.8906 168.436 60.4927 168.326 60.1362 168.199C59.7847 168.072 59.4844 167.918 59.2354 167.737C58.9912 167.557 58.8032 167.344 58.6714 167.1C58.5396 166.856 58.4736 166.57 58.4736 166.243C58.4736 165.931 58.542 165.635 58.6787 165.357C58.8203 165.079 59.0181 164.832 59.272 164.617C59.5308 164.402 59.8408 164.234 60.2021 164.112C60.5635 163.99 60.9663 163.929 61.4106 163.929C62.0454 163.929 62.5874 164.041 63.0366 164.266C63.4858 164.49 63.8301 164.791 64.0693 165.167C64.3086 165.538 64.4282 165.95 64.4282 166.404H63.0732C63.0732 166.185 63.0073 165.972 62.8755 165.767C62.7485 165.557 62.5605 165.384 62.3115 165.247C62.0674 165.11 61.7671 165.042 61.4106 165.042C61.0347 165.042 60.7295 165.101 60.4951 165.218C60.2656 165.33 60.0972 165.474 59.9897 165.65C59.8872 165.826 59.8359 166.011 59.8359 166.207C59.8359 166.353 59.8604 166.485 59.9092 166.602C59.9629 166.714 60.0557 166.819 60.1875 166.917C60.3193 167.01 60.5049 167.098 60.7441 167.181C60.9834 167.264 61.2886 167.347 61.6597 167.43C62.3091 167.576 62.8438 167.752 63.2637 167.957C63.6836 168.162 63.9961 168.414 64.2012 168.711C64.4062 169.009 64.5088 169.371 64.5088 169.795C64.5088 170.142 64.4355 170.459 64.2891 170.748C64.1475 171.036 63.9399 171.285 63.6665 171.495C63.3979 171.7 63.0757 171.861 62.6997 171.978C62.3286 172.09 61.9111 172.146 61.4473 172.146C60.749 172.146 60.1582 172.022 59.6748 171.773C59.1914 171.524 58.8252 171.202 58.5762 170.806C58.3271 170.411 58.2026 169.993 58.2026 169.554H59.5649C59.5845 169.925 59.6919 170.22 59.8872 170.44C60.0825 170.655 60.3218 170.809 60.605 170.901C60.8882 170.989 61.1689 171.033 61.4473 171.033C61.8184 171.033 62.1284 170.984 62.3774 170.887C62.6313 170.789 62.8242 170.655 62.9561 170.484C63.0879 170.313 63.1538 170.118 63.1538 169.898ZM69.6064 164.075V165.115H65.3218V164.075H69.6064ZM66.772 162.149H68.127V170.037C68.127 170.306 68.1685 170.508 68.2515 170.645C68.3345 170.782 68.4419 170.872 68.5737 170.916C68.7056 170.96 68.8472 170.982 68.9985 170.982C69.1108 170.982 69.228 170.972 69.3501 170.953C69.4771 170.928 69.5723 170.909 69.6357 170.894L69.6431 172C69.5356 172.034 69.394 172.066 69.2183 172.095C69.0474 172.129 68.8398 172.146 68.5957 172.146C68.2637 172.146 67.9585 172.081 67.6802 171.949C67.4019 171.817 67.1797 171.597 67.0137 171.29C66.8525 170.977 66.772 170.557 66.772 170.03V162.149ZM72.668 164.075V172H71.3057V164.075H72.668ZM71.2031 161.973C71.2031 161.753 71.269 161.568 71.4009 161.417C71.5376 161.265 71.7378 161.189 72.0015 161.189C72.2603 161.189 72.458 161.265 72.5947 161.417C72.7363 161.568 72.8071 161.753 72.8071 161.973C72.8071 162.183 72.7363 162.364 72.5947 162.515C72.458 162.662 72.2603 162.735 72.0015 162.735C71.7378 162.735 71.5376 162.662 71.4009 162.515C71.269 162.364 71.2031 162.183 71.2031 161.973ZM76.1982 165.32V172H74.8433V164.075H76.1616L76.1982 165.32ZM78.6738 164.031L78.6665 165.291C78.5542 165.267 78.4468 165.252 78.3442 165.247C78.2466 165.237 78.1343 165.232 78.0073 165.232C77.6948 165.232 77.4189 165.281 77.1797 165.379C76.9404 165.477 76.7378 165.613 76.5718 165.789C76.4058 165.965 76.2739 166.175 76.1763 166.419C76.0835 166.658 76.0225 166.922 75.9932 167.21L75.6123 167.43C75.6123 166.951 75.6587 166.502 75.7515 166.082C75.8491 165.662 75.998 165.291 76.1982 164.969C76.3984 164.642 76.6523 164.388 76.96 164.207C77.2725 164.021 77.6436 163.929 78.0732 163.929C78.1709 163.929 78.2832 163.941 78.4102 163.965C78.5371 163.985 78.625 164.007 78.6738 164.031ZM86.8184 171.033C87.1406 171.033 87.4385 170.967 87.7119 170.835C87.9854 170.704 88.21 170.523 88.3857 170.293C88.5615 170.059 88.6616 169.793 88.686 169.495H89.9751C89.9507 169.964 89.792 170.401 89.499 170.806C89.2109 171.207 88.8325 171.531 88.3638 171.78C87.895 172.024 87.3799 172.146 86.8184 172.146C86.2227 172.146 85.7026 172.042 85.2583 171.832C84.8188 171.622 84.4526 171.333 84.1597 170.967C83.8716 170.601 83.6543 170.181 83.5078 169.708C83.3662 169.229 83.2954 168.724 83.2954 168.191V167.884C83.2954 167.352 83.3662 166.849 83.5078 166.375C83.6543 165.896 83.8716 165.474 84.1597 165.108C84.4526 164.742 84.8188 164.454 85.2583 164.244C85.7026 164.034 86.2227 163.929 86.8184 163.929C87.4385 163.929 87.9805 164.056 88.4443 164.31C88.9082 164.559 89.272 164.9 89.5356 165.335C89.8042 165.765 89.9507 166.253 89.9751 166.8H88.686C88.6616 166.473 88.5688 166.177 88.4077 165.914C88.2515 165.65 88.0366 165.44 87.7632 165.284C87.4946 165.123 87.1797 165.042 86.8184 165.042C86.4033 165.042 86.0542 165.125 85.771 165.291C85.4927 165.452 85.2705 165.672 85.1045 165.95C84.9434 166.224 84.8262 166.529 84.7529 166.866C84.6846 167.198 84.6504 167.537 84.6504 167.884V168.191C84.6504 168.538 84.6846 168.88 84.7529 169.217C84.8213 169.554 84.936 169.859 85.0972 170.132C85.2632 170.406 85.4854 170.625 85.7637 170.792C86.0469 170.953 86.3984 171.033 86.8184 171.033ZM91.1396 168.125V167.957C91.1396 167.386 91.2227 166.856 91.3887 166.368C91.5547 165.875 91.7939 165.447 92.1064 165.086C92.4189 164.72 92.7974 164.437 93.2417 164.236C93.686 164.031 94.1841 163.929 94.7358 163.929C95.2925 163.929 95.793 164.031 96.2373 164.236C96.6865 164.437 97.0674 164.72 97.3799 165.086C97.6973 165.447 97.939 165.875 98.105 166.368C98.271 166.856 98.354 167.386 98.354 167.957V168.125C98.354 168.697 98.271 169.227 98.105 169.715C97.939 170.203 97.6973 170.63 97.3799 170.997C97.0674 171.358 96.689 171.641 96.2446 171.846C95.8052 172.046 95.3071 172.146 94.7505 172.146C94.1938 172.146 93.6934 172.046 93.249 171.846C92.8047 171.641 92.4238 171.358 92.1064 170.997C91.7939 170.63 91.5547 170.203 91.3887 169.715C91.2227 169.227 91.1396 168.697 91.1396 168.125ZM92.4946 167.957V168.125C92.4946 168.521 92.541 168.895 92.6338 169.246C92.7266 169.593 92.8657 169.9 93.0513 170.169C93.2417 170.438 93.4785 170.65 93.7617 170.806C94.0449 170.958 94.3745 171.033 94.7505 171.033C95.1216 171.033 95.4463 170.958 95.7246 170.806C96.0078 170.65 96.2422 170.438 96.4277 170.169C96.6133 169.9 96.7524 169.593 96.8452 169.246C96.9429 168.895 96.9917 168.521 96.9917 168.125V167.957C96.9917 167.566 96.9429 167.198 96.8452 166.851C96.7524 166.5 96.6108 166.189 96.4204 165.921C96.2349 165.647 96.0005 165.433 95.7173 165.276C95.439 165.12 95.1118 165.042 94.7358 165.042C94.3647 165.042 94.0376 165.12 93.7544 165.276C93.4761 165.433 93.2417 165.647 93.0513 165.921C92.8657 166.189 92.7266 166.5 92.6338 166.851C92.541 167.198 92.4946 167.566 92.4946 167.957ZM101.401 165.65V172H100.039V164.075H101.328L101.401 165.65ZM101.123 167.737L100.493 167.715C100.498 167.173 100.568 166.673 100.705 166.214C100.842 165.75 101.044 165.347 101.313 165.005C101.582 164.664 101.916 164.4 102.316 164.214C102.717 164.024 103.181 163.929 103.708 163.929C104.079 163.929 104.421 163.982 104.733 164.09C105.046 164.192 105.317 164.356 105.546 164.581C105.776 164.805 105.954 165.093 106.081 165.445C106.208 165.796 106.271 166.221 106.271 166.719V172H104.917V166.785C104.917 166.37 104.846 166.038 104.704 165.789C104.567 165.54 104.372 165.359 104.118 165.247C103.864 165.13 103.566 165.071 103.225 165.071C102.824 165.071 102.49 165.142 102.221 165.284C101.953 165.425 101.738 165.621 101.577 165.87C101.416 166.119 101.298 166.404 101.225 166.727C101.157 167.044 101.123 167.381 101.123 167.737ZM106.257 166.99L105.349 167.269C105.354 166.834 105.424 166.417 105.561 166.016C105.703 165.616 105.905 165.259 106.169 164.947C106.438 164.634 106.767 164.388 107.158 164.207C107.548 164.021 107.995 163.929 108.498 163.929C108.923 163.929 109.299 163.985 109.626 164.097C109.958 164.209 110.236 164.383 110.461 164.617C110.69 164.847 110.864 165.142 110.981 165.503C111.098 165.865 111.157 166.294 111.157 166.792V172H109.794V166.778C109.794 166.333 109.724 165.989 109.582 165.745C109.445 165.496 109.25 165.323 108.996 165.225C108.747 165.123 108.449 165.071 108.103 165.071C107.805 165.071 107.541 165.123 107.312 165.225C107.082 165.328 106.889 165.469 106.733 165.65C106.577 165.826 106.457 166.028 106.374 166.258C106.296 166.487 106.257 166.731 106.257 166.99ZM121.542 169.898C121.542 169.703 121.499 169.522 121.411 169.356C121.328 169.185 121.154 169.031 120.891 168.895C120.632 168.753 120.241 168.631 119.719 168.528C119.279 168.436 118.881 168.326 118.525 168.199C118.173 168.072 117.873 167.918 117.624 167.737C117.38 167.557 117.192 167.344 117.06 167.1C116.928 166.856 116.862 166.57 116.862 166.243C116.862 165.931 116.931 165.635 117.067 165.357C117.209 165.079 117.407 164.832 117.661 164.617C117.919 164.402 118.229 164.234 118.591 164.112C118.952 163.99 119.355 163.929 119.799 163.929C120.434 163.929 120.976 164.041 121.425 164.266C121.875 164.49 122.219 164.791 122.458 165.167C122.697 165.538 122.817 165.95 122.817 166.404H121.462C121.462 166.185 121.396 165.972 121.264 165.767C121.137 165.557 120.949 165.384 120.7 165.247C120.456 165.11 120.156 165.042 119.799 165.042C119.423 165.042 119.118 165.101 118.884 165.218C118.654 165.33 118.486 165.474 118.378 165.65C118.276 165.826 118.225 166.011 118.225 166.207C118.225 166.353 118.249 166.485 118.298 166.602C118.352 166.714 118.444 166.819 118.576 166.917C118.708 167.01 118.894 167.098 119.133 167.181C119.372 167.264 119.677 167.347 120.048 167.43C120.698 167.576 121.232 167.752 121.652 167.957C122.072 168.162 122.385 168.414 122.59 168.711C122.795 169.009 122.897 169.371 122.897 169.795C122.897 170.142 122.824 170.459 122.678 170.748C122.536 171.036 122.329 171.285 122.055 171.495C121.787 171.7 121.464 171.861 121.088 171.978C120.717 172.09 120.3 172.146 119.836 172.146C119.138 172.146 118.547 172.022 118.063 171.773C117.58 171.524 117.214 171.202 116.965 170.806C116.716 170.411 116.591 169.993 116.591 169.554H117.954C117.973 169.925 118.081 170.22 118.276 170.44C118.471 170.655 118.71 170.809 118.994 170.901C119.277 170.989 119.558 171.033 119.836 171.033C120.207 171.033 120.517 170.984 120.766 170.887C121.02 170.789 121.213 170.655 121.345 170.484C121.477 170.313 121.542 170.118 121.542 169.898ZM127.966 172.146C127.414 172.146 126.914 172.054 126.464 171.868C126.02 171.678 125.637 171.412 125.314 171.07C124.997 170.728 124.753 170.323 124.582 169.854C124.411 169.385 124.326 168.873 124.326 168.316V168.008C124.326 167.364 124.421 166.79 124.611 166.287C124.802 165.779 125.061 165.35 125.388 164.998C125.715 164.646 126.086 164.38 126.501 164.2C126.916 164.019 127.346 163.929 127.79 163.929C128.356 163.929 128.845 164.026 129.255 164.222C129.67 164.417 130.009 164.69 130.273 165.042C130.537 165.389 130.732 165.799 130.859 166.272C130.986 166.741 131.049 167.254 131.049 167.811V168.418H125.131V167.312H129.694V167.21C129.675 166.858 129.602 166.517 129.475 166.185C129.353 165.853 129.157 165.579 128.889 165.364C128.62 165.149 128.254 165.042 127.79 165.042C127.482 165.042 127.199 165.108 126.94 165.24C126.682 165.367 126.459 165.557 126.274 165.811C126.088 166.065 125.944 166.375 125.842 166.741C125.739 167.107 125.688 167.53 125.688 168.008V168.316C125.688 168.692 125.739 169.046 125.842 169.378C125.949 169.705 126.103 169.993 126.303 170.242C126.508 170.491 126.755 170.687 127.043 170.828C127.336 170.97 127.668 171.041 128.039 171.041C128.518 171.041 128.923 170.943 129.255 170.748C129.587 170.552 129.877 170.291 130.126 169.964L130.947 170.616C130.776 170.875 130.559 171.121 130.295 171.355C130.031 171.59 129.707 171.78 129.321 171.927C128.94 172.073 128.488 172.146 127.966 172.146ZM137.766 164.075H138.996V171.832C138.996 172.53 138.854 173.125 138.571 173.619C138.288 174.112 137.893 174.485 137.385 174.739C136.882 174.998 136.301 175.127 135.642 175.127C135.368 175.127 135.046 175.083 134.675 174.996C134.309 174.913 133.947 174.769 133.591 174.563C133.239 174.363 132.944 174.092 132.705 173.75L133.415 172.945C133.747 173.345 134.094 173.624 134.455 173.78C134.821 173.936 135.183 174.014 135.539 174.014C135.969 174.014 136.34 173.934 136.652 173.772C136.965 173.611 137.207 173.372 137.377 173.055C137.553 172.742 137.641 172.356 137.641 171.897V165.818L137.766 164.075ZM132.309 168.125V167.972C132.309 167.366 132.38 166.817 132.521 166.324C132.668 165.826 132.875 165.398 133.144 165.042C133.417 164.686 133.747 164.412 134.133 164.222C134.519 164.026 134.953 163.929 135.437 163.929C135.935 163.929 136.369 164.017 136.74 164.192C137.116 164.363 137.434 164.615 137.692 164.947C137.956 165.274 138.164 165.669 138.315 166.133C138.466 166.597 138.571 167.122 138.63 167.708V168.382C138.576 168.963 138.471 169.485 138.315 169.949C138.164 170.413 137.956 170.809 137.692 171.136C137.434 171.463 137.116 171.714 136.74 171.89C136.364 172.061 135.925 172.146 135.422 172.146C134.948 172.146 134.519 172.046 134.133 171.846C133.752 171.646 133.425 171.365 133.151 171.004C132.878 170.643 132.668 170.218 132.521 169.729C132.38 169.236 132.309 168.702 132.309 168.125ZM133.664 167.972V168.125C133.664 168.521 133.703 168.892 133.781 169.239C133.864 169.585 133.989 169.891 134.155 170.154C134.326 170.418 134.543 170.625 134.807 170.777C135.07 170.923 135.385 170.997 135.751 170.997C136.201 170.997 136.572 170.901 136.865 170.711C137.158 170.521 137.39 170.269 137.561 169.957C137.736 169.644 137.873 169.305 137.971 168.938V167.173C137.917 166.905 137.834 166.646 137.722 166.397C137.614 166.143 137.473 165.918 137.297 165.723C137.126 165.523 136.914 165.364 136.66 165.247C136.406 165.13 136.108 165.071 135.766 165.071C135.395 165.071 135.075 165.149 134.807 165.306C134.543 165.457 134.326 165.667 134.155 165.936C133.989 166.199 133.864 166.507 133.781 166.858C133.703 167.205 133.664 167.576 133.664 167.972ZM145.903 170.169V164.075H147.265V172H145.969L145.903 170.169ZM146.159 168.499L146.723 168.484C146.723 169.012 146.667 169.5 146.555 169.949C146.447 170.394 146.271 170.779 146.027 171.106C145.783 171.434 145.463 171.69 145.068 171.875C144.672 172.056 144.191 172.146 143.625 172.146C143.239 172.146 142.885 172.09 142.563 171.978C142.246 171.866 141.972 171.692 141.743 171.458C141.513 171.224 141.335 170.918 141.208 170.542C141.086 170.167 141.025 169.715 141.025 169.188V164.075H142.38V169.202C142.38 169.559 142.419 169.854 142.497 170.088C142.58 170.318 142.69 170.501 142.827 170.638C142.968 170.77 143.125 170.862 143.295 170.916C143.471 170.97 143.652 170.997 143.837 170.997C144.414 170.997 144.87 170.887 145.207 170.667C145.544 170.442 145.786 170.142 145.932 169.766C146.083 169.385 146.159 168.963 146.159 168.499ZM150.686 165.32V172H149.331V164.075H150.649L150.686 165.32ZM153.161 164.031L153.154 165.291C153.042 165.267 152.934 165.252 152.832 165.247C152.734 165.237 152.622 165.232 152.495 165.232C152.182 165.232 151.906 165.281 151.667 165.379C151.428 165.477 151.225 165.613 151.059 165.789C150.893 165.965 150.761 166.175 150.664 166.419C150.571 166.658 150.51 166.922 150.48 167.21L150.1 167.43C150.1 166.951 150.146 166.502 150.239 166.082C150.336 165.662 150.485 165.291 150.686 164.969C150.886 164.642 151.14 164.388 151.447 164.207C151.76 164.021 152.131 163.929 152.561 163.929C152.658 163.929 152.771 163.941 152.897 163.965C153.024 163.985 153.112 164.007 153.161 164.031ZM158.793 170.645V166.565C158.793 166.253 158.73 165.982 158.603 165.752C158.481 165.518 158.295 165.337 158.046 165.21C157.797 165.083 157.49 165.02 157.124 165.02C156.782 165.02 156.481 165.079 156.223 165.196C155.969 165.313 155.769 165.467 155.622 165.657C155.48 165.848 155.41 166.053 155.41 166.272H154.055C154.055 165.989 154.128 165.708 154.274 165.43C154.421 165.152 154.631 164.9 154.904 164.676C155.183 164.446 155.515 164.266 155.9 164.134C156.291 163.997 156.726 163.929 157.204 163.929C157.78 163.929 158.288 164.026 158.728 164.222C159.172 164.417 159.519 164.712 159.768 165.108C160.021 165.499 160.148 165.989 160.148 166.58V170.271C160.148 170.535 160.17 170.816 160.214 171.114C160.263 171.412 160.334 171.668 160.427 171.883V172H159.013C158.945 171.844 158.891 171.636 158.852 171.377C158.813 171.114 158.793 170.87 158.793 170.645ZM159.028 167.195L159.042 168.147H157.673C157.287 168.147 156.943 168.179 156.64 168.243C156.337 168.301 156.083 168.392 155.878 168.514C155.673 168.636 155.517 168.79 155.41 168.975C155.302 169.156 155.249 169.368 155.249 169.612C155.249 169.861 155.305 170.088 155.417 170.293C155.529 170.499 155.698 170.662 155.922 170.784C156.152 170.901 156.433 170.96 156.765 170.96C157.18 170.96 157.546 170.872 157.863 170.696C158.181 170.521 158.432 170.306 158.618 170.052C158.808 169.798 158.911 169.551 158.925 169.312L159.504 169.964C159.47 170.169 159.377 170.396 159.226 170.645C159.074 170.894 158.872 171.133 158.618 171.363C158.369 171.587 158.071 171.775 157.724 171.927C157.382 172.073 156.997 172.146 156.567 172.146C156.03 172.146 155.559 172.042 155.153 171.832C154.753 171.622 154.44 171.341 154.216 170.989C153.996 170.633 153.886 170.235 153.886 169.795C153.886 169.371 153.969 168.997 154.135 168.675C154.301 168.348 154.541 168.077 154.853 167.862C155.166 167.642 155.542 167.476 155.981 167.364C156.42 167.251 156.911 167.195 157.453 167.195H159.028ZM163.635 165.767V172H162.28V164.075H163.562L163.635 165.767ZM163.312 167.737L162.749 167.715C162.753 167.173 162.834 166.673 162.99 166.214C163.146 165.75 163.366 165.347 163.649 165.005C163.933 164.664 164.27 164.4 164.66 164.214C165.056 164.024 165.493 163.929 165.971 163.929C166.362 163.929 166.713 163.982 167.026 164.09C167.338 164.192 167.604 164.358 167.824 164.588C168.049 164.817 168.22 165.115 168.337 165.481C168.454 165.843 168.513 166.285 168.513 166.807V172H167.15V166.792C167.15 166.377 167.089 166.045 166.967 165.796C166.845 165.542 166.667 165.359 166.433 165.247C166.198 165.13 165.91 165.071 165.568 165.071C165.231 165.071 164.924 165.142 164.646 165.284C164.372 165.425 164.135 165.621 163.935 165.87C163.74 166.119 163.586 166.404 163.474 166.727C163.366 167.044 163.312 167.381 163.312 167.737ZM173.742 171.033C174.064 171.033 174.362 170.967 174.636 170.835C174.909 170.704 175.134 170.523 175.31 170.293C175.485 170.059 175.585 169.793 175.61 169.495H176.899C176.875 169.964 176.716 170.401 176.423 170.806C176.135 171.207 175.756 171.531 175.288 171.78C174.819 172.024 174.304 172.146 173.742 172.146C173.146 172.146 172.626 172.042 172.182 171.832C171.743 171.622 171.376 171.333 171.083 170.967C170.795 170.601 170.578 170.181 170.432 169.708C170.29 169.229 170.219 168.724 170.219 168.191V167.884C170.219 167.352 170.29 166.849 170.432 166.375C170.578 165.896 170.795 165.474 171.083 165.108C171.376 164.742 171.743 164.454 172.182 164.244C172.626 164.034 173.146 163.929 173.742 163.929C174.362 163.929 174.904 164.056 175.368 164.31C175.832 164.559 176.196 164.9 176.459 165.335C176.728 165.765 176.875 166.253 176.899 166.8H175.61C175.585 166.473 175.493 166.177 175.332 165.914C175.175 165.65 174.96 165.44 174.687 165.284C174.418 165.123 174.104 165.042 173.742 165.042C173.327 165.042 172.978 165.125 172.695 165.291C172.417 165.452 172.194 165.672 172.028 165.95C171.867 166.224 171.75 166.529 171.677 166.866C171.608 167.198 171.574 167.537 171.574 167.884V168.191C171.574 168.538 171.608 168.88 171.677 169.217C171.745 169.554 171.86 169.859 172.021 170.132C172.187 170.406 172.409 170.625 172.688 170.792C172.971 170.953 173.322 171.033 173.742 171.033ZM172.995 172.073H173.969L173.881 172.461C174.165 172.51 174.421 172.627 174.65 172.813C174.885 172.999 175.002 173.304 175.002 173.729C175.002 173.958 174.953 174.166 174.855 174.351C174.763 174.542 174.624 174.703 174.438 174.834C174.252 174.971 174.021 175.076 173.742 175.149C173.469 175.223 173.149 175.259 172.783 175.259L172.731 174.476C172.956 174.476 173.159 174.451 173.339 174.402C173.525 174.354 173.671 174.275 173.779 174.168C173.891 174.061 173.947 173.921 173.947 173.75C173.947 173.589 173.906 173.462 173.823 173.37C173.74 173.277 173.61 173.206 173.435 173.157C173.264 173.113 173.042 173.082 172.768 173.062L172.995 172.073ZM183.095 170.645V166.565C183.095 166.253 183.032 165.982 182.905 165.752C182.783 165.518 182.597 165.337 182.348 165.21C182.099 165.083 181.792 165.02 181.425 165.02C181.083 165.02 180.783 165.079 180.524 165.196C180.271 165.313 180.07 165.467 179.924 165.657C179.782 165.848 179.711 166.053 179.711 166.272H178.356C178.356 165.989 178.43 165.708 178.576 165.43C178.723 165.152 178.933 164.9 179.206 164.676C179.484 164.446 179.816 164.266 180.202 164.134C180.593 163.997 181.027 163.929 181.506 163.929C182.082 163.929 182.59 164.026 183.029 164.222C183.474 164.417 183.82 164.712 184.069 165.108C184.323 165.499 184.45 165.989 184.45 166.58V170.271C184.45 170.535 184.472 170.816 184.516 171.114C184.565 171.412 184.636 171.668 184.729 171.883V172H183.315C183.247 171.844 183.193 171.636 183.154 171.377C183.115 171.114 183.095 170.87 183.095 170.645ZM183.33 167.195L183.344 168.147H181.975C181.589 168.147 181.245 168.179 180.942 168.243C180.639 168.301 180.385 168.392 180.18 168.514C179.975 168.636 179.819 168.79 179.711 168.975C179.604 169.156 179.55 169.368 179.55 169.612C179.55 169.861 179.606 170.088 179.719 170.293C179.831 170.499 180 170.662 180.224 170.784C180.454 170.901 180.734 170.96 181.066 170.96C181.481 170.96 181.848 170.872 182.165 170.696C182.482 170.521 182.734 170.306 182.919 170.052C183.11 169.798 183.212 169.551 183.227 169.312L183.806 169.964C183.771 170.169 183.679 170.396 183.527 170.645C183.376 170.894 183.173 171.133 182.919 171.363C182.67 171.587 182.373 171.775 182.026 171.927C181.684 172.073 181.298 172.146 180.869 172.146C180.332 172.146 179.86 172.042 179.455 171.832C179.055 171.622 178.742 171.341 178.518 170.989C178.298 170.633 178.188 170.235 178.188 169.795C178.188 169.371 178.271 168.997 178.437 168.675C178.603 168.348 178.842 168.077 179.155 167.862C179.467 167.642 179.843 167.476 180.283 167.364C180.722 167.251 181.213 167.195 181.755 167.195H183.33Z" fill="white"/>
</g>
<defs>
<linearGradient id="paint0_linear_202_6" x1="153" y1="17" x2="17" y2="379.5" gradientUnits="userSpaceOnUse">
<stop stop-color="#B17BFF"/>
<stop offset="1" stop-color="#4388F7"/>
</linearGradient>
<clipPath id="clip0_202_6">
<rect width="216" height="216" fill="white"/>
</clipPath>
</defs>
</svg>
