<svg width="217" height="217" viewBox="0 0 217 217" fill="none" xmlns="http://www.w3.org/2000/svg">
<path d="M88.6802 6.54533L94.1623 4.27458L94.3536 4.73652L97.0947 3.60115C97.9907 3.23 98.9004 2.90487 99.8204 2.62575L99.6753 2.14729C101.565 1.57409 103.497 1.19166 105.443 1L105.492 1.4976C107.415 1.30825 109.353 1.30826 111.276 1.4976L111.325 1C113.271 1.19166 115.203 1.57409 117.093 2.14729L116.947 2.62576C117.867 2.90488 118.777 3.23001 119.673 3.60115L122.414 4.73653L122.606 4.27459L128.088 6.54534L127.896 7.00728L133.378 9.27803L133.57 8.81609L139.052 11.0869L138.86 11.5487L144.343 13.8196L144.534 13.3576L150.016 15.6284L149.825 16.0903L155.307 18.361L155.498 17.8992L160.98 20.1698L160.789 20.6318L166.271 22.9025L166.462 22.4407L171.944 24.7113L171.753 25.1733L174.494 26.3087C175.39 26.6799 176.263 27.0932 177.111 27.5464L177.347 27.1054C179.088 28.036 180.725 29.1319 182.237 30.3727L181.919 30.7593C183.413 31.9852 184.783 33.3548 186.009 34.8484L186.395 34.5312C187.636 36.0431 188.732 37.6799 189.662 39.4212L189.221 39.6568C189.675 40.5047 190.088 41.3779 190.459 42.2739L191.595 45.0149L192.057 44.8237L194.327 50.3058L193.865 50.4971L196.136 55.9791L196.598 55.7878L198.869 61.2699L198.407 61.4613L200.678 66.9433L201.139 66.752L203.41 72.234L202.948 72.4253L205.219 77.9074L205.681 77.716L207.952 83.1982L207.49 83.3895L209.761 88.8716L210.222 88.6803L212.493 94.1624L212.031 94.3537L213.167 97.0947C213.538 97.9908 213.863 98.9004 214.142 99.8204L214.621 99.6753C215.194 101.565 215.576 103.497 215.768 105.443L215.27 105.492C215.46 107.415 215.46 109.353 215.27 111.276L215.768 111.325C215.576 113.271 215.194 115.203 214.621 117.093L214.142 116.947C213.863 117.867 213.538 118.777 213.167 119.673L212.031 122.414L212.493 122.606L210.222 128.088L209.761 127.896L207.49 133.378L207.952 133.57L205.681 139.052L205.219 138.86L202.948 144.343L203.41 144.534L201.139 150.016L200.678 149.825L198.407 155.307L198.869 155.498L196.598 160.98L196.136 160.789L193.865 166.271L194.327 166.462L192.056 171.944L191.595 171.753L190.459 174.494C190.088 175.39 189.675 176.263 189.221 177.111L189.662 177.347C188.732 179.088 187.636 180.725 186.395 182.237L186.009 181.919C184.783 183.413 183.413 184.783 181.919 186.009L182.237 186.395C180.725 187.636 179.088 188.732 177.347 189.662L177.111 189.221C176.263 189.675 175.39 190.088 174.494 190.459L171.753 191.595L171.944 192.057L166.462 194.327L166.271 193.865L160.789 196.136L160.98 196.598L155.498 198.869L155.307 198.407L149.825 200.678L150.016 201.14L144.534 203.41L144.342 202.948L138.86 205.219L139.052 205.681L133.57 207.952L133.378 207.49L127.896 209.761L128.088 210.223L122.606 212.493L122.414 212.031L119.673 213.167C118.777 213.538 117.867 213.863 116.947 214.142L117.093 214.621C115.203 215.194 113.271 215.576 111.325 215.768L111.276 215.27C109.353 215.46 107.415 215.46 105.492 215.27L105.443 215.768C103.497 215.576 101.565 215.194 99.6753 214.621L99.8204 214.142C98.9004 213.863 97.9906 213.538 97.0946 213.167L94.3536 212.031L94.1623 212.493L88.6802 210.222L88.8715 209.761L83.3894 207.49L83.1981 207.952L77.716 205.681L77.9074 205.219L72.4253 202.948L72.234 203.41L66.7519 201.139L66.9432 200.678L61.4612 198.407L61.2698 198.869L55.7877 196.598L55.9791 196.136L50.497 193.865L50.3057 194.327L44.8236 192.056L45.0149 191.595L42.2739 190.459C41.3779 190.088 40.5047 189.675 39.6568 189.221L39.4211 189.662C37.6798 188.732 36.0431 187.636 34.5312 186.395L34.8484 186.009C33.3548 184.783 31.985 183.413 30.7592 181.919L30.3727 182.237C29.1319 180.725 28.036 179.088 27.1054 177.347L27.5463 177.111C27.0931 176.263 26.6798 175.39 26.3086 174.494L25.1732 171.753L24.7113 171.944L22.4405 166.462L22.9025 166.271L20.6317 160.789L20.1698 160.98L17.899 155.498L18.361 155.307L16.0902 149.825L15.6283 150.016L13.3576 144.534L13.8195 144.342L11.5487 138.86L11.0868 139.052L8.81608 133.57L9.27802 133.378L7.00727 127.896L6.54533 128.088L4.27458 122.606L4.73652 122.414L3.60115 119.673C3.23 118.777 2.90487 117.867 2.62575 116.947L2.14729 117.093C1.57409 115.203 1.19166 113.271 1 111.325L1.4976 111.276C1.30825 109.353 1.30826 107.415 1.4976 105.492L1 105.443C1.19166 103.497 1.57409 101.565 2.14729 99.6753L2.62576 99.8204C2.90488 98.9004 3.23001 97.9907 3.60115 97.0947L4.73653 94.3537L4.27459 94.1624L6.54534 88.6803L7.00728 88.8716L9.27803 83.3895L8.81609 83.1982L11.0868 77.716L11.5487 77.9074L13.8195 72.4253L13.3576 72.234L15.6283 66.752L16.0902 66.9433L18.361 61.4612L17.8991 61.2699L20.1698 55.7878L20.6317 55.9791L22.9025 50.4971L22.4406 50.3058L24.7113 44.8237L25.1732 45.0149L26.3086 42.2739C26.6798 41.3779 27.0931 40.5047 27.5463 39.6568L27.1054 39.4212C28.036 37.6799 29.1319 36.0431 30.3727 34.5312L30.7592 34.8484C31.9851 33.3548 33.3548 31.9851 34.8484 30.7593L34.5312 30.3727C36.0431 29.1319 37.6798 28.036 39.4211 27.1054L39.6568 27.5464C40.5047 27.0932 41.3779 26.6799 42.2739 26.3087L45.0149 25.1733L44.8236 24.7113L50.3057 22.4405L50.497 22.9025L55.9791 20.6318L55.7877 20.1698L61.2698 17.899L61.4612 18.361L66.9432 16.0903L66.7519 15.6284L72.234 13.3576L72.4253 13.8196L77.9074 11.5487L77.716 11.0869L83.1981 8.81608L83.3895 9.27802L88.8715 7.00727L88.6802 6.54533Z" fill="url(#paint0_linear_202_5)" stroke="#FAF9FB" stroke-dasharray="6 6"/>
<path d="M129.967 36.7876C124.786 31.1203 117.901 28 110.576 28L110.586 33.594C122.885 33.5814 132.898 44.5351 132.898 58C132.898 71.4649 122.885 82.4186 110.576 82.4186C99.3485 82.4186 89.6014 72.8483 88.3866 60.6306L88.1724 58.4772H93.5098C93.8561 58.4772 94.0474 58.0335 93.8255 57.7426L86.2669 47.7537C86.1024 47.5382 85.8021 47.5361 85.6376 47.7517C84.3826 49.4154 79.709 55.6163 78.0943 57.7614C77.8724 58.0544 78.0676 58.4918 78.4138 58.4897L81.4594 58.4772H83.1085L83.2309 60.2749C83.7187 67.4091 86.5424 74.1353 91.1835 79.2124C96.3641 84.8797 103.251 88 110.576 88C117.901 88 124.786 84.8797 129.967 79.2124C135.148 73.5473 138 66.0133 138 58C138 49.9888 135.148 42.4527 129.967 36.7876Z" fill="#FBF8F8"/>
<path d="M111.523 65.6952V64.1046C112.767 63.6903 113.557 62.5874 113.557 61.2354C113.557 59.7893 112.836 58.8225 111.221 58.1025C110.054 57.5731 109.966 57.345 109.966 57.0541C109.966 56.669 110.263 56.4472 110.781 56.4472C111.487 56.4472 111.917 56.715 112.128 56.8448L112.687 57.1964L113.402 55.1308L113.002 54.8734C112.579 54.6034 112.118 54.4318 111.602 54.3502V52.9334H109.702V54.4799C108.514 54.8776 107.758 55.9302 107.758 57.2236C107.758 58.9292 109.008 59.6952 110.226 60.2183C111.147 60.6243 111.336 60.9592 111.336 61.3338C111.336 61.8047 110.951 62.1102 110.356 62.1102C109.811 62.1102 109.247 61.9281 108.807 61.6059L108.221 61.181L107.535 63.2759L107.873 63.5417C108.308 63.8807 108.943 64.1277 109.612 64.2281V65.6952H111.523Z" fill="#FBF8F8"/>
<path d="M101.061 68.173C101.061 67.654 101.3 67.1726 101.7 66.888L102.66 66.2121L102.656 59.3603C102.656 57.8409 103.205 55.9826 104.204 54.1284C104.948 52.7471 105.899 51.4538 106.882 50.489C106.939 50.4325 106.997 50.376 107.054 50.3237H109.664C110.408 50.3237 111.041 49.7293 111.133 48.9404C111.188 48.4841 111.06 48.0279 110.785 47.6847C110.507 47.3394 110.109 47.1427 109.69 47.1427H108.041C107.911 45.9309 107.873 44.533 107.864 43.6268H113.289C113.276 44.5916 113.228 46.3893 113.035 47.7789L113.01 48.8462C113.002 49.2396 113.136 49.61 113.388 49.8884C113.574 50.0977 113.807 50.2358 114.066 50.2923C114.133 50.3551 114.198 50.4199 114.265 50.4848C115.252 51.4538 116.203 52.7471 116.945 54.1284C117.945 55.9826 118.496 57.8389 118.496 59.3582L118.491 66.2121L119.449 66.8859C119.851 67.1726 120.092 67.654 120.092 68.173V68.3048L110.513 68.2965L101.061 68.3048V68.173ZM99.4116 71.488H109.872C109.928 71.488 109.977 71.4838 109.995 71.4796C110.058 71.4775 110.14 71.4796 110.513 71.4775H110.636C110.993 71.4775 111.083 71.4775 111.121 71.4754C111.173 71.4838 111.225 71.488 111.276 71.488H121.737C122.433 71.488 122.998 70.8685 122.998 70.1088V68.173C122.998 66.7583 122.403 65.4001 121.4 64.5106L121.402 59.3603C121.402 57.2801 120.71 54.8483 119.451 52.5148C118.492 50.7297 117.257 49.0889 115.958 47.8772C116.273 45.5835 116.335 44.3488 116.122 41.4796L116.08 40.6216H105.069L105.028 41.4587C104.814 44.3488 104.875 45.5835 105.191 47.8772C103.892 49.0931 102.656 50.7318 101.698 52.5148C100.439 54.8525 99.7464 57.2843 99.7464 59.3603L99.7502 64.5085C98.7458 65.4001 98.1509 66.7583 98.1509 68.173V70.1088C98.1509 70.8685 98.7152 71.488 99.4116 71.488Z" fill="#FBF8F8"/>
<path d="M30.4146 127.336V138H29.0229V127.336H30.4146ZM33.8423 127.336V128.493H25.6025V127.336H33.8423ZM37.7754 138.146C37.2236 138.146 36.7231 138.054 36.2739 137.868C35.8296 137.678 35.4463 137.412 35.124 137.07C34.8066 136.728 34.5625 136.323 34.3916 135.854C34.2207 135.385 34.1353 134.873 34.1353 134.316V134.008C34.1353 133.364 34.2305 132.79 34.4209 132.287C34.6113 131.779 34.8701 131.35 35.1973 130.998C35.5244 130.646 35.8955 130.38 36.3105 130.2C36.7256 130.019 37.1553 129.929 37.5996 129.929C38.166 129.929 38.6543 130.026 39.0645 130.222C39.4795 130.417 39.8188 130.69 40.0825 131.042C40.3462 131.389 40.5415 131.799 40.6685 132.272C40.7954 132.741 40.8589 133.254 40.8589 133.811V134.418H34.9409V133.312H39.5039V133.21C39.4844 132.858 39.4111 132.517 39.2842 132.185C39.1621 131.853 38.9668 131.579 38.6982 131.364C38.4297 131.149 38.0635 131.042 37.5996 131.042C37.292 131.042 37.0088 131.108 36.75 131.24C36.4912 131.367 36.269 131.557 36.0835 131.811C35.8979 132.065 35.7539 132.375 35.6514 132.741C35.5488 133.107 35.4976 133.53 35.4976 134.008V134.316C35.4976 134.692 35.5488 135.046 35.6514 135.378C35.7588 135.705 35.9126 135.993 36.1128 136.242C36.3179 136.491 36.5645 136.687 36.8525 136.828C37.1455 136.97 37.4775 137.041 37.8486 137.041C38.3271 137.041 38.7324 136.943 39.0645 136.748C39.3965 136.552 39.687 136.291 39.936 135.964L40.7563 136.616C40.5854 136.875 40.3682 137.121 40.1045 137.355C39.8408 137.59 39.5161 137.78 39.1304 137.927C38.7495 138.073 38.2979 138.146 37.7754 138.146ZM43.7886 131.65V138H42.4263V130.075H43.7153L43.7886 131.65ZM43.5103 133.737L42.8804 133.715C42.8853 133.173 42.9561 132.673 43.0928 132.214C43.2295 131.75 43.4321 131.347 43.7007 131.005C43.9692 130.664 44.3037 130.4 44.7041 130.214C45.1045 130.024 45.5684 129.929 46.0957 129.929C46.4668 129.929 46.8086 129.982 47.1211 130.09C47.4336 130.192 47.7046 130.356 47.9341 130.581C48.1636 130.805 48.3418 131.093 48.4688 131.445C48.5957 131.796 48.6592 132.221 48.6592 132.719V138H47.3042V132.785C47.3042 132.37 47.2334 132.038 47.0918 131.789C46.9551 131.54 46.7598 131.359 46.5059 131.247C46.252 131.13 45.9541 131.071 45.6123 131.071C45.2119 131.071 44.8774 131.142 44.6089 131.284C44.3403 131.425 44.1255 131.621 43.9644 131.87C43.8032 132.119 43.686 132.404 43.6128 132.727C43.5444 133.044 43.5103 133.381 43.5103 133.737ZM48.6445 132.99L47.7363 133.269C47.7412 132.834 47.812 132.417 47.9487 132.016C48.0903 131.616 48.293 131.259 48.5566 130.947C48.8252 130.634 49.1548 130.388 49.5454 130.207C49.936 130.021 50.3828 129.929 50.8857 129.929C51.3105 129.929 51.6865 129.985 52.0137 130.097C52.3457 130.209 52.624 130.383 52.8486 130.617C53.0781 130.847 53.2515 131.142 53.3687 131.503C53.4858 131.865 53.5444 132.294 53.5444 132.792V138H52.1821V132.778C52.1821 132.333 52.1113 131.989 51.9697 131.745C51.833 131.496 51.6377 131.323 51.3838 131.225C51.1348 131.123 50.8369 131.071 50.4902 131.071C50.1924 131.071 49.9287 131.123 49.6992 131.225C49.4697 131.328 49.2769 131.469 49.1206 131.65C48.9644 131.826 48.8447 132.028 48.7617 132.258C48.6836 132.487 48.6445 132.731 48.6445 132.99ZM60.6636 131.65V138H59.3013V130.075H60.5903L60.6636 131.65ZM60.3853 133.737L59.7554 133.715C59.7603 133.173 59.8311 132.673 59.9678 132.214C60.1045 131.75 60.3071 131.347 60.5757 131.005C60.8442 130.664 61.1787 130.4 61.5791 130.214C61.9795 130.024 62.4434 129.929 62.9707 129.929C63.3418 129.929 63.6836 129.982 63.9961 130.09C64.3086 130.192 64.5796 130.356 64.8091 130.581C65.0386 130.805 65.2168 131.093 65.3438 131.445C65.4707 131.796 65.5342 132.221 65.5342 132.719V138H64.1792V132.785C64.1792 132.37 64.1084 132.038 63.9668 131.789C63.8301 131.54 63.6348 131.359 63.3809 131.247C63.127 131.13 62.8291 131.071 62.4873 131.071C62.0869 131.071 61.7524 131.142 61.4839 131.284C61.2153 131.425 61.0005 131.621 60.8394 131.87C60.6782 132.119 60.561 132.404 60.4878 132.727C60.4194 133.044 60.3853 133.381 60.3853 133.737ZM65.5195 132.99L64.6113 133.269C64.6162 132.834 64.687 132.417 64.8237 132.016C64.9653 131.616 65.168 131.259 65.4316 130.947C65.7002 130.634 66.0298 130.388 66.4204 130.207C66.811 130.021 67.2578 129.929 67.7607 129.929C68.1855 129.929 68.5615 129.985 68.8887 130.097C69.2207 130.209 69.499 130.383 69.7236 130.617C69.9531 130.847 70.1265 131.142 70.2437 131.503C70.3608 131.865 70.4194 132.294 70.4194 132.792V138H69.0571V132.778C69.0571 132.333 68.9863 131.989 68.8447 131.745C68.708 131.496 68.5127 131.323 68.2588 131.225C68.0098 131.123 67.7119 131.071 67.3652 131.071C67.0674 131.071 66.8037 131.123 66.5742 131.225C66.3447 131.328 66.1519 131.469 65.9956 131.65C65.8394 131.826 65.7197 132.028 65.6367 132.258C65.5586 132.487 65.5195 132.731 65.5195 132.99ZM75.7588 138.146C75.207 138.146 74.7065 138.054 74.2573 137.868C73.813 137.678 73.4297 137.412 73.1074 137.07C72.79 136.728 72.5459 136.323 72.375 135.854C72.2041 135.385 72.1187 134.873 72.1187 134.316V134.008C72.1187 133.364 72.2139 132.79 72.4043 132.287C72.5947 131.779 72.8535 131.35 73.1807 130.998C73.5078 130.646 73.8789 130.38 74.2939 130.2C74.709 130.019 75.1387 129.929 75.583 129.929C76.1494 129.929 76.6377 130.026 77.0479 130.222C77.4629 130.417 77.8022 130.69 78.0659 131.042C78.3296 131.389 78.5249 131.799 78.6519 132.272C78.7788 132.741 78.8423 133.254 78.8423 133.811V134.418H72.9243V133.312H77.4873V133.21C77.4678 132.858 77.3945 132.517 77.2676 132.185C77.1455 131.853 76.9502 131.579 76.6816 131.364C76.4131 131.149 76.0469 131.042 75.583 131.042C75.2754 131.042 74.9922 131.108 74.7334 131.24C74.4746 131.367 74.2524 131.557 74.0669 131.811C73.8813 132.065 73.7373 132.375 73.6348 132.741C73.5322 133.107 73.481 133.53 73.481 134.008V134.316C73.481 134.692 73.5322 135.046 73.6348 135.378C73.7422 135.705 73.896 135.993 74.0962 136.242C74.3013 136.491 74.5479 136.687 74.8359 136.828C75.1289 136.97 75.4609 137.041 75.832 137.041C76.3105 137.041 76.7158 136.943 77.0479 136.748C77.3799 136.552 77.6704 136.291 77.9194 135.964L78.7397 136.616C78.5688 136.875 78.3516 137.121 78.0879 137.355C77.8242 137.59 77.4995 137.78 77.1138 137.927C76.7329 138.073 76.2812 138.146 75.7588 138.146ZM85.4194 136.462V126.75H86.7817V138H85.5366L85.4194 136.462ZM80.0874 134.125V133.972C80.0874 133.366 80.1606 132.817 80.3071 132.324C80.4585 131.826 80.6709 131.398 80.9443 131.042C81.2227 130.686 81.5522 130.412 81.9331 130.222C82.3188 130.026 82.7485 129.929 83.2222 129.929C83.7202 129.929 84.1548 130.017 84.5259 130.192C84.9019 130.363 85.2192 130.615 85.478 130.947C85.7417 131.274 85.9492 131.669 86.1006 132.133C86.252 132.597 86.3569 133.122 86.4155 133.708V134.382C86.3618 134.963 86.2568 135.485 86.1006 135.949C85.9492 136.413 85.7417 136.809 85.478 137.136C85.2192 137.463 84.9019 137.714 84.5259 137.89C84.1499 138.061 83.7104 138.146 83.2075 138.146C82.7437 138.146 82.3188 138.046 81.9331 137.846C81.5522 137.646 81.2227 137.365 80.9443 137.004C80.6709 136.643 80.4585 136.218 80.3071 135.729C80.1606 135.236 80.0874 134.702 80.0874 134.125ZM81.4497 133.972V134.125C81.4497 134.521 81.4888 134.892 81.5669 135.239C81.6499 135.585 81.7769 135.891 81.9478 136.154C82.1187 136.418 82.3359 136.625 82.5996 136.777C82.8633 136.923 83.1782 136.997 83.5444 136.997C83.9937 136.997 84.3623 136.901 84.6504 136.711C84.9434 136.521 85.1777 136.269 85.3535 135.957C85.5293 135.644 85.666 135.305 85.7637 134.938V133.173C85.7051 132.905 85.6196 132.646 85.5073 132.397C85.3999 132.143 85.2583 131.918 85.0825 131.723C84.9116 131.523 84.6992 131.364 84.4453 131.247C84.1963 131.13 83.9009 131.071 83.5591 131.071C83.188 131.071 82.8682 131.149 82.5996 131.306C82.3359 131.457 82.1187 131.667 81.9478 131.936C81.7769 132.199 81.6499 132.507 81.5669 132.858C81.4888 133.205 81.4497 133.576 81.4497 133.972ZM88.5322 134.125V133.957C88.5322 133.386 88.6152 132.856 88.7812 132.368C88.9473 131.875 89.1865 131.447 89.499 131.086C89.8115 130.72 90.1899 130.437 90.6343 130.236C91.0786 130.031 91.5767 129.929 92.1284 129.929C92.6851 129.929 93.1855 130.031 93.6299 130.236C94.0791 130.437 94.46 130.72 94.7725 131.086C95.0898 131.447 95.3315 131.875 95.4976 132.368C95.6636 132.856 95.7466 133.386 95.7466 133.957V134.125C95.7466 134.697 95.6636 135.227 95.4976 135.715C95.3315 136.203 95.0898 136.63 94.7725 136.997C94.46 137.358 94.0815 137.641 93.6372 137.846C93.1978 138.046 92.6997 138.146 92.1431 138.146C91.5864 138.146 91.0859 138.046 90.6416 137.846C90.1973 137.641 89.8164 137.358 89.499 136.997C89.1865 136.63 88.9473 136.203 88.7812 135.715C88.6152 135.227 88.5322 134.697 88.5322 134.125ZM89.8872 133.957V134.125C89.8872 134.521 89.9336 134.895 90.0264 135.246C90.1191 135.593 90.2583 135.9 90.4438 136.169C90.6343 136.438 90.8711 136.65 91.1543 136.806C91.4375 136.958 91.7671 137.033 92.1431 137.033C92.5142 137.033 92.8389 136.958 93.1172 136.806C93.4004 136.65 93.6348 136.438 93.8203 136.169C94.0059 135.9 94.145 135.593 94.2378 135.246C94.3354 134.895 94.3843 134.521 94.3843 134.125V133.957C94.3843 133.566 94.3354 133.198 94.2378 132.851C94.145 132.5 94.0034 132.189 93.813 131.921C93.6274 131.647 93.3931 131.433 93.1099 131.276C92.8315 131.12 92.5044 131.042 92.1284 131.042C91.7573 131.042 91.4302 131.12 91.147 131.276C90.8687 131.433 90.6343 131.647 90.4438 131.921C90.2583 132.189 90.1191 132.5 90.0264 132.851C89.9336 133.198 89.8872 133.566 89.8872 133.957ZM106.162 136.462V126.75H107.524V138H106.279L106.162 136.462ZM100.83 134.125V133.972C100.83 133.366 100.903 132.817 101.049 132.324C101.201 131.826 101.413 131.398 101.687 131.042C101.965 130.686 102.294 130.412 102.675 130.222C103.061 130.026 103.491 129.929 103.964 129.929C104.462 129.929 104.897 130.017 105.268 130.192C105.644 130.363 105.961 130.615 106.22 130.947C106.484 131.274 106.691 131.669 106.843 132.133C106.994 132.597 107.099 133.122 107.158 133.708V134.382C107.104 134.963 106.999 135.485 106.843 135.949C106.691 136.413 106.484 136.809 106.22 137.136C105.961 137.463 105.644 137.714 105.268 137.89C104.892 138.061 104.453 138.146 103.95 138.146C103.486 138.146 103.061 138.046 102.675 137.846C102.294 137.646 101.965 137.365 101.687 137.004C101.413 136.643 101.201 136.218 101.049 135.729C100.903 135.236 100.83 134.702 100.83 134.125ZM102.192 133.972V134.125C102.192 134.521 102.231 134.892 102.309 135.239C102.392 135.585 102.519 135.891 102.69 136.154C102.861 136.418 103.078 136.625 103.342 136.777C103.605 136.923 103.92 136.997 104.287 136.997C104.736 136.997 105.104 136.901 105.393 136.711C105.686 136.521 105.92 136.269 106.096 135.957C106.271 135.644 106.408 135.305 106.506 134.938V133.173C106.447 132.905 106.362 132.646 106.25 132.397C106.142 132.143 106 131.918 105.825 131.723C105.654 131.523 105.441 131.364 105.188 131.247C104.938 131.13 104.643 131.071 104.301 131.071C103.93 131.071 103.61 131.149 103.342 131.306C103.078 131.457 102.861 131.667 102.69 131.936C102.519 132.199 102.392 132.507 102.309 132.858C102.231 133.205 102.192 133.576 102.192 133.972ZM112.922 138.146C112.37 138.146 111.87 138.054 111.42 137.868C110.976 137.678 110.593 137.412 110.271 137.07C109.953 136.728 109.709 136.323 109.538 135.854C109.367 135.385 109.282 134.873 109.282 134.316V134.008C109.282 133.364 109.377 132.79 109.567 132.287C109.758 131.779 110.017 131.35 110.344 130.998C110.671 130.646 111.042 130.38 111.457 130.2C111.872 130.019 112.302 129.929 112.746 129.929C113.312 129.929 113.801 130.026 114.211 130.222C114.626 130.417 114.965 130.69 115.229 131.042C115.493 131.389 115.688 131.799 115.815 132.272C115.942 132.741 116.005 133.254 116.005 133.811V134.418H110.087V133.312H114.65V133.21C114.631 132.858 114.558 132.517 114.431 132.185C114.309 131.853 114.113 131.579 113.845 131.364C113.576 131.149 113.21 131.042 112.746 131.042C112.438 131.042 112.155 131.108 111.896 131.24C111.638 131.367 111.416 131.557 111.23 131.811C111.044 132.065 110.9 132.375 110.798 132.741C110.695 133.107 110.644 133.53 110.644 134.008V134.316C110.644 134.692 110.695 135.046 110.798 135.378C110.905 135.705 111.059 135.993 111.259 136.242C111.464 136.491 111.711 136.687 111.999 136.828C112.292 136.97 112.624 137.041 112.995 137.041C113.474 137.041 113.879 136.943 114.211 136.748C114.543 136.552 114.833 136.291 115.083 135.964L115.903 136.616C115.732 136.875 115.515 137.121 115.251 137.355C114.987 137.59 114.663 137.78 114.277 137.927C113.896 138.073 113.444 138.146 112.922 138.146ZM124.479 137.033C124.802 137.033 125.1 136.967 125.373 136.835C125.646 136.704 125.871 136.523 126.047 136.293C126.223 136.059 126.323 135.793 126.347 135.495H127.636C127.612 135.964 127.453 136.401 127.16 136.806C126.872 137.207 126.494 137.531 126.025 137.78C125.556 138.024 125.041 138.146 124.479 138.146C123.884 138.146 123.364 138.042 122.919 137.832C122.48 137.622 122.114 137.333 121.821 136.967C121.533 136.601 121.315 136.181 121.169 135.708C121.027 135.229 120.957 134.724 120.957 134.191V133.884C120.957 133.352 121.027 132.849 121.169 132.375C121.315 131.896 121.533 131.474 121.821 131.108C122.114 130.742 122.48 130.454 122.919 130.244C123.364 130.034 123.884 129.929 124.479 129.929C125.1 129.929 125.642 130.056 126.105 130.31C126.569 130.559 126.933 130.9 127.197 131.335C127.465 131.765 127.612 132.253 127.636 132.8H126.347C126.323 132.473 126.23 132.177 126.069 131.914C125.913 131.65 125.698 131.44 125.424 131.284C125.156 131.123 124.841 131.042 124.479 131.042C124.064 131.042 123.715 131.125 123.432 131.291C123.154 131.452 122.932 131.672 122.766 131.95C122.604 132.224 122.487 132.529 122.414 132.866C122.346 133.198 122.312 133.537 122.312 133.884V134.191C122.312 134.538 122.346 134.88 122.414 135.217C122.482 135.554 122.597 135.859 122.758 136.132C122.924 136.406 123.146 136.625 123.425 136.792C123.708 136.953 124.06 137.033 124.479 137.033ZM128.801 134.125V133.957C128.801 133.386 128.884 132.856 129.05 132.368C129.216 131.875 129.455 131.447 129.768 131.086C130.08 130.72 130.458 130.437 130.903 130.236C131.347 130.031 131.845 129.929 132.397 129.929C132.954 129.929 133.454 130.031 133.898 130.236C134.348 130.437 134.729 130.72 135.041 131.086C135.358 131.447 135.6 131.875 135.766 132.368C135.932 132.856 136.015 133.386 136.015 133.957V134.125C136.015 134.697 135.932 135.227 135.766 135.715C135.6 136.203 135.358 136.63 135.041 136.997C134.729 137.358 134.35 137.641 133.906 137.846C133.466 138.046 132.968 138.146 132.412 138.146C131.855 138.146 131.354 138.046 130.91 137.846C130.466 137.641 130.085 137.358 129.768 136.997C129.455 136.63 129.216 136.203 129.05 135.715C128.884 135.227 128.801 134.697 128.801 134.125ZM130.156 133.957V134.125C130.156 134.521 130.202 134.895 130.295 135.246C130.388 135.593 130.527 135.9 130.712 136.169C130.903 136.438 131.14 136.65 131.423 136.806C131.706 136.958 132.036 137.033 132.412 137.033C132.783 137.033 133.107 136.958 133.386 136.806C133.669 136.65 133.903 136.438 134.089 136.169C134.274 135.9 134.414 135.593 134.506 135.246C134.604 134.895 134.653 134.521 134.653 134.125V133.957C134.653 133.566 134.604 133.198 134.506 132.851C134.414 132.5 134.272 132.189 134.082 131.921C133.896 131.647 133.662 131.433 133.378 131.276C133.1 131.12 132.773 131.042 132.397 131.042C132.026 131.042 131.699 131.12 131.416 131.276C131.137 131.433 130.903 131.647 130.712 131.921C130.527 132.189 130.388 132.5 130.295 132.851C130.202 133.198 130.156 133.566 130.156 133.957ZM139.062 131.65V138H137.7V130.075H138.989L139.062 131.65ZM138.784 133.737L138.154 133.715C138.159 133.173 138.229 132.673 138.366 132.214C138.503 131.75 138.706 131.347 138.974 131.005C139.243 130.664 139.577 130.4 139.978 130.214C140.378 130.024 140.842 129.929 141.369 129.929C141.74 129.929 142.082 129.982 142.395 130.09C142.707 130.192 142.978 130.356 143.208 130.581C143.437 130.805 143.615 131.093 143.742 131.445C143.869 131.796 143.933 132.221 143.933 132.719V138H142.578V132.785C142.578 132.37 142.507 132.038 142.365 131.789C142.229 131.54 142.033 131.359 141.779 131.247C141.525 131.13 141.228 131.071 140.886 131.071C140.485 131.071 140.151 131.142 139.882 131.284C139.614 131.425 139.399 131.621 139.238 131.87C139.077 132.119 138.959 132.404 138.886 132.727C138.818 133.044 138.784 133.381 138.784 133.737ZM143.918 132.99L143.01 133.269C143.015 132.834 143.085 132.417 143.222 132.016C143.364 131.616 143.566 131.259 143.83 130.947C144.099 130.634 144.428 130.388 144.819 130.207C145.209 130.021 145.656 129.929 146.159 129.929C146.584 129.929 146.96 129.985 147.287 130.097C147.619 130.209 147.897 130.383 148.122 130.617C148.352 130.847 148.525 131.142 148.642 131.503C148.759 131.865 148.818 132.294 148.818 132.792V138H147.456V132.778C147.456 132.333 147.385 131.989 147.243 131.745C147.106 131.496 146.911 131.323 146.657 131.225C146.408 131.123 146.11 131.071 145.764 131.071C145.466 131.071 145.202 131.123 144.973 131.225C144.743 131.328 144.55 131.469 144.394 131.65C144.238 131.826 144.118 132.028 144.035 132.258C143.957 132.487 143.918 132.731 143.918 132.99ZM154.157 138.146C153.605 138.146 153.105 138.054 152.656 137.868C152.211 137.678 151.828 137.412 151.506 137.07C151.188 136.728 150.944 136.323 150.773 135.854C150.603 135.385 150.517 134.873 150.517 134.316V134.008C150.517 133.364 150.612 132.79 150.803 132.287C150.993 131.779 151.252 131.35 151.579 130.998C151.906 130.646 152.277 130.38 152.692 130.2C153.107 130.019 153.537 129.929 153.981 129.929C154.548 129.929 155.036 130.026 155.446 130.222C155.861 130.417 156.201 130.69 156.464 131.042C156.728 131.389 156.923 131.799 157.05 132.272C157.177 132.741 157.241 133.254 157.241 133.811V134.418H151.323V133.312H155.886V133.21C155.866 132.858 155.793 132.517 155.666 132.185C155.544 131.853 155.349 131.579 155.08 131.364C154.812 131.149 154.445 131.042 153.981 131.042C153.674 131.042 153.391 131.108 153.132 131.24C152.873 131.367 152.651 131.557 152.465 131.811C152.28 132.065 152.136 132.375 152.033 132.741C151.931 133.107 151.879 133.53 151.879 134.008V134.316C151.879 134.692 151.931 135.046 152.033 135.378C152.141 135.705 152.294 135.993 152.495 136.242C152.7 136.491 152.946 136.687 153.234 136.828C153.527 136.97 153.859 137.041 154.23 137.041C154.709 137.041 155.114 136.943 155.446 136.748C155.778 136.552 156.069 136.291 156.318 135.964L157.138 136.616C156.967 136.875 156.75 137.121 156.486 137.355C156.223 137.59 155.898 137.78 155.512 137.927C155.131 138.073 154.68 138.146 154.157 138.146ZM161.994 137.033C162.316 137.033 162.614 136.967 162.888 136.835C163.161 136.704 163.386 136.523 163.562 136.293C163.737 136.059 163.837 135.793 163.862 135.495H165.151C165.126 135.964 164.968 136.401 164.675 136.806C164.387 137.207 164.008 137.531 163.54 137.78C163.071 138.024 162.556 138.146 161.994 138.146C161.398 138.146 160.878 138.042 160.434 137.832C159.995 137.622 159.628 137.333 159.335 136.967C159.047 136.601 158.83 136.181 158.684 135.708C158.542 135.229 158.471 134.724 158.471 134.191V133.884C158.471 133.352 158.542 132.849 158.684 132.375C158.83 131.896 159.047 131.474 159.335 131.108C159.628 130.742 159.995 130.454 160.434 130.244C160.878 130.034 161.398 129.929 161.994 129.929C162.614 129.929 163.156 130.056 163.62 130.31C164.084 130.559 164.448 130.9 164.711 131.335C164.98 131.765 165.126 132.253 165.151 132.8H163.862C163.837 132.473 163.745 132.177 163.583 131.914C163.427 131.65 163.212 131.44 162.939 131.284C162.67 131.123 162.355 131.042 161.994 131.042C161.579 131.042 161.23 131.125 160.947 131.291C160.668 131.452 160.446 131.672 160.28 131.95C160.119 132.224 160.002 132.529 159.929 132.866C159.86 133.198 159.826 133.537 159.826 133.884V134.191C159.826 134.538 159.86 134.88 159.929 135.217C159.997 135.554 160.112 135.859 160.273 136.132C160.439 136.406 160.661 136.625 160.939 136.792C161.223 136.953 161.574 137.033 161.994 137.033ZM161.247 138.073H162.221L162.133 138.461C162.417 138.51 162.673 138.627 162.902 138.813C163.137 138.999 163.254 139.304 163.254 139.729C163.254 139.958 163.205 140.166 163.107 140.351C163.015 140.542 162.875 140.703 162.69 140.834C162.504 140.971 162.272 141.076 161.994 141.149C161.721 141.223 161.401 141.259 161.035 141.259L160.983 140.476C161.208 140.476 161.411 140.451 161.591 140.402C161.777 140.354 161.923 140.275 162.031 140.168C162.143 140.061 162.199 139.921 162.199 139.75C162.199 139.589 162.158 139.462 162.075 139.37C161.992 139.277 161.862 139.206 161.687 139.157C161.516 139.113 161.293 139.082 161.02 139.062L161.247 138.073ZM171.347 136.645V132.565C171.347 132.253 171.284 131.982 171.157 131.752C171.035 131.518 170.849 131.337 170.6 131.21C170.351 131.083 170.043 131.02 169.677 131.02C169.335 131.02 169.035 131.079 168.776 131.196C168.522 131.313 168.322 131.467 168.176 131.657C168.034 131.848 167.963 132.053 167.963 132.272H166.608C166.608 131.989 166.682 131.708 166.828 131.43C166.975 131.152 167.185 130.9 167.458 130.676C167.736 130.446 168.068 130.266 168.454 130.134C168.845 129.997 169.279 129.929 169.758 129.929C170.334 129.929 170.842 130.026 171.281 130.222C171.726 130.417 172.072 130.712 172.321 131.108C172.575 131.499 172.702 131.989 172.702 132.58V136.271C172.702 136.535 172.724 136.816 172.768 137.114C172.817 137.412 172.888 137.668 172.98 137.883V138H171.567C171.499 137.844 171.445 137.636 171.406 137.377C171.367 137.114 171.347 136.87 171.347 136.645ZM171.582 133.195L171.596 134.147H170.227C169.841 134.147 169.497 134.179 169.194 134.243C168.891 134.301 168.637 134.392 168.432 134.514C168.227 134.636 168.071 134.79 167.963 134.975C167.856 135.156 167.802 135.368 167.802 135.612C167.802 135.861 167.858 136.088 167.971 136.293C168.083 136.499 168.251 136.662 168.476 136.784C168.706 136.901 168.986 136.96 169.318 136.96C169.733 136.96 170.1 136.872 170.417 136.696C170.734 136.521 170.986 136.306 171.171 136.052C171.362 135.798 171.464 135.551 171.479 135.312L172.058 135.964C172.023 136.169 171.931 136.396 171.779 136.645C171.628 136.894 171.425 137.133 171.171 137.363C170.922 137.587 170.625 137.775 170.278 137.927C169.936 138.073 169.55 138.146 169.121 138.146C168.583 138.146 168.112 138.042 167.707 137.832C167.307 137.622 166.994 137.341 166.77 136.989C166.55 136.633 166.44 136.235 166.44 135.795C166.44 135.371 166.523 134.997 166.689 134.675C166.855 134.348 167.094 134.077 167.407 133.862C167.719 133.642 168.095 133.476 168.535 133.364C168.974 133.251 169.465 133.195 170.007 133.195H171.582ZM176.188 131.32V138H174.833V130.075H176.152L176.188 131.32ZM178.664 130.031L178.657 131.291C178.544 131.267 178.437 131.252 178.334 131.247C178.237 131.237 178.125 131.232 177.998 131.232C177.685 131.232 177.409 131.281 177.17 131.379C176.931 131.477 176.728 131.613 176.562 131.789C176.396 131.965 176.264 132.175 176.167 132.419C176.074 132.658 176.013 132.922 175.983 133.21L175.603 133.43C175.603 132.951 175.649 132.502 175.742 132.082C175.839 131.662 175.988 131.291 176.188 130.969C176.389 130.642 176.643 130.388 176.95 130.207C177.263 130.021 177.634 129.929 178.063 129.929C178.161 129.929 178.273 129.941 178.4 129.965C178.527 129.985 178.615 130.007 178.664 130.031ZM188.31 136.645V132.565C188.31 132.253 188.247 131.982 188.12 131.752C187.998 131.518 187.812 131.337 187.563 131.21C187.314 131.083 187.006 131.02 186.64 131.02C186.298 131.02 185.998 131.079 185.739 131.196C185.485 131.313 185.285 131.467 185.139 131.657C184.997 131.848 184.926 132.053 184.926 132.272H183.571C183.571 131.989 183.645 131.708 183.791 131.43C183.938 131.152 184.147 130.9 184.421 130.676C184.699 130.446 185.031 130.266 185.417 130.134C185.808 129.997 186.242 129.929 186.721 129.929C187.297 129.929 187.805 130.026 188.244 130.222C188.688 130.417 189.035 130.712 189.284 131.108C189.538 131.499 189.665 131.989 189.665 132.58V136.271C189.665 136.535 189.687 136.816 189.731 137.114C189.78 137.412 189.851 137.668 189.943 137.883V138H188.53C188.461 137.844 188.408 137.636 188.369 137.377C188.33 137.114 188.31 136.87 188.31 136.645ZM188.544 133.195L188.559 134.147H187.189C186.804 134.147 186.459 134.179 186.157 134.243C185.854 134.301 185.6 134.392 185.395 134.514C185.19 134.636 185.034 134.79 184.926 134.975C184.819 135.156 184.765 135.368 184.765 135.612C184.765 135.861 184.821 136.088 184.934 136.293C185.046 136.499 185.214 136.662 185.439 136.784C185.668 136.901 185.949 136.96 186.281 136.96C186.696 136.96 187.062 136.872 187.38 136.696C187.697 136.521 187.949 136.306 188.134 136.052C188.325 135.798 188.427 135.551 188.442 135.312L189.021 135.964C188.986 136.169 188.894 136.396 188.742 136.645C188.591 136.894 188.388 137.133 188.134 137.363C187.885 137.587 187.587 137.775 187.241 137.927C186.899 138.073 186.513 138.146 186.083 138.146C185.546 138.146 185.075 138.042 184.67 137.832C184.27 137.622 183.957 137.341 183.732 136.989C183.513 136.633 183.403 136.235 183.403 135.795C183.403 135.371 183.486 134.997 183.652 134.675C183.818 134.348 184.057 134.077 184.37 133.862C184.682 133.642 185.058 133.476 185.498 133.364C185.937 133.251 186.428 133.195 186.97 133.195H188.544ZM28.437 153.075V161H27.0747V153.075H28.437ZM26.9722 150.973C26.9722 150.753 27.0381 150.568 27.1699 150.417C27.3066 150.265 27.5068 150.189 27.7705 150.189C28.0293 150.189 28.2271 150.265 28.3638 150.417C28.5054 150.568 28.5762 150.753 28.5762 150.973C28.5762 151.183 28.5054 151.364 28.3638 151.515C28.2271 151.662 28.0293 151.735 27.7705 151.735C27.5068 151.735 27.3066 151.662 27.1699 151.515C27.0381 151.364 26.9722 151.183 26.9722 150.973ZM31.9673 154.767V161H30.6123V153.075H31.894L31.9673 154.767ZM31.645 156.737L31.0811 156.715C31.0859 156.173 31.1665 155.673 31.3228 155.214C31.479 154.75 31.6987 154.347 31.9819 154.005C32.2651 153.664 32.6021 153.4 32.9927 153.214C33.3882 153.024 33.8252 152.929 34.3037 152.929C34.6943 152.929 35.0459 152.982 35.3584 153.09C35.6709 153.192 35.937 153.358 36.1567 153.588C36.3813 153.817 36.5522 154.115 36.6694 154.481C36.7866 154.843 36.8452 155.285 36.8452 155.807V161H35.4829V155.792C35.4829 155.377 35.4219 155.045 35.2998 154.796C35.1777 154.542 34.9995 154.359 34.7651 154.247C34.5308 154.13 34.2427 154.071 33.9009 154.071C33.564 154.071 33.2563 154.142 32.978 154.284C32.7046 154.425 32.4678 154.621 32.2676 154.87C32.0723 155.119 31.9185 155.404 31.8062 155.727C31.6987 156.044 31.645 156.381 31.645 156.737ZM41.313 159.777L43.481 153.075H44.8652L42.0161 161H41.1079L41.313 159.777ZM39.5039 153.075L41.7378 159.813L41.8916 161H40.9834L38.1123 153.075H39.5039ZM49.355 161.146C48.8032 161.146 48.3027 161.054 47.8535 160.868C47.4092 160.678 47.0259 160.412 46.7036 160.07C46.3862 159.728 46.1421 159.323 45.9712 158.854C45.8003 158.385 45.7148 157.873 45.7148 157.316V157.008C45.7148 156.364 45.8101 155.79 46.0005 155.287C46.1909 154.779 46.4497 154.35 46.7769 153.998C47.104 153.646 47.4751 153.38 47.8901 153.2C48.3052 153.019 48.7349 152.929 49.1792 152.929C49.7456 152.929 50.2339 153.026 50.644 153.222C51.0591 153.417 51.3984 153.69 51.6621 154.042C51.9258 154.389 52.1211 154.799 52.248 155.272C52.375 155.741 52.4385 156.254 52.4385 156.811V157.418H46.5205V156.312H51.0835V156.21C51.064 155.858 50.9907 155.517 50.8638 155.185C50.7417 154.853 50.5464 154.579 50.2778 154.364C50.0093 154.149 49.6431 154.042 49.1792 154.042C48.8716 154.042 48.5884 154.108 48.3296 154.24C48.0708 154.367 47.8486 154.557 47.6631 154.811C47.4775 155.065 47.3335 155.375 47.231 155.741C47.1284 156.107 47.0771 156.53 47.0771 157.008V157.316C47.0771 157.692 47.1284 158.046 47.231 158.378C47.3384 158.705 47.4922 158.993 47.6924 159.242C47.8975 159.491 48.144 159.687 48.4321 159.828C48.7251 159.97 49.0571 160.041 49.4282 160.041C49.9067 160.041 50.312 159.943 50.644 159.748C50.9761 159.552 51.2666 159.291 51.5156 158.964L52.3359 159.616C52.165 159.875 51.9478 160.121 51.6841 160.355C51.4204 160.59 51.0957 160.78 50.71 160.927C50.3291 161.073 49.8774 161.146 49.355 161.146ZM58.6348 158.898C58.6348 158.703 58.5908 158.522 58.5029 158.356C58.4199 158.185 58.2466 158.031 57.9829 157.895C57.7241 157.753 57.3335 157.631 56.811 157.528C56.3716 157.436 55.9736 157.326 55.6172 157.199C55.2656 157.072 54.9653 156.918 54.7163 156.737C54.4722 156.557 54.2842 156.344 54.1523 156.1C54.0205 155.856 53.9546 155.57 53.9546 155.243C53.9546 154.931 54.0229 154.635 54.1597 154.357C54.3013 154.079 54.499 153.832 54.7529 153.617C55.0117 153.402 55.3218 153.234 55.6831 153.112C56.0444 152.99 56.4473 152.929 56.8916 152.929C57.5264 152.929 58.0684 153.041 58.5176 153.266C58.9668 153.49 59.311 153.791 59.5503 154.167C59.7896 154.538 59.9092 154.95 59.9092 155.404H58.5542C58.5542 155.185 58.4883 154.972 58.3564 154.767C58.2295 154.557 58.0415 154.384 57.7925 154.247C57.5483 154.11 57.248 154.042 56.8916 154.042C56.5156 154.042 56.2104 154.101 55.9761 154.218C55.7466 154.33 55.5781 154.474 55.4707 154.65C55.3682 154.826 55.3169 155.011 55.3169 155.207C55.3169 155.353 55.3413 155.485 55.3901 155.602C55.4438 155.714 55.5366 155.819 55.6685 155.917C55.8003 156.01 55.9858 156.098 56.2251 156.181C56.4644 156.264 56.7695 156.347 57.1406 156.43C57.79 156.576 58.3247 156.752 58.7446 156.957C59.1646 157.162 59.4771 157.414 59.6821 157.711C59.8872 158.009 59.9897 158.371 59.9897 158.795C59.9897 159.142 59.9165 159.459 59.77 159.748C59.6284 160.036 59.4209 160.285 59.1475 160.495C58.8789 160.7 58.5566 160.861 58.1807 160.978C57.8096 161.09 57.3921 161.146 56.9282 161.146C56.23 161.146 55.6392 161.022 55.1558 160.773C54.6724 160.524 54.3062 160.202 54.0571 159.806C53.8081 159.411 53.6836 158.993 53.6836 158.554H55.0459C55.0654 158.925 55.1729 159.22 55.3682 159.44C55.5635 159.655 55.8027 159.809 56.0859 159.901C56.3691 159.989 56.6499 160.033 56.9282 160.033C57.2993 160.033 57.6094 159.984 57.8584 159.887C58.1123 159.789 58.3052 159.655 58.437 159.484C58.5688 159.313 58.6348 159.118 58.6348 158.898ZM65.0874 153.075V154.115H60.8027V153.075H65.0874ZM62.2529 151.149H63.6079V159.037C63.6079 159.306 63.6494 159.508 63.7324 159.645C63.8154 159.782 63.9229 159.872 64.0547 159.916C64.1865 159.96 64.3281 159.982 64.4795 159.982C64.5918 159.982 64.709 159.972 64.8311 159.953C64.958 159.928 65.0532 159.909 65.1167 159.894L65.124 161C65.0166 161.034 64.875 161.066 64.6992 161.095C64.5283 161.129 64.3208 161.146 64.0767 161.146C63.7446 161.146 63.4395 161.081 63.1611 160.949C62.8828 160.817 62.6606 160.597 62.4946 160.29C62.3335 159.977 62.2529 159.557 62.2529 159.03V151.149ZM68.1489 153.075V161H66.7866V153.075H68.1489ZM66.6841 150.973C66.6841 150.753 66.75 150.568 66.8818 150.417C67.0186 150.265 67.2188 150.189 67.4824 150.189C67.7412 150.189 67.939 150.265 68.0757 150.417C68.2173 150.568 68.2881 150.753 68.2881 150.973C68.2881 151.183 68.2173 151.364 68.0757 151.515C67.939 151.662 67.7412 151.735 67.4824 151.735C67.2188 151.735 67.0186 151.662 66.8818 151.515C66.75 151.364 66.6841 151.183 66.6841 150.973ZM71.6792 154.32V161H70.3242V153.075H71.6426L71.6792 154.32ZM74.1548 153.031L74.1475 154.291C74.0352 154.267 73.9277 154.252 73.8252 154.247C73.7275 154.237 73.6152 154.232 73.4883 154.232C73.1758 154.232 72.8999 154.281 72.6606 154.379C72.4214 154.477 72.2188 154.613 72.0527 154.789C71.8867 154.965 71.7549 155.175 71.6572 155.419C71.5645 155.658 71.5034 155.922 71.4741 156.21L71.0933 156.43C71.0933 155.951 71.1396 155.502 71.2324 155.082C71.3301 154.662 71.479 154.291 71.6792 153.969C71.8794 153.642 72.1333 153.388 72.4409 153.207C72.7534 153.021 73.1245 152.929 73.5542 152.929C73.6519 152.929 73.7642 152.941 73.8911 152.965C74.0181 152.985 74.106 153.007 74.1548 153.031ZM82.4165 161.146C81.8647 161.146 81.3643 161.054 80.915 160.868C80.4707 160.678 80.0874 160.412 79.7651 160.07C79.4478 159.728 79.2036 159.323 79.0327 158.854C78.8618 158.385 78.7764 157.873 78.7764 157.316V157.008C78.7764 156.364 78.8716 155.79 79.062 155.287C79.2524 154.779 79.5112 154.35 79.8384 153.998C80.1655 153.646 80.5366 153.38 80.9517 153.2C81.3667 153.019 81.7964 152.929 82.2407 152.929C82.8071 152.929 83.2954 153.026 83.7056 153.222C84.1206 153.417 84.46 153.69 84.7236 154.042C84.9873 154.389 85.1826 154.799 85.3096 155.272C85.4365 155.741 85.5 156.254 85.5 156.811V157.418H79.582V156.312H84.145V156.21C84.1255 155.858 84.0522 155.517 83.9253 155.185C83.8032 154.853 83.6079 154.579 83.3394 154.364C83.0708 154.149 82.7046 154.042 82.2407 154.042C81.9331 154.042 81.6499 154.108 81.3911 154.24C81.1323 154.367 80.9102 154.557 80.7246 154.811C80.5391 155.065 80.395 155.375 80.2925 155.741C80.1899 156.107 80.1387 156.53 80.1387 157.008V157.316C80.1387 157.692 80.1899 158.046 80.2925 158.378C80.3999 158.705 80.5537 158.993 80.7539 159.242C80.959 159.491 81.2056 159.687 81.4937 159.828C81.7866 159.97 82.1187 160.041 82.4897 160.041C82.9683 160.041 83.3735 159.943 83.7056 159.748C84.0376 159.552 84.3281 159.291 84.5771 158.964L85.3975 159.616C85.2266 159.875 85.0093 160.121 84.7456 160.355C84.4819 160.59 84.1572 160.78 83.7715 160.927C83.3906 161.073 82.939 161.146 82.4165 161.146ZM92.1577 154.599V164.047H90.7954V153.075H92.0405L92.1577 154.599ZM97.4971 156.972V157.125C97.4971 157.702 97.4287 158.236 97.292 158.729C97.1553 159.218 96.9551 159.643 96.6914 160.004C96.4326 160.365 96.1128 160.646 95.7319 160.846C95.3511 161.046 94.9141 161.146 94.4209 161.146C93.918 161.146 93.4736 161.063 93.0879 160.897C92.7021 160.731 92.375 160.49 92.1064 160.172C91.8379 159.855 91.623 159.474 91.4619 159.03C91.3057 158.585 91.1982 158.085 91.1396 157.528V156.708C91.1982 156.122 91.3081 155.597 91.4692 155.133C91.6304 154.669 91.8428 154.274 92.1064 153.947C92.375 153.615 92.6997 153.363 93.0806 153.192C93.4614 153.017 93.9009 152.929 94.3989 152.929C94.897 152.929 95.3389 153.026 95.7246 153.222C96.1104 153.412 96.4351 153.686 96.6987 154.042C96.9624 154.398 97.1602 154.826 97.292 155.324C97.4287 155.817 97.4971 156.366 97.4971 156.972ZM96.1348 157.125V156.972C96.1348 156.576 96.0933 156.205 96.0103 155.858C95.9272 155.507 95.7979 155.199 95.6221 154.936C95.4512 154.667 95.2314 154.457 94.9629 154.306C94.6943 154.149 94.3745 154.071 94.0034 154.071C93.6616 154.071 93.3638 154.13 93.1099 154.247C92.8608 154.364 92.6484 154.523 92.4727 154.723C92.2969 154.918 92.1528 155.143 92.0405 155.397C91.9331 155.646 91.8525 155.905 91.7988 156.173V158.07C91.8965 158.412 92.0332 158.734 92.209 159.037C92.3848 159.335 92.6191 159.577 92.9121 159.762C93.2051 159.943 93.5737 160.033 94.0181 160.033C94.3843 160.033 94.6992 159.958 94.9629 159.806C95.2314 159.65 95.4512 159.438 95.6221 159.169C95.7979 158.9 95.9272 158.593 96.0103 158.246C96.0933 157.895 96.1348 157.521 96.1348 157.125ZM102.514 161.146C101.962 161.146 101.462 161.054 101.013 160.868C100.568 160.678 100.185 160.412 99.8628 160.07C99.5454 159.728 99.3013 159.323 99.1304 158.854C98.9595 158.385 98.874 157.873 98.874 157.316V157.008C98.874 156.364 98.9692 155.79 99.1597 155.287C99.3501 154.779 99.6089 154.35 99.936 153.998C100.263 153.646 100.634 153.38 101.049 153.2C101.464 153.019 101.894 152.929 102.338 152.929C102.905 152.929 103.393 153.026 103.803 153.222C104.218 153.417 104.558 153.69 104.821 154.042C105.085 154.389 105.28 154.799 105.407 155.272C105.534 155.741 105.598 156.254 105.598 156.811V157.418H99.6797V156.312H104.243V156.21C104.223 155.858 104.15 155.517 104.023 155.185C103.901 154.853 103.706 154.579 103.437 154.364C103.168 154.149 102.802 154.042 102.338 154.042C102.031 154.042 101.748 154.108 101.489 154.24C101.23 154.367 101.008 154.557 100.822 154.811C100.637 155.065 100.493 155.375 100.39 155.741C100.288 156.107 100.236 156.53 100.236 157.008V157.316C100.236 157.692 100.288 158.046 100.39 158.378C100.498 158.705 100.651 158.993 100.852 159.242C101.057 159.491 101.303 159.687 101.591 159.828C101.884 159.97 102.216 160.041 102.587 160.041C103.066 160.041 103.471 159.943 103.803 159.748C104.135 159.552 104.426 159.291 104.675 158.964L105.495 159.616C105.324 159.875 105.107 160.121 104.843 160.355C104.58 160.59 104.255 160.78 103.869 160.927C103.488 161.073 103.037 161.146 102.514 161.146ZM108.535 154.32V161H107.18V153.075H108.498L108.535 154.32ZM111.01 153.031L111.003 154.291C110.891 154.267 110.783 154.252 110.681 154.247C110.583 154.237 110.471 154.232 110.344 154.232C110.031 154.232 109.755 154.281 109.516 154.379C109.277 154.477 109.074 154.613 108.908 154.789C108.742 154.965 108.61 155.175 108.513 155.419C108.42 155.658 108.359 155.922 108.33 156.21L107.949 156.43C107.949 155.951 107.995 155.502 108.088 155.082C108.186 154.662 108.334 154.291 108.535 153.969C108.735 153.642 108.989 153.388 109.296 153.207C109.609 153.021 109.98 152.929 110.41 152.929C110.507 152.929 110.62 152.941 110.747 152.965C110.874 152.985 110.961 153.007 111.01 153.031ZM117.111 159.462V149.75H118.474V161H117.229L117.111 159.462ZM111.779 157.125V156.972C111.779 156.366 111.853 155.817 111.999 155.324C112.15 154.826 112.363 154.398 112.636 154.042C112.915 153.686 113.244 153.412 113.625 153.222C114.011 153.026 114.44 152.929 114.914 152.929C115.412 152.929 115.847 153.017 116.218 153.192C116.594 153.363 116.911 153.615 117.17 153.947C117.434 154.274 117.641 154.669 117.792 155.133C117.944 155.597 118.049 156.122 118.107 156.708V157.382C118.054 157.963 117.949 158.485 117.792 158.949C117.641 159.413 117.434 159.809 117.17 160.136C116.911 160.463 116.594 160.714 116.218 160.89C115.842 161.061 115.402 161.146 114.899 161.146C114.436 161.146 114.011 161.046 113.625 160.846C113.244 160.646 112.915 160.365 112.636 160.004C112.363 159.643 112.15 159.218 111.999 158.729C111.853 158.236 111.779 157.702 111.779 157.125ZM113.142 156.972V157.125C113.142 157.521 113.181 157.892 113.259 158.239C113.342 158.585 113.469 158.891 113.64 159.154C113.811 159.418 114.028 159.625 114.292 159.777C114.555 159.923 114.87 159.997 115.236 159.997C115.686 159.997 116.054 159.901 116.342 159.711C116.635 159.521 116.87 159.269 117.045 158.957C117.221 158.644 117.358 158.305 117.456 157.938V156.173C117.397 155.905 117.312 155.646 117.199 155.397C117.092 155.143 116.95 154.918 116.774 154.723C116.604 154.523 116.391 154.364 116.137 154.247C115.888 154.13 115.593 154.071 115.251 154.071C114.88 154.071 114.56 154.149 114.292 154.306C114.028 154.457 113.811 154.667 113.64 154.936C113.469 155.199 113.342 155.507 113.259 155.858C113.181 156.205 113.142 156.576 113.142 156.972ZM123.872 161.146C123.32 161.146 122.819 161.054 122.37 160.868C121.926 160.678 121.542 160.412 121.22 160.07C120.903 159.728 120.659 159.323 120.488 158.854C120.317 158.385 120.231 157.873 120.231 157.316V157.008C120.231 156.364 120.327 155.79 120.517 155.287C120.708 154.779 120.966 154.35 121.293 153.998C121.621 153.646 121.992 153.38 122.407 153.2C122.822 153.019 123.251 152.929 123.696 152.929C124.262 152.929 124.75 153.026 125.161 153.222C125.576 153.417 125.915 153.69 126.179 154.042C126.442 154.389 126.638 154.799 126.765 155.272C126.892 155.741 126.955 156.254 126.955 156.811V157.418H121.037V156.312H125.6V156.21C125.581 155.858 125.507 155.517 125.38 155.185C125.258 154.853 125.063 154.579 124.794 154.364C124.526 154.149 124.16 154.042 123.696 154.042C123.388 154.042 123.105 154.108 122.846 154.24C122.587 154.367 122.365 154.557 122.18 154.811C121.994 155.065 121.85 155.375 121.748 155.741C121.645 156.107 121.594 156.53 121.594 157.008V157.316C121.594 157.692 121.645 158.046 121.748 158.378C121.855 158.705 122.009 158.993 122.209 159.242C122.414 159.491 122.661 159.687 122.949 159.828C123.242 159.97 123.574 160.041 123.945 160.041C124.423 160.041 124.829 159.943 125.161 159.748C125.493 159.552 125.783 159.291 126.032 158.964L126.853 159.616C126.682 159.875 126.464 160.121 126.201 160.355C125.937 160.59 125.612 160.78 125.227 160.927C124.846 161.073 124.394 161.146 123.872 161.146ZM129.892 154.32V161H128.537V153.075H129.855L129.892 154.32ZM132.368 153.031L132.36 154.291C132.248 154.267 132.141 154.252 132.038 154.247C131.94 154.237 131.828 154.232 131.701 154.232C131.389 154.232 131.113 154.281 130.874 154.379C130.634 154.477 130.432 154.613 130.266 154.789C130.1 154.965 129.968 155.175 129.87 155.419C129.777 155.658 129.716 155.922 129.687 156.21L129.306 156.43C129.306 155.951 129.353 155.502 129.445 155.082C129.543 154.662 129.692 154.291 129.892 153.969C130.092 153.642 130.346 153.388 130.654 153.207C130.966 153.021 131.337 152.929 131.767 152.929C131.865 152.929 131.977 152.941 132.104 152.965C132.231 152.985 132.319 153.007 132.368 153.031ZM142.336 159.462V149.75H143.698V161H142.453L142.336 159.462ZM137.004 157.125V156.972C137.004 156.366 137.077 155.817 137.224 155.324C137.375 154.826 137.587 154.398 137.861 154.042C138.139 153.686 138.469 153.412 138.85 153.222C139.235 153.026 139.665 152.929 140.139 152.929C140.637 152.929 141.071 153.017 141.442 153.192C141.818 153.363 142.136 153.615 142.395 153.947C142.658 154.274 142.866 154.669 143.017 155.133C143.168 155.597 143.273 156.122 143.332 156.708V157.382C143.278 157.963 143.173 158.485 143.017 158.949C142.866 159.413 142.658 159.809 142.395 160.136C142.136 160.463 141.818 160.714 141.442 160.89C141.066 161.061 140.627 161.146 140.124 161.146C139.66 161.146 139.235 161.046 138.85 160.846C138.469 160.646 138.139 160.365 137.861 160.004C137.587 159.643 137.375 159.218 137.224 158.729C137.077 158.236 137.004 157.702 137.004 157.125ZM138.366 156.972V157.125C138.366 157.521 138.405 157.892 138.483 158.239C138.566 158.585 138.693 158.891 138.864 159.154C139.035 159.418 139.252 159.625 139.516 159.777C139.78 159.923 140.095 159.997 140.461 159.997C140.91 159.997 141.279 159.901 141.567 159.711C141.86 159.521 142.094 159.269 142.27 158.957C142.446 158.644 142.583 158.305 142.68 157.938V156.173C142.622 155.905 142.536 155.646 142.424 155.397C142.316 155.143 142.175 154.918 141.999 154.723C141.828 154.523 141.616 154.364 141.362 154.247C141.113 154.13 140.817 154.071 140.476 154.071C140.104 154.071 139.785 154.149 139.516 154.306C139.252 154.457 139.035 154.667 138.864 154.936C138.693 155.199 138.566 155.507 138.483 155.858C138.405 156.205 138.366 156.576 138.366 156.972ZM147.28 153.075V161H145.917V153.075H147.28ZM145.815 150.973C145.815 150.753 145.881 150.568 146.013 150.417C146.149 150.265 146.35 150.189 146.613 150.189C146.872 150.189 147.07 150.265 147.207 150.417C147.348 150.568 147.419 150.753 147.419 150.973C147.419 151.183 147.348 151.364 147.207 151.515C147.07 151.662 146.872 151.735 146.613 151.735C146.35 151.735 146.149 151.662 146.013 151.515C145.881 151.364 145.815 151.183 145.815 150.973ZM150.81 154.767V161H149.455V153.075H150.737L150.81 154.767ZM150.488 156.737L149.924 156.715C149.929 156.173 150.009 155.673 150.166 155.214C150.322 154.75 150.542 154.347 150.825 154.005C151.108 153.664 151.445 153.4 151.835 153.214C152.231 153.024 152.668 152.929 153.146 152.929C153.537 152.929 153.889 152.982 154.201 153.09C154.514 153.192 154.78 153.358 155 153.588C155.224 153.817 155.395 154.115 155.512 154.481C155.629 154.843 155.688 155.285 155.688 155.807V161H154.326V155.792C154.326 155.377 154.265 155.045 154.143 154.796C154.021 154.542 153.842 154.359 153.608 154.247C153.374 154.13 153.085 154.071 152.744 154.071C152.407 154.071 152.099 154.142 151.821 154.284C151.547 154.425 151.311 154.621 151.11 154.87C150.915 155.119 150.761 155.404 150.649 155.727C150.542 156.044 150.488 156.381 150.488 156.737ZM159.101 149.75V161H157.746V149.75H159.101ZM158.779 156.737L158.215 156.715C158.22 156.173 158.3 155.673 158.457 155.214C158.613 154.75 158.833 154.347 159.116 154.005C159.399 153.664 159.736 153.4 160.126 153.214C160.522 153.024 160.959 152.929 161.438 152.929C161.828 152.929 162.18 152.982 162.492 153.09C162.805 153.192 163.071 153.358 163.291 153.588C163.515 153.817 163.686 154.115 163.803 154.481C163.92 154.843 163.979 155.285 163.979 155.807V161H162.617V155.792C162.617 155.377 162.556 155.045 162.434 154.796C162.312 154.542 162.133 154.359 161.899 154.247C161.665 154.13 161.376 154.071 161.035 154.071C160.698 154.071 160.39 154.142 160.112 154.284C159.838 154.425 159.602 154.621 159.401 154.87C159.206 155.119 159.052 155.404 158.94 155.727C158.833 156.044 158.779 156.381 158.779 156.737ZM169.296 161.146C168.745 161.146 168.244 161.054 167.795 160.868C167.351 160.678 166.967 160.412 166.645 160.07C166.328 159.728 166.083 159.323 165.913 158.854C165.742 158.385 165.656 157.873 165.656 157.316V157.008C165.656 156.364 165.751 155.79 165.942 155.287C166.132 154.779 166.391 154.35 166.718 153.998C167.045 153.646 167.417 153.38 167.832 153.2C168.247 153.019 168.676 152.929 169.121 152.929C169.687 152.929 170.175 153.026 170.585 153.222C171 153.417 171.34 153.69 171.604 154.042C171.867 154.389 172.062 154.799 172.189 155.272C172.316 155.741 172.38 156.254 172.38 156.811V157.418H166.462V156.312H171.025V156.21C171.005 155.858 170.932 155.517 170.805 155.185C170.683 154.853 170.488 154.579 170.219 154.364C169.951 154.149 169.584 154.042 169.121 154.042C168.813 154.042 168.53 154.108 168.271 154.24C168.012 154.367 167.79 154.557 167.604 154.811C167.419 155.065 167.275 155.375 167.172 155.741C167.07 156.107 167.019 156.53 167.019 157.008V157.316C167.019 157.692 167.07 158.046 167.172 158.378C167.28 158.705 167.434 158.993 167.634 159.242C167.839 159.491 168.085 159.687 168.374 159.828C168.667 159.97 168.999 160.041 169.37 160.041C169.848 160.041 170.253 159.943 170.585 159.748C170.917 159.552 171.208 159.291 171.457 158.964L172.277 159.616C172.106 159.875 171.889 160.121 171.625 160.355C171.362 160.59 171.037 160.78 170.651 160.927C170.271 161.073 169.819 161.146 169.296 161.146ZM175.434 153.075V161H174.072V153.075H175.434ZM173.969 150.973C173.969 150.753 174.035 150.568 174.167 150.417C174.304 150.265 174.504 150.189 174.768 150.189C175.026 150.189 175.224 150.265 175.361 150.417C175.502 150.568 175.573 150.753 175.573 150.973C175.573 151.183 175.502 151.364 175.361 151.515C175.224 151.662 175.026 151.735 174.768 151.735C174.504 151.735 174.304 151.662 174.167 151.515C174.035 151.364 173.969 151.183 173.969 150.973ZM178.964 154.32V161H177.609V153.075H178.928L178.964 154.32ZM181.44 153.031L181.433 154.291C181.32 154.267 181.213 154.252 181.11 154.247C181.013 154.237 180.9 154.232 180.773 154.232C180.461 154.232 180.185 154.281 179.946 154.379C179.707 154.477 179.504 154.613 179.338 154.789C179.172 154.965 179.04 155.175 178.942 155.419C178.85 155.658 178.789 155.922 178.759 156.21L178.378 156.43C178.378 155.951 178.425 155.502 178.518 155.082C178.615 154.662 178.764 154.291 178.964 153.969C179.165 153.642 179.418 153.388 179.726 153.207C180.039 153.021 180.41 152.929 180.839 152.929C180.937 152.929 181.049 152.941 181.176 152.965C181.303 152.985 181.391 153.007 181.44 153.031ZM182.187 157.125V156.957C182.187 156.386 182.27 155.856 182.436 155.368C182.602 154.875 182.841 154.447 183.154 154.086C183.466 153.72 183.845 153.437 184.289 153.236C184.733 153.031 185.231 152.929 185.783 152.929C186.34 152.929 186.84 153.031 187.285 153.236C187.734 153.437 188.115 153.72 188.427 154.086C188.745 154.447 188.986 154.875 189.152 155.368C189.318 155.856 189.401 156.386 189.401 156.957V157.125C189.401 157.697 189.318 158.227 189.152 158.715C188.986 159.203 188.745 159.63 188.427 159.997C188.115 160.358 187.736 160.641 187.292 160.846C186.853 161.046 186.354 161.146 185.798 161.146C185.241 161.146 184.741 161.046 184.296 160.846C183.852 160.641 183.471 160.358 183.154 159.997C182.841 159.63 182.602 159.203 182.436 158.715C182.27 158.227 182.187 157.697 182.187 157.125ZM183.542 156.957V157.125C183.542 157.521 183.588 157.895 183.681 158.246C183.774 158.593 183.913 158.9 184.099 159.169C184.289 159.438 184.526 159.65 184.809 159.806C185.092 159.958 185.422 160.033 185.798 160.033C186.169 160.033 186.494 159.958 186.772 159.806C187.055 159.65 187.29 159.438 187.475 159.169C187.661 158.9 187.8 158.593 187.893 158.246C187.99 157.895 188.039 157.521 188.039 157.125V156.957C188.039 156.566 187.99 156.198 187.893 155.851C187.8 155.5 187.658 155.189 187.468 154.921C187.282 154.647 187.048 154.433 186.765 154.276C186.486 154.12 186.159 154.042 185.783 154.042C185.412 154.042 185.085 154.12 184.802 154.276C184.523 154.433 184.289 154.647 184.099 154.921C183.913 155.189 183.774 155.5 183.681 155.851C183.588 156.198 183.542 156.566 183.542 156.957Z" fill="white"/>
<defs>
<linearGradient id="paint0_linear_202_5" x1="153.384" y1="17.3839" x2="17.3838" y2="379.884" gradientUnits="userSpaceOnUse">
<stop stop-color="#B17BFF"/>
<stop offset="1" stop-color="#4388F7"/>
</linearGradient>
</defs>
</svg>
