<svg width="1920" height="201" viewBox="0 0 1920 201" fill="none" xmlns="http://www.w3.org/2000/svg">
<path fill-rule="evenodd" clip-rule="evenodd" d="M0 90.6555L64 113.516C128 136.377 256 181.705 384 193.136C512 204.172 640 181.705 768 170.275C896 158.844 1024 158.844 1152 170.275C1280 181.705 1408 204.172 1536 200.624C1664 196.683 1792 166.333 1856 151.355L1920 136.377V0H1856C1792 0 1664 0 1536 0C1408 0 1280 0 1152 0C1024 0 896 0 768 0C640 0 512 0 384 0C256 0 128 0 64 0H0V90.6555Z" fill="#E7E5F2"/>
</svg>
