<svg width="1920" height="270" viewBox="0 0 1920 270" fill="none" xmlns="http://www.w3.org/2000/svg">
<path fill-rule="evenodd" clip-rule="evenodd" d="M0 89.4011L64 83.4011C128 77.4011 256 65.4011 384 41.4011C512 17.4011 640 -18.5989 768 11.4011C896 41.4011 1024 137.401 1152 149.401C1280 161.401 1408 89.4011 1536 65.4011C1664 41.4011 1792 65.4011 1856 77.4011L1920 89.4011V269.401H1856C1792 269.401 1664 269.401 1536 269.401C1408 269.401 1280 269.401 1152 269.401C1024 269.401 896 269.401 768 269.401C640 269.401 512 269.401 384 269.401C256 269.401 128 269.401 64 269.401H0V89.4011Z" fill="#E7E5F2"/>
</svg>
