<?xml version="1.0" encoding="UTF-8" standalone="no"?><svg xmlns="http://www.w3.org/2000/svg" xmlns:xlink="http://www.w3.org/1999/xlink" fill="#000000" height="58.7" preserveAspectRatio="xMidYMid meet" version="1" viewBox="19.8 20.6 60.4 58.7" width="60.4" zoomAndPan="magnify"><g fill="#105f7c" id="change1_1"><path d="M 57.5625 56.292969 C 57.765625 58.796875 57.957031 61.34375 58.144531 63.808594 C 58.21875 64.769531 58.289062 65.730469 58.363281 66.691406 C 58.527344 68.828125 58.691406 70.96875 58.855469 73.105469 L 59.152344 76.941406 C 59.183594 77.359375 59.214844 77.78125 59.246094 78.214844 L 59.332031 79.367188 L 49.445312 79.367188 L 50.335938 66.554688 C 50.261719 66.460938 50.210938 66.394531 50.140625 66.300781 C 49.585938 66.195312 49.011719 66.089844 48.460938 65.886719 C 47.382812 65.496094 46.296875 65.074219 45.25 64.667969 C 44.296875 64.296875 43.316406 63.917969 42.347656 63.558594 C 42.164062 63.492188 41.847656 63.496094 41.691406 63.570312 C 39.511719 64.554688 37.257812 65.070312 34.996094 65.105469 C 35.582031 64.339844 36.050781 63.480469 36.378906 62.558594 C 37.484375 62.4375 38.554688 62.175781 39.605469 61.765625 C 39.25 61.480469 38.914062 61.207031 38.597656 60.894531 C 38.039062 60.34375 37.457031 59.753906 36.914062 59.113281 C 36.910156 59.054688 36.90625 58.996094 36.90625 58.9375 C 36.875 58.269531 37.332031 57.675781 37.988281 57.539062 C 38.089844 57.519531 38.191406 57.496094 38.289062 57.472656 L 38.589844 57.40625 L 38.785156 57.640625 C 42.070312 61.574219 46.703125 63.082031 50.519531 63.917969 L 51.796875 45.476562 C 51.699219 45.445312 51.597656 45.414062 51.496094 45.382812 C 51.007812 45.234375 50.546875 45.09375 50.082031 44.925781 C 47.199219 43.886719 44.761719 42.207031 42.835938 39.941406 C 42.769531 39.863281 42.679688 39.769531 42.628906 39.769531 C 42.597656 39.769531 42.527344 39.78125 42.390625 39.835938 C 40.398438 40.617188 38.550781 41 36.742188 41 C 36.066406 41 35.386719 40.945312 34.722656 40.835938 C 34.617188 40.820312 34.472656 40.792969 34.328125 40.757812 C 34.207031 40.722656 34.125 40.660156 34.066406 40.617188 C 34.050781 40.605469 34.03125 40.589844 34.003906 40.574219 L 33.75 40.402344 L 33.777344 40.191406 C 35.214844 39.910156 36.53125 39.308594 37.65625 38.457031 C 37.867188 38.445312 38.070312 38.429688 38.261719 38.40625 C 39.0625 38.320312 39.847656 38.117188 40.679688 37.90625 C 40.84375 37.863281 41.007812 37.820312 41.175781 37.777344 C 41.0625 37.539062 40.945312 37.300781 40.832031 37.070312 C 40.671875 36.75 40.425781 36.207031 40.15625 35.601562 C 40.722656 34.605469 41.113281 33.496094 41.28125 32.316406 C 43.839844 38.6875 47.175781 41.6875 51.953125 43.042969 L 51.972656 42.8125 C 52.019531 42.261719 52.058594 41.71875 52.097656 41.179688 L 52.1875 39.914062 C 52.25 39.027344 52.316406 38.128906 52.378906 37.226562 C 53.039062 37.378906 53.726562 37.460938 54.433594 37.460938 C 55 37.460938 55.554688 37.40625 56.09375 37.304688 C 56.203125 38.691406 56.304688 40.070312 56.410156 41.429688 L 56.582031 43.675781 C 56.683594 45.003906 56.785156 46.335938 56.886719 47.664062 C 57.035156 49.609375 57.183594 51.554688 57.332031 53.5 C 57.335938 53.539062 57.339844 53.578125 57.34375 53.621094 C 57.460938 53.589844 57.570312 53.554688 57.671875 53.519531 C 60.527344 52.476562 62.882812 50.773438 64.796875 48.347656 C 65.25 48.992188 65.785156 49.574219 66.382812 50.085938 C 64.066406 52.863281 61.191406 54.824219 57.835938 55.914062 C 57.539062 56.011719 57.539062 56.015625 57.5625 56.292969" fill="inherit"/><path d="M 75.820312 45.605469 C 75.675781 46.675781 75.023438 47.402344 73.875 47.757812 C 73.714844 47.8125 73.550781 47.84375 73.367188 47.882812 C 73.351562 47.886719 73.332031 47.894531 73.308594 47.894531 L 73.308594 49.144531 L 71.804688 49.144531 L 71.804688 47.902344 C 69.824219 47.417969 68.933594 46.398438 69.09375 44.792969 L 69.121094 44.566406 L 71.308594 44.566406 L 71.339844 44.785156 C 71.355469 44.890625 71.371094 44.996094 71.386719 45.105469 C 71.445312 45.640625 71.78125 45.96875 72.316406 46.011719 C 72.378906 46.019531 72.449219 46.019531 72.519531 46.019531 L 72.667969 46.011719 C 73.105469 46.003906 73.375 45.820312 73.480469 45.476562 C 73.621094 45.039062 73.496094 44.605469 73.175781 44.398438 C 72.96875 44.265625 72.738281 44.160156 72.496094 44.046875 C 72.375 43.992188 72.253906 43.933594 72.128906 43.875 C 71.964844 43.796875 71.792969 43.714844 71.628906 43.640625 C 71.222656 43.460938 70.808594 43.273438 70.441406 43.007812 C 69.695312 42.472656 69.289062 41.585938 69.363281 40.640625 C 69.441406 39.671875 69.988281 38.84375 70.832031 38.421875 C 71.09375 38.292969 71.367188 38.214844 71.65625 38.128906 C 71.738281 38.101562 71.824219 38.078125 71.910156 38.046875 L 71.910156 36.730469 L 73.410156 36.730469 L 73.410156 38.09375 C 74.378906 38.308594 75.03125 38.75 75.441406 39.449219 C 75.71875 39.921875 75.863281 40.582031 75.796875 41.121094 L 75.777344 41.34375 L 73.585938 41.34375 L 73.511719 40.949219 C 73.492188 40.792969 73.464844 40.644531 73.421875 40.511719 C 73.300781 40.136719 73.015625 39.945312 72.574219 39.945312 C 71.996094 39.957031 71.847656 40.183594 71.765625 40.429688 C 71.617188 40.878906 71.71875 41.316406 72.015625 41.511719 C 72.269531 41.675781 72.539062 41.796875 72.828125 41.929688 C 72.9375 41.984375 73.042969 42.03125 73.148438 42.082031 C 73.316406 42.167969 73.480469 42.242188 73.648438 42.316406 C 73.976562 42.472656 74.320312 42.625 74.640625 42.824219 C 75.578125 43.394531 75.984375 44.363281 75.820312 45.605469 Z M 72.464844 35.203125 C 68.195312 35.203125 64.730469 38.664062 64.730469 42.933594 C 64.730469 47.210938 68.195312 50.667969 72.464844 50.667969 C 76.734375 50.667969 80.199219 47.210938 80.199219 42.933594 C 80.199219 38.664062 76.734375 35.203125 72.464844 35.203125" fill="inherit"/><path d="M 57.777344 31.011719 C 57.632812 32.074219 56.984375 32.800781 55.839844 33.15625 C 55.675781 33.210938 55.511719 33.242188 55.332031 33.28125 C 55.316406 33.285156 55.292969 33.289062 55.273438 33.289062 L 55.273438 34.535156 L 53.769531 34.535156 L 53.769531 33.300781 C 51.792969 32.816406 50.910156 31.796875 51.070312 30.199219 L 51.097656 29.972656 L 53.277344 29.972656 L 53.308594 30.191406 C 53.324219 30.296875 53.339844 30.402344 53.355469 30.511719 C 53.414062 31.042969 53.75 31.371094 54.28125 31.414062 C 54.347656 31.417969 54.414062 31.417969 54.484375 31.417969 L 54.632812 31.414062 C 55.070312 31.40625 55.335938 31.222656 55.445312 30.882812 C 55.582031 30.445312 55.460938 30.015625 55.140625 29.804688 C 54.933594 29.671875 54.703125 29.566406 54.464844 29.457031 C 54.339844 29.402344 54.21875 29.34375 54.09375 29.285156 C 53.929688 29.203125 53.761719 29.125 53.59375 29.050781 C 53.191406 28.867188 52.78125 28.683594 52.414062 28.414062 C 51.667969 27.882812 51.261719 27 51.335938 26.054688 C 51.417969 25.09375 51.960938 24.265625 52.800781 23.84375 C 53.0625 23.71875 53.335938 23.636719 53.621094 23.550781 C 53.707031 23.527344 53.792969 23.5 53.878906 23.472656 L 53.878906 22.15625 L 55.375 22.15625 L 55.375 23.515625 C 56.339844 23.734375 56.988281 24.171875 57.398438 24.867188 C 57.675781 25.34375 57.820312 25.996094 57.753906 26.535156 L 57.734375 26.761719 L 55.550781 26.761719 L 55.476562 26.363281 C 55.453125 26.210938 55.425781 26.0625 55.386719 25.929688 C 55.261719 25.554688 54.980469 25.363281 54.539062 25.363281 C 53.964844 25.375 53.8125 25.601562 53.734375 25.847656 C 53.585938 26.296875 53.683594 26.730469 53.984375 26.925781 C 54.234375 27.089844 54.507812 27.210938 54.792969 27.34375 C 54.902344 27.398438 55.007812 27.445312 55.113281 27.492188 C 55.277344 27.582031 55.445312 27.65625 55.609375 27.726562 C 55.9375 27.882812 56.28125 28.039062 56.597656 28.234375 C 57.535156 28.804688 57.941406 29.769531 57.777344 31.011719 Z M 54.429688 20.632812 C 50.167969 20.632812 46.71875 24.085938 46.71875 28.347656 C 46.71875 32.609375 50.167969 36.058594 54.429688 36.058594 C 58.6875 36.058594 62.144531 32.609375 62.144531 28.347656 C 62.144531 24.085938 58.6875 20.632812 54.429688 20.632812" fill="inherit"/><path d="M 35.058594 33.644531 C 34.914062 34.714844 34.265625 35.441406 33.117188 35.796875 C 32.957031 35.851562 32.789062 35.882812 32.609375 35.921875 C 32.59375 35.925781 32.570312 35.929688 32.550781 35.929688 L 32.550781 37.179688 L 31.042969 37.179688 L 31.042969 35.941406 C 29.0625 35.457031 28.175781 34.433594 28.335938 32.835938 L 28.363281 32.601562 L 30.546875 32.601562 L 30.578125 32.824219 C 30.59375 32.929688 30.609375 33.035156 30.625 33.144531 C 30.683594 33.675781 31.023438 34.007812 31.554688 34.050781 C 31.621094 34.054688 31.691406 34.054688 31.757812 34.054688 L 31.910156 34.050781 C 32.347656 34.039062 32.613281 33.859375 32.71875 33.519531 C 32.859375 33.078125 32.734375 32.648438 32.414062 32.4375 C 32.207031 32.304688 31.976562 32.199219 31.738281 32.085938 C 31.613281 32.03125 31.492188 31.972656 31.367188 31.914062 C 31.203125 31.835938 31.03125 31.753906 30.867188 31.679688 C 30.460938 31.496094 30.050781 31.3125 29.679688 31.042969 C 28.933594 30.511719 28.527344 29.625 28.601562 28.679688 C 28.683594 27.710938 29.226562 26.882812 30.070312 26.460938 C 30.332031 26.335938 30.605469 26.253906 30.894531 26.167969 C 30.980469 26.140625 31.066406 26.113281 31.148438 26.089844 L 31.148438 24.769531 L 32.652344 24.769531 L 32.652344 26.132812 C 33.617188 26.347656 34.269531 26.789062 34.679688 27.488281 C 34.957031 27.964844 35.101562 28.617188 35.039062 29.160156 L 35.015625 29.382812 L 32.828125 29.382812 L 32.753906 28.988281 C 32.730469 28.832031 32.703125 28.683594 32.660156 28.550781 C 32.539062 28.175781 32.257812 27.984375 31.8125 27.984375 C 31.234375 27.996094 31.085938 28.222656 31.007812 28.46875 C 30.855469 28.917969 30.957031 29.355469 31.257812 29.546875 C 31.507812 29.714844 31.78125 29.835938 32.070312 29.96875 C 32.175781 30.023438 32.28125 30.074219 32.390625 30.121094 C 32.554688 30.207031 32.71875 30.28125 32.886719 30.355469 C 33.21875 30.511719 33.558594 30.664062 33.878906 30.863281 C 34.820312 31.433594 35.226562 32.402344 35.058594 33.644531 Z M 31.707031 23.242188 C 27.433594 23.242188 23.972656 26.703125 23.972656 30.972656 C 23.972656 35.246094 27.433594 38.710938 31.707031 38.710938 C 35.972656 38.710938 39.441406 35.246094 39.441406 30.972656 C 39.441406 26.703125 35.972656 23.242188 31.707031 23.242188" fill="inherit"/><path d="M 30.886719 62.085938 C 30.742188 63.15625 30.09375 63.882812 28.945312 64.238281 C 28.785156 64.292969 28.617188 64.324219 28.4375 64.359375 C 28.421875 64.367188 28.398438 64.371094 28.378906 64.371094 L 28.378906 65.621094 L 26.871094 65.621094 L 26.871094 64.382812 C 24.890625 63.898438 24.003906 62.878906 24.164062 61.273438 L 24.191406 61.042969 L 26.375 61.042969 L 26.40625 61.265625 C 26.421875 61.371094 26.4375 61.476562 26.457031 61.585938 C 26.515625 62.117188 26.851562 62.449219 27.382812 62.492188 C 27.449219 62.496094 27.519531 62.496094 27.585938 62.496094 L 27.738281 62.492188 C 28.175781 62.480469 28.441406 62.300781 28.546875 61.957031 C 28.6875 61.519531 28.566406 61.085938 28.246094 60.878906 C 28.035156 60.746094 27.804688 60.640625 27.566406 60.527344 C 27.445312 60.472656 27.320312 60.414062 27.199219 60.355469 C 27.03125 60.277344 26.859375 60.195312 26.695312 60.121094 C 26.289062 59.941406 25.878906 59.753906 25.511719 59.484375 C 24.761719 58.953125 24.355469 58.066406 24.429688 57.117188 C 24.511719 56.152344 25.054688 55.324219 25.898438 54.902344 C 26.160156 54.773438 26.433594 54.695312 26.722656 54.609375 C 26.808594 54.582031 26.894531 54.554688 26.976562 54.527344 L 26.976562 53.210938 L 28.480469 53.210938 L 28.480469 54.570312 C 29.445312 54.789062 30.097656 55.226562 30.507812 55.925781 C 30.785156 56.402344 30.929688 57.058594 30.867188 57.597656 L 30.84375 57.824219 L 28.65625 57.824219 L 28.582031 57.429688 C 28.558594 57.273438 28.53125 57.125 28.488281 56.988281 C 28.367188 56.617188 28.085938 56.425781 27.640625 56.425781 C 27.0625 56.433594 26.914062 56.664062 26.835938 56.910156 C 26.683594 57.359375 26.785156 57.796875 27.085938 57.988281 C 27.335938 58.15625 27.609375 58.277344 27.898438 58.410156 C 28.003906 58.464844 28.109375 58.511719 28.21875 58.558594 C 28.382812 58.648438 28.546875 58.722656 28.714844 58.796875 C 29.046875 58.953125 29.386719 59.105469 29.707031 59.304688 C 30.648438 59.875 31.054688 60.84375 30.886719 62.085938 Z M 27.535156 51.679688 C 23.261719 51.679688 19.800781 55.144531 19.800781 59.414062 C 19.800781 63.6875 23.261719 67.148438 27.535156 67.148438 C 31.800781 67.148438 35.269531 63.6875 35.269531 59.414062 C 35.269531 55.144531 31.800781 51.679688 27.535156 51.679688" fill="inherit"/></g></svg>