<?xml version="1.0" encoding="UTF-8" standalone="no"?><svg xmlns="http://www.w3.org/2000/svg" xmlns:xlink="http://www.w3.org/1999/xlink" fill="#000000" height="276.9" preserveAspectRatio="xMidYMid meet" version="1.1" viewBox="99.4 86.6 265.3 276.9" width="265.3" zoomAndPan="magnify">
 <g fill="#105f7c" id="change1_1">
  <path d="m319.87 363.43h-25.89c-1.54 0-2.93-0.91-3.54-2.32l-7.78-18.1c-10.57 2.06-45.02 7.57-71.38-1.92l-13.47 20.6c-0.71 1.09-1.92 1.74-3.22 1.74h-22.04c-2.1 0-3.8-1.66-3.85-3.76l-0.85-35.65c-8.44-6.49-49.21-37.9-57.85-46.54-10.605-10.6-7.48-34.34-7.34-35.34 0.26-1.91 1.89-3.33 3.81-3.33h0.01l15.3 0.02c0.15 0 0.31 0.01 0.46 0.03-0.05-0.01 8.27 0.17 18.97-16.66 3.68-5.77 4.97-10.88 3.85-15.17-1.31-5.02-5.55-7.43-5.59-7.45-1.54-0.83-2.33-2.6-1.92-4.29 0.11-0.45 2.83-10.99 17.66-10.99 13.3 0 31.29 24.41 34.76 29.3 1.23 1.74 0.83 4.14-0.91 5.37-1.74 1.24-4.13 0.83-5.37-0.91-7.68-10.82-21.6-26.06-28.48-26.06-5.01 0-7.61 1.68-8.93 3.1 2.22 1.97 5 5.25 6.24 9.99 1.68 6.45 0.06 13.6-4.81 21.25-12.68 19.93-23.85 20.31-26.09 20.19l-11.66-0.01c-0.48 7.27-0.07 19.96 5.49 25.52 9.09 9.08 58.05 46.6 58.55 46.98 0.92 0.71 1.48 1.8 1.51 2.97l0.8 33.74h16.19l14.04-21.47c1.02-1.55 3-2.15 4.7-1.45 28.74 11.94 72.41 2.14 72.85 2.03 1.79-0.43 3.66 0.52 4.4 2.23l8.02 18.66h19.51v-37.22c0-1.04 0.42-2.04 1.17-2.76 1.67-1.63 40.6-40.31 13.63-87.29-36.95-64.35-128.96-24.65-129.89-24.24-1.95 0.86-4.22-0.02-5.08-1.97s0.02-4.22 1.97-5.08c0.99-0.43 99.33-42.82 139.68 27.46 27.2 47.38-6.87 87.96-13.78 95.43v39.52c0 2.13-1.72 3.85-3.85 3.85" fill="inherit"/>
  <path d="m258.06 94.27c-20.61 0-37.39 16.78-37.39 37.39 0 20.63 16.78 37.4 37.39 37.4 20.62 0 37.4-16.77 37.4-37.4 0-20.61-16.78-37.39-37.4-37.39zm0 82.49c-24.86 0-45.1-20.23-45.1-45.1 0-24.86 20.24-45.094 45.1-45.094 24.87 0 45.1 20.234 45.1 45.094 0 24.87-20.23 45.1-45.1 45.1" fill="inherit"/>
  <path d="m261.41 151.47h-6.69c-6.52 0-11.83-5.31-11.83-11.83 0-2.13 1.72-3.85 3.85-3.85s3.85 1.72 3.85 3.85c0 2.27 1.86 4.13 4.13 4.13h6.69c2.27 0 4.12-1.86 4.12-4.13s-1.85-4.12-4.12-4.12h-6.69c-6.52 0-11.83-5.31-11.83-11.83 0-6.53 5.31-11.83 11.83-11.83h6.69c6.52 0 11.82 5.3 11.82 11.83 0 2.13-1.72 3.85-3.85 3.85s-3.85-1.72-3.85-3.85c0-2.28-1.85-4.12-4.12-4.12h-6.69c-2.27 0-4.13 1.84-4.13 4.12 0 2.27 1.86 4.12 4.13 4.12h6.69c6.52 0 11.82 5.31 11.82 11.83s-5.3 11.83-11.82 11.83" fill="inherit"/>
  <path d="m258.06 119.57c-2.13 0-3.85-1.73-3.85-3.86v-7.37c0-2.13 1.72-3.85 3.85-3.85s3.85 1.72 3.85 3.85v7.37c0 2.13-1.72 3.86-3.85 3.86" fill="inherit"/>
  <path d="m258.06 158.84c-2.13 0-3.85-1.72-3.85-3.85v-7.37c0-2.13 1.72-3.85 3.85-3.85s3.85 1.72 3.85 3.85v7.37c0 2.13-1.72 3.85-3.85 3.85" fill="inherit"/>
  <path d="m293.04 220.38c-0.47 0-0.95-0.09-1.42-0.27-32.41-12.85-61.33-0.2-61.61-0.07-1.94 0.86-4.22 0-5.09-1.93-0.87-1.94-0.02-4.22 1.92-5.09 1.29-0.59 32.07-14.16 67.62-0.08 1.98 0.79 2.94 3.02 2.16 5-0.6 1.51-2.05 2.44-3.58 2.44" fill="inherit"/>
 </g>
</svg>