<?xml version="1.0" encoding="UTF-8" standalone="no"?><svg xmlns="http://www.w3.org/2000/svg" xmlns:xlink="http://www.w3.org/1999/xlink" fill="#000000" height="112" preserveAspectRatio="xMidYMid meet" version="1" viewBox="38.5 44.0 122.8 112.0" width="122.8" zoomAndPan="magnify"><g fill="#105f7c" id="change1_1"><path d="M 144.855469 60.40625 C 134.277344 49.828125 120.21875 44.003906 105.261719 44.003906 L 105.28125 54.445312 C 130.394531 54.421875 150.839844 74.867188 150.839844 100 C 150.839844 125.132812 130.394531 145.578125 105.261719 145.578125 C 82.335938 145.578125 62.433594 127.714844 59.953125 104.910156 L 59.515625 100.890625 L 70.414062 100.890625 C 71.121094 100.890625 71.511719 100.0625 71.058594 99.519531 L 55.625 80.875 C 55.289062 80.472656 54.675781 80.46875 54.339844 80.871094 C 51.777344 83.976562 42.234375 95.550781 38.9375 99.554688 C 38.484375 100.101562 38.882812 100.917969 39.589844 100.914062 L 45.808594 100.890625 L 49.175781 100.890625 L 49.425781 104.246094 C 50.421875 117.5625 56.1875 130.117188 65.664062 139.59375 C 76.242188 150.171875 90.304688 155.996094 105.261719 155.996094 C 120.21875 155.996094 134.277344 150.171875 144.855469 139.59375 C 155.433594 129.019531 161.257812 114.957031 161.257812 100 C 161.257812 85.046875 155.433594 70.980469 144.855469 60.40625" fill="inherit"/><path d="M 107.195312 114.363281 L 107.195312 111.394531 C 109.734375 110.621094 111.347656 108.5625 111.347656 106.039062 C 111.347656 103.339844 109.875 101.535156 106.578125 100.191406 C 104.195312 99.203125 104.015625 98.777344 104.015625 98.234375 C 104.015625 97.515625 104.621094 97.101562 105.679688 97.101562 C 107.121094 97.101562 108 97.601562 108.429688 97.84375 L 109.570312 98.5 L 111.03125 94.644531 L 110.214844 94.164062 C 109.351562 93.660156 108.410156 93.339844 107.355469 93.1875 L 107.355469 90.542969 L 103.476562 90.542969 L 103.476562 93.429688 C 101.050781 94.171875 99.507812 96.136719 99.507812 98.550781 C 99.507812 101.734375 102.058594 103.164062 104.546875 104.140625 C 106.425781 104.898438 106.8125 105.523438 106.8125 106.222656 C 106.8125 107.101562 106.027344 107.671875 104.8125 107.671875 C 103.699219 107.671875 102.546875 107.332031 101.648438 106.730469 L 100.453125 105.9375 L 99.050781 109.847656 L 99.742188 110.34375 C 100.628906 110.976562 101.925781 111.4375 103.292969 111.625 L 103.292969 114.363281 L 107.195312 114.363281" fill="inherit"/><path d="M 85.832031 118.988281 C 85.832031 118.019531 86.320312 117.121094 87.136719 116.589844 L 89.097656 115.328125 L 89.089844 102.539062 C 89.089844 99.703125 90.210938 96.234375 92.25 92.773438 C 93.769531 90.195312 95.710938 87.78125 97.71875 85.980469 C 97.835938 85.875 97.953125 85.769531 98.070312 85.671875 L 103.398438 85.671875 C 104.917969 85.671875 106.210938 84.5625 106.398438 83.089844 C 106.511719 82.238281 106.25 81.386719 105.6875 80.746094 C 105.121094 80.101562 104.308594 79.734375 103.453125 79.734375 L 100.085938 79.734375 C 99.820312 77.472656 99.742188 74.863281 99.722656 73.171875 L 110.800781 73.171875 C 110.773438 74.972656 110.675781 78.328125 110.28125 80.921875 L 110.230469 82.914062 C 110.214844 83.648438 110.488281 84.339844 111.003906 84.859375 C 111.382812 85.25 111.859375 85.507812 112.386719 85.613281 C 112.523438 85.730469 112.65625 85.851562 112.792969 85.972656 C 114.808594 87.78125 116.75 90.195312 118.265625 92.773438 C 120.308594 96.234375 121.433594 99.699219 121.433594 102.535156 L 121.421875 115.328125 L 123.378906 116.585938 C 124.199219 117.121094 124.691406 118.019531 124.691406 118.988281 L 124.691406 119.234375 L 105.132812 119.21875 L 85.832031 119.234375 Z M 82.464844 125.175781 L 103.824219 125.175781 C 103.9375 125.175781 104.039062 125.167969 104.074219 125.160156 C 104.203125 125.15625 104.371094 125.160156 105.132812 125.15625 L 105.382812 125.15625 C 106.113281 125.15625 106.296875 125.15625 106.375 125.152344 C 106.480469 125.167969 106.585938 125.175781 106.691406 125.175781 L 128.050781 125.175781 C 129.472656 125.175781 130.625 124.019531 130.625 122.601562 L 130.625 118.988281 C 130.625 116.347656 129.410156 113.8125 127.363281 112.152344 L 127.367188 102.539062 C 127.367188 98.65625 125.953125 94.117188 123.382812 89.761719 C 121.425781 86.429688 118.902344 83.367188 116.25 81.105469 C 116.894531 76.824219 117.019531 74.519531 116.585938 69.164062 L 116.5 67.5625 L 94.015625 67.5625 L 93.933594 69.125 C 93.496094 74.519531 93.621094 76.824219 94.265625 81.105469 C 91.613281 83.375 89.089844 86.433594 87.132812 89.761719 C 84.5625 94.125 83.148438 98.664062 83.148438 102.539062 L 83.15625 112.148438 C 81.105469 113.8125 79.890625 116.347656 79.890625 118.988281 L 79.890625 122.601562 C 79.890625 124.019531 81.042969 125.175781 82.464844 125.175781" fill="inherit"/></g></svg>