<?xml version="1.0" encoding="UTF-8" standalone="no"?><svg xmlns="http://www.w3.org/2000/svg" xmlns:xlink="http://www.w3.org/1999/xlink" fill="#105f7c" height="464" preserveAspectRatio="xMidYMid meet" version="1" viewBox="15.7 24.0 472.3 464.0" width="472.3" zoomAndPan="magnify"><g id="change1_1"><path d="M24,366.7v68.9c0,6.9-1.6,13.7-4.7,19.9l-2.5,4.9c-1.1,2.3-1.1,4.9,0,7.2l8,16c1.4,2.7,4.1,4.4,7.2,4.4h192h248 c4.4,0,8-3.6,8-8V136c5.2-6.9,8-15.2,8-24s-2.8-17.1-8-24V32c0-4.4-3.6-8-8-8H144c-4.4,0-8,3.6-8,8v208h-16c-2.4,0-4.7,1.1-6.2,2.9 c-1.2,1.4-1.8,3.2-1.8,5.1H96c-2.5,0-4.8,1.1-6.3,3.1s-2.1,4.5-1.5,6.9l5.9,23.7C54.2,289.4,24,324.6,24,366.7z M224,330.4V320h32 v88h-24v-41.3C232,353.8,229.1,341.5,224,330.4z M472,112c0,6.4-2.5,12.4-7,17c-4.5,4.5-10.6,7-17,7s-12.4-2.5-17-7 c-4.5-4.5-7-10.6-7-17s2.5-12.4,7-17c0,0,0,0,0,0c4.5-4.5,10.6-7,17-7s12.4,2.5,17,7C469.5,99.6,472,105.6,472,112z M152,40h312 v35.3c-5-2.2-10.4-3.3-16-3.3c-10.7,0-20.7,4.2-28.3,11.7c-7.6,7.6-11.7,17.6-11.7,28.3s4.2,20.7,11.7,28.3 c7.6,7.6,17.6,11.7,28.3,11.7c5.6,0,11-1.2,16-3.3V472H236.9l2.2-4.4c1.1-2.3,1.1-4.9,0-7.2l-2.5-4.9c-3.1-6.1-4.7-13-4.7-19.9V424 h208c4.4,0,8-3.6,8-8s-3.6-8-8-8h-8V248c0-4.4-3.6-8-8-8h-48c-4.4,0-8,3.6-8,8v160h-16V280c0-4.4-3.6-8-8-8h-48c-4.4,0-8,3.6-8,8 v128h-16v-96c0-4.4-3.6-8-8-8h-48c-3,0-5.6,1.6-6.9,4c-13-14.2-30.7-24-50.6-27l16.5-29c1.4-2.5,1.4-5.5,0-8s-4.1-4-6.9-4h-16V40z M304,408V288h32v120H304z M384,408V256h32v152H384z M154.2,256l-13.6,24h-6l-4.8-24H154.2z M115,264l3.2,16h-7.5 c-0.2,0-0.3,0-0.5,0l-4-16H115z M110.7,296h34.5c39,0,70.7,31.7,70.7,70.7v68.9c0,9.3,2.2,18.7,6.4,27l0.7,1.4l-4,8H36.9l-4-8 l0.7-1.4c4.2-8.3,6.4-17.7,6.4-27v-68.9C40,327.7,71.7,296,110.7,296z" fill="inherit"/></g><g id="change1_2"><path d="M106.2,435.1c4.3,2.9,9,4.8,13.8,5.8v7.1c0,4.4,3.6,8,8,8s8-3.6,8-8v-7.1c4.8-1,9.5-2.9,13.8-5.8 c6.4-4.3,10.2-11.4,10.2-19.1s-3.8-14.8-10.2-19.1l-34.7-23.1c-1.9-1.3-3.1-3.5-3.1-5.8s1.2-4.5,3.1-5.8c7.8-5.2,18-5.2,25.8,0 c1.9,1.3,3.1,3.5,3.1,5.8v8c0,4.4,3.6,8,8,8s8-3.6,8-8v-8c0-7.7-3.8-14.8-10.2-19.1c-4.3-2.9-9-4.8-13.8-5.8V336c0-4.4-3.6-8-8-8 s-8,3.6-8,8v7.1c-4.8,1-9.5,2.9-13.8,5.8C99.8,353.2,96,360.3,96,368s3.8,14.8,10.2,19.1l34.7,23.1c1.9,1.3,3.1,3.5,3.1,5.8 s-1.2,4.5-3.1,5.8c-7.8,5.2-18,5.2-25.8,0c-1.9-1.3-3.1-3.5-3.1-5.8v-8c0-4.4-3.6-8-8-8s-8,3.6-8,8v8 C96,423.7,99.8,430.8,106.2,435.1z" fill="inherit"/></g><g id="change1_3"><path d="M192,128h32c4.4,0,8-3.6,8-8s-3.6-8-8-8h-32c-4.4,0-8,3.6-8,8S187.6,128,192,128z" fill="inherit"/></g><g id="change1_4"><path d="M192,160h48c4.4,0,8-3.6,8-8s-3.6-8-8-8h-48c-4.4,0-8,3.6-8,8S187.6,160,192,160z" fill="inherit"/></g><g id="change1_5"><path d="M192,192h16c4.4,0,8-3.6,8-8s-3.6-8-8-8h-16c-4.4,0-8,3.6-8,8S187.6,192,192,192z" fill="inherit"/></g><g id="change1_6"><path d="M400,152h-32c-4.4,0-8,3.6-8,8s3.6,8,8,8h14.6l-34.3,40H288c-2.9,0-5.5,1.5-6.9,4l-29.7,52H208c-4.4,0-8,3.6-8,8s3.6,8,8,8 h48c2.9,0,5.5-1.5,6.9-4l29.7-52H352c2.3,0,4.6-1,6.1-2.8l33.9-39.6V192c0,4.4,3.6,8,8,8s8-3.6,8-8v-32C408,155.6,404.4,152,400,152 z" fill="inherit"/></g></svg>