<?xml version="1.0" encoding="UTF-8" standalone="no"?><svg xmlns="http://www.w3.org/2000/svg" xmlns:xlink="http://www.w3.org/1999/xlink" fill="#105f7c" height="62" preserveAspectRatio="xMidYMid meet" version="1" viewBox="0.0 0.0 62.0 62.0" width="62" zoomAndPan="magnify"><g id="change1_1"><path d="M 26 10 C 26.550781 10 27 10.449219 27 11 L 29 11 C 29 9.699219 28.160156 8.597656 27 8.183594 L 27 7 L 25 7 L 25 8.183594 C 23.839844 8.597656 23 9.699219 23 11 C 23 12.65625 24.34375 14 26 14 C 26.550781 14 27 14.449219 27 15 C 27 15.550781 26.550781 16 26 16 C 25.449219 16 25 15.550781 25 15 L 23 15 C 23 16.300781 23.839844 17.402344 25 17.816406 L 25 19 L 27 19 L 27 17.816406 C 28.160156 17.402344 29 16.300781 29 15 C 29 13.34375 27.65625 12 26 12 C 25.449219 12 25 11.550781 25 11 C 25 10.449219 25.449219 10 26 10" fill="inherit"/><path d="M 26 6 C 29.859375 6 33 9.140625 33 13 C 33 14.5625 32.488281 16.042969 31.523438 17.285156 L 33.105469 18.515625 C 34.34375 16.917969 35 15.011719 35 13 C 35 8.035156 30.964844 4 26 4 C 23.988281 4 22.082031 4.65625 20.484375 5.894531 L 21.714844 7.476562 C 22.957031 6.511719 24.4375 6 26 6" fill="inherit"/><path d="M 26 22 C 28.011719 22 29.917969 21.34375 31.515625 20.105469 L 30.285156 18.523438 C 29.042969 19.488281 27.5625 20 26 20 C 22.140625 20 19 16.859375 19 13 C 19 11.4375 19.511719 9.957031 20.476562 8.714844 L 18.894531 7.484375 C 17.65625 9.082031 17 10.988281 17 13 C 17 17.964844 21.035156 22 26 22" fill="inherit"/><path d="M 48 32 L 48 48 L 46 48 L 46 32 Z M 14 46 L 16 46 L 16 48 L 14 48 Z M 22 42 L 24 42 L 24 48 L 22 48 Z M 30 40 L 32 40 L 32 48 L 30 48 Z M 38 36 L 40 36 L 40 48 L 38 48 Z M 44 48 L 42 48 L 42 34 L 36 34 L 36 48 L 34 48 L 34 38 L 28 38 L 28 48 L 26 48 L 26 40 L 20 40 L 20 48 L 18 48 L 18 44 L 12 44 L 12 48 L 10 48 L 10 50 L 52 50 L 52 48 L 50 48 L 50 30 L 44 30 L 44 48" fill="inherit"/><path d="M 50 26 L 48 26 L 48 28 L 50 28 L 50 26" fill="inherit"/><path d="M 50 22 L 48 22 L 48 24 L 50 24 L 50 22" fill="inherit"/><path d="M 60 57 C 60 58.65625 58.65625 60 57 60 L 5 60 C 3.34375 60 2 58.65625 2 57 L 2 54 L 22 54 L 22 55 C 22 56.65625 23.34375 58 25 58 L 37 58 C 38.65625 58 40 56.65625 40 55 L 40 54 L 60 54 Z M 4 19 C 4 17.34375 5.34375 16 7 16 L 13.363281 16 C 13.527344 16.6875 13.734375 17.359375 14.003906 18 L 8 18 C 6.898438 18 6 18.898438 6 20 L 6 52 L 4 52 Z M 26 2 C 32.066406 2 37 6.933594 37 13 C 37 19.066406 32.066406 24 26 24 C 19.933594 24 15 19.066406 15 13 C 15 6.933594 19.933594 2 26 2 Z M 44 16 L 44 18 L 37.996094 18 C 38.265625 17.359375 38.472656 16.6875 38.636719 16 Z M 24 54 L 38 54 L 38 55 C 38 55.550781 37.550781 56 37 56 L 25 56 C 24.449219 56 24 55.550781 24 55 Z M 47 7.601562 L 48.917969 10 L 48 10 L 48 20 L 54 20 L 54 52 L 8 52 L 8 20 L 15.0625 20 C 17.378906 23.601562 21.410156 26 26 26 C 30.589844 26 34.621094 23.601562 36.9375 20 L 44 20 L 44 28 L 46 28 L 46 10 L 45.082031 10 Z M 55 16 C 56.65625 16 58 17.34375 58 19 L 58 52 L 56 52 L 56 20 C 56 18.898438 55.101562 18 54 18 L 50 18 L 50 16 Z M 60 52 L 60 19 C 60 16.242188 57.757812 14 55 14 L 50 14 L 50 12 L 53.082031 12 L 47 4.398438 L 40.917969 12 L 44 12 L 44 14 L 38.949219 14 C 38.972656 13.667969 39 13.339844 39 13 C 39 5.832031 33.167969 0 26 0 C 18.832031 0 13 5.832031 13 13 C 13 13.339844 13.027344 13.667969 13.050781 14 L 7 14 C 4.242188 14 2 16.242188 2 19 L 2 52 L 0 52 L 0 57 C 0 59.757812 2.242188 62 5 62 L 57 62 C 59.757812 62 62 59.757812 62 57 L 62 52 L 60 52" fill="inherit"/></g></svg>