<?xml version="1.0" encoding="UTF-8" standalone="no"?><svg xmlns="http://www.w3.org/2000/svg" xmlns:xlink="http://www.w3.org/1999/xlink" fill="#105f7c" height="62" preserveAspectRatio="xMidYMid meet" version="1" viewBox="5.2 1.0 53.6 62.0" width="53.6" zoomAndPan="magnify"><g><g id="change1_1"><path d="M44.6,31.7V27c0-1.1-0.9-2-2-2h-6.8c3-2.5,4.9-6.2,4.9-10.4C40.7,7.1,34.5,1,27,1c-7.5,0-13.7,6.1-13.7,13.7 c0,4.2,1.9,7.9,4.9,10.4h-6.6c-1.1,0-2,0.9-2,2v6.7H7.2c-1.1,0-2,0.9-2,2v6.8c0,1.1,0.9,2,2,2h2.4v6.7H7.2c-1.1,0-2,0.9-2,2v6.8 c0,1.1,0.9,2,2,2h30.1C39,62.6,41,63,43.1,63c8.7,0,15.7-7,15.7-15.7C58.8,39.2,52.5,32.5,44.6,31.7z M15.3,14.7 C15.3,8.2,20.5,3,27,3c6.4,0,11.7,5.2,11.7,11.7c0,6.4-5.2,11.7-11.7,11.7C20.5,26.3,15.3,21.1,15.3,14.7z M11.6,27.1h9.7 c1.7,0.8,3.6,1.2,5.7,1.2c2,0,3.9-0.4,5.7-1.2l10,0v4.6c-1.6,0.1-3.2,0.3-4.6,0.9v-2.3c0-0.6-0.4-1-1-1s-1,0.4-1,1v3.1 c-0.2,0.1-0.5,0.3-0.7,0.4H18v-3.5c0-0.6-0.4-1-1-1s-1,0.4-1,1v3.5h-4.4L11.6,27.1z M7.2,35.8h14.5v3.3c0,0.6,0.4,1,1,1s1-0.4,1-1 v-3.3h8.8c-2,1.8-3.5,4.1-4.3,6.7l-14.4,0v-3.6c0-0.6-0.4-1-1-1s-1,0.4-1,1v3.6c0,0-0.1,0-0.1,0c-0.1,0-0.2,0-0.3,0l-4.1,0 L7.2,35.8z M11.6,44.5h16.1c-0.2,0.9-0.3,1.9-0.3,2.9c0,1.3,0.2,2.6,0.5,3.8H18v-3.5c0-0.6-0.4-1-1-1s-1,0.4-1,1v3.5h-4.4 L11.6,44.5z M13.7,59.9v-3.6c0-0.6-0.4-1-1-1s-1,0.4-1,1v3.6l-4.5,0l0-6.7h14.5v3.3c0,0.6,0.4,1,1,1s1-0.4,1-1v-3.3h4.8 c1.1,2.7,2.9,5,5.2,6.7L13.7,59.9z M43.1,61c-7.6,0-13.7-6.1-13.7-13.7c0-7.5,6.2-13.7,13.7-13.7c7.6,0,13.7,6.1,13.7,13.7 C56.8,54.9,50.6,61,43.1,61z"/><path d="M48.5,41.7c-0.4-0.4-1-0.4-1.4,0.1l-9.8,10.6c-0.4,0.4-0.3,1,0.1,1.4c0.2,0.2,0.4,0.3,0.7,0.3c0.3,0,0.5-0.1,0.7-0.3 l9.8-10.6C48.9,42.7,48.9,42.1,48.5,41.7z"/><path d="M41.1,43.5c0-1.6-1.3-2.9-2.9-2.9s-2.9,1.3-2.9,2.9s1.3,2.9,2.9,2.9S41.1,45.1,41.1,43.5z M37.3,43.5 c0-0.5,0.4-0.9,0.9-0.9s0.9,0.4,0.9,0.9s-0.4,0.9-0.9,0.9S37.3,44,37.3,43.5z"/><path d="M48,48.2c-1.6,0-2.9,1.3-2.9,2.9s1.3,2.9,2.9,2.9s2.9-1.3,2.9-2.9S49.6,48.2,48,48.2z M48,52.1c-0.5,0-0.9-0.4-0.9-0.9 s0.4-0.9,0.9-0.9s0.9,0.4,0.9,0.9S48.5,52.1,48,52.1z"/><path d="M26,21v1c0,0.6,0.4,1,1,1s1-0.4,1-1v-1c0.9-0.2,1.6-0.5,2.1-1.1c0.6-0.6,1-1.4,1-2.4c0-1.3-0.5-3.5-4-4 c-1.8-0.3-2.1-1.1-2-2.1c0.2-1,1.3-1.5,2.2-1.4c0.3,0,1.5,0.2,1.5,1.3c0,0.5,0.5,1,1,1c0,0,0,0,0,0c0.6,0,1-0.5,1-1 c0-1.6-1.1-2.8-2.8-3.1V7.3c0-0.6-0.4-1-1-1s-1,0.4-1,1v1c-1.4,0.4-2.6,1.3-2.9,3c-0.1,1.3,0.1,3.7,3.7,4.3c2,0.3,2.3,1.2,2.3,2 c0,0.4-0.1,0.7-0.4,1c-0.4,0.4-1,0.6-1.8,0.6c0,0,0,0,0,0c-1.3,0-2-0.7-2.1-1.9c0-0.6-0.5-1-1.1-0.9c-0.6,0-1,0.5-0.9,1.1 C22.9,19.3,24.2,20.7,26,21z"/></g></g></svg>